<svg width="14" height="14" viewBox="0 0 14 14" fill="none" xmlns="http://www.w3.org/2000/svg">
<path d="M13.5333 4.2C13.79 4.2 14 3.99 14 3.73333C14 3.47667 13.79 3.26667 13.5333 3.26667H12.5557C12.3737 2.34967 11.6503 1.62633 10.7333 1.44433V0.466667C10.7333 0.21 10.5233 0 10.2667 0C10.01 0 9.8 0.21 9.8 0.466667V1.4H9.1V0.466667C9.1 0.21 8.89 0 8.63333 0C8.37667 0 8.16667 0.21 8.16667 0.466667V1.4H7.46667V0.466667C7.46667 0.21 7.25667 0 7 0C6.74333 0 6.53333 0.21 6.53333 0.466667V1.4H5.83333V0.466667C5.83333 0.21 5.62333 0 5.36667 0C5.11 0 4.9 0.21 4.9 0.466667V1.4H4.2V0.466667C4.2 0.21 3.99 0 3.73333 0C3.47667 0 3.26667 0.21 3.26667 0.466667V1.44433C2.34967 1.62633 1.62633 2.34967 1.44433 3.26667H0.466667C0.21 3.26667 0 3.47667 0 3.73333C0 3.99 0.21 4.2 0.466667 4.2H1.4V4.9H0.466667C0.21 4.9 0 5.11 0 5.36667C0 5.62333 0.21 5.83333 0.466667 5.83333H1.4V6.53333H0.466667C0.21 6.53333 0 6.74333 0 7C0 7.25667 0.21 7.46667 0.466667 7.46667H1.4V8.16667H0.466667C0.21 8.16667 0 8.37667 0 8.63333C0 8.89 0.21 9.1 0.466667 9.1H1.4V9.8H0.466667C0.21 9.8 0 10.01 0 10.2667C0 10.5233 0.21 10.7333 0.466667 10.7333H1.44433C1.62633 11.6503 2.34967 12.3737 3.26667 12.5557V13.5333C3.26667 13.79 3.47667 14 3.73333 14C3.99 14 4.2 13.79 4.2 13.5333V12.6H4.9V13.5333C4.9 13.79 5.11 14 5.36667 14C5.62333 14 5.83333 13.79 5.83333 13.5333V12.6H6.53333V13.5333C6.53333 13.79 6.74333 14 7 14C7.25667 14 7.46667 13.79 7.46667 13.5333V12.6H8.16667V13.5333C8.16667 13.79 8.37667 14 8.63333 14C8.89 14 9.1 13.79 9.1 13.5333V12.6H9.8V13.5333C9.8 13.79 10.01 14 10.2667 14C10.5233 14 10.7333 13.79 10.7333 13.5333V12.5557C11.6503 12.3737 12.3737 11.6503 12.5557 10.7333H13.5333C13.79 10.7333 14 10.5233 14 10.2667C14 10.01 13.79 9.8 13.5333 9.8H12.6V9.1H13.5333C13.79 9.1 14 8.89 14 8.63333C14 8.37667 13.79 8.16667 13.5333 8.16667H12.6V7.46667H13.5333C13.79 7.46667 14 7.25667 14 7C14 6.74333 13.79 6.53333 13.5333 6.53333H12.6V5.83333H13.5333C13.79 5.83333 14 5.62333 14 5.36667C14 5.11 13.79 4.9 13.5333 4.9H12.6V4.2H13.5333ZM11.6667 10.283C11.6667 11.046 11.046 11.6667 10.283 11.6667H3.717C2.954 11.6667 2.33333 11.046 2.33333 10.283V3.717C2.33333 2.954 2.954 2.33333 3.717 2.33333H10.2853C11.0483 2.33333 11.669 2.954 11.669 3.717V10.283H11.6667Z" fill="white"/>
<path d="M6.91833 5.38783C6.88566 5.28983 6.81799 5.24316 6.71766 5.24316H5.93366C5.83333 5.24316 5.76566 5.29216 5.73299 5.38783L4.56399 8.6055C4.56166 8.61483 4.55933 8.63116 4.55933 8.64983C4.55933 8.6755 4.57099 8.70116 4.59199 8.72216C4.61299 8.74316 4.63866 8.75483 4.66433 8.75483H5.31766C5.39699 8.75483 5.45533 8.7175 5.48799 8.64516L5.66766 8.1575H6.98366L7.16333 8.64516C7.19599 8.71983 7.25433 8.75483 7.33366 8.75483H7.98699C8.01266 8.75483 8.03833 8.74316 8.05933 8.72216C8.08033 8.70116 8.09199 8.6755 8.09199 8.64983C8.09199 8.62883 8.08966 8.61483 8.08733 8.6055L6.91833 5.38783ZM5.87766 7.40616L6.32333 6.12516L6.76899 7.40616H5.87766Z" fill="white"/>
<path d="M9.31702 5.24316H8.59835C8.56568 5.24316 8.53535 5.25483 8.50968 5.27816C8.48402 5.3015 8.47235 5.33183 8.47235 5.36916V8.63116C8.47235 8.66383 8.48402 8.69416 8.50968 8.71983C8.53535 8.7455 8.56335 8.75716 8.59835 8.75716H9.31702C9.35435 8.75716 9.38468 8.7455 9.40802 8.71983C9.43135 8.69416 9.44302 8.66616 9.44302 8.63116V5.36916C9.44302 5.33183 9.43135 5.3015 9.40802 5.27816C9.38235 5.25483 9.35202 5.24316 9.31702 5.24316Z" fill="white"/>
</svg>
