<svg width="92" height="22" viewBox="0 0 92 22" fill="none" xmlns="http://www.w3.org/2000/svg">
<path d="M32.916 14.012H28.842L28.142 16H26.476L29.962 6.256H31.81L35.296 16H33.616L32.916 14.012ZM32.468 12.71L30.886 8.188L29.29 12.71H32.468ZM38.4077 6.27V16H36.8117V6.27H38.4077ZM46.4251 10.26V11.604H40.6711V10.26H46.4251ZM53.9006 11.002C54.4232 11.0953 54.8666 11.3707 55.2306 11.828C55.5946 12.2853 55.7766 12.8033 55.7766 13.382C55.7766 13.8767 55.6459 14.3247 55.3846 14.726C55.1326 15.118 54.7639 15.4307 54.2786 15.664C53.7932 15.888 53.2286 16 52.5846 16H48.6926V6.27H52.4026C53.0652 6.27 53.6346 6.382 54.1106 6.606C54.5866 6.83 54.9459 7.13333 55.1886 7.516C55.4312 7.88933 55.5526 8.30933 55.5526 8.776C55.5526 9.336 55.4032 9.80267 55.1046 10.176C54.8059 10.5493 54.4046 10.8247 53.9006 11.002ZM50.2886 10.358H52.2626C52.7852 10.358 53.1912 10.2413 53.4806 10.008C53.7792 9.76533 53.9286 9.42 53.9286 8.972C53.9286 8.53333 53.7792 8.19267 53.4806 7.95C53.1912 7.698 52.7852 7.572 52.2626 7.572H50.2886V10.358ZM52.4446 14.698C52.9859 14.698 53.4106 14.5673 53.7186 14.306C54.0266 14.0447 54.1806 13.6807 54.1806 13.214C54.1806 12.738 54.0172 12.36 53.6906 12.08C53.3639 11.8 52.9299 11.66 52.3886 11.66H50.2886V14.698H52.4446ZM56.9789 12.108C56.9789 11.3333 57.1376 10.6473 57.4549 10.05C57.7816 9.45267 58.2203 8.99067 58.7709 8.664C59.3309 8.328 59.9469 8.16 60.6189 8.16C61.2256 8.16 61.7529 8.28133 62.2009 8.524C62.6583 8.75733 63.0223 9.05133 63.2929 9.406V8.286H64.9029V16H63.2929V14.852C63.0223 15.216 62.6536 15.5193 62.1869 15.762C61.7203 16.0047 61.1883 16.126 60.5909 16.126C59.9283 16.126 59.3216 15.958 58.7709 15.622C58.2203 15.2767 57.7816 14.8007 57.4549 14.194C57.1376 13.578 56.9789 12.8827 56.9789 12.108ZM63.2929 12.136C63.2929 11.604 63.1809 11.142 62.9569 10.75C62.7423 10.358 62.4576 10.0593 62.1029 9.854C61.7483 9.64867 61.3656 9.546 60.9549 9.546C60.5443 9.546 60.1616 9.64867 59.8069 9.854C59.4523 10.05 59.1629 10.344 58.9389 10.736C58.7243 11.1187 58.6169 11.576 58.6169 12.108C58.6169 12.64 58.7243 13.1067 58.9389 13.508C59.1629 13.9093 59.4523 14.2173 59.8069 14.432C60.1709 14.6373 60.5536 14.74 60.9549 14.74C61.3656 14.74 61.7483 14.6373 62.1029 14.432C62.4576 14.2267 62.7423 13.928 62.9569 13.536C63.1809 13.1347 63.2929 12.668 63.2929 12.136ZM69.7992 16.126C69.1926 16.126 68.6466 16.0187 68.1612 15.804C67.6852 15.58 67.3072 15.2813 67.0272 14.908C66.7472 14.5253 66.5979 14.1007 66.5792 13.634H68.2312C68.2592 13.9607 68.4132 14.236 68.6932 14.46C68.9826 14.6747 69.3419 14.782 69.7712 14.782C70.2192 14.782 70.5646 14.698 70.8072 14.53C71.0592 14.3527 71.1852 14.1287 71.1852 13.858C71.1852 13.5687 71.0452 13.354 70.7652 13.214C70.4946 13.074 70.0606 12.92 69.4632 12.752C68.8846 12.5933 68.4132 12.4393 68.0492 12.29C67.6852 12.1407 67.3679 11.912 67.0972 11.604C66.8359 11.296 66.7052 10.89 66.7052 10.386C66.7052 9.97533 66.8266 9.602 67.0692 9.266C67.3119 8.92067 67.6572 8.65 68.1052 8.454C68.5626 8.258 69.0852 8.16 69.6732 8.16C70.5506 8.16 71.2552 8.384 71.7872 8.832C72.3286 9.27067 72.6179 9.87267 72.6552 10.638H71.0592C71.0312 10.2927 70.8912 10.0173 70.6392 9.812C70.3872 9.60667 70.0466 9.504 69.6172 9.504C69.1972 9.504 68.8752 9.58333 68.6512 9.742C68.4272 9.90067 68.3152 10.1107 68.3152 10.372C68.3152 10.5773 68.3899 10.75 68.5392 10.89C68.6886 11.03 68.8706 11.142 69.0852 11.226C69.2999 11.3007 69.6172 11.3987 70.0372 11.52C70.5972 11.6693 71.0546 11.8233 71.4092 11.982C71.7732 12.1313 72.0859 12.3553 72.3472 12.654C72.6086 12.9527 72.7439 13.3493 72.7532 13.844C72.7532 14.2827 72.6319 14.6747 72.3892 15.02C72.1466 15.3653 71.8012 15.636 71.3532 15.832C70.9146 16.028 70.3966 16.126 69.7992 16.126ZM81.5477 11.954C81.5477 12.2433 81.5291 12.5047 81.4917 12.738H75.5977C75.6444 13.354 75.8731 13.8487 76.2837 14.222C76.6944 14.5953 77.1984 14.782 77.7957 14.782C78.6544 14.782 79.2611 14.4227 79.6157 13.704H81.3377C81.1044 14.4133 80.6797 14.9967 80.0637 15.454C79.4571 15.902 78.7011 16.126 77.7957 16.126C77.0584 16.126 76.3957 15.9627 75.8077 15.636C75.2291 15.3 74.7717 14.8333 74.4357 14.236C74.1091 13.6293 73.9457 12.9293 73.9457 12.136C73.9457 11.3427 74.1044 10.6473 74.4217 10.05C74.7484 9.44333 75.2011 8.97667 75.7797 8.65C76.3677 8.32333 77.0397 8.16 77.7957 8.16C78.5237 8.16 79.1724 8.31867 79.7417 8.636C80.3111 8.95333 80.7544 9.40133 81.0717 9.98C81.3891 10.5493 81.5477 11.2073 81.5477 11.954ZM79.8817 11.45C79.8724 10.862 79.6624 10.3907 79.2517 10.036C78.8411 9.68133 78.3324 9.504 77.7257 9.504C77.1751 9.504 76.7037 9.68133 76.3117 10.036C75.9197 10.3813 75.6864 10.8527 75.6117 11.45H79.8817ZM82.5864 12.108C82.5864 11.3333 82.745 10.6473 83.0624 10.05C83.389 9.45267 83.8277 8.99067 84.3784 8.664C84.9384 8.328 85.559 8.16 86.2404 8.16C86.7444 8.16 87.239 8.272 87.7244 8.496C88.219 8.71067 88.611 9 88.9004 9.364V5.64H90.5104V16H88.9004V14.838C88.639 15.2113 88.275 15.5193 87.8084 15.762C87.351 16.0047 86.8237 16.126 86.2264 16.126C85.5544 16.126 84.9384 15.958 84.3784 15.622C83.8277 15.2767 83.389 14.8007 83.0624 14.194C82.745 13.578 82.5864 12.8827 82.5864 12.108ZM88.9004 12.136C88.9004 11.604 88.7884 11.142 88.5644 10.75C88.3497 10.358 88.065 10.0593 87.7104 9.854C87.3557 9.64867 86.973 9.546 86.5624 9.546C86.1517 9.546 85.769 9.64867 85.4144 9.854C85.0597 10.05 84.7704 10.344 84.5464 10.736C84.3317 11.1187 84.2244 11.576 84.2244 12.108C84.2244 12.64 84.3317 13.1067 84.5464 13.508C84.7704 13.9093 85.0597 14.2173 85.4144 14.432C85.7784 14.6373 86.161 14.74 86.5624 14.74C86.973 14.74 87.3557 14.6373 87.7104 14.432C88.065 14.2267 88.3497 13.928 88.5644 13.536C88.7884 13.1347 88.9004 12.668 88.9004 12.136Z" fill="white"/>
<path d="M13.5333 8.2C13.79 8.2 14 7.99 14 7.73333C14 7.47667 13.79 7.26667 13.5333 7.26667H12.5557C12.3737 6.34967 11.6503 5.62633 10.7333 5.44433V4.46667C10.7333 4.21 10.5233 4 10.2667 4C10.01 4 9.8 4.21 9.8 4.46667V5.4H9.1V4.46667C9.1 4.21 8.89 4 8.63333 4C8.37667 4 8.16667 4.21 8.16667 4.46667V5.4H7.46667V4.46667C7.46667 4.21 7.25667 4 7 4C6.74333 4 6.53333 4.21 6.53333 4.46667V5.4H5.83333V4.46667C5.83333 4.21 5.62333 4 5.36667 4C5.11 4 4.9 4.21 4.9 4.46667V5.4H4.2V4.46667C4.2 4.21 3.99 4 3.73333 4C3.47667 4 3.26667 4.21 3.26667 4.46667V5.44433C2.34967 5.62633 1.62633 6.34967 1.44433 7.26667H0.466667C0.21 7.26667 0 7.47667 0 7.73333C0 7.99 0.21 8.2 0.466667 8.2H1.4V8.9H0.466667C0.21 8.9 0 9.11 0 9.36667C0 9.62333 0.21 9.83333 0.466667 9.83333H1.4V10.5333H0.466667C0.21 10.5333 0 10.7433 0 11C0 11.2567 0.21 11.4667 0.466667 11.4667H1.4V12.1667H0.466667C0.21 12.1667 0 12.3767 0 12.6333C0 12.89 0.21 13.1 0.466667 13.1H1.4V13.8H0.466667C0.21 13.8 0 14.01 0 14.2667C0 14.5233 0.21 14.7333 0.466667 14.7333H1.44433C1.62633 15.6503 2.34967 16.3737 3.26667 16.5557V17.5333C3.26667 17.79 3.47667 18 3.73333 18C3.99 18 4.2 17.79 4.2 17.5333V16.6H4.9V17.5333C4.9 17.79 5.11 18 5.36667 18C5.62333 18 5.83333 17.79 5.83333 17.5333V16.6H6.53333V17.5333C6.53333 17.79 6.74333 18 7 18C7.25667 18 7.46667 17.79 7.46667 17.5333V16.6H8.16667V17.5333C8.16667 17.79 8.37667 18 8.63333 18C8.89 18 9.1 17.79 9.1 17.5333V16.6H9.8V17.5333C9.8 17.79 10.01 18 10.2667 18C10.5233 18 10.7333 17.79 10.7333 17.5333V16.5557C11.6503 16.3737 12.3737 15.6503 12.5557 14.7333H13.5333C13.79 14.7333 14 14.5233 14 14.2667C14 14.01 13.79 13.8 13.5333 13.8H12.6V13.1H13.5333C13.79 13.1 14 12.89 14 12.6333C14 12.3767 13.79 12.1667 13.5333 12.1667H12.6V11.4667H13.5333C13.79 11.4667 14 11.2567 14 11C14 10.7433 13.79 10.5333 13.5333 10.5333H12.6V9.83333H13.5333C13.79 9.83333 14 9.62333 14 9.36667C14 9.11 13.79 8.9 13.5333 8.9H12.6V8.2H13.5333ZM11.6667 14.283C11.6667 15.046 11.046 15.6667 10.283 15.6667H3.717C2.954 15.6667 2.33333 15.046 2.33333 14.283V7.717C2.33333 6.954 2.954 6.33333 3.717 6.33333H10.2853C11.0483 6.33333 11.669 6.954 11.669 7.717V14.283H11.6667Z" fill="white"/>
<path d="M6.91833 9.38783C6.88566 9.28983 6.81799 9.24316 6.71766 9.24316H5.93366C5.83333 9.24316 5.76566 9.29216 5.73299 9.38783L4.56399 12.6055C4.56166 12.6148 4.55933 12.6312 4.55933 12.6498C4.55933 12.6755 4.57099 12.7012 4.59199 12.7222C4.61299 12.7432 4.63866 12.7548 4.66433 12.7548H5.31766C5.39699 12.7548 5.45533 12.7175 5.48799 12.6452L5.66766 12.1575H6.98366L7.16333 12.6452C7.19599 12.7198 7.25433 12.7548 7.33366 12.7548H7.98699C8.01266 12.7548 8.03833 12.7432 8.05933 12.7222C8.08033 12.7012 8.09199 12.6755 8.09199 12.6498C8.09199 12.6288 8.08966 12.6148 8.08733 12.6055L6.91833 9.38783ZM5.87766 11.4062L6.32333 10.1252L6.76899 11.4062H5.87766Z" fill="white"/>
<path d="M9.31702 9.24316H8.59835C8.56568 9.24316 8.53535 9.25483 8.50968 9.27816C8.48402 9.3015 8.47235 9.33183 8.47235 9.36916V12.6312C8.47235 12.6638 8.48402 12.6942 8.50968 12.7198C8.53535 12.7455 8.56335 12.7572 8.59835 12.7572H9.31702C9.35435 12.7572 9.38468 12.7455 9.40802 12.7198C9.43135 12.6942 9.44302 12.6662 9.44302 12.6312V9.36916C9.44302 9.33183 9.43135 9.3015 9.40802 9.27816C9.38235 9.25483 9.35202 9.24316 9.31702 9.24316Z" fill="white"/>
</svg>
