<svg width="95" height="31" viewBox="0 0 95 31" fill="none" xmlns="http://www.w3.org/2000/svg">
<path d="M32.6855 26.2652C29.6349 28.5209 25.1981 29.7227 21.3711 29.7227C16.0099 29.7227 11.2026 27.7445 7.54217 24.4537C7.26475 24.1949 7.50491 23.844 7.85273 24.0469C11.7864 26.3398 16.6517 27.7072 21.6806 27.7072C25.3083 27.6896 28.8968 26.9547 32.2394 25.5448C32.757 25.3377 33.1824 25.8957 32.6835 26.2694L32.6855 26.2652Z" fill="black"/>
<path d="M33.9611 24.8044C33.5729 24.3055 31.3731 24.5643 30.3928 24.6937C30.0968 24.7309 30.0419 24.4721 30.3193 24.2868C32.0791 23.0446 34.9403 23.4183 35.2737 23.8251C35.607 24.232 35.1815 27.116 33.5356 28.4834C33.2768 28.6905 33.0367 28.5766 33.1474 28.2992C33.517 27.3748 34.3534 25.322 33.9611 24.8044ZM30.4487 15.5976V14.3968C30.4466 14.3574 30.4528 14.3181 30.4669 14.2813C30.481 14.2445 30.5026 14.2111 30.5304 14.1832C30.5583 14.1553 30.5916 14.1335 30.6283 14.1193C30.6651 14.1051 30.7044 14.0988 30.7437 14.1007H36.1059C36.1859 14.1006 36.2627 14.1314 36.3206 14.1865C36.3784 14.2416 36.4128 14.317 36.4165 14.3968V15.4133C36.4165 15.58 36.2685 15.8015 36.0097 16.1711L33.2364 20.1275C34.2716 20.1089 35.3627 20.2569 36.2871 20.7745C36.3691 20.8212 36.4377 20.8882 36.4862 20.969C36.5348 21.0499 36.5618 21.1419 36.5645 21.2362V22.5125C36.5645 22.6968 36.3792 22.9007 36.1763 22.79C34.5314 21.9204 32.3307 21.8283 30.5191 22.8076C30.3338 22.9007 30.1309 22.7154 30.1309 22.5312V21.3107C30.114 21.0246 30.1864 20.7403 30.338 20.4971L33.5553 15.8936H30.7603C30.6804 15.8937 30.6035 15.863 30.5457 15.8079C30.4878 15.7527 30.4535 15.6774 30.4498 15.5976H30.4487ZM10.9067 23.0488H9.28043C9.2075 23.0414 9.13901 23.0102 9.08552 22.9601C9.03202 22.91 8.99648 22.8436 8.98438 22.7713V14.4144C8.98836 14.3347 9.02283 14.2597 9.08065 14.2048C9.13846 14.1498 9.21518 14.1193 9.29493 14.1194H10.8104C10.8855 14.1204 10.9574 14.1494 11.0122 14.2007C11.0669 14.2521 11.1006 14.322 11.1065 14.3968V15.4868H11.1437C11.5319 14.433 12.2897 13.9341 13.2876 13.9341C14.3052 13.9341 14.9522 14.433 15.3952 15.4868C15.7834 14.433 16.6892 13.9341 17.6509 13.9341C18.0161 13.9267 18.3779 14.0068 18.706 14.1676C19.034 14.3284 19.319 14.5653 19.5369 14.8585C20.0545 15.5614 19.9438 16.5779 19.9438 17.4837V22.7713C19.9398 22.851 19.9053 22.926 19.8475 22.981C19.7897 23.0359 19.713 23.0665 19.6332 23.0664H18.0246C17.9478 23.0615 17.8754 23.0289 17.821 22.9746C17.7665 22.9203 17.7336 22.8481 17.7285 22.7713V18.3346C17.7285 17.9826 17.7658 17.0924 17.6923 16.7632C17.5629 16.2083 17.2109 16.0386 16.7306 16.0386C16.5184 16.0445 16.3125 16.1125 16.1385 16.2341C15.9645 16.3557 15.8299 16.5256 15.7513 16.7228C15.5846 17.1483 15.6033 17.8501 15.6033 18.3315V22.7682C15.5996 22.8481 15.5652 22.9234 15.5074 22.9785C15.4495 23.0337 15.3726 23.0644 15.2927 23.0643H13.6613C13.5846 23.059 13.5125 23.026 13.4583 22.9716C13.404 22.9172 13.3713 22.8449 13.3663 22.7682V18.3346C13.3663 17.4102 13.5143 16.023 12.3673 16.023C11.2028 16.023 11.24 17.3543 11.24 18.3346V22.7713C11.2283 22.8505 11.1879 22.9226 11.1264 22.9738C11.0649 23.025 10.9867 23.0517 10.9067 23.0488ZM41.0417 13.9341C43.464 13.9341 44.7766 16.0044 44.7766 18.6482C44.7766 21.1999 43.3335 23.233 41.0417 23.233C38.6752 23.233 37.3813 21.1627 37.3813 18.5747C37.3626 15.9682 38.6752 13.9341 41.0417 13.9341Z" fill="black"/>
<path d="M41.0415 15.6533C39.8396 15.6533 39.7661 17.2982 39.7661 18.3158C39.7661 19.3334 39.7475 21.5134 41.0228 21.5134C42.2806 21.5134 42.3541 19.7536 42.3541 18.6853C42.3541 17.9825 42.3168 17.1326 42.1139 16.467C41.9286 15.8748 41.559 15.6533 41.0415 15.6533Z" fill="white"/>
<path d="M47.9005 23.0487H46.2733C46.1964 23.0436 46.124 23.0108 46.0696 22.9564C46.0151 22.9019 45.9823 22.8295 45.9772 22.7527V14.3781C45.9873 14.3024 46.0242 14.2328 46.0811 14.1819C46.1381 14.1311 46.2114 14.1022 46.2877 14.1007H47.8105C47.8792 14.1032 47.9453 14.1279 47.9987 14.1712C48.0521 14.2146 48.09 14.2741 48.1065 14.3408V15.6162H48.1438C48.6055 14.4702 49.2349 13.934 50.3622 13.934C51.0868 13.934 51.8042 14.1928 52.2669 14.9143C52.6913 15.58 52.6913 16.7073 52.6913 17.5209V22.7899C52.679 22.863 52.6409 22.9293 52.5839 22.9768C52.527 23.0243 52.4549 23.0498 52.3808 23.0487H50.7473C50.677 23.0421 50.6106 23.0135 50.5575 22.9671C50.5044 22.9207 50.4672 22.8587 50.4512 22.7899V18.2414C50.4512 17.317 50.562 15.9857 49.4347 15.9857C49.0465 15.9857 48.6769 16.2445 48.4916 16.6514C48.2701 17.1689 48.2328 17.6689 48.2328 18.2414V22.7527C48.2226 22.8338 48.1833 22.9086 48.1222 22.963C48.0611 23.0174 47.9824 23.0479 47.9005 23.0487ZM27.8233 23.0301C27.7706 23.0761 27.7048 23.1044 27.6351 23.1109C27.5654 23.1174 27.4955 23.1018 27.4351 23.0663C26.8989 22.6233 26.7871 22.4018 26.4921 21.9763C25.605 22.8821 24.9569 23.1595 23.811 23.1595C22.4435 23.1595 21.3711 22.3086 21.3711 20.6264C21.3711 19.2952 22.0957 18.408 23.1092 17.964C23.9963 17.5758 25.2344 17.5023 26.1774 17.3915V17.1845C26.1774 16.7963 26.2147 16.3346 25.9704 16.0013C25.7633 15.7062 25.3969 15.5768 25.0646 15.5768C24.4352 15.5768 23.8814 15.8874 23.752 16.5561C23.7147 16.7042 23.6226 16.8522 23.4746 16.8522L21.9032 16.6855C21.7738 16.6483 21.6257 16.5561 21.662 16.3532C22.0326 14.4299 23.752 13.8574 25.3048 13.8574C26.0998 13.8574 27.1349 14.0645 27.7633 14.67C28.5583 15.4102 28.4879 16.4081 28.4879 17.4805V20.0136C28.4879 20.7714 28.7985 21.1036 29.0976 21.5291C29.2084 21.6771 29.227 21.8624 29.0976 21.9546C28.7467 22.232 28.1546 22.7496 27.8223 23.027L27.8233 23.0301Z" fill="black"/>
<path d="M26.1754 19.055C26.1754 19.6834 26.1941 20.2196 25.8794 20.7931C25.6206 21.2548 25.2137 21.5322 24.7521 21.5322C24.1237 21.5322 23.7542 21.0519 23.7542 20.349C23.7542 18.9629 24.9964 18.7041 26.1754 18.7041V19.055Z" fill="white"/>
<path d="M6.45121 23.0301C6.39849 23.0761 6.33263 23.1044 6.26296 23.1109C6.19329 23.1174 6.12334 23.1018 6.06302 23.0663C5.5268 22.6233 5.41603 22.4018 5.12101 21.9763C4.23283 22.8821 3.58584 23.1595 2.43991 23.1595C1.07141 23.1595 0 22.3086 0 20.6264C0 19.2952 0.724622 18.408 1.73702 17.964C2.6252 17.5758 3.86327 17.5023 4.80631 17.3915V17.1845C4.80631 16.7963 4.84358 16.3346 4.59928 16.0013C4.39225 15.7062 4.02683 15.5768 3.6935 15.5768C3.06515 15.5768 2.5103 15.8874 2.3809 16.5561C2.34467 16.7042 2.2515 16.8522 2.10347 16.8522L0.53208 16.6855C0.402683 16.6483 0.255688 16.5561 0.291919 16.3532C0.661476 14.4299 2.3809 13.8574 3.9347 13.8574C4.72868 13.8574 5.76489 14.0645 6.39324 14.67C7.18825 15.4102 7.11786 16.4081 7.11786 17.4805V20.0136C7.11786 20.7714 7.42841 21.1036 7.72861 21.5291C7.83938 21.6771 7.85801 21.8624 7.72861 21.9546C7.37665 22.232 6.78557 22.7496 6.45224 23.027L6.45121 23.0301Z" fill="black"/>
<path d="M4.8249 19.055C4.8249 19.6834 4.84353 20.2196 4.52884 20.7931C4.27004 21.2527 3.86322 21.5322 3.40153 21.5322C2.77215 21.5322 2.40259 21.0519 2.40259 20.349C2.40259 18.9629 3.6448 18.7041 4.8249 18.7041V19.055Z" fill="white"/>
<path d="M54.8767 9.24447L57.7069 27.6706C57.8278 28.4572 58.2263 29.1745 58.8304 29.6927C59.4344 30.2108 60.2039 30.4957 60.9998 30.4956H87.3377C87.8347 30.4957 88.3259 30.3882 88.7774 30.1804C89.2289 29.9727 89.6301 29.6697 89.9534 29.2922C90.2767 28.9147 90.5144 28.4717 90.6503 27.9936C90.7861 27.5155 90.8168 27.0137 90.7403 26.5226L87.9195 8.39667C87.7913 7.57401 87.3484 6.83337 86.6843 6.33116C86.0203 5.82896 85.187 5.60451 84.3605 5.70521L57.3487 9.67304C56.6644 9.7742 55.9655 9.68983 55.3249 9.42873L54.8767 9.24447Z" fill="#FF9900"/>
<path d="M92.1014 2.98606L94.9999 22.0716C94.9561 22.9407 94.6084 23.7669 94.0176 24.4059C93.6036 24.8394 93.0886 25.1634 92.5186 25.3489C91.5007 18.6231 90.4828 11.8982 89.4649 5.17442C89.4093 4.80843 89.2809 4.45731 89.0872 4.14186C88.8935 3.82641 88.6385 3.55305 88.3372 3.33797C88.0359 3.1229 87.6946 2.97048 87.3333 2.88976C86.972 2.80904 86.5982 2.80166 86.2341 2.86805L58.7937 7.86898C58.7668 7.86173 58.2637 7.7137 58.1405 7.26443C58.0256 6.85037 58.2885 6.3452 58.7937 6.15576L87.91 0.0741139C88.3776 -0.0234834 88.8602 -0.0247018 89.3283 0.0705315C89.7964 0.165765 90.2402 0.355448 90.6325 0.627993C91.0247 0.900537 91.3573 1.25022 91.6099 1.65566C91.8625 2.0611 92.0297 2.51379 92.1014 2.98606Z" fill="#FF9900"/>
<path d="M77.6794 14.8531C78.689 17.352 79.7038 19.8506 80.7238 22.3488C80.7709 22.4429 80.7963 22.5463 80.7981 22.6514C80.7999 22.7566 80.778 22.8608 80.7342 22.9564C80.5644 23.3333 80.4298 23.7297 80.2549 24.1055C80.1852 24.2717 80.0785 24.4199 79.9429 24.5387C79.8072 24.6574 79.6463 24.7436 79.4723 24.7908C79.2134 24.8582 78.9442 24.8775 78.6783 24.8477C78.5499 24.8374 78.4206 24.8063 78.2922 24.7959C78.1172 24.7856 78.0293 24.8632 78.0241 25.0434C78.0189 25.2235 78.0241 25.385 78.0241 25.5537C78.0241 25.8363 78.1276 25.9678 78.405 26.0112C78.692 26.0689 78.9831 26.1035 79.2756 26.1148C80.1565 26.1355 80.8574 25.7794 81.3108 25.0123C81.4934 24.7091 81.6519 24.3921 81.7849 24.0641C83.005 20.9834 84.2172 17.8996 85.4214 14.8127C85.4592 14.7214 85.487 14.6263 85.5043 14.5291C85.525 14.3842 85.4577 14.3024 85.3138 14.3024C84.9732 14.2972 84.6285 14.3024 84.289 14.3024C84.2023 14.2963 84.1161 14.3194 84.044 14.368C83.972 14.4166 83.9183 14.4879 83.8914 14.5705C83.8666 14.6419 83.8356 14.7092 83.8097 14.7775L82.0167 19.9286C81.8884 20.2992 81.7538 20.676 81.6203 21.0673C81.5996 21.0103 81.5892 20.9793 81.5737 20.9441C80.9091 19.1049 80.2445 17.264 79.58 15.4214C79.4764 15.1274 79.3636 14.8386 79.2559 14.5508C79.2354 14.4792 79.192 14.4163 79.1324 14.3716C79.0728 14.327 79.0002 14.303 78.9257 14.3034C78.5344 14.3034 78.1431 14.2931 77.7456 14.3034C77.6173 14.3034 77.5551 14.4069 77.581 14.5353C77.6058 14.6436 77.6386 14.7498 77.6794 14.8531ZM70.9311 22.4523C71.5439 22.7919 72.2085 22.8333 72.8834 22.7297C73.647 22.6088 74.363 22.2812 74.9538 21.7826C74.9787 21.76 75.0066 21.7409 75.0366 21.7256C75.0676 21.9213 75.0935 22.1066 75.1287 22.2919C75.1347 22.3627 75.1662 22.429 75.2174 22.4784C75.2687 22.5277 75.3361 22.5567 75.4072 22.56H76.2467C76.3113 22.5595 76.3731 22.5339 76.4193 22.4888C76.4654 22.4436 76.4922 22.3823 76.4941 22.3177C76.4984 22.2699 76.5001 22.2219 76.4993 22.1739V16.7133C76.5024 16.4909 76.4868 16.2686 76.4527 16.0487C76.3554 15.3841 76.0717 14.8376 75.4744 14.4825C75.1284 14.2866 74.7464 14.1623 74.3513 14.1171C74.166 14.0912 73.9807 14.0757 73.7944 14.0498C73.5935 14.055 73.3875 14.055 73.1815 14.055C73.1298 14.055 73.078 14.0705 73.0325 14.0757C72.5307 14.0953 72.032 14.1647 71.5439 14.2827C71.2333 14.3655 70.9228 14.4784 70.6215 14.5819C70.5363 14.6048 70.4621 14.6572 70.412 14.7299C70.3619 14.8025 70.3393 14.8906 70.3483 14.9784C70.3534 15.1481 70.3483 15.3179 70.3483 15.4877C70.3534 15.7351 70.457 15.7982 70.6992 15.7402C71.1008 15.6367 71.5025 15.5239 71.9093 15.4473C72.5393 15.3146 73.1872 15.2901 73.8254 15.3748C74.1608 15.4266 74.4745 15.5239 74.6908 15.8075C74.8693 16.0529 74.965 16.3488 74.9641 16.6522C74.9796 17.0798 74.9745 17.5073 74.9796 17.9348C74.9783 17.9592 74.9748 17.9835 74.9693 18.0073C74.9434 18.0021 74.9227 18.0073 74.902 18.0021C74.3613 17.8689 73.8098 17.7843 73.254 17.7495C72.6746 17.7025 72.0916 17.7707 71.5387 17.9503C70.8741 18.1822 70.3379 18.5839 70.0243 19.2329C69.7991 19.7278 69.7291 20.2792 69.8234 20.8147C69.8606 21.1572 69.9809 21.4855 70.174 21.771C70.367 22.0564 70.6269 22.2903 70.9311 22.4523ZM71.4766 19.7785C71.605 19.3509 71.9093 19.1087 72.3213 18.9752C72.7348 18.8502 73.1696 18.8114 73.5987 18.8613C74.0314 18.8975 74.4538 18.9803 74.8865 19.0362C74.9693 19.0466 74.9952 19.088 74.9952 19.1708C74.99 19.4182 74.9952 19.6594 74.9952 19.9068C74.9952 20.1542 74.9848 20.3913 74.99 20.6314C74.992 20.6617 74.9859 20.692 74.9722 20.7192C74.9586 20.7463 74.9379 20.7693 74.9123 20.7857C74.3507 21.2098 73.6853 21.4751 72.9859 21.5538C72.6942 21.5957 72.3966 21.5636 72.1205 21.4606C71.9676 21.4046 71.8302 21.3134 71.7192 21.1944C71.6082 21.0753 71.5269 20.9317 71.4818 20.7753C71.3801 20.4511 71.3783 20.1037 71.4766 19.7785ZM61.2512 25.9243H62.3381C62.372 25.9246 62.4056 25.9181 62.437 25.9052C62.4684 25.8924 62.497 25.8734 62.521 25.8494C62.5449 25.8254 62.5639 25.7969 62.5768 25.7655C62.5896 25.7341 62.5961 25.7005 62.5958 25.6665V21.7857C62.6517 21.8322 62.6828 21.8571 62.7087 21.883C63.631 22.6511 64.6921 22.9037 65.8515 22.6769C66.9022 22.4699 67.634 21.8271 68.1071 20.8789C68.4527 20.1692 68.6342 19.3908 68.6382 18.6015C68.664 17.7205 68.576 16.8551 68.2241 16.0363C67.7862 15.027 67.0595 14.3624 65.9622 14.1357C65.7976 14.0995 65.6279 14.084 65.4581 14.0581H65.0295L64.808 14.0891C64.0997 14.1764 63.4257 14.4441 62.8505 14.8666C62.7273 14.9545 62.6134 15.0467 62.4851 15.145C62.4745 15.1221 62.4675 15.0976 62.4644 15.0726C62.4437 14.9338 62.423 14.79 62.3971 14.6502C62.3619 14.4131 62.2428 14.3107 62.0058 14.3107H61.4137C61.0586 14.3107 60.9913 14.378 60.9913 14.733V25.6665C60.9903 25.7008 60.9963 25.735 61.0091 25.7668C61.0218 25.7987 61.0409 25.8276 61.0653 25.8518C61.0897 25.876 61.1187 25.8949 61.1507 25.9073C61.1827 25.9198 61.2169 25.9256 61.2512 25.9243ZM62.5907 18.382C62.5907 17.6574 62.5958 16.94 62.5907 16.2133C62.5877 16.1797 62.5943 16.1459 62.6097 16.1159C62.625 16.0859 62.6486 16.0608 62.6776 16.0435C63.3836 15.5539 64.161 15.2962 65.0264 15.3634C65.7945 15.4204 66.4229 15.7961 66.7531 16.6978C66.9364 17.2451 67.0216 17.8206 67.0046 18.3975C67.0188 18.9307 66.949 19.4627 66.7976 19.9741C66.4477 21.0714 65.6444 21.4886 64.603 21.442C63.8784 21.4109 63.2573 21.1314 62.6766 20.7267C62.6479 20.7088 62.6246 20.6835 62.6093 20.6534C62.594 20.6233 62.5872 20.5896 62.5896 20.5559C62.5958 19.8302 62.5907 19.1087 62.5907 18.382Z" fill="white"/>
</svg>
