<svg width="69" height="32" viewBox="0 0 69 32" fill="none" xmlns="http://www.w3.org/2000/svg">
<path d="M17.5035 13.2517C17.5452 17.0239 20.9277 18.2767 20.9556 18.2906C20.9277 18.3742 20.4127 20.0863 19.1738 21.8402C18.102 23.3575 16.9884 24.8747 15.2345 24.9026C13.5085 24.9304 12.9517 23.9143 10.989 23.9143C9.01236 23.9143 8.39989 24.8747 6.77127 24.9304C5.07305 24.9861 3.79243 23.2879 2.70668 21.7706C0.493432 18.6804 -1.19087 13.029 1.07806 9.21492C2.20557 7.32183 4.22394 6.12472 6.40936 6.08296C8.06581 6.05512 9.63875 7.16871 10.6549 7.16871C11.671 7.16871 13.5781 5.83241 15.5825 6.02728C16.4177 6.05512 18.7841 6.36136 20.2874 8.50501C20.1621 8.57461 17.4756 10.0919 17.5035 13.2517ZM14.2601 3.98107C15.1649 2.92316 15.7635 1.46158 15.5964 0C14.3019 0.0556793 12.729 0.83519 11.8102 1.8931C10.9751 2.82572 10.2512 4.31515 10.4461 5.74889C11.8938 5.86025 13.3693 5.03898 14.2601 3.98107ZM27.2823 2.17358C27.9443 2.06361 28.6907 1.96715 29.4936 1.87082C30.2965 1.7745 31.1836 1.7333 32.1413 1.7333C33.5215 1.7333 34.7046 1.89839 35.7046 2.21492C36.7046 2.54496 37.5214 2.99903 38.1692 3.61804C38.7185 4.15465 39.1552 4.80123 39.465 5.53035C39.7749 6.27325 39.9298 7.12625 39.9298 8.08923C39.9298 9.25863 39.7185 10.2767 39.296 11.1572C38.8736 12.0376 38.296 12.7668 37.5637 13.3584C36.8314 13.95 35.9581 14.3903 34.944 14.6929C33.93 14.9818 32.8314 15.1332 31.6343 15.1332C30.5499 15.1332 29.6485 15.0507 28.916 14.8994V24.5846H27.2965V2.17358H27.2823ZM28.902 13.4822C29.2963 13.5923 29.733 13.6748 30.2118 13.716C30.6907 13.7572 31.2117 13.7849 31.7611 13.7849C33.8314 13.7849 35.4229 13.3172 36.5637 12.3679C37.7045 11.4325 38.2678 10.0429 38.2678 8.22676C38.2678 7.34633 38.113 6.58978 37.8172 5.94307C37.5214 5.29635 37.0989 4.75988 36.5497 4.3473C36.0004 3.93472 35.3384 3.61804 34.592 3.41175C33.8314 3.20532 33.0004 3.09535 32.0708 3.09535C31.3386 3.09535 30.7047 3.12277 30.1695 3.1779C29.6343 3.23302 29.2118 3.30178 28.902 3.35677V13.4822ZM52.8026 20.7461C52.8026 21.3928 52.8166 22.0532 52.8307 22.6997C52.859 23.3465 52.9293 23.9793 53.042 24.5845H51.521L51.2816 22.3009H51.2111C50.9998 22.6173 50.7462 22.9339 50.4223 23.2364C50.0877 23.5652 49.714 23.8517 49.3097 24.0895C48.8872 24.3508 48.4084 24.5572 47.8591 24.7085C47.3239 24.8598 46.7323 24.9424 46.0845 24.9424C45.2817 24.9424 44.5775 24.8185 43.9719 24.5572C43.3662 24.2959 42.8592 23.9656 42.479 23.5529C42.0846 23.1402 41.7888 22.6587 41.6058 22.1221C41.4087 21.5856 41.31 21.049 41.31 20.5125C41.31 18.6002 42.1269 17.1418 43.7747 16.1101C45.4226 15.0784 47.8872 14.5831 51.1969 14.6243V14.184C51.1969 13.7575 51.1548 13.276 51.0703 12.7258C50.9858 12.1755 50.8168 11.6526 50.535 11.1574C50.2533 10.6623 49.8449 10.2493 49.2956 9.91913C48.7464 9.58895 48 9.41022 47.0563 9.41022C46.3381 9.41022 45.6337 9.52018 44.9437 9.72661C44.2634 9.92521 43.6175 10.2268 43.0284 10.6208L42.5072 9.43764C43.2394 8.94237 44.0001 8.59841 44.7747 8.37834C45.5492 8.17191 46.3662 8.06194 47.2253 8.06194C48.3801 8.06194 49.3097 8.25459 50.028 8.63962C50.7462 9.02464 51.3237 9.52018 51.7322 10.1256C52.1406 10.7309 52.4223 11.4051 52.5772 12.1616C52.7322 12.9182 52.8026 13.6612 52.8026 14.4041V20.7461ZM51.1829 15.9449C50.3097 15.9173 49.3942 15.9587 48.4506 16.0412C47.4929 16.1374 46.6197 16.33 45.8169 16.6328C45.0142 16.9356 44.3521 17.3757 43.8169 17.9671C43.2959 18.545 43.0282 19.3292 43.0282 20.2922C43.0282 21.4342 43.3663 22.2732 44.0282 22.8099C44.6901 23.3465 45.4366 23.6215 46.2677 23.6215C46.9295 23.6215 47.5352 23.5252 48.0563 23.3465C48.5775 23.1677 49.0421 22.92 49.4365 22.6172C49.8308 22.3144 50.1548 21.9706 50.4223 21.5855C50.6898 21.2003 50.8872 20.815 51.028 20.4023C51.1407 19.9484 51.1969 19.6318 51.1969 19.4255L51.1829 15.9449ZM55.9574 8.43318L60.1545 18.9301C60.3797 19.5081 60.6051 20.1133 60.8164 20.7325C61.0277 21.3516 61.2107 21.9156 61.3656 22.4383H61.4361C61.591 21.9431 61.7741 21.393 61.9854 20.7738C62.1967 20.1546 62.422 19.5219 62.6755 18.8751L66.6049 8.44697H68.3232L63.5346 20.2922C63.0558 21.5441 62.5909 22.6861 62.1684 23.7041C61.7459 24.722 61.3093 25.6439 60.8727 26.4694C60.4362 27.2948 59.9996 28.0103 59.5488 28.6431C59.0981 29.2759 58.6051 29.8263 58.0559 30.294C57.4081 30.858 56.8165 31.2707 56.2813 31.5184C55.7461 31.7798 55.38 31.9449 55.1969 32L54.6475 30.6929C55.0561 30.5141 55.5209 30.2802 56.0278 29.9914C56.5348 29.7025 57.0278 29.3172 57.5067 28.8494C57.9151 28.4504 58.3798 27.914 58.8727 27.2535C59.3656 26.593 59.8023 25.7952 60.1967 24.8459C60.3375 24.4882 60.408 24.2543 60.408 24.1444C60.408 23.993 60.3375 23.7454 60.1967 23.4428L54.2393 8.47439H55.9575L55.9574 8.43318Z" fill="#010101"/>
</svg>
