<svg width="24" height="18" viewBox="0 0 24 18" fill="none" xmlns="http://www.w3.org/2000/svg">
<path fill-rule="evenodd" clip-rule="evenodd" d="M0 16.7136V4.7136C0 4.0032 0.576441 3.4272 1.28573 3.4272H1.71432V1.28503C1.71432 0.574631 2.29076 -0.00136898 3.00005 2.4439e-06H22.7143C23.4236 -0.00136898 24 0.574631 24 1.28503V13.285C24 13.9954 23.4236 14.5714 22.7143 14.5714H22.2857V16.7136C22.2857 17.424 21.7093 18 21 18L1.28573 17.9986C0.576441 18 0 17.424 0 16.7136ZM21 4.28434H1.28573C1.05001 4.28434 0.857194 4.47634 0.857194 4.7136V7.28502H21.4285V4.7136C21.4285 4.47634 21.2357 4.28434 21 4.28434ZM22.2857 13.7143H22.7143C22.95 13.7143 23.1429 13.5223 23.1429 13.285V1.28503C23.1429 1.04777 22.95 0.855773 22.7143 0.857144L3.00005 0.855774C2.76433 0.855774 2.57145 1.04777 2.57145 1.28503V3.4272L21 3.42857C21.7093 3.4272 22.2857 4.0032 22.2857 4.7136V13.7143ZM0.857194 8.99931V16.7136C0.857194 16.9508 1.05001 17.1428 1.28573 17.1428H21C21.2357 17.1428 21.4285 16.9508 21.4285 16.7136V8.99931H0.857194ZM7.71429 13.7129C7.71429 13.477 7.90717 13.285 8.14289 13.285H14.1429C14.3786 13.285 14.5715 13.477 14.5715 13.7129C14.5715 13.9502 14.3786 14.1422 14.1429 14.1422H8.14289C7.90717 14.1422 7.71429 13.9502 7.71429 13.7129ZM16.2857 14.5714V11.9986C16.2857 11.7627 16.4786 11.5707 16.7143 11.5707H19.2857C19.5214 11.5707 19.7143 11.7627 19.7143 12V14.5714C19.7143 14.8073 19.5214 14.9993 19.2857 14.9993H16.7143C16.4786 14.9993 16.2857 14.8073 16.2857 14.5714ZM18.8572 14.1422V12.4279H17.1428V13.7129V14.1422H18.8572Z" fill="#414950"/>
</svg>
