<svg xmlns="http://www.w3.org/2000/svg" xmlns:xlink="http://www.w3.org/1999/xlink" viewBox="0 0 361.98 733.28"><defs><style>.cls-1{fill:url(#linear-gradient);}.cls-2{fill:url(#linear-gradient-2);}.cls-3{fill:url(#linear-gradient-3);}.cls-4{fill:url(#linear-gradient-4);}.cls-5{fill:url(#linear-gradient-5);}.cls-6{fill:url(#linear-gradient-6);}.cls-7{fill:url(#linear-gradient-7);}.cls-8{fill:url(#linear-gradient-8);}.cls-9{fill:url(#linear-gradient-9);}.cls-10{fill:url(#linear-gradient-10);}.cls-11{fill:#fff;}</style><linearGradient id="linear-gradient" y1="366.55" x2="5.35" y2="366.55" gradientUnits="userSpaceOnUse"><stop offset="0" stop-color="#666"/><stop offset="1"/></linearGradient><linearGradient id="linear-gradient-2" x1="357.48" y1="366.59" x2="362.78" y2="366.59" gradientUnits="userSpaceOnUse"><stop offset="0"/><stop offset="1" stop-color="#666"/></linearGradient><linearGradient id="linear-gradient-3" x1="180.99" y1="733.28" x2="180.99" y2="690.96" gradientUnits="userSpaceOnUse"><stop offset="0" stop-color="#959595"/><stop offset="1"/></linearGradient><linearGradient id="linear-gradient-4" x1="180.99" y1="40.41" x2="180.99" y2="-12.43" gradientUnits="userSpaceOnUse"><stop offset="0"/><stop offset="1" stop-color="gray"/></linearGradient><linearGradient id="linear-gradient-5" x1="340.81" y1="366.83" x2="353.68" y2="366.83" gradientUnits="userSpaceOnUse"><stop offset="0" stop-color="#f1f1f1"/><stop offset="0" stop-color="#f0f0f0"/><stop offset="0.14" stop-color="#b7b7b7"/><stop offset="0.27" stop-color="#888"/><stop offset="0.4" stop-color="#636363"/><stop offset="0.51" stop-color="#494949"/><stop offset="0.62" stop-color="#393939"/><stop offset="0.7" stop-color="#333"/></linearGradient><linearGradient id="linear-gradient-6" x1="15.68" y1="705.21" x2="346.31" y2="705.21" gradientUnits="userSpaceOnUse"><stop offset="0" stop-color="#1a1a1a"/><stop offset="0.12" stop-color="#454545"/><stop offset="0.23" stop-color="#666"/><stop offset="0.34" stop-color="#7e7e7e"/><stop offset="0.44" stop-color="#8d8d8d"/><stop offset="0.52" stop-color="#929292"/><stop offset="0.59" stop-color="#8b8b8b"/><stop offset="0.7" stop-color="#767676"/><stop offset="0.82" stop-color="#545454"/><stop offset="0.97" stop-color="#252525"/><stop offset="1" stop-color="#1a1a1a"/></linearGradient><linearGradient id="linear-gradient-7" x1="15.68" y1="28.49" x2="353.71" y2="28.49" xlink:href="#linear-gradient-6"/><linearGradient id="linear-gradient-8" x1="8.29" y1="366.61" x2="15.92" y2="366.61" gradientUnits="userSpaceOnUse"><stop offset="0" stop-color="#c8c8c8"/><stop offset="0.21" stop-color="#a0a0a0"/><stop offset="0.59" stop-color="#5d5d5d"/><stop offset="0.86" stop-color="#343434"/><stop offset="1" stop-color="#242424"/></linearGradient><linearGradient id="linear-gradient-9" x1="340.77" y1="366.87" x2="353.68" y2="366.87" gradientUnits="userSpaceOnUse"><stop offset="0" stop-color="#242424"/><stop offset="0.14" stop-color="#343434"/><stop offset="0.41" stop-color="#5d5d5d"/><stop offset="0.79" stop-color="#a0a0a0"/><stop offset="1" stop-color="#c8c8c8"/></linearGradient><linearGradient id="linear-gradient-10" x1="158.69" y1="26.73" x2="201.06" y2="26.73" gradientUnits="userSpaceOnUse"><stop offset="0" stop-color="#333"/><stop offset="0.09" stop-color="#2b2b2b"/><stop offset="0.29" stop-color="#1e1e1e"/><stop offset="0.48" stop-color="#1a1a1a"/><stop offset="0.79" stop-color="#1c1c1c"/><stop offset="0.9" stop-color="#232323"/><stop offset="0.98" stop-color="#2e2e2e"/><stop offset="1" stop-color="#333"/></linearGradient><linearGradient id="linear-gradient-11" x1="-63.4" y1="122.2" x2="425.36" y2="610.96" gradientUnits="userSpaceOnUse"><stop offset="0" stop-color="#f2f3f4"/><stop offset="0.48" stop-color="#eeeeef"/><stop offset="1" stop-color="#e2e2e2"/></linearGradient></defs><g id="Layer_2" data-name="Layer 2"><g id="object"><path class="cls-1" d="M43.61,728.45l-1.16-.12h0c-.76-.09-1.52-.2-2.26-.33a48.44,48.44,0,0,1-12.92-4.14l-.84-.41c-.72-.38-1.43-.76-2.13-1.16-.32-.19-.64-.37-.95-.57a45.68,45.68,0,0,1-4.57-3.14L18,718c-.77-.63-1.53-1.27-2.26-1.94-.24-.22-.48-.44-.71-.67l-.81-.78c-.25-.27-.52-.54-.78-.8l-.51-.54-.62-.69a48,48,0,0,1-3.46-4.34c-.19-.26-.37-.54-.56-.81-.58-.84-1.12-1.71-1.64-2.59-.19-.32-.38-.64-.55-1a47.46,47.46,0,0,1-3.38-7.52c-.13-.36-.25-.71-.36-1.07A48.57,48.57,0,0,1,.9,689.74L.69,688.6A48.75,48.75,0,0,1,0,680.44V52.84A48.31,48.31,0,0,1,46,4.66,43.69,43.69,0,0,0,4.61,48.24V685.05A43.7,43.7,0,0,0,43.61,728.45Z"/><path class="cls-2" d="M362,52.84v627.6a48.09,48.09,0,0,1-2.33,14.82c-.11.36-.23.72-.36,1.07s-.25.71-.39,1.06-.19.53-.3.79c-.32.79-.65,1.56-1,2.32-.15.34-.31.69-.48,1s-.46.93-.71,1.39-.32.61-.49.92-.36.64-.56,1c-.51.88-1.06,1.76-1.64,2.61-.19.27-.37.55-.57.81s-.43.6-.65.9-.44.59-.66.88l-.69.87c-.24.28-.47.57-.72.85-.48.56-1,1.12-1.48,1.65-.77.83-1.57,1.63-2.41,2.41l-.76.69c-.58.51-1.17,1-1.76,1.51l-.8.61c-.87.68-1.77,1.33-2.69,1.95l-.93.6c-.63.41-1.27.79-1.91,1.16l-1,.53c-1,.57-2.1,1.11-3.19,1.58-.28.14-.57.26-.85.38s-.68.3-1,.43l-1.05.41c-.79.29-1.58.57-2.38.82l-.85.26c-1.05.31-2.13.59-3.21.83l-1.14.24-1.22.22c-.76.13-1.51.24-2.27.33h0l-1.16.12a43.71,43.71,0,0,0,39-43.4V48.24A43.71,43.71,0,0,0,317.19,4.73,48.3,48.3,0,0,1,362,52.84Z"/><path class="cls-3" d="M362,680.44v4.61a48.29,48.29,0,0,1-48.24,48.23H48.25A48.29,48.29,0,0,1,0,685.05v-4.61a48.75,48.75,0,0,0,.69,8.16l.21,1.14a48.57,48.57,0,0,0,1.43,5.52c.11.36.23.71.36,1.07a47.46,47.46,0,0,0,3.38,7.52c.17.32.36.64.55,1,.52.88,1.06,1.75,1.64,2.59.19.27.37.55.56.81a48,48,0,0,0,3.46,4.34l.62.69.51.54c.26.26.53.53.78.8l.81.78c.23.23.47.45.71.67.73.67,1.49,1.31,2.26,1.94l.78.61a45.68,45.68,0,0,0,4.57,3.14c.31.2.63.38.95.57.7.4,1.41.78,2.13,1.16l.84.41A48.44,48.44,0,0,0,40.16,728c.74.13,1.5.24,2.26.33h0c.78.09,1.55.16,2.33.22.4,0,.8.06,1.2.07.75,0,1.5.06,2.27.06H313.74c.76,0,1.5,0,2.25-.06.39,0,.8,0,1.2-.07.63,0,1.26-.1,1.88-.17l.45,0h0c.77-.09,1.52-.2,2.27-.33l1.22-.22,1.14-.24c1.08-.24,2.16-.52,3.21-.83l.85-.26c.8-.25,1.59-.53,2.38-.82l1.05-.41c.35-.13.69-.27,1-.43s.57-.24.85-.38c1.09-.47,2.15-1,3.19-1.58.32-.17.64-.34,1-.53.64-.37,1.28-.75,1.91-1.16q.47-.28.93-.6c.92-.62,1.82-1.27,2.69-1.95l.8-.61c.59-.5,1.18-1,1.76-1.51l.76-.69c.84-.78,1.64-1.58,2.41-2.41.51-.53,1-1.09,1.48-1.65.25-.28.48-.57.72-.85l.69-.87c.23-.29.45-.59.66-.88s.44-.59.65-.9.38-.54.57-.81c.58-.85,1.13-1.73,1.64-2.61.2-.33.38-.65.56-1s.34-.61.49-.92.48-.92.71-1.39.33-.68.48-1c.35-.76.68-1.53,1-2.32.11-.26.21-.52.3-.79s.27-.7.39-1.06.25-.71.36-1.07A48.09,48.09,0,0,0,362,680.44Z"/><path class="cls-4" d="M362,48.24v4.6a48.28,48.28,0,0,0-43.62-48l-1.17-.11L316,4.66h0c-.75,0-1.48,0-2.24,0H48.25c-.76,0-1.51,0-2.24,0h0A48.31,48.31,0,0,0,0,52.84v-4.6c0-.48,0-1,0-1.42s0-.71,0-1.06c0-.78.1-1.54.18-2.3,0-.4.08-.8.13-1.18,0-.22,0-.42.08-.63s.07-.5.11-.75.12-.8.2-1.19c.12-.69.25-1.38.41-2.05.07-.34.16-.67.24-1,.24-1,.51-2,.83-3l.3-.92c.13-.38.26-.75.4-1.12s.23-.62.35-.92.19-.51.3-.76.25-.61.38-.9.19-.45.3-.67.3-.66.46-1c.27-.57.56-1.14.86-1.7.15-.29.3-.58.47-.86s.37-.66.56-1a49.23,49.23,0,0,1,4.54-6.45l.73-.86c.28-.31.55-.63.85-.95.48-.51,1-1,1.45-1.51s1.08-1,1.63-1.56,1.13-1,1.71-1.47c.28-.24.58-.47.87-.71C19,9.9,19.59,9.45,20.21,9s1.22-.86,1.86-1.27,1.27-.8,1.92-1.18c.33-.2.66-.38,1-.56s.66-.36,1-.54L27,5l1-.5c.68-.31,1.38-.62,2.09-.9l1-.41.09,0,1-.37,1-.35c.39-.12.77-.25,1.17-.36l1.1-.32,1.13-.29,1.13-.27C38.56,1,39.33.82,40.1.69L41.25.51c.83-.12,1.67-.22,2.51-.3.66-.06,1.34-.11,2-.15L47,0l1.25,0H313.74L315,0l1,0c.78,0,1.55.09,2.33.16h0l1.17.13,1.17.16c.39.05.78.12,1.16.18L323,.9s0,0,0,0l1.14.24,1,.23.22.06c.32.08.64.16,1,.26s.9.24,1.34.38l.9.29c.68.22,1.34.45,2,.7.45.15.9.33,1.33.51l1,.41c.35.15.69.3,1,.47l1,.49a47.74,47.74,0,0,1,6.91,4.15l.79.58c1,.72,1.88,1.47,2.77,2.25.4.34.79.69,1.16,1.05A45.14,45.14,0,0,1,351,17.59c.25.3.48.58.71.88.49.61.95,1.23,1.39,1.86q.35.47.66,1c.38.54.74,1.1,1.09,1.66l.52.86c.31.54.62,1.09.92,1.65.15.27.29.53.42.81.49.93.93,1.87,1.36,2.84.1.24.21.49.31.75.39,1,.76,1.94,1.09,2.92.13.37.25.73.36,1.1a47.45,47.45,0,0,1,1.55,6.51c0,.23.08.47.11.72s.11.77.16,1.16.09.78.13,1.18.07.79.11,1.18c0,.73.08,1.46.1,2.2Q362,47.54,362,48.24Z"/><path d="M316,4.66h0c-.74,0-1.48,0-2.24,0H48.25c-.76,0-1.51,0-2.24,0h0A43.69,43.69,0,0,0,4.61,48.24V685.05a43.69,43.69,0,0,0,40.17,43.5c.4,0,.8.06,1.2.07.75,0,1.5.06,2.27.06H313.74c.76,0,1.5,0,2.25-.06.39,0,.8,0,1.2-.07a43.7,43.7,0,0,0,40.18-43.5V48.24A43.69,43.69,0,0,0,316,4.66Zm37.7,680.39a40.15,40.15,0,0,1-36.76,39.83c-.37,0-.75,0-1.13.06-.68,0-1.37,0-2.06,0H48.25c-.7,0-1.4,0-2.1,0l-1.08-.06A40.14,40.14,0,0,1,8.29,685.05V48.24A39.94,39.94,0,0,1,46.08,8.34h.11c.67,0,1.36-.05,2.06-.05H313.74c.69,0,1.38,0,2.06.05h.06a39.93,39.93,0,0,1,37.83,39.9Z"/><path class="cls-5" d="M353.68,48.49V685.31a39.61,39.61,0,0,1-5.22,19.63c-.31.54-.63,1.06-.95,1.58-.5.77-1,1.53-1.55,2.26a40.85,40.85,0,0,1-5.14,5.77,41.52,41.52,0,0,0,5.49-20.65v-7.34c0-.43,0-.88,0-1.32V48.43q0-.68,0-1.35V39.9a41.72,41.72,0,0,0-5.5-20.79A39.89,39.89,0,0,1,353.68,48.49Z"/><path d="M315.67,12h-.17c-.58,0-1.17,0-1.76,0H48.24c-.6,0-1.2,0-1.79,0l-.18,0h-.09A36.26,36.26,0,0,0,12,48.24V685.05a36.43,36.43,0,0,0,33.4,36.15c.27,0,.58,0,.87.06h.11c.63,0,1.26,0,1.89,0h265.5c.62,0,1.25,0,1.87,0h.11c.31,0,.62,0,.92-.06A36.41,36.41,0,0,0,350,685.05V48.24A36.25,36.25,0,0,0,315.67,12Zm24.66,673a26.69,26.69,0,0,1-24.45,26.51l-.39,0h-.41c-.44,0-.89,0-1.34,0H48.24c-.45,0-.92,0-1.38,0h-.37l-.36,0a26.71,26.71,0,0,1-24.49-26.51V48.24A26.6,26.6,0,0,1,46.48,21.7h.23l.36,0c.43,0,.82,0,1.17,0h265.5c.36,0,.75,0,1.2,0h.22a26.58,26.58,0,0,1,25.17,26.56Z"/><path d="M271.25,21.64v3.48a21.16,21.16,0,0,1-21.16,21.16H111.89A21.16,21.16,0,0,1,90.72,25.12V21.64Z"/><path d="M271.25,21.65v3.47a21.17,21.17,0,0,1-21.16,21.17H111.89A21.17,21.17,0,0,1,90.72,25.12V21.65Z"/><path class="cls-6" d="M346.31,686.56v7.34a41.52,41.52,0,0,1-5.49,20.65A39.74,39.74,0,0,1,317,725.07c-.37,0-.75,0-1.13.06-.68,0-1.37.06-2.06.06H48.26c-.7,0-1.4,0-2.09-.06-.37,0-.74,0-1.08-.06-.51,0-1-.09-1.52-.16a39.66,39.66,0,0,1-22.36-10.35,41.5,41.5,0,0,1-5.53-20.72v-8.6A32.63,32.63,0,0,0,27.14,710a32.27,32.27,0,0,0,18.53,7.73c.23,0,.46,0,.69,0h.2c.56,0,1.13.05,1.7.05h265.5c.55,0,1.11,0,1.67-.05h.21c.26,0,.5,0,.75,0A32.71,32.71,0,0,0,346.31,686.56Z"/><path class="cls-7" d="M353.68,48.49l0-.06A39.91,39.91,0,0,0,315.88,8.54h-.07c-.67,0-1.36,0-2.05,0H48.26c-.69,0-1.38,0-2,0H46.1c-.87,0-1.71.12-2.56.22A39.72,39.72,0,0,0,21.18,19.05a41.67,41.67,0,0,0-5.5,20.79v8.59A32.56,32.56,0,0,1,46.31,15.91h.18l.24,0,1.53,0h265.5l1.39,0h0l.33,0a32.55,32.55,0,0,1,30.82,31.18V39.9a41.72,41.72,0,0,0-5.5-20.79A39.89,39.89,0,0,1,353.68,48.49Z"/><path class="cls-8" d="M21.19,714.37a40,40,0,0,1-12.9-29.32V48.24A39.9,39.9,0,0,1,21.16,18.85a41.72,41.72,0,0,0-5.5,20.79v654A41.61,41.61,0,0,0,21.19,714.37Z"/><path class="cls-9" d="M353.68,48.49V685.31a39.61,39.61,0,0,1-5.22,19.63c-.31.54-.63,1.06-.95,1.58-.48.77-1,1.53-1.55,2.26a38.93,38.93,0,0,1-5.19,5.84l.05-.07a41.52,41.52,0,0,0,5.49-20.65V39.9a41.72,41.72,0,0,0-5.5-20.79A39.89,39.89,0,0,1,353.68,48.49Z"/><rect class="cls-10" x="158.69" y="24.51" width="42.37" height="4.45" rx="1.77"/><path class="cls-11" d="M315.5,21.66h-.24l-.36,0c-.43,0-.81,0-1.17,0H275.42a4.43,4.43,0,0,0-4.18,4c0,.15,0,.29,0,.45v.06a21.17,21.17,0,0,1-21.14,20.16H111.88A21.16,21.16,0,0,1,90.74,26.08V26c0-.16,0-.3,0-.45a4.43,4.43,0,0,0-4.18-4H48.23c-.36,0-.75,0-1.17,0l-.36,0h-.24A26.58,26.58,0,0,0,21.63,48.19V685a26.71,26.71,0,0,0,24.48,26.51l.36,0h.38c.46,0,.92,0,1.38,0h265.5c.46,0,.92,0,1.38,0h.38l.36,0A26.72,26.72,0,0,0,340.33,685V48.19A26.59,26.59,0,0,0,315.5,21.66Z"/></g></g></svg>