<svg xmlns="http://www.w3.org/2000/svg" xmlns:xlink="http://www.w3.org/1999/xlink" viewBox="0 0 297.21 632.23"><defs><style>.cls-1{mask:url(#mask);filter:url(#luminosity-noclip-4);}.cls-2,.cls-4,.cls-6{mix-blend-mode:multiply;}.cls-2{fill:url(#linear-gradient);}.cls-3,.cls-5{mask:url(#mask-2);}.cls-3{filter:url(#luminosity-noclip-5);}.cls-4{fill:url(#linear-gradient-2);}.cls-5{filter:url(#luminosity-noclip-6);}.cls-6{fill:url(#linear-gradient-3);}.cls-7{fill:none;}.cls-8{fill:#3d3d3f;}.cls-16,.cls-9{fill:#131313;}.cls-10{fill:#6f6f71;}.cls-11{fill:#fff;}.cls-12{clip-path:url(#clip-path);}.cls-13{fill:url(#linear-gradient-4);}.cls-14{fill:url(#linear-gradient-5);}.cls-15{fill:url(#linear-gradient-6);}.cls-16{opacity:0.3;}.cls-17{fill:url(#linear-gradient-7);}.cls-18{fill:url(#linear-gradient-8);}.cls-19{fill:#515054;}.cls-20{fill:url(#linear-gradient-9);}.cls-21{mask:url(#mask-4);}.cls-22{fill:url(#linear-gradient-10);}.cls-23{fill:#676767;}.cls-24{fill:url(#linear-gradient-11);}.cls-25{mask:url(#mask-5);}.cls-26{fill:url(#linear-gradient-12);}.cls-27{fill:url(#linear-gradient-13);}.cls-28{mask:url(#mask-6);}.cls-29{fill:url(#linear-gradient-14);}.cls-30{filter:url(#luminosity-noclip-2);}.cls-31{filter:url(#luminosity-noclip);}</style><filter id="luminosity-noclip" x="4.98" y="-8400.23" width="251.76" height="32766" filterUnits="userSpaceOnUse" color-interpolation-filters="sRGB"><feFlood flood-color="#fff" result="bg"/><feBlend in="SourceGraphic" in2="bg"/></filter><mask id="mask" x="4.98" y="-8400.23" width="251.76" height="32766" maskUnits="userSpaceOnUse"><g class="cls-31"/></mask><linearGradient id="linear-gradient" x1="-10.47" y1="47.3" x2="67.15" y2="113.07" gradientUnits="userSpaceOnUse"><stop offset="0.01" stop-color="#fff"/><stop offset="0.69"/></linearGradient><filter id="luminosity-noclip-2" x="293.89" y="-8400.23" width="1.99" height="32766" filterUnits="userSpaceOnUse" color-interpolation-filters="sRGB"><feFlood flood-color="#fff" result="bg"/><feBlend in="SourceGraphic" in2="bg"/></filter><mask id="mask-2" x="293.89" y="-8400.23" width="1.99" height="32766" maskUnits="userSpaceOnUse"><g class="cls-30"/></mask><linearGradient id="linear-gradient-2" x1="295.58" y1="165.19" x2="293.33" y2="165.19" gradientUnits="userSpaceOnUse"><stop offset="0.31"/><stop offset="0.36" stop-color="#343434"/><stop offset="0.42" stop-color="#696969"/><stop offset="0.48" stop-color="#979797"/><stop offset="0.54" stop-color="#bdbdbd"/><stop offset="0.6" stop-color="#dadada"/><stop offset="0.66" stop-color="#eee"/><stop offset="0.72" stop-color="#fbfbfb"/><stop offset="0.77" stop-color="#fff"/></linearGradient><linearGradient id="linear-gradient-3" x1="295.58" y1="272.66" x2="293.33" y2="272.66" xlink:href="#linear-gradient-2"/><clipPath id="clip-path"><path class="cls-7" d="M165.19,24.55a2.65,2.65,0,0,1-2.65,2.65H134a2.64,2.64,0,0,1-2.65-2.65h0A2.64,2.64,0,0,1,134,21.9h28.53a2.65,2.65,0,0,1,2.65,2.65Z"/></clipPath><linearGradient id="linear-gradient-4" x1="148.27" y1="26.02" x2="148.27" y2="21.89" gradientUnits="userSpaceOnUse"><stop offset="0" stop-color="#464646"/><stop offset="1" stop-color="#151515"/></linearGradient><linearGradient id="linear-gradient-5" x1="148.27" y1="27.21" x2="148.27" y2="23.87" xlink:href="#linear-gradient-4"/><linearGradient id="linear-gradient-6" x1="-85.22" y1="751.49" x2="-85.22" y2="741.89" gradientTransform="matrix(0.95, -0.3, 0.3, 0.95, -70.26, -708.86)" xlink:href="#linear-gradient-4"/><linearGradient id="linear-gradient-7" x1="-358.98" y1="1253.79" x2="-358.98" y2="1248.03" gradientTransform="translate(-273.66 -1226.54) rotate(-31.61)" xlink:href="#linear-gradient-4"/><linearGradient id="linear-gradient-8" x1="75.29" y1="28.3" x2="75.29" y2="24.84" xlink:href="#linear-gradient-4"/><linearGradient id="linear-gradient-9" x1="-17.8" y1="35.71" x2="273.86" y2="293.36" gradientUnits="userSpaceOnUse"><stop offset="0.01" stop-color="#bebec0"/><stop offset="0.05" stop-color="#a6a6a8"/><stop offset="0.45" stop-color="#151515"/></linearGradient><filter id="luminosity-noclip-4" x="4.98" y="4.79" width="251.76" height="322.93" filterUnits="userSpaceOnUse" color-interpolation-filters="sRGB"><feFlood flood-color="#fff" result="bg"/><feBlend in="SourceGraphic" in2="bg"/></filter><mask id="mask-4" x="4.98" y="4.79" width="251.76" height="322.93" maskUnits="userSpaceOnUse"><g class="cls-1"><path class="cls-2" d="M7.63,48.43c0-12.15,4.36-22.67,10.28-29.19C24.1,12.42,34.2,7.63,46.44,7.63c0,0,149.93-1,210.3-1C226.22,4,44.45,5,44.45,5c-13,0-23,3.74-29.74,11.14C8.34,23.13,5,33.62,5,46.44l.33,281.28Z"/></g></mask><linearGradient id="linear-gradient-10" x1="-10.47" y1="47.3" x2="67.15" y2="113.07" gradientUnits="userSpaceOnUse"><stop offset="0.01" stop-color="#a6a6a8"/><stop offset="0.69" stop-color="#131313"/></linearGradient><linearGradient id="linear-gradient-11" x1="295.55" y1="187.08" x2="295.55" y2="143.3" gradientUnits="userSpaceOnUse"><stop offset="0" stop-color="#9e6e64"/><stop offset="0.05" stop-color="#db896f"/><stop offset="0.08" stop-color="#db896f"/><stop offset="0.95" stop-color="#db896f"/><stop offset="0.95" stop-color="#da896f"/><stop offset="0.96" stop-color="#c07d6a"/><stop offset="0.97" stop-color="#ad7567"/><stop offset="0.99" stop-color="#a27065"/><stop offset="1" stop-color="#9e6e64"/></linearGradient><filter id="luminosity-noclip-5" x="293.89" y="143.3" width="1.99" height="43.79" filterUnits="userSpaceOnUse" color-interpolation-filters="sRGB"><feFlood flood-color="#fff" result="bg"/><feBlend in="SourceGraphic" in2="bg"/></filter><mask id="mask-5" x="293.89" y="143.3" width="1.99" height="43.79" maskUnits="userSpaceOnUse"><g class="cls-3"><path class="cls-4" d="M295.88,143.3c-1.33,0-2,2.65-2,4.64v33.17c0,2.65.66,6,2,6Z"/></g></mask><linearGradient id="linear-gradient-12" x1="295.58" y1="165.19" x2="293.33" y2="165.19" gradientUnits="userSpaceOnUse"><stop offset="0.31" stop-color="#db896f"/><stop offset="0.41" stop-color="#c37e6b"/><stop offset="0.54" stop-color="#af7567"/><stop offset="0.66" stop-color="#a27065"/><stop offset="0.77" stop-color="#9e6e64"/></linearGradient><linearGradient id="linear-gradient-13" x1="295.55" y1="315.78" x2="295.55" y2="229.54" gradientUnits="userSpaceOnUse"><stop offset="0" stop-color="#1a1a1a"/><stop offset="0.04" stop-color="#393939"/><stop offset="0.07" stop-color="#393939"/><stop offset="0.96" stop-color="#393939"/><stop offset="0.97" stop-color="#292929"/><stop offset="0.99" stop-color="#1e1e1e"/><stop offset="1" stop-color="#1a1a1a"/></linearGradient><filter id="luminosity-noclip-6" x="293.89" y="229.54" width="1.99" height="86.24" filterUnits="userSpaceOnUse" color-interpolation-filters="sRGB"><feFlood flood-color="#fff" result="bg"/><feBlend in="SourceGraphic" in2="bg"/></filter><mask id="mask-6" x="293.89" y="229.54" width="1.99" height="86.24" maskUnits="userSpaceOnUse"><g class="cls-5"><path class="cls-6" d="M295.88,229.54c-1.33,0-2,2.65-2,4.64v75.63c0,2.66.66,6,2,6Z"/></g></mask><linearGradient id="linear-gradient-14" x1="295.58" y1="272.66" x2="293.33" y2="272.66" gradientUnits="userSpaceOnUse"><stop offset="0.31" stop-color="#676767"/><stop offset="0.41" stop-color="#525252"/><stop offset="0.53" stop-color="#3e3e3e"/><stop offset="0.65" stop-color="#313131"/><stop offset="0.77" stop-color="#2d2d2d"/></linearGradient></defs><g id="Layer_2" data-name="Layer 2"><g id="Layer_1-2" data-name="Layer 1"><path class="cls-8" d="M295.22,591.1c0,22.35-17.25,41.13-39.81,41.13H41.13C19.24,632.23,0,616.3,0,591.1V46.44C0,18.58,14.6,0,44.45,0H248.78c31.84,0,46.44,19.9,46.44,42.46Z"/><path class="cls-9" d="M282.47,14.57c-7.84-8-19.57-12.25-33.91-12.25H44.67c-14,0-24.77,4.11-32.13,12.2C5.62,22.14,2,33.37,2,47V590.52C2,602,6.05,612,13.78,619.27A39.85,39.85,0,0,0,41.36,629.9H255.18a37.11,37.11,0,0,0,27.11-11.64,40,40,0,0,0,11-27.74V43C293.25,31.78,289.42,21.67,282.47,14.57Z"/><path class="cls-10" d="M282.75,13.93c-7.85-8-19.6-12.27-34-12.27H44.45c-14,0-24.83,4.11-32.19,12.22-6.94,7.64-10.6,18.9-10.6,32.56V591.1c0,11.53,4.09,21.49,11.84,28.81a39.93,39.93,0,0,0,27.63,10.66H255.41a37.19,37.19,0,0,0,27.16-11.67,40.07,40.07,0,0,0,11-27.8V42.46C293.56,31.18,289.72,21.05,282.75,13.93Zm10.14,578.41a38.13,38.13,0,0,1-10.48,26.49,35.42,35.42,0,0,1-25.84,11.07H41.3a38.23,38.23,0,0,1-26.39-10.13c-7.37-6.95-11.26-16.43-11.26-27.43V46.53c0-13.19,3.5-24,10.13-31.28,7-7.7,17.39-11.6,30.86-11.6H249.91c13.88,0,25.19,4,32.7,11.7,6.63,6.76,10.28,16.41,10.28,27.19Z"/><rect class="cls-11" x="12.27" y="41.13" width="270.67" height="571.19" rx="27.86"/><g class="cls-12"><path class="cls-13" d="M165.19,23.22v-.66h-.67V21.23h-.66v1.33h-.66V21.23h-.67v1.33h-.66V21.23h-.66v1.33h-.67V21.23h-.66v1.33h-.66V21.23h-.67v1.33h-.66V21.23h-.66v1.33h-.67V21.23h-.66v1.33h-.66V21.23h-.67v1.33h-.66V21.23h-.66v1.33h-.67V21.23h-.66v1.33h-.66V21.23h-.67v1.33h-.66V21.23h-.66v1.33h-.67V21.23h-.66v1.33h-.66V21.23h-.67v1.33H146V21.23h-.66v1.33h-.67V21.23H144v1.33h-.66V21.23h-.67v1.33H142V21.23h-.66v1.33h-.67V21.23H140v1.33h-.66V21.23h-.67v1.33H138V21.23h-.66v1.33h-.67V21.23H136v1.33h-.67V21.23h-.66v1.33H134V21.23h-.67v1.33h-.66V21.23H132v1.33h-.67v.66H132v.67h-.67v.66H132v.66h-.67v.67H132v.66h-.67v.66H132v.67h.66V27.2h.66v.67H134V27.2h.66v.67h.66V27.2H136v.67h.66V27.2h.67v.67H138V27.2h.66v.67h.67V27.2H140v.67h.66V27.2h.67v.67H142V27.2h.66v.67h.67V27.2H144v.67h.66V27.2h.67v.67H146V27.2h.66v.67h.67V27.2h.66v.67h.66V27.2h.67v.67h.66V27.2h.66v.67h.67V27.2h.66v.67h.66V27.2h.67v.67h.66V27.2h.66v.67h.67V27.2h.66v.67h.66V27.2h.67v.67h.66V27.2h.66v.67h.67V27.2h.66v.67h.66V27.2h.67v.67h.66V27.2h.66v.67h.67V27.2h.66v.67h.66V27.2h.67v-.66h-.67v-.66h.67v-.67h-.67v-.66h.67v-.66h-.67v-.67Zm-2.66,0v.67h-.66v-.67Zm-27.2,1.33H136v.66h-.67Zm-.66.66H134v-.66h.66Zm2-.66h.67v.66h-.67Zm1.33,0h.66v.66H138Zm1.33,0H140v.66h-.66Zm1.32,0h.67v.66h-.67Zm1.33,0h.66v.66H142Zm1.33,0H144v.66h-.66Zm1.32,0h.67v.66h-.67Zm1.33,0h.66v.66H146Zm1.33,0h.66v.66h-.66Zm1.32,0h.67v.66h-.67Zm1.33,0h.66v.66h-.66Zm1.33,0h.66v.66h-.66Zm1.32,0h.67v.66h-.67Zm1.33,0h.66v.66h-.66Zm1.33,0h.66v.66h-.66Zm1.32,0h.67v.66h-.67Zm1.33,0h.66v.66h-.66Zm1.33,0h.66v.66h-.66Zm1.32,0h.67v.66h-.67Zm1.33,0h.66v.66h-.66Zm-.66-1.33v.67h-.67v-.67Zm-1.33,0v.67h-.66v-.67Zm-1.33,0v.67h-.66v-.67Zm-1.32,0v.67h-.67v-.67Zm-1.33,0v.67h-.66v-.67Zm-1.33,0v.67h-.66v-.67Zm-1.32,0v.67h-.67v-.67Zm-1.33,0v.67h-.66v-.67Zm-1.33,0v.67h-.66v-.67Zm-1.32,0v.67h-.67v-.67Zm-1.33,0v.67h-.66v-.67Zm-1.33,0v.67H146v-.67Zm-1.32,0v.67h-.67v-.67Zm-1.33,0v.67h-.66v-.67Zm-1.33,0v.67H142v-.67Zm-1.32,0v.67h-.67v-.67Zm-1.33,0v.67h-.66v-.67Zm-1.33,0v.67H138v-.67Zm-1.32,0v.67h-.67v-.67Zm-1.33,0v.67h-.67v-.67Zm-1.33,0v.67H134v-.67Zm-2,0h.66v.67h-.66Zm0,1.33h.66v.66h-.66Zm0,2v-.66h.66v.66Zm1.33,0v-.66h.66v.66Zm1.32,0v-.66H136v.66Zm1.33,0v-.66h.67v.66Zm1.33,0v-.66h.66v.66Zm1.33,0v-.66H140v.66Zm1.32,0v-.66h.67v.66Zm1.33,0v-.66h.66v.66Zm1.33,0v-.66H144v.66Zm1.32,0v-.66h.67v.66Zm1.33,0v-.66h.66v.66Zm1.33,0v-.66h.66v.66Zm1.32,0v-.66h.67v.66Zm1.33,0v-.66h.66v.66Zm1.33,0v-.66h.66v.66Zm1.32,0v-.66h.67v.66Zm1.33,0v-.66h.66v.66Zm1.33,0v-.66h.66v.66Zm1.32,0v-.66h.67v.66Zm1.33,0v-.66h.66v.66Zm1.33,0v-.66h.66v.66Zm1.32,0v-.66h.67v.66Zm1.33,0v-.66h.66v.66Zm2,0h-.66v-.66h.66Zm0-1.33h-.66v-.66h.66Zm0-1.32h-.66v-.67h.66Z"/></g><path class="cls-14" d="M162.54,21.9H134a2.65,2.65,0,1,0,0,5.3h28.53a2.65,2.65,0,1,0,0-5.3Zm0,4.77H134a2.12,2.12,0,0,1,0-4.24h28.53a2.12,2.12,0,1,1,0,4.24Z"/><path class="cls-15" d="M82.56,23.22A7.63,7.63,0,1,1,73,18.28,7.64,7.64,0,0,1,82.56,23.22Z"/><path class="cls-16" d="M79.86,23.21a4.94,4.94,0,1,1-6.79-1.62A4.94,4.94,0,0,1,79.86,23.21Z"/><path class="cls-17" d="M79.19,23.14a4.58,4.58,0,1,1-6.29-1.5A4.57,4.57,0,0,1,79.19,23.14Z"/><path class="cls-18" d="M78,25.54a2.75,2.75,0,1,1-2.75-2.74A2.75,2.75,0,0,1,78,25.54Z"/><path class="cls-19" d="M75.6,24.32a.92.92,0,1,1-.92-.91A.92.92,0,0,1,75.6,24.32Z"/><path class="cls-19" d="M77.9,26.37a2.11,2.11,0,0,0-1.39-.52A2.13,2.13,0,0,0,74.38,28c0,.05,0,.1,0,.15a3,3,0,0,0,.9.16A2.74,2.74,0,0,0,77.9,26.37Z"/><path class="cls-20" d="M7.63,48.43c0-12.15,4.36-22.67,10.28-29.19C24.1,12.42,34.2,7.63,46.44,7.63c0,0,149.93-1,210.3-1C226.22,4,44.45,5,44.45,5c-13,0-23,3.74-29.74,11.14C8.34,23.13,5,33.62,5,46.44l.33,281.28Z"/><g class="cls-21"><path class="cls-22" d="M7.63,48.43c0-12.15,4.36-22.67,10.28-29.19C24.1,12.42,34.2,7.63,46.44,7.63c0,0,149.93-1,210.3-1C226.22,4,44.45,5,44.45,5c-13,0-23,3.74-29.74,11.14C8.34,23.13,5,33.62,5,46.44l.33,281.28Z"/></g><path class="cls-23" d="M255.41,624.6H41.13c-12.6-.33-20.48-3.28-20.48-3.28a37.34,37.34,0,0,0,20.48,5.93H255.41a33.91,33.91,0,0,0,19.51-6.11A47.47,47.47,0,0,1,255.41,624.6Z"/><path class="cls-23" d="M288.38,27.12a119.66,119.66,0,0,1,1.2,17.33V591.1a80.61,80.61,0,0,1-1.78,15.74,37.33,37.33,0,0,0,3.44-15.74V42.46A41,41,0,0,0,288.38,27.12Z"/><path class="cls-24" d="M295.88,143.3c-1.33,0-2,2.65-2,4.64v33.17c0,2.65.66,6,2,6a1.38,1.38,0,0,0,1.33-1.33V144.62A1.37,1.37,0,0,0,295.88,143.3Z"/><g class="cls-25"><path class="cls-26" d="M295.88,143.3c-1.33,0-2,2.65-2,4.64v33.17c0,2.65.66,6,2,6Z"/></g><path class="cls-27" d="M295.88,229.54c-1.33,0-2,2.65-2,4.64v75.63c0,2.66.66,6,2,6a1.38,1.38,0,0,0,1.33-1.33V230.86A1.37,1.37,0,0,0,295.88,229.54Z"/><g class="cls-28"><path class="cls-29" d="M295.88,229.54c-1.33,0-2,2.65-2,4.64v75.63c0,2.66.66,6,2,6Z"/></g></g></g></svg>