<svg width="25" height="20" viewBox="0 0 25 20" fill="none" xmlns="http://www.w3.org/2000/svg">
<path d="M23.2432 0H1.62162C0.727407 0 0 0.727407 0 1.62162V18.3784C0 19.2726 0.727407 20 1.62162 20H23.2432C24.1375 20 24.8649 19.2726 24.8649 18.3784V1.62162C24.8649 0.727407 24.1375 0 23.2432 0ZM1.62162 1.08108H23.2432C23.5414 1.08108 23.7838 1.32364 23.7838 1.62162V3.78378H1.08108V1.62162C1.08108 1.32364 1.32351 1.08108 1.62162 1.08108ZM23.2432 18.9189H1.62162C1.32351 18.9189 1.08108 18.6764 1.08108 18.3784V4.86486H23.7838V18.3784C23.7838 18.6764 23.5414 18.9189 23.2432 18.9189ZM6.91617 2.81356C6.8135 2.71352 6.75676 2.57575 6.75676 2.43243C6.75676 2.28912 6.8135 2.15134 6.91617 2.04867C7.11611 1.84861 7.47836 1.84861 7.67829 2.04867C7.78109 2.15134 7.83784 2.28912 7.83784 2.43243C7.83784 2.57285 7.78109 2.71352 7.67829 2.81356C7.57839 2.91623 7.44048 2.97297 7.2973 2.97297C7.15398 2.97297 7.01621 2.91623 6.91617 2.81356ZM2.59185 2.81356C2.48918 2.71352 2.43243 2.57575 2.43243 2.43243C2.43243 2.28912 2.48918 2.15134 2.59185 2.04867C2.79178 1.84861 3.15403 1.84861 3.35396 2.04867C3.45677 2.15134 3.51351 2.28912 3.51351 2.43243C3.51351 2.57285 3.45677 2.71352 3.35396 2.81356C3.25406 2.91359 3.11616 2.97297 2.97297 2.97297C2.82966 2.97297 2.69188 2.91623 2.59185 2.81356ZM4.75401 2.81356C4.65134 2.71352 4.59459 2.57575 4.59459 2.43243C4.59459 2.28912 4.65134 2.15134 4.75401 2.04867C4.95394 1.84861 5.3162 1.84861 5.51613 2.04867C5.61893 2.15134 5.67568 2.28912 5.67568 2.43243C5.67568 2.57285 5.61893 2.71352 5.51613 2.81356C5.41623 2.91623 5.27832 2.97297 5.13513 2.97297C4.99182 2.97297 4.85404 2.91623 4.75401 2.81356ZM19.2219 8.5312C20.1919 9.5009 20.7261 10.7905 20.7261 12.1622C20.7261 13.5338 20.1919 14.8234 19.2219 15.7931C19.1163 15.8987 18.978 15.9515 18.8397 15.9515C18.7014 15.9515 18.563 15.8987 18.4576 15.7931C18.2464 15.582 18.2464 15.2399 18.4576 15.0288C19.2232 14.2631 19.645 13.2451 19.645 12.1622C19.645 11.0792 19.2232 10.0612 18.4576 9.29556C18.2464 9.08441 18.2464 8.74235 18.4576 8.5312C18.6684 8.32005 19.0108 8.32005 19.2219 8.5312ZM17.6931 14.2644C17.5876 14.37 17.4492 14.4228 17.3109 14.4228C17.1726 14.4228 17.0342 14.37 16.9287 14.2644C16.7176 14.0533 16.7176 13.7112 16.9287 13.5001C17.6663 12.7624 17.6663 11.562 16.9286 10.8243C16.7176 10.6131 16.7176 10.2708 16.9287 10.0599C17.1399 9.84876 17.4821 9.84876 17.6932 10.0599C18.8523 11.2191 18.8523 13.1052 17.6931 14.2644ZM16.1644 11.2067C16.6909 11.7335 16.6909 12.5908 16.1644 13.1176C16.0588 13.2232 15.9205 13.276 15.782 13.276C15.6437 13.276 15.5054 13.2232 15.3999 13.1176C15.1887 12.9067 15.1887 12.5644 15.3997 12.3533C15.505 12.2479 15.505 12.0764 15.3997 11.9711C15.1887 11.7599 15.1887 11.4176 15.3999 11.2067C15.6111 10.9956 15.9533 10.9956 16.1644 11.2067ZM13.2432 14.5946C12.9447 14.5946 12.7027 14.3526 12.7027 14.0541V12.1622C12.7027 11.8637 12.9447 11.6216 13.2432 11.6216C13.5418 11.6216 13.7838 11.8637 13.7838 12.1622V14.0541C13.7838 14.3526 13.5418 14.5946 13.2432 14.5946ZM9.72973 14.5946C9.43122 14.5946 9.18919 14.3526 9.18919 14.0541V12.1622C9.18919 11.8637 9.43122 11.6216 9.72973 11.6216C10.0282 11.6216 10.2703 11.8637 10.2703 12.1622V14.0541C10.2703 14.3526 10.0282 14.5946 9.72973 14.5946ZM6.21622 14.5946C5.9177 14.5946 5.67568 14.3526 5.67568 14.0541V12.1622C5.67568 11.8637 5.9177 11.6216 6.21622 11.6216C6.51473 11.6216 6.75676 11.8637 6.75676 12.1622V14.0541C6.75676 14.3526 6.51473 14.5946 6.21622 14.5946ZM14.5946 15.6757C14.5946 15.9742 14.3526 16.2162 14.0541 16.2162H5.40541C5.10689 16.2162 4.86486 15.9742 4.86486 15.6757C4.86486 15.3772 5.10689 15.1351 5.40541 15.1351H14.0541C14.3526 15.1351 14.5946 15.3772 14.5946 15.6757ZM14.2958 8.97593L9.97149 6.81377C9.8192 6.73775 9.64025 6.73775 9.48796 6.81377L5.16364 8.97593C4.9806 9.06751 4.86486 9.25464 4.86486 9.45946V10.5405C4.86486 10.8391 5.10689 11.0811 5.40541 11.0811H14.0541C14.3526 11.0811 14.5946 10.8391 14.5946 10.5405V9.45946C14.5946 9.25464 14.4789 9.06751 14.2958 8.97593ZM13.5135 10H5.94595V9.7936L9.72973 7.90171L13.5135 9.7936V10Z" fill="#20231F"/>
</svg>
