<svg width="97" height="24" viewBox="0 0 97 24" fill="none" xmlns="http://www.w3.org/2000/svg">
<path d="M36.2701 5.29688H30.9024C30.7247 5.29676 30.5528 5.36012 30.4176 5.47553C30.2825 5.59094 30.193 5.75081 30.1654 5.92635L27.9944 19.6908C27.9844 19.7546 27.9884 19.8199 28.006 19.8821C28.0237 19.9443 28.0546 20.0019 28.0967 20.051C28.1388 20.1001 28.191 20.1395 28.2498 20.1664C28.3085 20.1934 28.3724 20.2073 28.437 20.2072H30.9997C31.1775 20.2073 31.3495 20.1438 31.4846 20.0283C31.6198 19.9127 31.7092 19.7526 31.7367 19.577L32.3222 15.8645C32.3497 15.6889 32.439 15.529 32.5739 15.4134C32.7089 15.2979 32.8807 15.2343 33.0584 15.2342H34.7577C38.2936 15.2342 40.3342 13.5232 40.8672 10.1325C41.1073 8.64909 40.8774 7.48355 40.1828 6.66727C39.4199 5.77094 38.0667 5.29688 36.2701 5.29688ZM36.8894 10.324C36.5959 12.2501 35.1242 12.2501 33.7012 12.2501H32.8912L33.4595 8.65302C33.4761 8.54778 33.5298 8.45193 33.6108 8.38273C33.6918 8.31352 33.7948 8.27549 33.9014 8.27549H34.2726C35.2419 8.27549 36.1563 8.27549 36.6288 8.82804C36.9106 9.15769 36.9969 9.64746 36.8894 10.324ZM52.3154 10.262H49.7449C49.6384 10.262 49.5353 10.3 49.4543 10.3693C49.3733 10.4385 49.3197 10.5343 49.303 10.6395L49.1892 11.3585L49.0095 11.0979C48.453 10.2903 47.2121 10.0203 45.9736 10.0203C43.1331 10.0203 40.7071 12.1716 40.2346 15.1895C39.9889 16.6949 40.3382 18.1343 41.1921 19.1382C41.9754 20.0612 43.0962 20.4458 44.4297 20.4458C46.7184 20.4458 47.9876 18.9742 47.9876 18.9742L47.873 19.6884C47.8628 19.7523 47.8665 19.8176 47.884 19.8798C47.9015 19.9421 47.9322 19.9999 47.9741 20.0491C48.0161 20.0983 48.0682 20.1379 48.1269 20.1651C48.1855 20.1922 48.2494 20.2063 48.3141 20.2064H50.6295C50.8073 20.2065 50.9793 20.143 51.1144 20.0275C51.2496 19.9119 51.339 19.7518 51.3665 19.5762L52.7557 10.7785C52.7659 10.7148 52.7622 10.6496 52.7448 10.5874C52.7274 10.5253 52.6967 10.4677 52.6548 10.4186C52.6129 10.3695 52.5609 10.3301 52.5023 10.303C52.4437 10.276 52.3799 10.262 52.3154 10.262ZM48.7324 15.2648C48.4844 16.7333 47.3189 17.7191 45.8323 17.7191C45.0859 17.7191 44.4894 17.4798 44.1064 17.0261C43.7265 16.5756 43.5821 15.9343 43.7029 15.2201C43.9345 13.7641 45.1196 12.7462 46.5834 12.7462C47.3134 12.7462 47.9067 12.9887 48.2976 13.4463C48.6893 13.9086 48.8447 14.5537 48.7324 15.2648ZM66.0053 10.262H63.4222C63.3004 10.2622 63.1805 10.2921 63.0728 10.3492C62.9652 10.4062 62.8731 10.4886 62.8045 10.5893L59.242 15.837L57.7319 10.7942C57.6855 10.6404 57.5909 10.5056 57.4619 10.4097C57.333 10.3139 57.1767 10.2621 57.016 10.262H54.4777C54.4065 10.2618 54.3362 10.2787 54.2728 10.3111C54.2094 10.3436 54.1546 10.3907 54.1131 10.4486C54.0715 10.5065 54.0444 10.5735 54.034 10.6439C54.0236 10.7144 54.0301 10.7864 54.0531 10.8538L56.8983 19.2034L54.2234 22.9794C54.1759 23.0464 54.1477 23.1251 54.1419 23.207C54.1362 23.2889 54.1531 23.3708 54.1908 23.4438C54.2285 23.5167 54.2855 23.5779 54.3556 23.6206C54.4258 23.6633 54.5063 23.6858 54.5884 23.6858H57.1683C57.2888 23.686 57.4075 23.6569 57.5142 23.6011C57.621 23.5454 57.7126 23.4645 57.7813 23.3656L66.3726 10.9645C66.4192 10.8974 66.4465 10.8188 66.4516 10.7373C66.4567 10.6558 66.4393 10.5745 66.4015 10.5021C66.3637 10.4297 66.3067 10.3691 66.2369 10.3268C66.167 10.2844 66.0869 10.2621 66.0053 10.262Z" fill="#253B80"/>
<path d="M74.5571 5.29717H69.1886C69.011 5.29725 68.8393 5.36069 68.7043 5.47608C68.5694 5.59147 68.48 5.75124 68.4523 5.92664L66.2814 19.6911C66.2713 19.7548 66.2751 19.82 66.2927 19.8821C66.3102 19.9443 66.341 20.0019 66.3829 20.051C66.4248 20.1 66.4769 20.1395 66.5355 20.1665C66.5941 20.1935 66.6579 20.2075 66.7225 20.2075H69.4774C69.6017 20.2073 69.7218 20.1628 69.8162 20.0819C69.9106 20.0011 69.973 19.8892 69.9923 19.7664L70.6084 15.8648C70.6359 15.6892 70.7252 15.5293 70.8602 15.4137C70.9951 15.2982 71.1669 15.2346 71.3446 15.2345H73.0431C76.5798 15.2345 78.6197 13.5235 79.1534 10.1328C79.3943 8.64939 79.1628 7.48384 78.4682 6.66757C77.7061 5.77124 76.3537 5.29717 74.5571 5.29717ZM75.1764 10.3243C74.8836 12.2504 73.412 12.2504 71.9882 12.2504H71.179L71.7481 8.65331C71.7644 8.54807 71.8178 8.45215 71.8987 8.3829C71.9796 8.31365 72.0827 8.27565 72.1892 8.27579H72.5604C73.5289 8.27579 74.4441 8.27579 74.9166 8.82834C75.1984 9.15799 75.2839 9.64775 75.1764 10.3243ZM90.6016 10.2623H88.0327C87.9262 10.262 87.8231 10.3 87.7421 10.3692C87.6612 10.4385 87.6078 10.5345 87.5916 10.6398L87.4778 11.3588L87.2973 11.0982C86.7408 10.2906 85.5007 10.0206 84.2622 10.0206C81.4217 10.0206 78.9964 12.1719 78.5239 15.1898C78.279 16.6952 78.6267 18.1346 79.4807 19.1385C80.2656 20.0615 81.3848 20.4461 82.7183 20.4461C85.007 20.4461 86.2762 18.9745 86.2762 18.9745L86.1616 19.6887C86.1513 19.7527 86.1551 19.8181 86.1727 19.8805C86.1902 19.9429 86.2211 20.0007 86.2632 20.05C86.3053 20.0993 86.3576 20.1388 86.4165 20.1658C86.4754 20.1929 86.5394 20.2069 86.6042 20.2067H88.9188C89.0965 20.2066 89.2683 20.1431 89.4033 20.0275C89.5383 19.912 89.6276 19.752 89.6551 19.5765L91.0451 10.7788C91.0549 10.7148 91.0508 10.6496 91.0331 10.5874C91.0153 10.5252 90.9843 10.4676 90.9422 10.4185C90.9 10.3695 90.8478 10.3301 90.789 10.3031C90.7302 10.2762 90.6663 10.2622 90.6016 10.2623ZM87.0187 15.2651C86.7722 16.7336 85.6051 17.7194 84.1185 17.7194C83.3737 17.7194 82.7756 17.4801 82.3926 17.0264C82.0127 16.5759 81.8698 15.9346 81.9891 15.2204C82.2223 13.7644 83.4059 12.7465 84.8697 12.7465C85.5996 12.7465 86.193 12.989 86.5838 13.4466C86.9771 13.9089 87.1325 14.554 87.0187 15.2651ZM93.632 5.6747L91.4289 19.6911C91.4188 19.7548 91.4226 19.82 91.4402 19.8821C91.4577 19.9443 91.4885 20.0019 91.5304 20.051C91.5723 20.1 91.6244 20.1395 91.683 20.1665C91.7416 20.1935 91.8054 20.2075 91.87 20.2075H94.0849C94.453 20.2075 94.7654 19.9407 94.8219 19.5773L96.9945 5.81362C97.0045 5.74982 97.0007 5.68459 96.9832 5.62242C96.9657 5.56025 96.9349 5.50261 96.893 5.45347C96.8511 5.40432 96.799 5.36483 96.7404 5.33772C96.6818 5.3106 96.6179 5.2965 96.5534 5.29639H94.0731C93.9667 5.29676 93.8638 5.33504 93.783 5.40436C93.7021 5.47368 93.6486 5.56952 93.632 5.6747Z" fill="#179BD7"/>
<path d="M5.70293 22.8823L6.11343 20.275L5.19904 20.2538H0.832764L3.8671 1.01406C3.87614 0.955276 3.906 0.901693 3.95123 0.863082C3.99647 0.82447 4.05408 0.803401 4.11356 0.803714H11.4757C13.9198 0.803714 15.6065 1.31232 16.4872 2.31618C16.9 2.7871 17.1629 3.27922 17.2901 3.82079C17.4235 4.38904 17.4259 5.06796 17.2956 5.89601L17.2862 5.95644V6.48702L17.699 6.72091C18.0142 6.88059 18.2975 7.09659 18.5349 7.35824C18.8881 7.76088 19.1165 8.27262 19.213 8.87933C19.3127 9.50331 19.2798 10.2458 19.1165 11.0864C18.9281 12.0534 18.6236 12.8956 18.2123 13.5847C17.8495 14.202 17.3616 14.7367 16.7799 15.1544C16.2336 15.5422 15.5846 15.8365 14.8507 16.0249C14.1396 16.2101 13.3288 16.3035 12.4395 16.3035H11.8666C11.4569 16.3035 11.0589 16.4511 10.7466 16.7156C10.4346 16.9829 10.2277 17.3522 10.1626 17.7579L10.1194 17.9926L9.39422 22.588L9.36125 22.7568C9.35262 22.8101 9.33771 22.8368 9.31573 22.8549C9.29444 22.8723 9.26788 22.882 9.24038 22.8823H5.70293Z" fill="#253B80"/>
<path d="M18.09 6.01758C18.068 6.15807 18.0429 6.3017 18.0146 6.44926C17.0437 11.434 13.7221 13.156 9.47984 13.156H7.31985C6.80104 13.156 6.36387 13.5328 6.28302 14.0445L5.17713 21.0582L4.86396 23.0463C4.85149 23.1252 4.85625 23.2058 4.87793 23.2826C4.8996 23.3595 4.93767 23.4307 4.98951 23.4914C5.04135 23.5521 5.10574 23.6009 5.17823 23.6344C5.25073 23.6678 5.32961 23.6852 5.40946 23.6852H9.24045C9.69411 23.6852 10.0795 23.3555 10.1509 22.9082L10.1886 22.7135L10.9099 18.1361L10.9562 17.8849C11.0268 17.436 11.413 17.1063 11.8667 17.1063H12.4396C16.1513 17.1063 19.0569 15.5994 19.9062 11.2386C20.2609 9.41689 20.0773 7.89579 19.1386 6.826C18.841 6.49507 18.4857 6.22112 18.09 6.01758Z" fill="#179BD7"/>
<path d="M17.0743 5.61293C16.7642 5.52325 16.4489 5.45325 16.13 5.40336C15.5 5.30654 14.8633 5.26009 14.2259 5.26444H8.4555C8.2359 5.26427 8.02348 5.34267 7.85664 5.48547C7.6898 5.62827 7.57956 5.82604 7.54583 6.04304L6.31828 13.818L6.28296 14.0449C6.3212 13.7974 6.44677 13.5717 6.63694 13.4088C6.82711 13.2458 7.06934 13.1563 7.31978 13.1564H9.47977C13.722 13.1564 17.0436 11.4336 18.0145 6.44961C18.0436 6.30205 18.0679 6.15842 18.0899 6.01792C17.8337 5.88357 17.5667 5.77094 17.2917 5.68121C17.2196 5.65729 17.1471 5.63452 17.0743 5.61293Z" fill="#222D65"/>
<path d="M7.54575 6.04278C7.57919 5.82572 7.68938 5.62785 7.8563 5.48513C8.02323 5.3424 8.23581 5.26428 8.45543 5.26497H14.2259C14.9095 5.26497 15.5476 5.3097 16.13 5.40389C16.5241 5.46583 16.9127 5.55846 17.2924 5.68095C17.5789 5.77592 17.8449 5.88816 18.0906 6.01766C18.3794 4.17555 18.0882 2.92132 17.0922 1.7856C15.9942 0.535287 14.0124 0 11.4764 0H4.11426C3.59624 0 3.15436 0.376742 3.0743 0.889268L0.00777792 20.3268C-0.00650542 20.417 -0.0010711 20.5093 0.0237071 20.5972C0.0484852 20.6852 0.0920192 20.7667 0.151314 20.8362C0.21061 20.9057 0.284259 20.9616 0.367196 20.9999C0.450133 21.0383 0.540389 21.0582 0.631756 21.0583H5.17699L6.3182 13.8178L7.54575 6.04278Z" fill="#253B80"/>
</svg>
