<svg width="109" height="109" viewBox="0 0 109 109" fill="none" xmlns="http://www.w3.org/2000/svg">
<circle cx="54.5" cy="54.5" r="54" fill="white" stroke="url(#paint0_linear_1224_31734)"/>
<path d="M44.8262 16.4062H47.2754C47.6777 16.4062 48.0176 16.2715 48.2949 16.002C48.5762 15.7285 48.7168 15.3438 48.7168 14.8477C48.7168 14.4766 48.5703 14.1445 48.2773 13.8516C47.9844 13.5547 47.6504 13.4062 47.2754 13.4062H43.6543V21H43.2324V12.9844H47.2754C47.7676 12.9844 48.2012 13.1738 48.5762 13.5527C48.9512 13.9316 49.1387 14.3633 49.1387 14.8477C49.1387 15.4453 48.957 15.9258 48.5938 16.2891C48.2305 16.6484 47.791 16.8281 47.2754 16.8281H44.8262V16.4062ZM44.8262 17.25H47.2754C47.6816 17.25 48.0566 17.1523 48.4004 16.957C48.748 16.7578 49.0273 16.4727 49.2383 16.1016C49.4531 15.7305 49.5605 15.3125 49.5605 14.8477C49.5605 14.2461 49.3301 13.7148 48.8691 13.2539C48.4121 12.793 47.8809 12.5625 47.2754 12.5625H42.8105V21H42.3887V12.1406H47.2754C47.748 12.1406 48.1934 12.2656 48.6113 12.5156C49.0293 12.7656 49.3613 13.0996 49.6074 13.5176C49.8574 13.9355 49.9824 14.3789 49.9824 14.8477C49.9824 15.3789 49.8574 15.8633 49.6074 16.3008C49.3574 16.7344 49.0254 17.0723 48.6113 17.3145C48.2012 17.5527 47.7559 17.6719 47.2754 17.6719H44.8262V17.25ZM44.8262 18.0938H47.2754C47.6934 18.0938 48.0938 18.0117 48.4766 17.8477C48.8594 17.6797 49.1914 17.4551 49.4727 17.1738C49.7578 16.8887 49.9844 16.5449 50.1523 16.1426C50.3203 15.7363 50.4043 15.3047 50.4043 14.8477C50.4043 14.3008 50.2617 13.7871 49.9766 13.3066C49.6914 12.8223 49.3066 12.4375 48.8223 12.1523C48.3418 11.8633 47.8262 11.7188 47.2754 11.7188H41.9668V21H41.5449V11.2969H47.2754C47.9004 11.2969 48.4863 11.4609 49.0332 11.7891C49.5801 12.1133 50.0156 12.5488 50.3398 13.0957C50.6641 13.6426 50.8262 14.2266 50.8262 14.8477C50.8262 15.4023 50.7305 15.9141 50.5391 16.3828C50.3477 16.8477 50.0898 17.2344 49.7656 17.543C49.4414 17.8516 49.0645 18.0918 48.6348 18.2637C48.2051 18.4316 47.752 18.5156 47.2754 18.5156H44.8262V18.0938ZM44.498 21H44.0762V13.8281H47.2754C47.5527 13.8281 47.791 13.9297 47.9902 14.1328C48.1934 14.3359 48.2949 14.5742 48.2949 14.8477C48.2949 15.6055 47.9551 15.9844 47.2754 15.9844H44.8262V15.5625H47.2754C47.4629 15.5625 47.6094 15.5098 47.7148 15.4043C47.8203 15.2988 47.873 15.1133 47.873 14.8477C47.873 14.6758 47.8145 14.5332 47.6973 14.4199C47.584 14.3066 47.4434 14.25 47.2754 14.25H44.498V21ZM59.5039 15.9316H59.9258V21H59.5039V15.9316ZM61.1914 15.9316H61.6133V21H61.1914V15.9316ZM60.3477 15.9316H60.7695V21H60.3477V15.9316ZM59.082 15.9316V21C58.3398 21.2812 57.5703 21.4219 56.7734 21.4219C56.082 21.4219 55.4199 21.2949 54.7871 21.041C54.1543 20.7871 53.5977 20.4355 53.1172 19.9863C52.6367 19.5332 52.252 18.9746 51.9629 18.3105C51.6777 17.6426 51.5352 16.9219 51.5352 16.1484C51.5352 15.4336 51.6738 14.752 51.9512 14.1035C52.2324 13.4512 52.6074 12.8906 53.0762 12.4219C53.5488 11.9492 54.1094 11.5742 54.7578 11.2969C55.4102 11.0156 56.0938 10.875 56.8086 10.875C57.6992 10.875 58.5273 11.082 59.293 11.4961C60.0586 11.9102 60.6836 12.4727 61.168 13.1836L60.8164 13.4121C60.3711 12.7598 59.7949 12.2441 59.0879 11.8652C58.3848 11.4863 57.625 11.2969 56.8086 11.2969C56.1523 11.2969 55.5234 11.4258 54.9219 11.6836C54.3242 11.9375 53.8086 12.2812 53.375 12.7148C52.9414 13.1484 52.5957 13.666 52.3379 14.2676C52.084 14.8652 51.957 15.4922 51.957 16.1484C51.957 16.8555 52.0879 17.5156 52.3496 18.1289C52.6152 18.7422 52.9668 19.2559 53.4043 19.6699C53.8457 20.084 54.3574 20.4102 54.9395 20.6484C55.5215 20.8828 56.127 21 56.7559 21C57.416 21 58.0508 20.8965 58.6602 20.6895V20.2852C58.0781 20.4805 57.4668 20.5781 56.8262 20.5781C56.3613 20.5781 55.9082 20.5137 55.4668 20.3848C55.0293 20.252 54.623 20.0586 54.248 19.8047C53.877 19.5469 53.5508 19.2422 53.2695 18.8906C52.9922 18.5352 52.7734 18.123 52.6133 17.6543C52.457 17.1816 52.3789 16.6797 52.3789 16.1484C52.3789 15.3477 52.5762 14.6074 52.9707 13.9277C53.3691 13.248 53.9082 12.7109 54.5879 12.3164C55.2676 11.918 56.0078 11.7188 56.8086 11.7188C57.5586 11.7188 58.2559 11.8945 58.9004 12.2461C59.5449 12.5938 60.0703 13.0664 60.4766 13.6641L60.125 13.8926C59.7578 13.3535 59.2812 12.9277 58.6953 12.6152C58.1133 12.2988 57.4844 12.1406 56.8086 12.1406C56.2656 12.1406 55.7461 12.2461 55.25 12.457C54.7539 12.668 54.3262 12.9531 53.9668 13.3125C53.6113 13.668 53.3281 14.0938 53.1172 14.5898C52.9062 15.0859 52.8008 15.6055 52.8008 16.1484C52.8008 16.6367 52.8711 17.0957 53.0117 17.5254C53.1562 17.9512 53.3535 18.3242 53.6035 18.6445C53.8574 18.9609 54.1523 19.2344 54.4883 19.4648C54.8242 19.6914 55.1895 19.8633 55.584 19.9805C55.9824 20.0977 56.3906 20.1562 56.8086 20.1562C57.457 20.1562 58.0742 20.0469 58.6602 19.8281V19.4062C58.082 19.6289 57.4785 19.7402 56.8496 19.7402C56.373 19.7402 55.918 19.6602 55.4844 19.5C55.0508 19.3359 54.6641 19.1055 54.3242 18.8086C53.9883 18.5117 53.7207 18.1328 53.5215 17.6719C53.3223 17.2109 53.2227 16.7031 53.2227 16.1484C53.2227 15.5 53.3828 14.9004 53.7031 14.3496C54.0234 13.7988 54.459 13.3633 55.0098 13.043C55.5605 12.7227 56.1602 12.5625 56.8086 12.5625C57.4141 12.5625 57.9766 12.7031 58.4961 12.9844C59.0195 13.2656 59.4453 13.6484 59.7734 14.1328L59.4219 14.3613C59.1328 13.9395 58.7578 13.6055 58.2969 13.3594C57.8398 13.1094 57.3438 12.9844 56.8086 12.9844C56.2344 12.9844 55.7051 13.127 55.2207 13.4121C54.7363 13.6934 54.3516 14.0762 54.0664 14.5605C53.7852 15.0449 53.6445 15.5742 53.6445 16.1484C53.6445 16.5469 53.7012 16.918 53.8145 17.2617C53.9277 17.6055 54.084 17.9023 54.2832 18.1523C54.4824 18.4023 54.7148 18.6152 54.9805 18.791C55.25 18.9668 55.5391 19.0996 55.8477 19.1895C56.1562 19.2754 56.4766 19.3184 56.8086 19.3184C57.4688 19.3184 58.0859 19.1875 58.6602 18.9258V18.5215C58.1055 18.7676 57.5059 18.8906 56.8613 18.8906C56.4902 18.8906 56.1406 18.834 55.8125 18.7207C55.4844 18.6074 55.1875 18.4414 54.9219 18.2227C54.6602 18.0039 54.4512 17.7168 54.2949 17.3613C54.1426 17.002 54.0664 16.5977 54.0664 16.1484C54.0664 15.7773 54.1387 15.4238 54.2832 15.0879C54.4277 14.748 54.623 14.4551 54.8691 14.209C55.1152 13.9629 55.4062 13.7676 55.7422 13.623C56.082 13.4785 56.4375 13.4062 56.8086 13.4062C57.2734 13.4062 57.7051 13.5156 58.1035 13.7344C58.502 13.9492 58.8262 14.2422 59.0762 14.6133L58.7305 14.8418C58.5195 14.5293 58.2441 14.2832 57.9043 14.1035C57.5684 13.9199 57.2031 13.8281 56.8086 13.8281C56.168 13.8281 55.6211 14.0547 55.168 14.5078C54.7148 14.9609 54.4883 15.5078 54.4883 16.1484C54.4883 16.543 54.5527 16.8926 54.6816 17.1973C54.8105 17.498 54.9863 17.7402 55.209 17.9238C55.4355 18.1035 55.6855 18.2402 55.959 18.334C56.2363 18.4238 56.5332 18.4688 56.8496 18.4688C57.498 18.4688 58.1016 18.334 58.6602 18.0645V15.9316H59.082ZM65.252 18.8848C64.3457 18.8848 63.5625 18.791 62.9023 18.6035L62.9844 18.2109C63.5234 18.3789 64.2793 18.4629 65.252 18.4629C65.8301 18.4629 66.1191 18.3105 66.1191 18.0059C66.1191 17.7637 65.8398 17.6426 65.2812 17.6426H64.0039V17.2207H65.2871C65.6465 17.2207 65.9453 17.2832 66.1836 17.4082C66.4219 17.5332 66.541 17.7324 66.541 18.0059C66.541 18.2988 66.4199 18.5195 66.1777 18.668C65.9395 18.8125 65.6309 18.8848 65.252 18.8848ZM66.4707 14.7246L66.0664 14.6367C66.1016 14.5781 66.1191 14.4805 66.1191 14.3438C66.1191 14 65.8301 13.8281 65.252 13.8281C64.2793 13.8281 63.5234 13.9121 62.9844 14.0801L62.9023 13.6875C63.5625 13.5 64.3457 13.4062 65.252 13.4062C65.6309 13.4062 65.9395 13.4844 66.1777 13.6406C66.4199 13.7969 66.541 14.0312 66.541 14.3438C66.541 14.5117 66.5176 14.6387 66.4707 14.7246ZM62.8203 13.2891L62.7383 12.8789C63.4688 12.668 64.3066 12.5625 65.252 12.5625C65.8613 12.5625 66.3691 12.7227 66.7754 13.043C67.1816 13.3594 67.3848 13.793 67.3848 14.3438C67.3848 14.5664 67.3418 14.7871 67.2559 15.0059L66.8633 14.8477C66.9297 14.6992 66.9629 14.5312 66.9629 14.3438C66.9629 13.9141 66.8008 13.5801 66.4766 13.3418C66.1523 13.1035 65.7441 12.9844 65.252 12.9844C64.3457 12.9844 63.5352 13.0859 62.8203 13.2891ZM67.9824 15.4043L67.6367 15.1934C67.75 14.9238 67.8066 14.6406 67.8066 14.3438C67.8066 13.6758 67.5625 13.1426 67.0742 12.7441C66.5859 12.3418 65.9785 12.1406 65.252 12.1406C64.3574 12.1406 63.4922 12.2539 62.6562 12.4805L62.5684 12.0586C63.377 11.832 64.2715 11.7188 65.252 11.7188C65.7988 11.7188 66.2969 11.8242 66.7461 12.0352C67.1953 12.2461 67.5547 12.5547 67.8242 12.9609C68.0938 13.3633 68.2285 13.8242 68.2285 14.3438C68.2285 14.7227 68.1465 15.0762 67.9824 15.4043ZM68.6094 16.0137L68.3047 15.6973C68.5352 15.2793 68.6504 14.8281 68.6504 14.3438C68.6504 13.7461 68.4961 13.2129 68.1875 12.7441C67.8828 12.2754 67.4727 11.918 66.957 11.6719C66.4453 11.4219 65.877 11.2969 65.252 11.2969C64.2949 11.2969 63.373 11.4141 62.4863 11.6484L62.3984 11.2266C63.25 10.9922 64.2012 10.875 65.252 10.875C65.7754 10.875 66.2695 10.959 66.7344 11.127C67.2031 11.2949 67.6094 11.5293 67.9531 11.8301C68.2969 12.127 68.5684 12.4941 68.7676 12.9316C68.9707 13.3652 69.0723 13.8359 69.0723 14.3438C69.0723 14.957 68.918 15.5137 68.6094 16.0137ZM65.252 19.3066C65.7441 19.3066 66.1523 19.1934 66.4766 18.9668C66.8008 18.7363 66.9629 18.416 66.9629 18.0059C66.9629 17.627 66.8027 17.332 66.4824 17.1211C66.166 16.9062 65.7832 16.7988 65.334 16.7988H64.0039V16.377H65.3398C65.9062 16.377 66.3887 16.5254 66.7871 16.8223C67.1855 17.1152 67.3848 17.5098 67.3848 18.0059C67.3848 18.541 67.1816 18.9629 66.7754 19.2715C66.3691 19.5762 65.8613 19.7285 65.252 19.7285C64.3066 19.7285 63.4688 19.623 62.7383 19.4121L62.8203 19.002C63.5352 19.2051 64.3457 19.3066 65.252 19.3066ZM65.252 20.1504C65.9785 20.1504 66.5859 19.957 67.0742 19.5703C67.5625 19.1797 67.8066 18.6582 67.8066 18.0059C67.8066 17.3848 67.5664 16.8887 67.0859 16.5176C66.6094 16.1426 66.0352 15.9551 65.3633 15.9551H64.0039V15.5332H65.375C65.8906 15.5332 66.3672 15.6426 66.8047 15.8613C67.2422 16.0762 67.5879 16.375 67.8418 16.7578C68.0996 17.1367 68.2285 17.5527 68.2285 18.0059C68.2285 18.5137 68.0938 18.9648 67.8242 19.3594C67.5547 19.7539 67.1953 20.0547 66.7461 20.2617C66.2969 20.4688 65.7988 20.5723 65.252 20.5723C64.2715 20.5723 63.377 20.459 62.5684 20.2324L62.6562 19.8105C63.4922 20.0371 64.3574 20.1504 65.252 20.1504ZM65.252 20.9941C65.877 20.9941 66.4453 20.873 66.957 20.6309C67.4727 20.3848 67.8828 20.0332 68.1875 19.5762C68.4961 19.1152 68.6504 18.5918 68.6504 18.0059C68.6504 17.5762 68.5566 17.1777 68.3691 16.8105C68.1816 16.4395 67.9336 16.1328 67.625 15.8906C67.3203 15.6445 66.9727 15.4531 66.582 15.3164C66.1914 15.1797 65.7891 15.1113 65.375 15.1113H64.0039V14.6895H65.3984C65.8789 14.6895 66.3398 14.7695 66.7812 14.9297C67.2266 15.0898 67.6172 15.3105 67.9531 15.5918C68.293 15.873 68.5645 16.2246 68.7676 16.6465C68.9707 17.0645 69.0723 17.5176 69.0723 18.0059C69.0723 18.6699 68.9004 19.2637 68.5566 19.7871C68.2129 20.3105 67.75 20.7129 67.168 20.9941C66.5898 21.2754 65.9512 21.416 65.252 21.416C64.2012 21.416 63.25 21.2988 62.3984 21.0645L62.4863 20.6426C63.373 20.877 64.2949 20.9941 65.252 20.9941Z" fill="#14B8A6"/>
<path d="M50.2256 30.7771C51.364 29.6385 52.8998 29 54.5 29C56.1003 29 57.636 29.6386 58.7744 30.7772C58.8393 30.8457 58.8751 30.9371 58.8742 31.032C58.8733 31.1269 58.8357 31.2176 58.7696 31.2848C58.7034 31.352 58.6139 31.3904 58.5202 31.3916C58.4265 31.3928 58.336 31.3569 58.2682 31.2915C57.2647 30.2875 55.9108 29.7245 54.5 29.7245C53.0892 29.7245 51.7353 30.2875 50.7318 31.2915C50.664 31.3573 50.5734 31.3935 50.4795 31.3925C50.3856 31.3914 50.2959 31.353 50.2296 31.2857C50.1633 31.2183 50.1257 31.1273 50.125 31.0322C50.1242 30.9371 50.1604 30.8455 50.2256 30.7771ZM57.5123 32.4186C57.5826 32.4174 57.6511 32.3955 57.7093 32.3555C57.7675 32.3155 57.8128 32.2592 57.8398 32.1934C57.8668 32.1277 57.8742 32.0553 57.8612 31.9854C57.8481 31.9154 57.8151 31.8508 57.7663 31.7996C56.8981 30.9261 55.7239 30.4359 54.5 30.4359C53.2761 30.4359 52.1019 30.9261 51.2337 31.7995C51.1688 31.8682 51.1331 31.9598 51.1343 32.0548C51.1354 32.1498 51.1733 32.2406 51.2398 32.3076C51.3062 32.3747 51.396 32.4126 51.4899 32.4134C51.5837 32.4142 51.6741 32.3777 51.7416 32.3117C52.4749 31.5743 53.4664 31.1604 54.5 31.1604C55.5335 31.1604 56.5251 31.5743 57.2583 32.3117C57.2916 32.3456 57.3312 32.3726 57.3748 32.3909C57.4184 32.4092 57.4651 32.4186 57.5123 32.4186ZM52.2395 32.8167C52.1744 32.8852 52.1385 32.9769 52.1394 33.0719C52.1403 33.1669 52.178 33.2578 52.2444 33.325C52.3108 33.3922 52.4005 33.4304 52.4944 33.4313C52.5883 33.4323 52.6788 33.3959 52.7464 33.33C53.212 32.86 53.8426 32.5961 54.5 32.5961C55.1575 32.5961 55.7881 32.86 56.2536 33.33C56.2868 33.364 56.3264 33.3911 56.3699 33.4096C56.4135 33.4281 56.4603 33.4377 56.5075 33.4378C56.5548 33.4379 56.6016 33.4286 56.6452 33.4104C56.6889 33.3921 56.7286 33.3653 56.762 33.3315C56.7954 33.2977 56.8219 33.2575 56.8399 33.2133C56.8579 33.1691 56.8671 33.1217 56.867 33.0738C56.8669 33.026 56.8574 32.9787 56.8391 32.9345C56.8208 32.8904 56.7941 32.8504 56.7605 32.8168C56.4642 32.5152 56.112 32.2759 55.7241 32.1126C55.3361 31.9493 54.9202 31.8653 54.5 31.8653C54.0799 31.8653 53.6639 31.9493 53.276 32.1126C52.888 32.2759 52.5358 32.5152 52.2395 32.8167ZM63.2221 36.6744H45.7779C45.6757 36.6743 45.5745 36.6946 45.4801 36.7342C45.3857 36.7737 45.2999 36.8317 45.2276 36.9049C45.1554 36.978 45.0981 37.0649 45.059 37.1605C45.02 37.2561 44.9999 37.3585 45 37.462V38.6343H64V37.462C64.0001 37.3585 63.98 37.2561 63.941 37.1605C63.9019 37.0649 63.8446 36.978 63.7724 36.9049C63.7001 36.8317 63.6143 36.7737 63.5199 36.7342C63.4255 36.6946 63.3243 36.6743 63.2221 36.6744ZM45 41.3201H64V39.3602H45V41.3201ZM45 42.046H64V48.2088C64.0003 48.4181 63.9186 48.619 63.7727 48.7673C63.6269 48.9157 63.4288 48.9994 63.2221 49H45.7779C45.5712 48.9994 45.3731 48.9157 45.2273 48.7673C45.0814 48.619 44.9997 48.4181 45 48.2088V42.046ZM58.0849 47.5881C58.0852 47.6843 58.123 47.7765 58.1902 47.8445C58.2574 47.9125 58.3484 47.9508 58.4434 47.9511H61.3113C61.4063 47.9508 61.4973 47.9125 61.5645 47.8445C61.6317 47.7765 61.6695 47.6843 61.6698 47.5881V46.1363C61.6695 46.0402 61.6317 45.948 61.5645 45.88C61.4973 45.812 61.4063 45.7737 61.3113 45.7734H58.4434C58.3484 45.7737 58.2574 45.812 58.1902 45.88C58.123 45.948 58.0852 46.0402 58.0849 46.1363V47.5881ZM60.9528 46.4993H58.8019V47.2252H60.9528L60.9528 46.4993Z" fill="url(#paint1_linear_1224_31734)"/>
<defs>
<linearGradient id="paint0_linear_1224_31734" x1="8.5" y1="2.96297e-07" x2="54.5" y2="109" gradientUnits="userSpaceOnUse">
<stop stop-color="#14B8A6"/>
<stop offset="1" stop-color="#14B8A6" stop-opacity="0"/>
</linearGradient>
<linearGradient id="paint1_linear_1224_31734" x1="45.0002" y1="39" x2="63.9998" y2="39" gradientUnits="userSpaceOnUse">
<stop stop-color="#1C75BC"/>
<stop offset="1" stop-color="#14B8A6"/>
</linearGradient>
</defs>
</svg>
