<svg width="109" height="109" viewBox="0 0 109 109" fill="none" xmlns="http://www.w3.org/2000/svg">
<circle cx="54.5" cy="54.5" r="54" fill="white" stroke="url(#paint0_linear_1224_31746)"/>
<path d="M44.8262 16.4062H47.2754C47.6777 16.4062 48.0176 16.2715 48.2949 16.002C48.5762 15.7285 48.7168 15.3438 48.7168 14.8477C48.7168 14.4766 48.5703 14.1445 48.2773 13.8516C47.9844 13.5547 47.6504 13.4062 47.2754 13.4062H43.6543V21H43.2324V12.9844H47.2754C47.7676 12.9844 48.2012 13.1738 48.5762 13.5527C48.9512 13.9316 49.1387 14.3633 49.1387 14.8477C49.1387 15.4453 48.957 15.9258 48.5938 16.2891C48.2305 16.6484 47.791 16.8281 47.2754 16.8281H44.8262V16.4062ZM44.8262 17.25H47.2754C47.6816 17.25 48.0566 17.1523 48.4004 16.957C48.748 16.7578 49.0273 16.4727 49.2383 16.1016C49.4531 15.7305 49.5605 15.3125 49.5605 14.8477C49.5605 14.2461 49.3301 13.7148 48.8691 13.2539C48.4121 12.793 47.8809 12.5625 47.2754 12.5625H42.8105V21H42.3887V12.1406H47.2754C47.748 12.1406 48.1934 12.2656 48.6113 12.5156C49.0293 12.7656 49.3613 13.0996 49.6074 13.5176C49.8574 13.9355 49.9824 14.3789 49.9824 14.8477C49.9824 15.3789 49.8574 15.8633 49.6074 16.3008C49.3574 16.7344 49.0254 17.0723 48.6113 17.3145C48.2012 17.5527 47.7559 17.6719 47.2754 17.6719H44.8262V17.25ZM44.8262 18.0938H47.2754C47.6934 18.0938 48.0938 18.0117 48.4766 17.8477C48.8594 17.6797 49.1914 17.4551 49.4727 17.1738C49.7578 16.8887 49.9844 16.5449 50.1523 16.1426C50.3203 15.7363 50.4043 15.3047 50.4043 14.8477C50.4043 14.3008 50.2617 13.7871 49.9766 13.3066C49.6914 12.8223 49.3066 12.4375 48.8223 12.1523C48.3418 11.8633 47.8262 11.7188 47.2754 11.7188H41.9668V21H41.5449V11.2969H47.2754C47.9004 11.2969 48.4863 11.4609 49.0332 11.7891C49.5801 12.1133 50.0156 12.5488 50.3398 13.0957C50.6641 13.6426 50.8262 14.2266 50.8262 14.8477C50.8262 15.4023 50.7305 15.9141 50.5391 16.3828C50.3477 16.8477 50.0898 17.2344 49.7656 17.543C49.4414 17.8516 49.0645 18.0918 48.6348 18.2637C48.2051 18.4316 47.752 18.5156 47.2754 18.5156H44.8262V18.0938ZM44.498 21H44.0762V13.8281H47.2754C47.5527 13.8281 47.791 13.9297 47.9902 14.1328C48.1934 14.3359 48.2949 14.5742 48.2949 14.8477C48.2949 15.6055 47.9551 15.9844 47.2754 15.9844H44.8262V15.5625H47.2754C47.4629 15.5625 47.6094 15.5098 47.7148 15.4043C47.8203 15.2988 47.873 15.1133 47.873 14.8477C47.873 14.6758 47.8145 14.5332 47.6973 14.4199C47.584 14.3066 47.4434 14.25 47.2754 14.25H44.498V21ZM59.5039 15.9316H59.9258V21H59.5039V15.9316ZM61.1914 15.9316H61.6133V21H61.1914V15.9316ZM60.3477 15.9316H60.7695V21H60.3477V15.9316ZM59.082 15.9316V21C58.3398 21.2812 57.5703 21.4219 56.7734 21.4219C56.082 21.4219 55.4199 21.2949 54.7871 21.041C54.1543 20.7871 53.5977 20.4355 53.1172 19.9863C52.6367 19.5332 52.252 18.9746 51.9629 18.3105C51.6777 17.6426 51.5352 16.9219 51.5352 16.1484C51.5352 15.4336 51.6738 14.752 51.9512 14.1035C52.2324 13.4512 52.6074 12.8906 53.0762 12.4219C53.5488 11.9492 54.1094 11.5742 54.7578 11.2969C55.4102 11.0156 56.0938 10.875 56.8086 10.875C57.6992 10.875 58.5273 11.082 59.293 11.4961C60.0586 11.9102 60.6836 12.4727 61.168 13.1836L60.8164 13.4121C60.3711 12.7598 59.7949 12.2441 59.0879 11.8652C58.3848 11.4863 57.625 11.2969 56.8086 11.2969C56.1523 11.2969 55.5234 11.4258 54.9219 11.6836C54.3242 11.9375 53.8086 12.2812 53.375 12.7148C52.9414 13.1484 52.5957 13.666 52.3379 14.2676C52.084 14.8652 51.957 15.4922 51.957 16.1484C51.957 16.8555 52.0879 17.5156 52.3496 18.1289C52.6152 18.7422 52.9668 19.2559 53.4043 19.6699C53.8457 20.084 54.3574 20.4102 54.9395 20.6484C55.5215 20.8828 56.127 21 56.7559 21C57.416 21 58.0508 20.8965 58.6602 20.6895V20.2852C58.0781 20.4805 57.4668 20.5781 56.8262 20.5781C56.3613 20.5781 55.9082 20.5137 55.4668 20.3848C55.0293 20.252 54.623 20.0586 54.248 19.8047C53.877 19.5469 53.5508 19.2422 53.2695 18.8906C52.9922 18.5352 52.7734 18.123 52.6133 17.6543C52.457 17.1816 52.3789 16.6797 52.3789 16.1484C52.3789 15.3477 52.5762 14.6074 52.9707 13.9277C53.3691 13.248 53.9082 12.7109 54.5879 12.3164C55.2676 11.918 56.0078 11.7188 56.8086 11.7188C57.5586 11.7188 58.2559 11.8945 58.9004 12.2461C59.5449 12.5938 60.0703 13.0664 60.4766 13.6641L60.125 13.8926C59.7578 13.3535 59.2812 12.9277 58.6953 12.6152C58.1133 12.2988 57.4844 12.1406 56.8086 12.1406C56.2656 12.1406 55.7461 12.2461 55.25 12.457C54.7539 12.668 54.3262 12.9531 53.9668 13.3125C53.6113 13.668 53.3281 14.0938 53.1172 14.5898C52.9062 15.0859 52.8008 15.6055 52.8008 16.1484C52.8008 16.6367 52.8711 17.0957 53.0117 17.5254C53.1562 17.9512 53.3535 18.3242 53.6035 18.6445C53.8574 18.9609 54.1523 19.2344 54.4883 19.4648C54.8242 19.6914 55.1895 19.8633 55.584 19.9805C55.9824 20.0977 56.3906 20.1562 56.8086 20.1562C57.457 20.1562 58.0742 20.0469 58.6602 19.8281V19.4062C58.082 19.6289 57.4785 19.7402 56.8496 19.7402C56.373 19.7402 55.918 19.6602 55.4844 19.5C55.0508 19.3359 54.6641 19.1055 54.3242 18.8086C53.9883 18.5117 53.7207 18.1328 53.5215 17.6719C53.3223 17.2109 53.2227 16.7031 53.2227 16.1484C53.2227 15.5 53.3828 14.9004 53.7031 14.3496C54.0234 13.7988 54.459 13.3633 55.0098 13.043C55.5605 12.7227 56.1602 12.5625 56.8086 12.5625C57.4141 12.5625 57.9766 12.7031 58.4961 12.9844C59.0195 13.2656 59.4453 13.6484 59.7734 14.1328L59.4219 14.3613C59.1328 13.9395 58.7578 13.6055 58.2969 13.3594C57.8398 13.1094 57.3438 12.9844 56.8086 12.9844C56.2344 12.9844 55.7051 13.127 55.2207 13.4121C54.7363 13.6934 54.3516 14.0762 54.0664 14.5605C53.7852 15.0449 53.6445 15.5742 53.6445 16.1484C53.6445 16.5469 53.7012 16.918 53.8145 17.2617C53.9277 17.6055 54.084 17.9023 54.2832 18.1523C54.4824 18.4023 54.7148 18.6152 54.9805 18.791C55.25 18.9668 55.5391 19.0996 55.8477 19.1895C56.1562 19.2754 56.4766 19.3184 56.8086 19.3184C57.4688 19.3184 58.0859 19.1875 58.6602 18.9258V18.5215C58.1055 18.7676 57.5059 18.8906 56.8613 18.8906C56.4902 18.8906 56.1406 18.834 55.8125 18.7207C55.4844 18.6074 55.1875 18.4414 54.9219 18.2227C54.6602 18.0039 54.4512 17.7168 54.2949 17.3613C54.1426 17.002 54.0664 16.5977 54.0664 16.1484C54.0664 15.7773 54.1387 15.4238 54.2832 15.0879C54.4277 14.748 54.623 14.4551 54.8691 14.209C55.1152 13.9629 55.4062 13.7676 55.7422 13.623C56.082 13.4785 56.4375 13.4062 56.8086 13.4062C57.2734 13.4062 57.7051 13.5156 58.1035 13.7344C58.502 13.9492 58.8262 14.2422 59.0762 14.6133L58.7305 14.8418C58.5195 14.5293 58.2441 14.2832 57.9043 14.1035C57.5684 13.9199 57.2031 13.8281 56.8086 13.8281C56.168 13.8281 55.6211 14.0547 55.168 14.5078C54.7148 14.9609 54.4883 15.5078 54.4883 16.1484C54.4883 16.543 54.5527 16.8926 54.6816 17.1973C54.8105 17.498 54.9863 17.7402 55.209 17.9238C55.4355 18.1035 55.6855 18.2402 55.959 18.334C56.2363 18.4238 56.5332 18.4688 56.8496 18.4688C57.498 18.4688 58.1016 18.334 58.6602 18.0645V15.9316H59.082ZM69.1777 12.9844V13.4062H64.8711V17.4961H64.4492V13.4062H64.0273V17.4961H63.6055V13.4062H63.1836V17.4961H62.7617V12.9844H69.1777ZM69.1777 12.1406V12.5625H62.7617V12.1406H69.1777ZM69.1777 11.2969V11.7188H62.7617V11.2969H69.1777ZM65.9727 18.4629C66.7461 18.4629 67.1328 18.291 67.1328 17.9473C67.1328 17.748 67.043 17.6035 66.8633 17.5137C66.6836 17.4238 66.4551 17.3789 66.1777 17.3789C65.748 17.3789 65.4062 17.4297 65.1523 17.5312V17.1094C65.4922 17.0273 65.8359 16.9863 66.1836 16.9863C66.4336 16.9863 66.6562 17.0156 66.8516 17.0742C67.0508 17.1328 67.2168 17.2363 67.3496 17.3848C67.4863 17.5332 67.5547 17.7207 67.5547 17.9473C67.5547 18.2598 67.4062 18.4941 67.1094 18.6504C66.8164 18.8066 66.4375 18.8848 65.9727 18.8848C65.25 18.8848 64.6992 18.7676 64.3203 18.5332L64.6602 18.2754C64.9141 18.4004 65.3516 18.4629 65.9727 18.4629ZM65.9727 19.3066C66.5508 19.3066 67.0293 19.1875 67.4082 18.9492C67.7871 18.7109 67.9766 18.377 67.9766 17.9473C67.9766 17.5098 67.8125 17.1738 67.4844 16.9395C67.1562 16.7012 66.7578 16.582 66.2891 16.582C65.9297 16.582 65.5508 16.627 65.1523 16.7168V16.2715C65.6328 16.2129 66.0137 16.1836 66.2949 16.1836C66.8809 16.1836 67.377 16.3418 67.7832 16.6582C68.1934 16.9707 68.3984 17.4004 68.3984 17.9473C68.3984 18.498 68.168 18.9336 67.707 19.2539C67.2461 19.5703 66.668 19.7285 65.9727 19.7285C64.9805 19.7285 64.2109 19.5059 63.6641 19.0605L63.998 18.8027C64.4629 19.1387 65.1211 19.3066 65.9727 19.3066ZM65.9727 20.1504C66.7812 20.1504 67.457 19.9512 68 19.5527C68.5469 19.1504 68.8203 18.6152 68.8203 17.9473C68.8203 17.4941 68.7031 17.0996 68.4688 16.7637C68.2383 16.4277 67.9414 16.1797 67.5781 16.0195C67.2148 15.8594 66.8145 15.7793 66.377 15.7793C65.9434 15.7793 65.5352 15.8125 65.1523 15.8789V15.4512C65.6055 15.4004 66.0176 15.375 66.3887 15.375C66.9082 15.375 67.3848 15.4844 67.8184 15.7031C68.2559 15.9219 68.6016 16.2285 68.8555 16.623C69.1133 17.0176 69.2422 17.459 69.2422 17.9473C69.2422 18.4668 69.0938 18.9297 68.7969 19.3359C68.5039 19.7383 68.1094 20.0449 67.6133 20.2559C67.1211 20.4668 66.5742 20.5723 65.9727 20.5723C65.3711 20.5723 64.8125 20.4863 64.2969 20.3145C63.7812 20.1426 63.3496 19.9004 63.002 19.5879L63.3301 19.3242C63.6426 19.5898 64.0273 19.7949 64.4844 19.9395C64.9453 20.0801 65.4414 20.1504 65.9727 20.1504ZM65.9727 20.9941C66.4766 20.9941 66.9531 20.9219 67.4023 20.7773C67.8555 20.6289 68.248 20.4238 68.5801 20.1621C68.9121 19.9004 69.1758 19.5781 69.3711 19.1953C69.5664 18.8125 69.6641 18.3965 69.6641 17.9473C69.6641 17.502 69.5742 17.0879 69.3945 16.7051C69.2148 16.3223 68.9766 16.0059 68.6797 15.7559C68.3828 15.502 68.0449 15.3047 67.666 15.1641C67.291 15.0234 66.9043 14.9531 66.5059 14.9531C66.3027 14.9531 66.1328 14.959 65.9961 14.9707C65.8594 14.9785 65.7051 14.9961 65.5332 15.0234C65.3613 15.0469 65.2344 15.0625 65.1523 15.0703V14.6367C65.5352 14.582 65.9941 14.5547 66.5293 14.5547C66.9941 14.5547 67.4414 14.6367 67.8711 14.8008C68.3008 14.9609 68.6797 15.1855 69.0078 15.4746C69.3359 15.7598 69.5977 16.1172 69.793 16.5469C69.9883 16.9766 70.0859 17.4434 70.0859 17.9473C70.0859 18.4551 69.9766 18.9277 69.7578 19.3652C69.543 19.7988 69.25 20.166 68.8789 20.4668C68.5078 20.7637 68.0703 20.9961 67.5664 21.1641C67.0664 21.332 66.5352 21.416 65.9727 21.416C65.2422 21.416 64.5605 21.3008 63.9277 21.0703C63.2988 20.8438 62.7715 20.5254 62.3457 20.1152L62.6855 19.8633C63.0723 20.2227 63.5508 20.502 64.1211 20.7012C64.6953 20.8965 65.3125 20.9941 65.9727 20.9941Z" fill="#14B8A6"/>
<path d="M50.2256 30.7771C51.364 29.6385 52.8998 29 54.5 29C56.1003 29 57.636 29.6386 58.7744 30.7772C58.8393 30.8457 58.8751 30.9371 58.8742 31.032C58.8733 31.1269 58.8357 31.2176 58.7696 31.2848C58.7034 31.352 58.6139 31.3904 58.5202 31.3916C58.4265 31.3928 58.336 31.3569 58.2682 31.2915C57.2647 30.2875 55.9108 29.7245 54.5 29.7245C53.0892 29.7245 51.7353 30.2875 50.7318 31.2915C50.664 31.3573 50.5734 31.3935 50.4795 31.3925C50.3856 31.3914 50.2959 31.353 50.2296 31.2857C50.1633 31.2183 50.1257 31.1273 50.125 31.0322C50.1242 30.9371 50.1604 30.8455 50.2256 30.7771ZM57.5123 32.4186C57.5826 32.4174 57.6511 32.3955 57.7093 32.3555C57.7675 32.3155 57.8128 32.2592 57.8398 32.1934C57.8668 32.1277 57.8742 32.0553 57.8612 31.9854C57.8481 31.9154 57.8151 31.8508 57.7663 31.7996C56.8981 30.9261 55.7239 30.4359 54.5 30.4359C53.2761 30.4359 52.1019 30.9261 51.2337 31.7995C51.1688 31.8682 51.1331 31.9598 51.1343 32.0548C51.1354 32.1498 51.1733 32.2406 51.2398 32.3076C51.3062 32.3747 51.396 32.4126 51.4899 32.4134C51.5837 32.4142 51.6741 32.3777 51.7416 32.3117C52.4749 31.5743 53.4664 31.1604 54.5 31.1604C55.5335 31.1604 56.5251 31.5743 57.2583 32.3117C57.2916 32.3456 57.3312 32.3726 57.3748 32.3909C57.4184 32.4092 57.4651 32.4186 57.5123 32.4186ZM52.2395 32.8167C52.1744 32.8852 52.1385 32.9769 52.1394 33.0719C52.1403 33.1669 52.178 33.2578 52.2444 33.325C52.3108 33.3922 52.4005 33.4304 52.4944 33.4313C52.5883 33.4323 52.6788 33.3959 52.7464 33.33C53.212 32.86 53.8426 32.5961 54.5 32.5961C55.1575 32.5961 55.7881 32.86 56.2536 33.33C56.2868 33.364 56.3264 33.3911 56.3699 33.4096C56.4135 33.4281 56.4603 33.4377 56.5075 33.4378C56.5548 33.4379 56.6016 33.4286 56.6452 33.4104C56.6889 33.3921 56.7286 33.3653 56.762 33.3315C56.7954 33.2977 56.8219 33.2575 56.8399 33.2133C56.8579 33.1691 56.8671 33.1217 56.867 33.0738C56.8669 33.026 56.8574 32.9787 56.8391 32.9345C56.8208 32.8904 56.7941 32.8504 56.7605 32.8168C56.4642 32.5152 56.112 32.2759 55.7241 32.1126C55.3361 31.9493 54.9202 31.8653 54.5 31.8653C54.0799 31.8653 53.6639 31.9493 53.276 32.1126C52.888 32.2759 52.5358 32.5152 52.2395 32.8167ZM63.2221 36.6744H45.7779C45.6757 36.6743 45.5745 36.6946 45.4801 36.7342C45.3857 36.7737 45.2999 36.8317 45.2276 36.9049C45.1554 36.978 45.0981 37.0649 45.059 37.1605C45.02 37.2561 44.9999 37.3585 45 37.462V38.6343H64V37.462C64.0001 37.3585 63.98 37.2561 63.941 37.1605C63.9019 37.0649 63.8446 36.978 63.7724 36.9049C63.7001 36.8317 63.6143 36.7737 63.5199 36.7342C63.4255 36.6946 63.3243 36.6743 63.2221 36.6744ZM45 41.3201H64V39.3602H45V41.3201ZM45 42.046H64V48.2088C64.0003 48.4181 63.9186 48.619 63.7727 48.7673C63.6269 48.9157 63.4288 48.9994 63.2221 49H45.7779C45.5712 48.9994 45.3731 48.9157 45.2273 48.7673C45.0814 48.619 44.9997 48.4181 45 48.2088V42.046ZM58.0849 47.5881C58.0852 47.6843 58.123 47.7765 58.1902 47.8445C58.2574 47.9125 58.3484 47.9508 58.4434 47.9511H61.3113C61.4063 47.9508 61.4973 47.9125 61.5645 47.8445C61.6317 47.7765 61.6695 47.6843 61.6698 47.5881V46.1363C61.6695 46.0402 61.6317 45.948 61.5645 45.88C61.4973 45.812 61.4063 45.7737 61.3113 45.7734H58.4434C58.3484 45.7737 58.2574 45.812 58.1902 45.88C58.123 45.948 58.0852 46.0402 58.0849 46.1363V47.5881ZM60.9528 46.4993H58.8019V47.2252H60.9528L60.9528 46.4993Z" fill="url(#paint1_linear_1224_31746)"/>
<defs>
<linearGradient id="paint0_linear_1224_31746" x1="8.5" y1="2.96297e-07" x2="54.5" y2="109" gradientUnits="userSpaceOnUse">
<stop stop-color="#14B8A6"/>
<stop offset="1" stop-color="#14B8A6" stop-opacity="0"/>
</linearGradient>
<linearGradient id="paint1_linear_1224_31746" x1="45.0002" y1="39" x2="63.9998" y2="39" gradientUnits="userSpaceOnUse">
<stop stop-color="#1C75BC"/>
<stop offset="1" stop-color="#14B8A6"/>
</linearGradient>
</defs>
</svg>
