<svg width="57" height="57" viewBox="0 0 57 57" fill="none" xmlns="http://www.w3.org/2000/svg">
<rect width="57" height="57" rx="4" fill="#3266D6"/>
<path fill-rule="evenodd" clip-rule="evenodd" d="M28.4975 31C27.0378 31 25.5785 31.5582 24.4685 32.6683C24.2169 32.9112 24.21 33.3121 24.4529 33.5636C24.6959 33.8152 25.0968 33.8222 25.3483 33.5792C25.3544 33.5733 25.3604 33.5673 25.3663 33.5611C27.1025 31.8249 29.8975 31.825 31.6337 33.5611C31.8753 33.814 32.2761 33.8232 32.529 33.5816C32.7819 33.3401 32.7911 32.9392 32.5495 32.6863C32.5436 32.6802 32.5376 32.6742 32.5315 32.6683C31.4214 31.5582 29.9572 31 28.4975 31ZM28.4975 33.5327C27.686 33.5327 26.8796 33.8434 26.2641 34.4589C25.9985 34.6864 25.9677 35.0862 26.1952 35.3518C26.4227 35.6174 26.8224 35.6483 27.088 35.4207C27.1128 35.3996 27.1358 35.3765 27.157 35.3518C27.9041 34.6047 29.0971 34.6047 29.8442 35.3518C30.0718 35.6174 30.4715 35.6483 30.7371 35.4207C31.0027 35.1932 31.0336 34.7935 30.8061 34.5279C30.7849 34.5032 30.7618 34.4801 30.7371 34.4589C30.1216 33.8434 29.3091 33.5327 28.4975 33.5327ZM20.9032 37.3329C19.8618 37.3329 19 38.1948 19 39.2361V41.1332H37.9951V39.2361C37.9951 38.1948 37.1394 37.3329 36.098 37.3329H20.9032ZM19 42.3995V48.098C19 49.1394 19.8619 50 20.9032 50H36.098C37.1394 50 37.9951 49.1394 37.9951 48.098V42.3995H19ZM32.299 46.1985C32.6487 46.1985 32.9322 46.482 32.9322 46.8317C32.9322 47.1814 32.6487 47.4649 32.299 47.4649C31.9493 47.4649 31.6658 47.1814 31.6658 46.8317C31.6658 46.482 31.9493 46.1985 32.299 46.1985ZM34.8317 46.1985C35.1814 46.1985 35.4649 46.482 35.4649 46.8317C35.4649 47.1814 35.1814 47.4649 34.8317 47.4649C34.482 47.4649 34.1985 47.1814 34.1985 46.8317C34.1985 46.482 34.482 46.1985 34.8317 46.1985ZM22.104 46.1998C22.1258 46.1986 22.1477 46.1986 22.1696 46.1998H28.4975C28.8472 46.2073 29.1246 46.4969 29.117 46.8466C29.1097 47.1857 28.8366 47.4588 28.4975 47.4661H22.1696C21.8195 47.4767 21.5271 47.2015 21.5164 46.8515C21.5061 46.5119 21.7652 46.2246 22.104 46.1998Z" fill="white"/>
<path d="M14.5428 8H13.5637L8 13.5849V14.5678L14.5428 8Z" fill="white"/>
<path d="M8.08423 10.8048L10.7913 8.0874C9.44206 8.38961 8.38136 9.45366 8.08423 10.8048Z" fill="white"/>
<path d="M12.7107 8H11.7314L8 11.7456V12.7286L12.7107 8Z" fill="white"/>
<path d="M12.1148 12.2764V11.6129H12.7757L16.3286 8.0465C16.0923 8.01672 15.8507 8 15.6022 8H15.3958L8 15.424V16.4069L12.1148 12.2764Z" fill="white"/>
<path d="M17.7656 8.44322C17.5319 8.33929 17.2909 8.25351 17.0424 8.18628L13.6289 11.6128H14.6081L17.7656 8.44322Z" fill="white"/>
<path d="M19.7797 9.90685C19.3633 9.44316 18.8792 9.05271 18.3295 8.7334L15.4545 11.6193C15.6458 11.6331 15.8371 11.676 16.0288 11.751C16.2628 11.843 16.4718 11.9893 16.656 12.19C16.8398 12.3908 16.9861 12.6417 17.095 12.9428C17.2037 13.2438 17.2582 13.6037 17.2582 14.0216C17.2582 14.8245 17.0826 15.4353 16.7313 15.8532C16.38 16.2714 15.9618 16.4804 15.4768 16.4804H12.1148V14.9718L8 19.1022V24.3835C8 25.1735 8.64042 25.8139 9.43041 25.8139H10.6844C11.4744 25.8139 12.1148 25.1735 12.1148 24.3835V20.0683H15.7277C16.5807 20.0683 17.3585 19.9013 18.0611 19.5665C18.7636 19.2321 19.3615 18.7805 19.855 18.2116C20.3483 17.6431 20.7332 16.999 21.0091 16.2796C21.2851 15.5607 21.4232 14.808 21.4232 14.0216C21.4232 13.2857 21.2765 12.5581 20.9841 11.8388C20.6912 11.1197 20.2897 10.4757 19.7797 9.90685Z" fill="white"/>
<path d="M12.1148 14.1157V13.1328L8 17.2633V18.2462L12.1148 14.1157Z" fill="white"/>
<path d="M32.2207 17.4891L33.1949 16.5112H32.2207V17.4891Z" fill="white"/>
<path d="M32.2207 18.3335V19.3027L35.0016 16.5112H34.036L32.2207 18.3335Z" fill="white"/>
<path d="M32.9099 19.4554H33.8756L36.8086 16.5112H35.843L32.9099 19.4554Z" fill="white"/>
<path d="M38.9999 17.9036C38.9999 17.6368 38.9235 17.3884 38.7934 17.1765L30.2246 25.7779C30.4826 25.8009 30.7436 25.8138 31.0085 25.8138C31.0586 25.8138 31.108 25.8115 31.1577 25.8105L38.9999 17.9384V17.9036Z" fill="white"/>
<path d="M30.2894 22.0854L27.3889 24.997C27.5051 25.053 27.6227 25.1071 27.7425 25.1582C27.8494 25.204 27.9575 25.2459 28.0659 25.2868L31.1444 22.1965C30.8476 22.1848 30.5627 22.1475 30.2894 22.0854Z" fill="white"/>
<path d="M34.7168 19.4554H35.6354V19.5026L38.3814 16.7461C38.1705 16.6049 37.9187 16.521 37.6478 16.5132L34.7168 19.4554Z" fill="white"/>
<path d="M39 19.7523V18.783L32.0781 25.7312C32.5314 25.6606 32.9694 25.5442 33.3921 25.3816L39 19.7523Z" fill="white"/>
<path d="M29.648 21.8856C29.5855 21.8603 29.5234 21.8342 29.4624 21.8059C29.304 21.7325 29.1523 21.6502 29.006 21.5608L26.2483 24.329C26.4393 24.4626 26.6369 24.5872 26.8398 24.7045L29.648 21.8856Z" fill="white"/>
<path d="M39.0001 23.3794V22.4102L35.7324 25.6903H36.698L39.0001 23.3794Z" fill="white"/>
<path d="M25.0583 23.315C25.2838 23.5477 25.5217 23.7633 25.7692 23.9654L28.5133 21.2109C28.3269 21.0579 28.1523 20.8896 27.9903 20.7047C27.5777 20.2347 27.2561 19.678 27.0253 19.0347C26.7942 18.3914 26.6789 17.6905 26.6789 16.9317C26.6789 16.1894 26.7861 15.4966 27.0005 14.8533C27.2147 14.2101 27.5201 13.6453 27.916 13.1586C28.3119 12.6723 28.7859 12.2926 29.3386 12.0205C29.891 11.7483 30.5054 11.6122 31.1818 11.6122C32.056 11.6122 32.8681 11.831 33.6189 12.2679C33.9055 12.4349 34.1664 12.6278 34.4013 12.8465C34.9847 13.3896 35.8316 13.5006 36.5278 13.1658L37.4289 12.2612C37.7695 11.5484 37.6582 10.6603 37.0434 10.0755C36.6248 9.67735 36.1471 9.32778 35.6106 9.02677C34.3897 8.34251 32.9632 8 31.3303 8C30.0932 8 28.9385 8.23114 27.8665 8.69273C26.7942 9.15474 25.8663 9.78135 25.0831 10.5731C24.2994 11.3648 23.6852 12.2969 23.2399 13.3689C22.7945 14.4413 22.5718 15.5794 22.5718 16.7832C22.5718 18.1193 22.7945 19.344 23.2399 20.4573C23.6852 21.5707 24.2913 22.5233 25.0583 23.315Z" fill="white"/>
<path d="M39.0001 25.193V24.2236L37.5391 25.6902H38.5047L39.0001 25.193Z" fill="white"/>
<path d="M33.3872 21.7593C32.9486 21.959 32.4955 22.0902 32.028 22.1544L28.6997 25.4954C28.9572 25.5689 29.2185 25.6297 29.4838 25.6776L33.3872 21.7593Z" fill="white"/>
<path d="M39 21.5657V20.5964L35.6353 23.974V24.9433L39 21.5657Z" fill="white"/>
<path d="M43.0801 10.496V8H48.0721V25.496H45.3121V10.496H43.0801Z" fill="white"/>
</svg>
