<svg width="74" height="29" viewBox="0 0 74 29" fill="none" xmlns="http://www.w3.org/2000/svg">
<path d="M3.801 4.549C3.801 4.955 3.661 5.29333 3.381 5.564C3.10567 5.83 2.68333 5.963 2.114 5.963H1.176V8H0.539V3.121H2.114C2.66467 3.121 3.08233 3.254 3.367 3.52C3.65633 3.786 3.801 4.129 3.801 4.549ZM2.114 5.438C2.46867 5.438 2.73 5.361 2.898 5.207C3.066 5.053 3.15 4.83367 3.15 4.549C3.15 3.947 2.80467 3.646 2.114 3.646H1.176V5.438H2.114ZM6.26571 8.063C5.90638 8.063 5.57971 7.98133 5.28571 7.818C4.99638 7.65467 4.76771 7.42367 4.59971 7.125C4.43638 6.82167 4.35471 6.47167 4.35471 6.075C4.35471 5.683 4.43871 5.33767 4.60671 5.039C4.77938 4.73567 5.01271 4.50467 5.30671 4.346C5.60071 4.18267 5.92971 4.101 6.29371 4.101C6.65771 4.101 6.98671 4.18267 7.28071 4.346C7.57471 4.50467 7.80571 4.73333 7.97371 5.032C8.14638 5.33067 8.23271 5.67833 8.23271 6.075C8.23271 6.47167 8.14404 6.82167 7.96671 7.125C7.79404 7.42367 7.55838 7.65467 7.25971 7.818C6.96104 7.98133 6.62971 8.063 6.26571 8.063ZM6.26571 7.503C6.49438 7.503 6.70904 7.44933 6.90971 7.342C7.11038 7.23467 7.27138 7.07367 7.39271 6.859C7.51871 6.64433 7.58171 6.383 7.58171 6.075C7.58171 5.767 7.52104 5.50567 7.39971 5.291C7.27838 5.07633 7.11971 4.91767 6.92371 4.815C6.72771 4.70767 6.51538 4.654 6.28671 4.654C6.05338 4.654 5.83871 4.70767 5.64271 4.815C5.45138 4.91767 5.29738 5.07633 5.18071 5.291C5.06404 5.50567 5.00571 5.767 5.00571 6.075C5.00571 6.38767 5.06171 6.65133 5.17371 6.866C5.29038 7.08067 5.44438 7.24167 5.63571 7.349C5.82704 7.45167 6.03704 7.503 6.26571 7.503ZM14.1803 4.164L12.9833 8H12.3253L11.4013 4.955L10.4773 8H9.81925L8.61525 4.164H9.26625L10.1483 7.384L11.1003 4.164H11.7513L12.6823 7.391L13.5503 4.164H14.1803ZM18.3124 5.935C18.3124 6.05633 18.3054 6.18467 18.2914 6.32H15.2254C15.2488 6.698 15.3771 6.99433 15.6104 7.209C15.8484 7.419 16.1354 7.524 16.4714 7.524C16.7468 7.524 16.9754 7.461 17.1574 7.335C17.3441 7.20433 17.4748 7.03167 17.5494 6.817H18.2354C18.1328 7.18567 17.9274 7.48667 17.6194 7.72C17.3114 7.94867 16.9288 8.063 16.4714 8.063C16.1074 8.063 15.7808 7.98133 15.4914 7.818C15.2068 7.65467 14.9828 7.42367 14.8194 7.125C14.6561 6.82167 14.5744 6.47167 14.5744 6.075C14.5744 5.67833 14.6538 5.33067 14.8124 5.032C14.9711 4.73333 15.1928 4.50467 15.4774 4.346C15.7668 4.18267 16.0981 4.101 16.4714 4.101C16.8354 4.101 17.1574 4.18033 17.4374 4.339C17.7174 4.49767 17.9321 4.717 18.0814 4.997C18.2354 5.27233 18.3124 5.585 18.3124 5.935ZM17.6544 5.802C17.6544 5.55933 17.6008 5.35167 17.4934 5.179C17.3861 5.00167 17.2391 4.86867 17.0524 4.78C16.8704 4.68667 16.6674 4.64 16.4434 4.64C16.1214 4.64 15.8461 4.74267 15.6174 4.948C15.3934 5.15333 15.2651 5.438 15.2324 5.802H17.6544ZM19.7903 4.787C19.9023 4.56767 20.0609 4.39733 20.2663 4.276C20.4763 4.15467 20.7306 4.094 21.0293 4.094V4.752H20.8613C20.1473 4.752 19.7903 5.13933 19.7903 5.914V8H19.1533V4.164H19.7903V4.787ZM25.2646 5.935C25.2646 6.05633 25.2576 6.18467 25.2436 6.32H22.1776C22.2009 6.698 22.3293 6.99433 22.5626 7.209C22.8006 7.419 23.0876 7.524 23.4236 7.524C23.6989 7.524 23.9276 7.461 24.1096 7.335C24.2963 7.20433 24.4269 7.03167 24.5016 6.817H25.1876C25.0849 7.18567 24.8796 7.48667 24.5716 7.72C24.2636 7.94867 23.8809 8.063 23.4236 8.063C23.0596 8.063 22.7329 7.98133 22.4436 7.818C22.1589 7.65467 21.9349 7.42367 21.7716 7.125C21.6083 6.82167 21.5266 6.47167 21.5266 6.075C21.5266 5.67833 21.6059 5.33067 21.7646 5.032C21.9233 4.73333 22.1449 4.50467 22.4296 4.346C22.7189 4.18267 23.0503 4.101 23.4236 4.101C23.7876 4.101 24.1096 4.18033 24.3896 4.339C24.6696 4.49767 24.8843 4.717 25.0336 4.997C25.1876 5.27233 25.2646 5.585 25.2646 5.935ZM24.6066 5.802C24.6066 5.55933 24.5529 5.35167 24.4456 5.179C24.3383 5.00167 24.1913 4.86867 24.0046 4.78C23.8226 4.68667 23.6196 4.64 23.3956 4.64C23.0736 4.64 22.7983 4.74267 22.5696 4.948C22.3456 5.15333 22.2173 5.438 22.1846 5.802H24.6066ZM25.8674 6.068C25.8674 5.676 25.9467 5.333 26.1054 5.039C26.2641 4.74033 26.4811 4.50933 26.7564 4.346C27.0364 4.18267 27.3491 4.101 27.6944 4.101C27.9931 4.101 28.2707 4.171 28.5274 4.311C28.7841 4.44633 28.9801 4.626 29.1154 4.85V2.82H29.7594V8H29.1154V7.279C28.9894 7.50767 28.8027 7.69667 28.5554 7.846C28.3081 7.99067 28.0187 8.063 27.6874 8.063C27.3467 8.063 27.0364 7.979 26.7564 7.811C26.4811 7.643 26.2641 7.40733 26.1054 7.104C25.9467 6.80067 25.8674 6.45533 25.8674 6.068ZM29.1154 6.075C29.1154 5.78567 29.0571 5.53367 28.9404 5.319C28.8237 5.10433 28.6651 4.941 28.4644 4.829C28.2684 4.71233 28.0514 4.654 27.8134 4.654C27.5754 4.654 27.3584 4.71 27.1624 4.822C26.9664 4.934 26.8101 5.09733 26.6934 5.312C26.5767 5.52667 26.5184 5.77867 26.5184 6.068C26.5184 6.362 26.5767 6.61867 26.6934 6.838C26.8101 7.05267 26.9664 7.21833 27.1624 7.335C27.3584 7.447 27.5754 7.503 27.8134 7.503C28.0514 7.503 28.2684 7.447 28.4644 7.335C28.6651 7.21833 28.8237 7.05267 28.9404 6.838C29.0571 6.61867 29.1154 6.36433 29.1154 6.075ZM31.4729 4.878C31.6035 4.64933 31.7949 4.46267 32.0469 4.318C32.2989 4.17333 32.5859 4.101 32.9079 4.101C33.2532 4.101 33.5635 4.18267 33.8389 4.346C34.1142 4.50933 34.3312 4.74033 34.4899 5.039C34.6485 5.333 34.7279 5.676 34.7279 6.068C34.7279 6.45533 34.6485 6.80067 34.4899 7.104C34.3312 7.40733 34.1119 7.643 33.8319 7.811C33.5565 7.979 33.2485 8.063 32.9079 8.063C32.5765 8.063 32.2849 7.99067 32.0329 7.846C31.7855 7.70133 31.5989 7.517 31.4729 7.293V8H30.8359V2.82H31.4729V4.878ZM34.0769 6.068C34.0769 5.77867 34.0185 5.52667 33.9019 5.312C33.7852 5.09733 33.6265 4.934 33.4259 4.822C33.2299 4.71 33.0129 4.654 32.7749 4.654C32.5415 4.654 32.3245 4.71233 32.1239 4.829C31.9279 4.941 31.7692 5.10667 31.6479 5.326C31.5312 5.54067 31.4729 5.79033 31.4729 6.075C31.4729 6.36433 31.5312 6.61867 31.6479 6.838C31.7692 7.05267 31.9279 7.21833 32.1239 7.335C32.3245 7.447 32.5415 7.503 32.7749 7.503C33.0129 7.503 33.2299 7.447 33.4259 7.335C33.6265 7.21833 33.7852 7.05267 33.9019 6.838C34.0185 6.61867 34.0769 6.362 34.0769 6.068ZM38.8703 4.164L36.5603 9.806H35.9023L36.6583 7.958L35.1113 4.164H35.8183L37.0223 7.272L38.2123 4.164H38.8703Z" fill="#212121"/>
<path d="M22.8659 25.6441V19.4153H20V18.0964H27.0511V19.4153H24.1847V25.6441H22.8659Z" fill="#231F20"/>
<path d="M31.1941 25.6463C30.6925 25.6514 30.1954 25.5506 29.7354 25.3505C29.2941 25.1586 28.8959 24.88 28.5643 24.5312C28.2328 24.1825 27.9746 23.7708 27.8051 23.3204C27.6186 22.8332 27.5251 22.3153 27.5296 21.7936C27.5232 21.2753 27.6168 20.7607 27.8051 20.2779C27.9767 19.839 28.2384 19.441 28.5734 19.1096C28.9069 18.7845 29.3026 18.5301 29.7368 18.3616C30.2019 18.1816 30.6969 18.0917 31.1956 18.0967H33.0336C33.5465 18.0906 34.0559 18.1823 34.5344 18.367C34.9727 18.5349 35.3708 18.7932 35.7027 19.125C36.0346 19.4569 36.2929 19.855 36.4607 20.2933C36.6452 20.7717 36.7368 21.2809 36.7305 21.7936C36.7351 22.3152 36.6418 22.8331 36.4554 23.3204C36.2829 23.7741 36.0215 24.1888 35.6867 24.5403C35.3551 24.8854 34.9579 25.1608 34.5185 25.3505C34.0491 25.5518 33.5428 25.6526 33.0322 25.6463H31.1941ZM33.0322 24.3275C33.3601 24.3311 33.6852 24.2675 33.9876 24.1407C34.2733 24.0215 34.5313 23.8447 34.7457 23.6214C34.9601 23.398 35.1261 23.133 35.2336 22.8427C35.3532 22.5277 35.4131 22.1932 35.4102 21.8563C35.4135 21.521 35.3536 21.188 35.2336 20.8748C35.1256 20.5878 34.9593 20.3263 34.7452 20.1068C34.5311 19.8873 34.2738 19.7145 33.9896 19.5994C33.6864 19.4758 33.3615 19.414 33.0341 19.4175H31.1941C30.8719 19.4142 30.5523 19.4761 30.2546 19.5994C29.9753 19.7149 29.7225 19.8863 29.5119 20.1032C29.2999 20.3244 29.134 20.5856 29.0236 20.8714C28.9028 21.1862 28.8428 21.5211 28.847 21.8582C28.8441 22.1951 28.904 22.5296 29.0236 22.8446C29.1329 23.1357 29.2989 23.4023 29.5119 23.6287C29.7221 23.8487 29.9747 24.0235 30.2546 24.1427C30.5515 24.2691 30.8714 24.3327 31.1941 24.3294L33.0322 24.3275Z" fill="#231F20"/>
<path d="M44.5484 18H45.8364V22.218C45.8364 22.8 45.7601 23.3072 45.6077 23.7395C45.4675 24.1546 45.2203 24.5253 44.8911 24.8142C44.5658 25.0982 44.1454 25.3094 43.6297 25.4478C43.114 25.5861 42.4892 25.6554 41.7554 25.6558C41.0284 25.6558 40.407 25.5864 39.8913 25.4478C39.3756 25.3091 38.955 25.0979 38.6294 24.8142C38.3003 24.5251 38.0531 24.1545 37.9128 23.7395C37.7603 23.3043 37.6842 22.7971 37.6846 22.218V18H39.0449V22.218C39.0375 22.5489 39.0848 22.8788 39.1848 23.1942C39.2716 23.4543 39.43 23.6847 39.6418 23.8587C39.8532 24.0315 40.1353 24.1577 40.4882 24.2375C40.8411 24.3173 41.2774 24.3572 41.7969 24.3572C42.3161 24.3572 42.7522 24.3173 43.1051 24.2375C43.458 24.1577 43.7402 24.0315 43.9515 23.8587C44.1633 23.6844 44.3217 23.4539 44.4085 23.1937C44.5021 22.9242 44.5488 22.5988 44.5484 22.2175V18Z" fill="#231F20"/>
<path d="M50.4783 25.6462C49.9767 25.6513 49.4796 25.5505 49.0195 25.3504C48.5783 25.1585 48.1801 24.8799 47.8485 24.5312C47.5169 24.1824 47.2588 23.7707 47.0893 23.3203C46.9028 22.8331 46.8093 22.3152 46.8138 21.7935C46.8074 21.2753 46.901 20.7606 47.0893 20.2778C47.2608 19.8389 47.5226 19.4409 47.8576 19.1095C48.191 18.7844 48.5868 18.53 49.021 18.3616C49.486 18.1815 49.9811 18.0916 50.4798 18.0966H54.5714V19.4155H50.4798C50.1575 19.4122 49.838 19.4741 49.5402 19.5974C49.2609 19.7129 49.0082 19.8843 48.7976 20.1012C48.5856 20.3224 48.4196 20.5835 48.3092 20.8694C48.1885 21.1842 48.1288 21.5191 48.1331 21.8562C48.13 22.1931 48.1898 22.5276 48.3092 22.8426C48.4185 23.1337 48.5845 23.4002 48.7976 23.6267C49.0077 23.8467 49.2604 24.0215 49.5402 24.1406C49.8371 24.2671 50.157 24.3307 50.4798 24.3274H54.5714V25.6462H50.4783Z" fill="#231F20"/>
<path d="M63.5109 25.702L62.3793 23.8017H58.8084L59.4314 22.7323H61.7477L60.0635 19.9113L56.6364 25.702H55.1309L59.4739 18.4747C59.5412 18.3531 59.6332 18.2469 59.7441 18.163C59.8528 18.0852 59.984 18.045 60.1176 18.0486C60.2498 18.0444 60.3796 18.0847 60.4863 18.163C60.5944 18.2482 60.6845 18.3542 60.7512 18.4747L65.1 25.702H63.5109Z" fill="#231F20"/>
<path d="M67.1355 20.1195V25.6419H65.8809V18.7896C65.8809 18.5474 65.9415 18.3553 66.0628 18.2134C66.1235 18.1429 66.1994 18.0871 66.2849 18.0502C66.3703 18.0134 66.463 17.9964 66.556 18.0006C66.6528 18.0007 66.7485 18.0219 66.8363 18.0629C66.9411 18.1152 67.036 18.1854 67.1167 18.2704L72.4441 23.5563V18.032H73.6987V24.9485C73.6987 25.1975 73.6383 25.3913 73.5173 25.53C73.459 25.5975 73.3863 25.6512 73.3046 25.6871C73.2228 25.723 73.1341 25.7402 73.0449 25.7375C72.8303 25.7375 72.6296 25.644 72.4427 25.4571L67.1355 20.1195Z" fill="#231F20"/>
<path d="M4.85046 14.4651C2.01549 15.5171 0 18.2414 0 21.4418C0 24.6422 2.01549 27.3664 4.85046 28.4185V27.3443V14.4651Z" fill="black"/>
<mask id="mask0_393_6470" style="mask-type:luminance" maskUnits="userSpaceOnUse" x="0" y="14" width="5" height="15">
<path d="M4.85046 14.4651C2.01549 15.5171 0 18.2414 0 21.4418C0 24.6422 2.01549 27.3664 4.85046 28.4185V27.3443V14.4651Z" fill="white"/>
</mask>
<g mask="url(#mask0_393_6470)">
<path d="M5.28204 21.8404C6.97007 21.8404 8.33849 20.472 8.33849 18.784C8.33849 17.096 6.97007 15.7275 5.28204 15.7275C3.59401 15.7275 2.22559 17.096 2.22559 18.784C2.22559 20.472 3.59401 21.8404 5.28204 21.8404Z" fill="white"/>
</g>
<mask id="mask1_393_6470" style="mask-type:luminance" maskUnits="userSpaceOnUse" x="0" y="14" width="5" height="15">
<path d="M4.85046 14.4651C2.01549 15.5171 0 18.2414 0 21.4418C0 24.6422 2.01549 27.3664 4.85046 28.4185V27.3443V14.4651Z" fill="white"/>
</mask>
<g mask="url(#mask1_393_6470)">
<path d="M5.50347 15.4065H4.57324V22.2392H5.50347V15.4065Z" fill="black"/>
</g>
<path d="M10.553 26.9677C10.3979 26.9677 10.2761 26.8459 10.2761 26.6908C10.2761 26.5358 10.3979 26.414 10.553 26.414H12.9893C13.255 26.115 13.4987 25.7938 13.7202 25.4505H9.62274C9.4677 25.4505 9.34589 25.3287 9.34589 25.1737C9.34589 25.0187 9.4677 24.8968 9.62274 24.8968H14.0413C14.2074 24.5868 14.3403 24.2656 14.4621 23.9334H8.69252C8.53748 23.9334 8.41566 23.8116 8.41566 23.6565C8.41566 23.5015 8.53748 23.3797 8.69252 23.3797H14.6393C14.8054 22.7706 14.894 22.1283 14.894 21.4639H6.21191V27.6321C6.21191 28.3187 6.75455 28.8835 7.44114 28.8835H7.45221C9.36803 28.8835 11.1177 28.1526 12.4356 26.9677H10.553Z" fill="black"/>
<path d="M14.7288 20.9103C14.0644 20.0908 13.0123 19.9579 12.5361 19.9358H6.3457V14.2326C6.71115 14.1773 7.07659 14.144 7.44204 14.144C10.8196 14.144 13.7321 16.4253 14.5295 19.7032L14.5627 19.8361C14.6624 20.2791 14.7177 20.6445 14.7288 20.9103Z" fill="#F7901E"/>
<path d="M7.44147 14.2879C10.7416 14.2879 13.5987 16.5249 14.3849 19.7364L14.4071 19.8361V19.8471C14.4625 20.0908 14.5067 20.3012 14.5289 20.5005C13.8423 19.9246 12.9674 19.8139 12.5356 19.7918H12.5245H12.5134H6.47802V14.3544C6.82132 14.3101 7.13139 14.2879 7.44147 14.2879ZM7.44147 14C7.02065 14 6.59984 14.0332 6.20117 14.1107V20.1018H12.5245C13.056 20.124 14.3406 20.3012 14.8833 21.4529C14.8833 21.4529 14.9386 20.8438 14.695 19.7918C14.695 19.7807 14.6839 19.7585 14.6839 19.7475C14.6839 19.7253 14.6729 19.7032 14.6729 19.681C13.8755 16.4142 10.952 14 7.44147 14Z" fill="black"/>
<path d="M3.74334 17.6766C3.90847 17.6766 4.04234 17.5427 4.04234 17.3776C4.04234 17.2125 3.90847 17.0786 3.74334 17.0786C3.5782 17.0786 3.44434 17.2125 3.44434 17.3776C3.44434 17.5427 3.5782 17.6766 3.74334 17.6766Z" fill="black"/>
<path d="M14.7064 20.9545C14.6289 20.9545 14.5624 20.8881 14.5624 20.8106C14.4627 18.7397 12.7684 17.1229 10.6865 17.1229H6.4008C6.32328 17.1229 6.25684 17.0564 6.25684 16.9789C6.25684 16.9014 6.32328 16.835 6.4008 16.835H10.6865C12.9124 16.835 14.7507 18.5847 14.8503 20.8106C14.8614 20.8881 14.806 20.9545 14.7064 20.9545C14.7174 20.9545 14.7174 20.9545 14.7064 20.9545Z" fill="black"/>
</svg>
