<svg width="103" height="22" viewBox="0 0 103 22" fill="none" xmlns="http://www.w3.org/2000/svg">
<path d="M31.104 16L28.864 12.108H27.646V16H26.05V6.27H29.41C30.1567 6.27 30.7867 6.40067 31.3 6.662C31.8227 6.92333 32.21 7.27333 32.462 7.712C32.7233 8.15067 32.854 8.64067 32.854 9.182C32.854 9.81667 32.6673 10.3953 32.294 10.918C31.93 11.4313 31.3653 11.7813 30.6 11.968L33.008 16H31.104ZM27.646 10.834H29.41C30.0073 10.834 30.4553 10.6847 30.754 10.386C31.062 10.0873 31.216 9.686 31.216 9.182C31.216 8.678 31.0667 8.286 30.768 8.006C30.4693 7.71667 30.0167 7.572 29.41 7.572H27.646V10.834ZM41.8817 8.286V16H40.2857V15.09C40.0337 15.4073 39.7024 15.6593 39.2917 15.846C38.8904 16.0233 38.461 16.112 38.0037 16.112C37.397 16.112 36.851 15.986 36.3657 15.734C35.8897 15.482 35.5117 15.1087 35.2317 14.614C34.961 14.1193 34.8257 13.522 34.8257 12.822V8.286H36.4077V12.584C36.4077 13.2747 36.5804 13.8067 36.9257 14.18C37.271 14.544 37.7424 14.726 38.3397 14.726C38.937 14.726 39.4084 14.544 39.7537 14.18C40.1084 13.8067 40.2857 13.2747 40.2857 12.584V8.286H41.8817ZM45.5835 5.64V16H43.9875V5.64H45.5835ZM54.7489 11.954C54.7489 12.2433 54.7302 12.5047 54.6929 12.738H48.7989C48.8456 13.354 49.0742 13.8487 49.4849 14.222C49.8956 14.5953 50.3996 14.782 50.9969 14.782C51.8556 14.782 52.4622 14.4227 52.8169 13.704H54.5389C54.3056 14.4133 53.8809 14.9967 53.2649 15.454C52.6582 15.902 51.9022 16.126 50.9969 16.126C50.2596 16.126 49.5969 15.9627 49.0089 15.636C48.4302 15.3 47.9729 14.8333 47.6369 14.236C47.3102 13.6293 47.1469 12.9293 47.1469 12.136C47.1469 11.3427 47.3056 10.6473 47.6229 10.05C47.9496 9.44333 48.4022 8.97667 48.9809 8.65C49.5689 8.32333 50.2409 8.16 50.9969 8.16C51.7249 8.16 52.3736 8.31867 52.9429 8.636C53.5122 8.95333 53.9556 9.40133 54.2729 9.98C54.5902 10.5493 54.7489 11.2073 54.7489 11.954ZM53.0829 11.45C53.0736 10.862 52.8636 10.3907 52.4529 10.036C52.0422 9.68133 51.5336 9.504 50.9269 9.504C50.3762 9.504 49.9049 9.68133 49.5129 10.036C49.1209 10.3813 48.8876 10.8527 48.8129 11.45H53.0829ZM65.1643 11.002C65.6869 11.0953 66.1303 11.3707 66.4943 11.828C66.8583 12.2853 67.0403 12.8033 67.0403 13.382C67.0403 13.8767 66.9096 14.3247 66.6483 14.726C66.3963 15.118 66.0276 15.4307 65.5423 15.664C65.0569 15.888 64.4923 16 63.8483 16H59.9563V6.27H63.6663C64.3289 6.27 64.8983 6.382 65.3743 6.606C65.8503 6.83 66.2096 7.13333 66.4523 7.516C66.6949 7.88933 66.8162 8.30933 66.8162 8.776C66.8162 9.336 66.6669 9.80267 66.3683 10.176C66.0696 10.5493 65.6683 10.8247 65.1643 11.002ZM61.5523 10.358H63.5263C64.0489 10.358 64.4549 10.2413 64.7443 10.008C65.0429 9.76533 65.1923 9.42 65.1923 8.972C65.1923 8.53333 65.0429 8.19267 64.7443 7.95C64.4549 7.698 64.0489 7.572 63.5263 7.572H61.5523V10.358ZM63.7083 14.698C64.2496 14.698 64.6743 14.5673 64.9823 14.306C65.2903 14.0447 65.4443 13.6807 65.4443 13.214C65.4443 12.738 65.2809 12.36 64.9543 12.08C64.6276 11.8 64.1936 11.66 63.6523 11.66H61.5523V14.698H63.7083ZM68.2426 12.108C68.2426 11.3333 68.4013 10.6473 68.7186 10.05C69.0453 9.45267 69.4839 8.99067 70.0346 8.664C70.5946 8.328 71.2106 8.16 71.8826 8.16C72.4893 8.16 73.0166 8.28133 73.4646 8.524C73.9219 8.75733 74.2859 9.05133 74.5566 9.406V8.286H76.1666V16H74.5566V14.852C74.2859 15.216 73.9173 15.5193 73.4506 15.762C72.9839 16.0047 72.4519 16.126 71.8546 16.126C71.1919 16.126 70.5853 15.958 70.0346 15.622C69.4839 15.2767 69.0453 14.8007 68.7186 14.194C68.4013 13.578 68.2426 12.8827 68.2426 12.108ZM74.5566 12.136C74.5566 11.604 74.4446 11.142 74.2206 10.75C74.0059 10.358 73.7213 10.0593 73.3666 9.854C73.0119 9.64867 72.6293 9.546 72.2186 9.546C71.8079 9.546 71.4253 9.64867 71.0706 9.854C70.7159 10.05 70.4266 10.344 70.2026 10.736C69.9879 11.1187 69.8806 11.576 69.8806 12.108C69.8806 12.64 69.9879 13.1067 70.2026 13.508C70.4266 13.9093 70.7159 14.2173 71.0706 14.432C71.4346 14.6373 71.8173 14.74 72.2186 14.74C72.6293 14.74 73.0119 14.6373 73.3666 14.432C73.7213 14.2267 74.0059 13.928 74.2206 13.536C74.4446 13.1347 74.5566 12.668 74.5566 12.136ZM81.0629 16.126C80.4562 16.126 79.9102 16.0187 79.4249 15.804C78.9489 15.58 78.5709 15.2813 78.2909 14.908C78.0109 14.5253 77.8616 14.1007 77.8429 13.634H79.4949C79.5229 13.9607 79.6769 14.236 79.9569 14.46C80.2462 14.6747 80.6056 14.782 81.0349 14.782C81.4829 14.782 81.8282 14.698 82.0709 14.53C82.3229 14.3527 82.4489 14.1287 82.4489 13.858C82.4489 13.5687 82.3089 13.354 82.0289 13.214C81.7582 13.074 81.3242 12.92 80.7269 12.752C80.1482 12.5933 79.6769 12.4393 79.3129 12.29C78.9489 12.1407 78.6316 11.912 78.3609 11.604C78.0996 11.296 77.9689 10.89 77.9689 10.386C77.9689 9.97533 78.0902 9.602 78.3329 9.266C78.5756 8.92067 78.9209 8.65 79.3689 8.454C79.8262 8.258 80.3489 8.16 80.9369 8.16C81.8142 8.16 82.5189 8.384 83.0509 8.832C83.5922 9.27067 83.8816 9.87267 83.9189 10.638H82.3229C82.2949 10.2927 82.1549 10.0173 81.9029 9.812C81.6509 9.60667 81.3102 9.504 80.8809 9.504C80.4609 9.504 80.1389 9.58333 79.9149 9.742C79.6909 9.90067 79.5789 10.1107 79.5789 10.372C79.5789 10.5773 79.6536 10.75 79.8029 10.89C79.9522 11.03 80.1342 11.142 80.3489 11.226C80.5636 11.3007 80.8809 11.3987 81.3009 11.52C81.8609 11.6693 82.3182 11.8233 82.6729 11.982C83.0369 12.1313 83.3496 12.3553 83.6109 12.654C83.8722 12.9527 84.0076 13.3493 84.0169 13.844C84.0169 14.2827 83.8956 14.6747 83.6529 15.02C83.4102 15.3653 83.0649 15.636 82.6169 15.832C82.1782 16.028 81.6602 16.126 81.0629 16.126ZM92.8114 11.954C92.8114 12.2433 92.7927 12.5047 92.7554 12.738H86.8614C86.9081 13.354 87.1367 13.8487 87.5474 14.222C87.9581 14.5953 88.4621 14.782 89.0594 14.782C89.9181 14.782 90.5247 14.4227 90.8794 13.704H92.6014C92.3681 14.4133 91.9434 14.9967 91.3274 15.454C90.7207 15.902 89.9647 16.126 89.0594 16.126C88.3221 16.126 87.6594 15.9627 87.0714 15.636C86.4927 15.3 86.0354 14.8333 85.6994 14.236C85.3727 13.6293 85.2094 12.9293 85.2094 12.136C85.2094 11.3427 85.3681 10.6473 85.6854 10.05C86.0121 9.44333 86.4647 8.97667 87.0434 8.65C87.6314 8.32333 88.3034 8.16 89.0594 8.16C89.7874 8.16 90.4361 8.31867 91.0054 8.636C91.5747 8.95333 92.0181 9.40133 92.3354 9.98C92.6527 10.5493 92.8114 11.2073 92.8114 11.954ZM91.1454 11.45C91.1361 10.862 90.9261 10.3907 90.5154 10.036C90.1047 9.68133 89.5961 9.504 88.9894 9.504C88.4387 9.504 87.9674 9.68133 87.5754 10.036C87.1834 10.3813 86.9501 10.8527 86.8754 11.45H91.1454ZM93.85 12.108C93.85 11.3333 94.0087 10.6473 94.326 10.05C94.6527 9.45267 95.0914 8.99067 95.642 8.664C96.202 8.328 96.8227 8.16 97.504 8.16C98.008 8.16 98.5027 8.272 98.988 8.496C99.4827 8.71067 99.8747 9 100.164 9.364V5.64H101.774V16H100.164V14.838C99.9027 15.2113 99.5387 15.5193 99.072 15.762C98.6147 16.0047 98.0874 16.126 97.49 16.126C96.818 16.126 96.202 15.958 95.642 15.622C95.0914 15.2767 94.6527 14.8007 94.326 14.194C94.0087 13.578 93.85 12.8827 93.85 12.108ZM100.164 12.136C100.164 11.604 100.052 11.142 99.828 10.75C99.6134 10.358 99.3287 10.0593 98.974 9.854C98.6194 9.64867 98.2367 9.546 97.826 9.546C97.4154 9.546 97.0327 9.64867 96.678 9.854C96.3234 10.05 96.034 10.344 95.81 10.736C95.5954 11.1187 95.488 11.576 95.488 12.108C95.488 12.64 95.5954 13.1067 95.81 13.508C96.034 13.9093 96.3234 14.2173 96.678 14.432C97.042 14.6373 97.4247 14.74 97.826 14.74C98.2367 14.74 98.6194 14.6373 98.974 14.432C99.3287 14.2267 99.6134 13.928 99.828 13.536C100.052 13.1347 100.164 12.668 100.164 12.136Z" fill="white"/>
<path d="M11.1315 12.9854H6.88274C6.77919 12.9854 6.69524 13.0692 6.69524 13.1729C6.69524 13.2765 6.77919 13.3603 6.88274 13.3603H11.1315C11.2351 13.3603 11.319 13.2765 11.319 13.1729C11.319 13.0692 11.2351 12.9854 11.1315 12.9854Z" fill="white" stroke="white" stroke-width="0.5"/>
<path d="M2.86832 13.3603H3.20587C3.30941 13.3603 3.39337 13.2765 3.39337 13.1729C3.39337 13.0692 3.30941 12.9854 3.20587 12.9854H2.86832C2.76477 12.9854 2.68082 13.0692 2.68082 13.1729C2.68082 13.2765 2.76477 13.3603 2.86832 13.3603Z" fill="white" stroke="white" stroke-width="0.5"/>
<path d="M11.1315 15.5371H10.6683C10.5648 15.5371 10.4808 15.621 10.4808 15.7246C10.4808 15.8282 10.5648 15.9121 10.6683 15.9121H11.1315C11.235 15.9121 11.319 15.8282 11.319 15.7246C11.319 15.621 11.2351 15.5371 11.1315 15.5371Z" fill="white" stroke="white" stroke-width="0.5"/>
<path d="M2.86832 15.9121H6.99148C7.09502 15.9121 7.17897 15.8282 7.17897 15.7246C7.17897 15.621 7.09502 15.5371 6.99148 15.5371H2.86832C2.76477 15.5371 2.68082 15.621 2.68082 15.7246C2.68082 15.8282 2.76477 15.9121 2.86832 15.9121Z" fill="white" stroke="white" stroke-width="0.5"/>
<path d="M12.3569 9.91437H11.4772C11.3652 9.45642 11.183 9.0188 10.9339 8.60955L11.555 7.98516C11.8084 7.73477 11.8101 7.32668 11.5558 7.07255L10.9258 6.44249C10.6722 6.18915 10.2644 6.18918 10.0132 6.44306L9.39383 7.06727C8.992 6.82099 8.55438 6.63863 8.08938 6.52364V5.64509C8.08938 5.28931 7.79925 5 7.44256 5H6.55194C6.19727 5 5.90877 5.28931 5.90877 5.64509V6.52344C5.44029 6.63879 5.0025 6.82118 4.6036 7.06708L3.98213 6.44378C3.74053 6.1975 3.31095 6.19878 3.07284 6.44213L2.43737 7.07404C2.19054 7.32598 2.1909 7.73412 2.43857 7.98424L3.06206 8.60936C2.81266 9.01751 2.6315 9.45512 2.52198 9.91434H1.64509C1.28941 9.91434 1 10.2029 1 10.5576V11C1 11.1036 1.08396 11.1875 1.1875 11.1875H4.55884C4.66238 11.1875 4.74634 11.1036 4.74634 11C4.74634 9.75725 5.75735 8.74634 7 8.74634C8.24275 8.74634 9.25376 9.75725 9.25376 11C9.25376 11.1036 9.33772 11.1875 9.44126 11.1875H12.8125C12.916 11.1875 13 11.1036 13 11V10.5576C13 10.2029 12.7115 9.91437 12.3569 9.91437ZM12.625 10.8125H9.62216C9.52558 9.4502 8.38637 8.37134 7 8.37134C5.61363 8.37134 4.47452 9.4502 4.37794 10.8125H1.375V10.5576C1.375 10.4097 1.49613 10.2894 1.64509 10.2894H2.67259C2.76175 10.2894 2.83865 10.2266 2.85634 10.1391C2.96099 9.62289 3.16313 9.13401 3.45739 8.68612C3.50609 8.61195 3.49613 8.51364 3.43341 8.45083L2.70456 7.71987C2.60066 7.61496 2.60102 7.44282 2.70355 7.3381L3.33901 6.70621C3.43845 6.60478 3.61366 6.60349 3.71548 6.70749L4.44478 7.43881C4.50776 7.50217 4.60655 7.51223 4.68144 7.46243C5.11594 7.17331 5.6052 6.96932 6.13547 6.85598C6.22199 6.83767 6.28377 6.76113 6.28377 6.67268V5.64509C6.28377 5.49623 6.40407 5.375 6.55194 5.375H7.44256C7.59243 5.375 7.71438 5.49621 7.71438 5.64509V6.67268C7.71438 6.76113 7.77618 6.83748 7.86261 6.85598C8.38848 6.96877 8.87792 7.17295 9.31739 7.46298C9.39201 7.51187 9.49087 7.50179 9.55378 7.43845L10.2796 6.70693C10.3845 6.60104 10.5539 6.60109 10.6607 6.70768L11.2906 7.33774C11.3966 7.44375 11.3983 7.61299 11.2903 7.7197L10.5628 8.45102C10.5003 8.51383 10.4904 8.61162 10.5387 8.68576C10.8325 9.13583 11.0362 9.62527 11.1439 10.1403C11.1622 10.2271 11.2388 10.2894 11.3275 10.2894H12.3569C12.5047 10.2894 12.625 10.4097 12.625 10.5576V10.8125Z" fill="white" stroke="white" stroke-width="0.5"/>
<path d="M6.3203 13.1728C6.3203 12.4688 5.74818 11.896 5.04496 11.896C4.34102 11.896 3.76825 12.4687 3.76825 13.1728C3.76825 13.8759 4.341 14.4479 5.04496 14.4479C5.7482 14.4479 6.3203 13.8759 6.3203 13.1728ZM4.14327 13.1728C4.14327 12.6755 4.54774 12.271 5.04498 12.271C5.54138 12.271 5.9453 12.6755 5.9453 13.1728C5.9453 13.6692 5.54138 14.073 5.04498 14.073C4.54777 14.073 4.14327 13.6692 4.14327 13.1728Z" fill="white" stroke="white" stroke-width="0.5"/>
<path d="M10.1061 15.7246C10.1061 15.0205 9.53397 14.4478 8.83085 14.4478C8.12682 14.4478 7.55405 15.0205 7.55405 15.7246C7.55405 16.4277 8.12679 16.9997 8.83085 16.9997C9.534 16.9997 10.1061 16.4277 10.1061 15.7246ZM8.83088 16.6247C8.33366 16.6247 7.92907 16.221 7.92907 15.7246C7.92907 15.2272 8.33364 14.8228 8.83088 14.8228C9.32727 14.8228 9.73112 15.2272 9.73112 15.7246C9.7311 16.221 9.32727 16.6247 8.83088 16.6247Z" fill="white" stroke="white" stroke-width="0.5"/>
</svg>
