<svg width="14" height="14" viewBox="0 0 14 14" fill="none" xmlns="http://www.w3.org/2000/svg">
<path d="M11.1315 8.98535H6.88274C6.77919 8.98535 6.69524 9.06921 6.69524 9.17285C6.69524 9.27649 6.77919 9.36035 6.88274 9.36035H11.1315C11.2351 9.36035 11.319 9.27649 11.319 9.17285C11.319 9.06921 11.2351 8.98535 11.1315 8.98535Z" fill="white" stroke="white" stroke-width="0.5"/>
<path d="M2.86832 9.36035H3.20587C3.30941 9.36035 3.39337 9.27649 3.39337 9.17285C3.39337 9.06921 3.30941 8.98535 3.20587 8.98535H2.86832C2.76477 8.98535 2.68082 9.06921 2.68082 9.17285C2.68082 9.27649 2.76477 9.36035 2.86832 9.36035Z" fill="white" stroke="white" stroke-width="0.5"/>
<path d="M11.1315 11.5371H10.6683C10.5648 11.5371 10.4808 11.621 10.4808 11.7246C10.4808 11.8282 10.5648 11.9121 10.6683 11.9121H11.1315C11.235 11.9121 11.319 11.8282 11.319 11.7246C11.319 11.621 11.2351 11.5371 11.1315 11.5371Z" fill="white" stroke="white" stroke-width="0.5"/>
<path d="M2.86832 11.9121H6.99148C7.09502 11.9121 7.17897 11.8282 7.17897 11.7246C7.17897 11.621 7.09502 11.5371 6.99148 11.5371H2.86832C2.76477 11.5371 2.68082 11.621 2.68082 11.7246C2.68082 11.8282 2.76477 11.9121 2.86832 11.9121Z" fill="white" stroke="white" stroke-width="0.5"/>
<path d="M12.3569 5.91437H11.4772C11.3652 5.45642 11.183 5.0188 10.9339 4.60955L11.555 3.98516C11.8084 3.73477 11.8101 3.32668 11.5558 3.07255L10.9258 2.44249C10.6722 2.18915 10.2644 2.18918 10.0132 2.44306L9.39383 3.06727C8.992 2.82099 8.55438 2.63863 8.08938 2.52364V1.64509C8.08938 1.28931 7.79925 1 7.44256 1H6.55194C6.19727 1 5.90877 1.28931 5.90877 1.64509V2.52344C5.44029 2.63879 5.0025 2.82118 4.6036 3.06708L3.98213 2.44378C3.74053 2.1975 3.31095 2.19878 3.07284 2.44213L2.43737 3.07404C2.19054 3.32598 2.1909 3.73412 2.43857 3.98424L3.06206 4.60936C2.81266 5.01751 2.6315 5.45512 2.52198 5.91434H1.64509C1.28941 5.91434 1 6.20291 1 6.55758V7C1 7.10364 1.08396 7.1875 1.1875 7.1875H4.55884C4.66238 7.1875 4.74634 7.10364 4.74634 7C4.74634 5.75725 5.75735 4.74634 7 4.74634C8.24275 4.74634 9.25376 5.75725 9.25376 7C9.25376 7.10364 9.33772 7.1875 9.44126 7.1875H12.8125C12.916 7.1875 13 7.10364 13 7V6.55761C13 6.20294 12.7115 5.91437 12.3569 5.91437ZM12.625 6.8125H9.62216C9.52558 5.4502 8.38637 4.37134 7 4.37134C5.61363 4.37134 4.47452 5.4502 4.37794 6.8125H1.375V6.55763C1.375 6.40969 1.49613 6.28939 1.64509 6.28939H2.67259C2.76175 6.28939 2.83865 6.22658 2.85634 6.13907C2.96099 5.62289 3.16313 5.13401 3.45739 4.68612C3.50609 4.61195 3.49613 4.51364 3.43341 4.45083L2.70456 3.71987C2.60066 3.61496 2.60102 3.44282 2.70355 3.3381L3.33901 2.70621C3.43845 2.60478 3.61366 2.60349 3.71548 2.70749L4.44478 3.43881C4.50776 3.50217 4.60655 3.51223 4.68144 3.46243C5.11594 3.17331 5.6052 2.96932 6.13547 2.85598C6.22199 2.83767 6.28377 2.76113 6.28377 2.67268V1.64509C6.28377 1.49623 6.40407 1.375 6.55194 1.375H7.44256C7.59243 1.375 7.71438 1.49621 7.71438 1.64509V2.67268C7.71438 2.76113 7.77618 2.83748 7.86261 2.85598C8.38848 2.96877 8.87792 3.17295 9.31739 3.46298C9.39201 3.51187 9.49087 3.50179 9.55378 3.43845L10.2796 2.70693C10.3845 2.60104 10.5539 2.60109 10.6607 2.70768L11.2906 3.33774C11.3966 3.44375 11.3983 3.61299 11.2903 3.7197L10.5628 4.45102C10.5003 4.51383 10.4904 4.61162 10.5387 4.68576C10.8325 5.13583 11.0362 5.62527 11.1439 6.14034C11.1622 6.22713 11.2388 6.28939 11.3275 6.28939H12.3569C12.5047 6.28939 12.625 6.40969 12.625 6.55763V6.8125Z" fill="white" stroke="white" stroke-width="0.5"/>
<path d="M6.3203 9.1728C6.3203 8.46877 5.74818 7.896 5.04496 7.896C4.34102 7.896 3.76825 8.46874 3.76825 9.1728C3.76825 9.87592 4.341 10.4479 5.04496 10.4479C5.7482 10.4479 6.3203 9.87592 6.3203 9.1728ZM4.14327 9.1728C4.14327 8.67549 4.54774 8.27102 5.04498 8.27102C5.54138 8.27102 5.9453 8.67549 5.9453 9.1728C5.9453 9.6692 5.54138 10.073 5.04498 10.073C4.54777 10.073 4.14327 9.6692 4.14327 9.1728Z" fill="white" stroke="white" stroke-width="0.5"/>
<path d="M10.1061 11.7246C10.1061 11.0205 9.53397 10.4478 8.83085 10.4478C8.12682 10.4478 7.55405 11.0205 7.55405 11.7246C7.55405 12.4277 8.12679 12.9997 8.83085 12.9997C9.534 12.9997 10.1061 12.4277 10.1061 11.7246ZM8.83088 12.6247C8.33366 12.6247 7.92907 12.221 7.92907 11.7246C7.92907 11.2272 8.33364 10.8228 8.83088 10.8228C9.32727 10.8228 9.73112 11.2272 9.73112 11.7246C9.7311 12.221 9.32727 12.6247 8.83088 12.6247Z" fill="white" stroke="white" stroke-width="0.5"/>
</svg>
