<svg width="10" height="10" viewBox="0 0 10 10" fill="none" xmlns="http://www.w3.org/2000/svg">
<path d="M0.75 9.5C0.336 9.5 0 9.164 0 8.75V4.75C0 4.336 0.336 4 0.75 4C1.164 4 1.5 4.336 1.5 4.75V8.75C1.5 9.164 1.164 9.5 0.75 9.5ZM5.5 8.75V0.75C5.5 0.336 5.164 0 4.75 0C4.336 0 4 0.336 4 0.75V8.75C4 9.164 4.336 9.5 4.75 9.5C5.164 9.5 5.5 9.164 5.5 8.75ZM9.5 8.75V2.75C9.5 2.336 9.164 2 8.75 2C8.336 2 8 2.336 8 2.75V8.75C8 9.164 8.336 9.5 8.75 9.5C9.164 9.5 9.5 9.164 9.5 8.75Z" fill="white"/>
</svg>
