<svg width="24" height="21" viewBox="0 0 24 21" fill="none" xmlns="http://www.w3.org/2000/svg">
<path d="M0 17.3673C0 19.3623 1.62375 20.9861 3.61875 20.9861H20.3812C22.3762 20.9861 24 19.3623 24 17.3673V16.6923V9.68356V8.12356C24 6.41356 22.8037 4.97731 21.2062 4.60231C21.1537 4.53106 20.2575 3.24856 18.9225 1.22356C18.48 0.552315 17.9025 0.154815 17.2087 0.0348147C15.9037 -0.186435 14.7 0.717315 14.6325 0.766065L12.3937 2.56981C12.1237 2.16856 11.8275 1.72231 11.4975 1.22356C10.83 0.211065 9.96375 0.00106466 9.35625 0.00106466C8.23125 0.00106466 7.26375 0.724815 7.2075 0.766065L2.40375 4.63606C2.35875 4.67356 2.32125 4.71481 2.29125 4.75981C0.9525 5.28856 0 6.59731 0 8.12356L0 17.3673ZM22.8187 15.5111H17.7225C16.5712 15.5111 15.6337 14.5736 15.6337 13.4223V12.9536C15.6337 11.8023 16.5712 10.8648 17.7225 10.8648H22.8187V15.5111ZM15.36 1.69606C15.3675 1.68856 16.215 1.06606 17.01 1.20106C17.3738 1.26481 17.6775 1.48606 17.9363 1.87606C18.6863 3.01231 19.2975 3.91231 19.7025 4.50481H13.3762L12.9825 3.60856L15.36 1.69606ZM12.0338 4.37731L12.09 4.50481H11.8763L12.0338 4.37731ZM7.935 1.69981C7.9425 1.69606 8.6325 1.18606 9.35625 1.18606C9.825 1.18606 10.2038 1.41106 10.5113 1.87981C10.8638 2.41231 11.1862 2.89606 11.4675 3.31606L9.99 4.50856H4.4475L7.935 1.69981ZM1.18125 8.12356C1.18125 6.77731 2.2725 5.68606 3.61875 5.68606H12.9938H20.3812C21.7275 5.68606 22.8187 6.78106 22.8187 8.12356V9.68356H17.7225C15.9187 9.68356 14.4525 11.1498 14.4525 12.9536V13.4223C14.4525 15.2261 15.9187 16.6923 17.7225 16.6923H22.8187V17.3673C22.8187 18.7136 21.7237 19.8048 20.3812 19.8048H3.61875C2.27625 19.8048 1.18125 18.7098 1.18125 17.3673V8.12356Z" fill="#414950"/>
<path d="M16.9575 12.6199H18.1388V13.8724H16.9575V12.6199Z" fill="#414950"/>
</svg>
