<svg width="24" height="24" viewBox="0 0 24 24" fill="none" xmlns="http://www.w3.org/2000/svg">
<mask id="mask0_1_290" style="mask-type:luminance" maskUnits="userSpaceOnUse" x="0" y="0" width="24" height="24">
<path d="M0 7.62939e-06H24V24H0V7.62939e-06Z" fill="white"/>
</mask>
<g mask="url(#mask0_1_290)">
<path d="M6.84418 14.9766L10.5773 10.5707C10.9414 10.141 11.6012 10.1319 11.9769 10.5514L14.1125 12.9354C14.5108 13.3801 15.2192 13.3387 15.5629 12.8505L19.2036 7.67967" stroke="#414950" stroke-width="1.5" stroke-miterlimit="10" stroke-linecap="round" stroke-linejoin="round"/>
<path d="M3.74133 3.91332V19.2176C3.74133 19.7302 4.15692 20.1458 4.66959 20.1458H19.9337" stroke="#414950" stroke-width="1.5" stroke-miterlimit="10" stroke-linecap="round" stroke-linejoin="round"/>
<path d="M19.7704 23.2891H4.19312C2.25558 23.2891 0.684898 21.7184 0.684898 19.7808V4.20354C0.684898 2.26601 2.25558 0.69532 4.19312 0.69532H19.7704C21.708 0.69532 23.2786 2.26601 23.2786 4.20354V19.7808C23.2786 21.7184 21.708 23.2891 19.7704 23.2891Z" stroke="#414950" stroke-width="1.5" stroke-miterlimit="10" stroke-linecap="round" stroke-linejoin="round"/>
</g>
</svg>
