<svg width="74" height="66" viewBox="0 0 74 66" fill="none" xmlns="http://www.w3.org/2000/svg">
<path d="M51.3342 32.6464L31.1088 12.421C30.2589 11.5711 30.2589 10.1931 31.1088 9.34316L39.8147 0.63748C40.6645 -0.212493 42.0426 -0.212493 42.8926 0.63748L73.3625 31.1074C74.2125 31.9574 74.2125 33.3354 73.3625 34.1853L42.8924 64.6554C42.4673 65.0802 41.9103 65.2928 41.3533 65.2928C40.7963 65.2928 40.2393 65.0802 39.8144 64.6553L31.1087 55.9496C30.2587 55.0998 30.2587 53.7217 31.1087 52.8717L51.3342 32.6464ZM41.3535 60.0385L68.7456 32.6464L41.3535 5.2543L35.7257 10.882L55.9512 31.1074C56.8011 31.9574 56.8011 33.3354 55.9512 34.1853L35.7257 54.4107L41.3535 60.0385Z" fill="#E1E9F9" fill-opacity="0.67"/>
<path d="M20.8633 32.6464L0.637993 12.421C-0.211983 11.5711 -0.211983 10.1931 0.637993 9.34316L9.34367 0.63748C10.1935 -0.212493 11.5716 -0.212493 12.4216 0.63748L42.8918 31.1074C43.7418 31.9574 43.7418 33.3354 42.8918 34.1853L12.4217 64.6554C11.9968 65.0802 11.4396 65.2928 10.8826 65.2928C10.3256 65.2928 9.76859 65.0802 9.34367 64.6553L0.637993 55.9496C-0.211983 55.0998 -0.211983 53.7217 0.637993 52.8717L20.8633 32.6464ZM10.8828 60.0385L38.2748 32.6464L10.8828 5.2543L5.25496 10.882L25.4803 31.1074C26.3303 31.9574 26.3303 33.3354 25.4803 34.1853L5.25481 54.4107L10.8828 60.0385Z" fill="#E1E9F9" fill-opacity="0.67"/>
</svg>
