<svg width="1916" height="525" viewBox="0 0 1916 525" fill="none" xmlns="http://www.w3.org/2000/svg">
<mask id="mask0_789_31207" style="mask-type:alpha" maskUnits="userSpaceOnUse" x="0" y="64" width="1917" height="468">
<rect y="64" width="1917" height="467.977" fill="#F3F3F3"/>
</mask>
<g mask="url(#mask0_789_31207)">
<rect x="1174.72" y="329.855" width="114.89" height="114.89" transform="rotate(-60.6379 1174.72 329.855)" stroke="#BECFF2" stroke-opacity="0.2" stroke-width="4"/>
<rect x="667.71" y="424.281" width="68.5346" height="68.5346" transform="rotate(-28.3754 667.71 424.281)" stroke="#BECFF2" stroke-opacity="0.2" stroke-width="4"/>
<rect x="187.901" y="443.59" width="50.68" height="50.68" transform="rotate(-24.885 187.901 443.59)" fill="#D3DFF7" fill-opacity="0.34"/>
<path d="M1917 106.588C1231.93 539.307 353.693 531.776 0.20752 473.921V639.221H1917V106.588Z" fill="#D3DFF7" fill-opacity="0.22"/>
</g>
<path d="M1771.56 165.646C1776.34 163.441 1779.58 158.855 1780.07 153.613L1785.03 100.144C1785.38 96.4324 1787.65 93.1764 1791.02 91.5861L1809.54 82.8361C1814.16 80.6574 1818.22 77.4613 1821.43 73.493L1823.51 70.9172C1825.18 68.859 1823.76 65.7846 1821.11 65.7141L1817.8 65.6239C1812.7 65.4861 1807.63 66.5037 1802.98 68.5982L1784.3 77.0033C1780.9 78.5346 1776.94 78.1518 1773.9 76.0069L1730 45.0682C1725.7 42.034 1720.11 41.5257 1715.33 43.729C1733.75 57.5021 1750.01 77.8232 1756.5 86.4367C1757.39 87.6125 1756.95 89.3058 1755.61 89.9102L1752.79 86.4564C1751.42 84.7763 1748.98 84.438 1747.2 85.6844L1742.42 89.0312C1741.78 89.4832 1741.3 90.1381 1741.07 90.8922C1740.82 91.6758 1740.31 92.3535 1739.63 92.8061L1737.88 93.962L1740.15 93.3617C1740.86 93.1754 1741.61 93.2118 1742.29 93.465L1743.45 93.8897L1745.32 94.5424L1741.35 96.3262C1738.81 97.4713 1736.42 98.9349 1734.25 100.679L1723.3 109.467L1712.19 98.41C1709.81 96.0402 1706.11 95.6241 1703.26 97.3999L1698.96 100.089L1715.07 116.072L1712.02 118.518C1711.53 118.92 1711.89 119.722 1712.52 119.602L1716.36 118.872L1718.07 141.51L1722.95 139.968C1726.13 138.961 1728.21 135.904 1727.98 132.571L1726.89 116.875L1740.53 114.285C1743.27 113.765 1745.93 112.898 1748.45 111.705L1752.38 109.851L1751.66 111.695L1751.24 112.85C1750.98 113.535 1750.53 114.127 1749.93 114.542L1747.99 115.882L1750.01 115.3C1750.8 115.072 1751.64 115.124 1752.4 115.449C1753.12 115.76 1753.93 115.822 1754.69 115.626L1760.34 114.165C1762.44 113.622 1763.77 111.55 1763.38 109.412L1762.58 105.026C1763.92 104.397 1765.49 105.161 1765.8 106.599C1768.14 117.135 1773.05 142.688 1771.56 165.646Z" fill="#EAEFFA"/>
<path d="M1463.79 325.282C1463.77 325.295 1463.75 325.307 1463.74 325.319C1462.9 325.888 1462.06 326.452 1461.22 327.012C1460.8 327.289 1460.26 327.201 1460.02 326.817C1459.77 326.432 1459.9 325.896 1460.32 325.619C1461.16 325.063 1461.99 324.504 1462.82 323.939C1463.23 323.658 1463.77 323.738 1464.03 324.12C1464.27 324.484 1464.16 324.992 1463.79 325.282Z" fill="#EFF3FA"/>
<path d="M1644.67 208.949C1644.23 209.291 1643.77 209.62 1643.3 209.929C1642.88 210.205 1642.35 210.116 1642.1 209.731C1641.85 209.346 1641.99 208.804 1642.41 208.533C1644.03 207.463 1645.48 206.166 1646.64 204.743C1646.96 204.354 1647.51 204.268 1647.88 204.543C1648.25 204.818 1648.29 205.355 1647.97 205.74C1647.02 206.905 1645.91 207.983 1644.67 208.949ZM1637.99 212.471C1637.91 212.539 1637.8 212.594 1637.69 212.629C1635.67 213.283 1633.64 213.629 1631.65 213.658C1631.17 213.665 1630.8 213.286 1630.84 212.813C1630.87 212.34 1631.29 211.949 1631.78 211.942C1633.58 211.916 1635.43 211.6 1637.28 211.004C1637.75 210.852 1638.22 211.093 1638.34 211.542C1638.43 211.884 1638.28 212.249 1637.99 212.471ZM1650.7 200.769C1650.48 200.944 1650.18 201.019 1649.9 200.946C1649.44 200.826 1649.2 200.357 1649.37 199.899C1649.98 198.18 1650.32 196.372 1650.38 194.526C1650.4 194.052 1650.81 193.648 1651.29 193.623C1651.78 193.597 1652.16 193.96 1652.14 194.434C1652.07 196.458 1651.69 198.443 1651.02 200.333C1650.96 200.509 1650.84 200.659 1650.7 200.769ZM1626.63 212.517C1626.38 212.713 1626.04 212.782 1625.74 212.667C1624.1 212.039 1622.65 211.122 1621.43 209.942C1621.24 209.768 1621.07 209.587 1620.9 209.405C1620.59 209.069 1620.64 208.526 1621.01 208.191C1621.37 207.86 1621.93 207.856 1622.24 208.191C1622.4 208.354 1622.55 208.513 1622.71 208.669C1623.78 209.703 1625.06 210.508 1626.5 211.06C1626.94 211.228 1627.12 211.723 1626.91 212.167C1626.84 212.308 1626.75 212.427 1626.63 212.517ZM1651.17 189.567C1651.08 189.636 1650.98 189.691 1650.87 189.726C1650.4 189.876 1649.92 189.633 1649.81 189.184C1649.38 187.477 1648.73 185.813 1647.87 184.238C1647.65 183.835 1647.82 183.304 1648.25 183.055C1648.69 182.803 1649.22 182.926 1649.44 183.328C1650.36 185.018 1651.06 186.806 1651.52 188.641C1651.6 188.983 1651.46 189.346 1651.17 189.567ZM1535.83 270.985C1535.45 271.286 1534.91 271.251 1534.62 270.902C1534.33 270.548 1534.41 270.005 1534.8 269.69C1536.27 268.5 1537.77 267.187 1539.27 265.786C1539.64 265.447 1540.19 265.435 1540.51 265.764C1540.83 266.093 1540.79 266.637 1540.42 266.978C1538.89 268.41 1537.35 269.753 1535.85 270.971C1535.84 270.976 1535.84 270.981 1535.83 270.985ZM1531.02 274.568C1531 274.581 1530.98 274.595 1530.96 274.607C1529.23 275.779 1527.47 276.839 1525.74 277.756C1525.3 277.99 1524.78 277.845 1524.58 277.432C1524.38 277.02 1524.57 276.496 1525.01 276.261C1526.68 275.377 1528.38 274.354 1530.05 273.221C1530.47 272.941 1531.01 273.024 1531.26 273.406C1531.5 273.773 1531.39 274.279 1531.02 274.568ZM1478.32 314.645C1477.93 314.951 1477.38 314.909 1477.1 314.551C1476.82 314.192 1476.91 313.65 1477.3 313.341C1478.86 312.112 1480.43 310.851 1481.96 309.593C1482.35 309.283 1482.9 309.302 1483.19 309.655C1483.49 310.006 1483.41 310.549 1483.02 310.867C1481.48 312.135 1479.9 313.405 1478.32 314.643C1478.32 314.644 1478.32 314.645 1478.32 314.645ZM1473.56 318.301C1473.55 318.304 1473.55 318.308 1473.54 318.311C1471.94 319.513 1470.3 320.711 1468.68 321.872C1468.27 322.163 1467.73 322.095 1467.46 321.721C1467.2 321.346 1467.31 320.81 1467.73 320.516C1469.34 319.364 1470.96 318.176 1472.56 316.983C1472.96 316.682 1473.5 316.737 1473.77 317.103C1474.04 317.466 1473.94 317.998 1473.56 318.301ZM1544.62 262.823C1544.27 263.092 1543.79 263.099 1543.49 262.821C1543.15 262.512 1543.15 261.971 1543.5 261.61C1544.21 260.867 1544.94 260.088 1545.67 259.294C1546.29 258.621 1546.92 257.927 1547.53 257.235C1547.87 256.861 1548.42 256.796 1548.77 257.09C1549.13 257.383 1549.15 257.922 1548.81 258.295C1548.19 258.996 1547.56 259.697 1546.93 260.379C1546.19 261.184 1545.45 261.973 1544.73 262.727C1544.69 262.762 1544.66 262.794 1544.62 262.823ZM1619.25 204.78C1619.19 204.832 1619.11 204.875 1619.03 204.91C1618.58 205.104 1618.08 204.912 1617.92 204.479C1617.27 202.73 1616.9 200.812 1616.81 198.777C1616.79 198.307 1617.17 197.876 1617.65 197.815C1618.14 197.755 1618.55 198.086 1618.57 198.556C1618.65 200.424 1618.98 202.179 1619.57 203.774C1619.7 204.131 1619.56 204.539 1619.25 204.78ZM1487.6 307.019C1487.22 307.313 1486.7 307.288 1486.4 306.956C1486.1 306.612 1486.16 306.069 1486.54 305.742C1488.06 304.442 1489.57 303.112 1491.03 301.79C1491.41 301.45 1491.96 301.456 1492.27 301.791C1492.58 302.127 1492.53 302.671 1492.16 303.005C1490.68 304.338 1489.16 305.678 1487.64 306.988C1487.62 306.998 1487.61 307.009 1487.6 307.019ZM1496.52 298.985C1496.16 299.267 1495.65 299.258 1495.35 298.952C1495.03 298.625 1495.07 298.081 1495.43 297.739C1496.43 296.8 1497.43 295.842 1498.41 294.89C1498.85 294.461 1499.29 294.028 1499.73 293.591C1500.08 293.241 1500.64 293.211 1500.97 293.528C1501.3 293.845 1501.28 294.388 1500.93 294.74C1500.48 295.182 1500.03 295.62 1499.59 296.054C1498.6 297.013 1497.59 297.978 1496.59 298.923C1496.57 298.945 1496.54 298.966 1496.52 298.985ZM1520.44 280.123C1520.37 280.182 1520.28 280.231 1520.19 280.267C1519.23 280.624 1518.26 280.95 1517.3 281.235C1516.34 281.52 1515.35 281.766 1514.36 281.967C1513.87 282.064 1513.44 281.767 1513.38 281.303C1513.32 280.839 1513.67 280.384 1514.15 280.287C1515.09 280.097 1516.03 279.864 1516.93 279.596C1517.85 279.324 1518.78 279.013 1519.69 278.671C1520.15 278.496 1520.64 278.712 1520.78 279.154C1520.89 279.504 1520.74 279.891 1520.44 280.123ZM1552.58 253.879C1552.25 254.13 1551.8 254.157 1551.49 253.919C1551.13 253.641 1551.09 253.104 1551.4 252.72C1552.66 251.202 1553.91 249.641 1555.11 248.08C1555.42 247.684 1555.97 247.58 1556.34 247.843C1556.72 248.106 1556.78 248.64 1556.48 249.033C1555.26 250.613 1554 252.192 1552.73 253.729C1552.68 253.785 1552.63 253.836 1552.58 253.879ZM1504.99 290.502C1504.65 290.765 1504.18 290.779 1503.87 290.515C1503.53 290.216 1503.52 289.676 1503.85 289.307C1505.28 287.748 1506.53 286.279 1507.7 284.812C1508 284.422 1508.56 284.324 1508.93 284.593C1509.3 284.862 1509.36 285.396 1509.05 285.787C1507.86 287.289 1506.57 288.794 1505.12 290.388C1505.08 290.43 1505.04 290.469 1504.99 290.502ZM1645.96 179.992C1645.59 180.279 1645.08 180.263 1644.78 179.944C1643.57 178.629 1642.2 177.485 1640.72 176.544C1640.33 176.296 1640.25 175.768 1640.54 175.364C1640.83 174.961 1641.38 174.834 1641.77 175.082C1643.36 176.093 1644.82 177.321 1646.13 178.733C1646.44 179.069 1646.39 179.612 1646.02 179.947C1646 179.961 1645.98 179.977 1645.96 179.992ZM1559.86 244.423C1559.56 244.657 1559.14 244.7 1558.83 244.5C1558.44 244.252 1558.36 243.723 1558.64 243.319C1559.79 241.715 1560.92 240.075 1562 238.446C1562.28 238.034 1562.82 237.886 1563.22 238.119C1563.62 238.352 1563.72 238.876 1563.45 239.289C1562.36 240.937 1561.22 242.595 1560.05 244.218C1560 244.298 1559.93 244.366 1559.86 244.423ZM1512.35 281.113C1512.07 281.336 1511.67 281.388 1511.36 281.214C1510.96 280.988 1510.84 280.467 1511.11 280.05C1512.2 278.353 1513.14 276.651 1513.92 274.992C1514.13 274.547 1514.65 274.32 1515.09 274.485C1515.53 274.649 1515.71 275.143 1515.51 275.588C1514.7 277.323 1513.71 279.099 1512.58 280.868C1512.51 280.965 1512.44 281.047 1512.35 281.113ZM1508.95 282.436C1508.8 282.558 1508.6 282.634 1508.39 282.639C1506.39 282.691 1504.41 282.565 1502.49 282.267C1502.02 282.194 1501.74 281.755 1501.85 281.286C1501.97 280.819 1502.44 280.497 1502.92 280.571C1504.73 280.853 1506.61 280.972 1508.5 280.923C1508.98 280.911 1509.35 281.285 1509.32 281.759C1509.31 282.029 1509.16 282.273 1508.95 282.436ZM1566.43 234.516C1566.15 234.735 1565.76 234.789 1565.46 234.625C1565.05 234.409 1564.92 233.891 1565.18 233.47C1565.56 232.847 1565.94 232.223 1566.31 231.597C1566.92 230.576 1567.53 229.527 1568.18 228.393C1568.42 227.965 1568.96 227.78 1569.38 227.982C1569.8 228.184 1569.94 228.696 1569.69 229.125C1569.04 230.271 1568.43 231.329 1567.81 232.361C1567.43 232.995 1567.05 233.627 1566.66 234.256C1566.6 234.357 1566.52 234.445 1566.43 234.516ZM1618.69 193.646C1618.5 193.796 1618.25 193.875 1618 193.845C1617.53 193.788 1617.23 193.36 1617.33 192.889C1617.57 191.731 1617.91 190.581 1618.31 189.47C1618.59 188.713 1618.91 187.946 1619.26 187.188C1619.46 186.742 1619.98 186.512 1620.42 186.673C1620.86 186.835 1621.05 187.327 1620.85 187.772C1620.52 188.487 1620.22 189.209 1619.96 189.92C1619.58 190.952 1619.27 192.019 1619.04 193.095C1619 193.32 1618.87 193.512 1618.69 193.646ZM1705.52 124.758C1705.45 124.818 1705.36 124.867 1705.26 124.903C1703.42 125.591 1701.56 126.318 1699.74 127.063C1699.28 127.251 1698.79 127.05 1698.63 126.615C1698.48 126.18 1698.73 125.676 1699.19 125.487C1701.03 124.734 1702.91 124 1704.77 123.306C1705.23 123.132 1705.72 123.349 1705.86 123.79C1705.97 124.14 1705.82 124.527 1705.52 124.758ZM1517.25 270.47C1517.04 270.631 1516.77 270.709 1516.51 270.661C1516.04 270.577 1515.76 270.131 1515.89 269.665C1516.2 268.517 1516.45 267.357 1516.61 266.214C1516.7 265.555 1516.76 264.878 1516.79 264.203C1516.8 263.729 1517.21 263.325 1517.69 263.3C1518.18 263.274 1518.56 263.638 1518.54 264.112C1518.52 264.847 1518.45 265.585 1518.35 266.305C1518.17 267.518 1517.92 268.752 1517.58 269.968C1517.53 270.172 1517.41 270.346 1517.25 270.47ZM1572.31 224.237C1572.05 224.445 1571.68 224.507 1571.38 224.368C1570.95 224.175 1570.8 223.668 1571.04 223.234C1571.9 221.643 1572.75 220.048 1573.61 218.453L1573.83 218.033C1574.06 217.6 1574.6 217.4 1575.02 217.591C1575.45 217.78 1575.61 218.287 1575.37 218.722L1575.15 219.141C1574.29 220.74 1573.44 222.338 1572.57 223.932C1572.51 224.054 1572.42 224.157 1572.31 224.237ZM1694.49 129.271C1694.42 129.32 1694.36 129.361 1694.28 129.394C1692.48 130.194 1690.66 131.034 1688.88 131.891C1688.43 132.107 1687.92 131.94 1687.74 131.518C1687.56 131.096 1687.77 130.579 1688.22 130.363C1690.02 129.498 1691.86 128.649 1693.67 127.842C1694.13 127.639 1694.63 127.823 1694.8 128.252C1694.94 128.61 1694.8 129.026 1694.49 129.271ZM1636.7 174.112C1636.46 174.299 1636.14 174.371 1635.85 174.276C1634.49 173.826 1633.05 173.488 1631.56 173.267C1631.43 173.403 1631.3 173.54 1631.17 173.677C1630.82 174.035 1630.27 174.083 1629.93 173.776C1629.62 173.5 1629.59 173.033 1629.84 172.68C1629.77 172.532 1629.75 172.359 1629.79 172.18C1629.88 171.708 1630.35 171.368 1630.82 171.42C1630.89 171.427 1630.95 171.435 1631.02 171.442C1631.08 171.38 1631.14 171.317 1631.2 171.255C1632.17 170.258 1633.17 169.256 1634.17 168.277C1634.53 167.932 1635.08 167.903 1635.41 168.223C1635.74 168.543 1635.72 169.085 1635.36 169.435C1634.58 170.197 1633.81 170.971 1633.04 171.748C1634.24 171.974 1635.41 172.272 1636.54 172.642C1636.98 172.788 1637.19 173.273 1637 173.724C1636.94 173.881 1636.83 174.013 1636.7 174.112ZM1623.46 182.986C1623.17 183.212 1622.77 183.261 1622.46 183.078C1622.06 182.845 1621.96 182.321 1622.23 181.908C1623.29 180.328 1624.48 178.743 1625.89 177.064C1626.2 176.682 1626.76 176.599 1627.13 176.879C1627.49 177.16 1627.53 177.697 1627.21 178.079C1625.85 179.705 1624.69 181.234 1623.68 182.754C1623.62 182.845 1623.55 182.922 1623.46 182.986ZM1497.74 280.658C1497.49 280.852 1497.15 280.921 1496.86 280.81C1495 280.117 1493.28 279.236 1491.74 278.191C1491.36 277.931 1491.29 277.399 1491.59 277.002C1491.89 276.605 1492.45 276.494 1492.83 276.753C1494.26 277.728 1495.87 278.55 1497.6 279.198C1498.04 279.362 1498.23 279.856 1498.02 280.3C1497.96 280.445 1497.86 280.565 1497.74 280.658ZM1683.71 134.455C1683.66 134.491 1683.61 134.523 1683.56 134.552C1681.8 135.461 1680.04 136.41 1678.31 137.373C1677.87 137.616 1677.35 137.483 1677.14 137.077C1676.92 136.669 1677.11 136.142 1677.54 135.9C1679.29 134.927 1681.07 133.969 1682.84 133.051C1683.29 132.822 1683.81 132.972 1684 133.386C1684.18 133.749 1684.04 134.195 1683.71 134.455ZM1673.24 140.282C1673.21 140.308 1673.17 140.331 1673.14 140.352C1671.44 141.364 1669.73 142.417 1668.06 143.484C1667.63 143.753 1667.1 143.654 1666.86 143.263C1666.62 142.873 1666.77 142.337 1667.19 142.07C1668.88 140.992 1670.61 139.928 1672.32 138.907C1672.75 138.651 1673.28 138.767 1673.51 139.166C1673.72 139.532 1673.59 140.008 1673.24 140.282ZM1577.92 213.828C1577.65 214.037 1577.29 214.098 1576.98 213.958C1576.56 213.765 1576.41 213.257 1576.64 212.824C1577.7 210.889 1578.65 209.193 1579.54 207.641C1579.78 207.212 1580.32 207.031 1580.74 207.235C1581.16 207.439 1581.3 207.952 1581.05 208.379C1580.16 209.92 1579.22 211.604 1578.17 213.526C1578.11 213.646 1578.02 213.748 1577.92 213.828ZM1639.62 165.375C1639.25 165.659 1638.75 165.647 1638.45 165.335C1638.13 165.004 1638.17 164.46 1638.54 164.121C1640.01 162.766 1641.52 161.413 1643.03 160.097C1643.41 159.764 1643.96 159.779 1644.27 160.122C1644.57 160.464 1644.51 161.007 1644.13 161.335C1642.63 162.638 1641.14 163.979 1639.68 165.32C1639.66 165.339 1639.64 165.358 1639.62 165.375ZM1663.12 146.728C1663.1 146.741 1663.08 146.754 1663.07 146.766C1661.43 147.881 1659.78 149.034 1658.17 150.196C1657.77 150.489 1657.22 150.425 1656.96 150.053C1656.69 149.68 1656.8 149.153 1657.21 148.847C1658.83 147.675 1660.5 146.509 1662.15 145.384C1662.57 145.102 1663.11 145.184 1663.36 145.565C1663.6 145.931 1663.49 146.439 1663.12 146.728ZM1648.68 157.499C1648.3 157.8 1647.76 157.766 1647.47 157.419C1647.18 157.067 1647.26 156.524 1647.65 156.206C1649.2 154.938 1650.79 153.68 1652.38 152.456C1652.77 152.151 1653.32 152.198 1653.6 152.561C1653.88 152.922 1653.78 153.461 1653.39 153.767C1653.39 153.768 1653.39 153.769 1653.38 153.77C1651.81 154.981 1650.24 156.228 1648.7 157.484C1648.7 157.489 1648.69 157.495 1648.68 157.499ZM1517.62 259.236C1517.52 259.308 1517.42 259.364 1517.3 259.4C1516.83 259.544 1516.36 259.295 1516.25 258.843C1515.84 257.103 1515.21 255.428 1514.39 253.862C1514.18 253.456 1514.36 252.929 1514.79 252.682C1515.22 252.437 1515.75 252.567 1515.96 252.972C1516.85 254.653 1517.52 256.453 1517.96 258.321C1518.04 258.661 1517.89 259.019 1517.62 259.236ZM1625.38 172.834C1625.23 172.948 1625.05 173.022 1624.86 173.036C1623 173.169 1621.1 173.461 1619.21 173.902C1618.73 174.013 1618.28 173.731 1618.21 173.27C1618.14 172.809 1618.46 172.345 1618.94 172.233C1620.93 171.77 1622.93 171.464 1624.88 171.324C1625.37 171.289 1625.76 171.644 1625.75 172.117C1625.75 172.401 1625.6 172.663 1625.38 172.834ZM1583.85 203.574C1583.56 203.795 1583.17 203.848 1582.86 203.681C1582.46 203.46 1582.34 202.941 1582.6 202.521L1582.9 202.048C1583.88 200.479 1584.89 198.953 1585.9 197.515C1586.18 197.108 1586.73 196.975 1587.12 197.218C1587.51 197.461 1587.6 197.988 1587.32 198.395C1586.33 199.808 1585.34 201.307 1584.37 202.851L1584.08 203.318C1584.01 203.42 1583.93 203.505 1583.85 203.574ZM1488.73 274.447C1488.34 274.747 1487.8 274.714 1487.52 274.367C1487.4 274.223 1487.28 274.077 1487.17 273.929C1486.65 273.265 1486.18 272.56 1485.75 271.835C1485.31 271.077 1484.94 270.264 1484.63 269.418C1484.47 268.985 1484.72 268.478 1485.18 268.285C1485.63 268.093 1486.13 268.288 1486.29 268.721C1486.57 269.482 1486.91 270.212 1487.3 270.89C1487.69 271.558 1488.12 272.206 1488.6 272.817C1488.71 272.953 1488.81 273.087 1488.92 273.22C1489.21 273.572 1489.14 274.115 1488.75 274.432C1488.74 274.437 1488.73 274.442 1488.73 274.447ZM1590.67 193.826C1590.36 194.072 1589.92 194.104 1589.6 193.877C1589.23 193.608 1589.18 193.073 1589.49 192.682C1590.78 191.063 1592.1 189.515 1593.43 188.084C1593.76 187.716 1594.32 187.664 1594.67 187.965C1595.02 188.266 1595.02 188.807 1594.68 189.173C1593.39 190.568 1592.1 192.078 1590.84 193.66C1590.79 193.722 1590.73 193.778 1590.67 193.826ZM1613.92 175.481C1613.85 175.538 1613.77 175.585 1613.68 175.621C1611.87 176.325 1610.09 177.162 1608.4 178.111C1607.96 178.354 1607.43 178.222 1607.22 177.816C1607.01 177.408 1607.19 176.879 1607.63 176.638C1609.41 175.646 1611.26 174.77 1613.15 174.033C1613.61 173.853 1614.11 174.062 1614.25 174.5C1614.37 174.853 1614.22 175.247 1613.92 175.481ZM1598.82 185.065C1598.45 185.352 1597.94 185.337 1597.64 185.018C1597.33 184.683 1597.38 184.14 1597.75 183.804C1598.85 182.809 1599.99 181.858 1601.12 180.979C1601.12 180.977 1601.12 180.975 1601.13 180.972C1601.57 180.624 1602.03 180.28 1602.49 179.949C1602.89 179.654 1603.44 179.716 1603.7 180.087C1603.97 180.458 1603.86 180.996 1603.45 181.293C1603.01 181.615 1602.57 181.949 1602.13 182.287C1601.04 183.137 1599.95 184.055 1598.88 185.018C1598.86 185.035 1598.84 185.05 1598.82 185.065ZM1512.5 249.619C1512.14 249.903 1511.63 249.891 1511.33 249.58C1510.07 248.259 1508.66 247.198 1507.15 246.425C1506.73 246.214 1506.6 245.699 1506.86 245.274C1507.11 244.85 1507.65 244.677 1508.06 244.888C1509.73 245.74 1511.28 246.905 1512.66 248.35C1512.98 248.681 1512.93 249.225 1512.57 249.565C1512.55 249.584 1512.52 249.602 1512.5 249.619ZM1485 264.244C1484.86 264.353 1484.69 264.425 1484.51 264.443C1484.02 264.491 1483.63 264.147 1483.62 263.675C1483.59 261.726 1483.86 259.74 1484.4 257.77C1484.53 257.304 1485.01 256.995 1485.48 257.079C1485.94 257.164 1486.22 257.611 1486.09 258.077C1485.59 259.889 1485.35 261.715 1485.38 263.503C1485.38 263.796 1485.23 264.067 1485 264.244ZM1502.71 244.79C1502.53 244.931 1502.3 245.01 1502.06 244.993C1501.12 244.926 1500.16 244.961 1499.2 245.098C1498.34 245.22 1497.49 245.429 1496.67 245.718C1496.2 245.883 1495.72 245.655 1495.59 245.211C1495.46 244.766 1495.74 244.273 1496.21 244.108C1497.15 243.777 1498.12 243.539 1499.1 243.4C1500.19 243.245 1501.28 243.205 1502.34 243.281C1502.82 243.315 1503.15 243.726 1503.07 244.198C1503.03 244.437 1502.89 244.646 1502.71 244.79ZM1488.05 253.196C1487.77 253.412 1487.39 253.469 1487.08 253.31C1486.67 253.098 1486.54 252.582 1486.79 252.159C1487.9 250.303 1489.24 248.681 1490.76 247.337C1491.13 247.007 1491.69 247.014 1492 247.354C1492.31 247.694 1492.25 248.238 1491.87 248.568C1490.5 249.778 1489.29 251.245 1488.29 252.926C1488.22 253.032 1488.14 253.123 1488.05 253.196Z" fill="#E8EFFC"/>
<path d="M1714.03 121.802C1713.94 121.871 1713.84 121.926 1713.73 121.962C1712.79 122.262 1711.84 122.576 1710.91 122.894C1710.44 123.053 1709.96 122.82 1709.83 122.373C1709.71 121.926 1709.99 121.437 1710.46 121.276C1711.41 120.955 1712.37 120.639 1713.32 120.335C1713.79 120.184 1714.26 120.425 1714.38 120.875C1714.46 121.216 1714.31 121.581 1714.03 121.802Z" fill="#EFF3FA"/>
</svg>
