<svg width="25" height="25" viewBox="0 0 25 25" fill="none" xmlns="http://www.w3.org/2000/svg">
<path d="M12.5 25C10.0277 25 7.61099 24.2669 5.55538 22.8934C3.49976 21.5199 1.89761 19.5676 0.951511 17.2835C0.00541612 14.9995 -0.242126 12.4861 0.24019 10.0614C0.722505 7.63661 1.91301 5.40933 3.66117 3.66117C5.40933 1.91301 7.63661 0.722505 10.0614 0.24019C12.4861 -0.242126 14.9995 0.00541612 17.2835 0.951511C19.5676 1.89761 21.5199 3.49976 22.8934 5.55538C24.2669 7.61099 25 10.0277 25 12.5C24.9962 15.8141 23.6781 18.9913 21.3347 21.3347C18.9913 23.6781 15.8141 24.9962 12.5 25ZM12.5 1.08696C10.2427 1.08696 8.03612 1.75633 6.15926 3.01041C4.28239 4.26449 2.81955 6.04696 1.95573 8.13242C1.0919 10.2179 0.865886 12.5127 1.30626 14.7266C1.74663 16.9405 2.83362 18.9741 4.42976 20.5702C6.02591 22.1664 8.05951 23.2534 10.2734 23.6937C12.4873 24.1341 14.7821 23.9081 16.8676 23.0443C18.953 22.1805 20.7355 20.7176 21.9896 18.8407C23.2437 16.9639 23.913 14.7573 23.913 12.5C23.9096 9.47412 22.7061 6.57314 20.5665 4.43351C18.4269 2.29389 15.5259 1.09036 12.5 1.08696Z" fill="#414950"/>
<path d="M17.9348 6.52173H7.06523C6.34476 6.52248 5.65402 6.80901 5.14457 7.31846C4.63512 7.82791 4.34859 8.51865 4.34784 9.23912V15.7609C4.34859 16.4813 4.63512 17.1721 5.14457 17.6815C5.65402 18.191 6.34476 18.4775 7.06523 18.4782H12.5C12.6441 18.4782 12.7824 18.421 12.8843 18.3191C12.9862 18.2171 13.0435 18.0789 13.0435 17.9348C13.0435 17.7906 12.9862 17.6524 12.8843 17.5505C12.7824 17.4486 12.6441 17.3913 12.5 17.3913H7.06523C6.63296 17.3908 6.21854 17.2189 5.91288 16.9132C5.60722 16.6075 5.43528 16.1931 5.4348 15.7609V10.8696H19.5652V12.5C19.5652 12.6441 19.6225 12.7824 19.7244 12.8843C19.8263 12.9862 19.9646 13.0435 20.1087 13.0435C20.2528 13.0435 20.3911 12.9862 20.493 12.8843C20.5949 12.7824 20.6522 12.6441 20.6522 12.5V9.23912C20.6514 8.51865 20.3649 7.82791 19.8554 7.31846C19.346 6.80901 18.6553 6.52248 17.9348 6.52173ZM5.4348 9.7826V9.23912C5.43528 8.80685 5.60722 8.39243 5.91288 8.08677C6.21854 7.78111 6.63296 7.60917 7.06523 7.60868H17.9348C18.3671 7.60917 18.7815 7.78111 19.0871 8.08677C19.3928 8.39243 19.5647 8.80685 19.5652 9.23912V9.7826H5.4348Z" fill="#414950"/>
<path d="M20.4923 15.3761L18.319 13.2029C18.2165 13.1039 18.0792 13.0491 17.9367 13.0503C17.7942 13.0516 17.6579 13.1087 17.5572 13.2095C17.4564 13.3102 17.3992 13.4466 17.398 13.589C17.3968 13.7315 17.4515 13.8688 17.5505 13.9713L18.7967 15.2175H14.6739C14.5298 15.2175 14.3915 15.2748 14.2896 15.3767C14.1877 15.4786 14.1304 15.6169 14.1304 15.761C14.1304 15.9051 14.1877 16.0434 14.2896 16.1453C14.3915 16.2472 14.5298 16.3045 14.6739 16.3045H18.7967L17.5505 17.5507C17.4986 17.6008 17.4572 17.6608 17.4287 17.7271C17.4003 17.7934 17.3853 17.8647 17.3846 17.9369C17.384 18.009 17.3978 18.0806 17.4251 18.1474C17.4524 18.2142 17.4928 18.2749 17.5438 18.3259C17.5948 18.3769 17.6555 18.4173 17.7223 18.4446C17.7891 18.4719 17.8607 18.4857 17.9328 18.4851C18.005 18.4844 18.0763 18.4694 18.1426 18.441C18.2089 18.4125 18.2689 18.3711 18.319 18.3192L20.4923 16.1459C20.5941 16.0437 20.6513 15.9053 20.6513 15.761C20.6513 15.6167 20.5941 15.4783 20.4923 15.3761Z" fill="#414950"/>
</svg>
