<svg xmlns="http://www.w3.org/2000/svg" xmlns:xlink="http://www.w3.org/1999/xlink" width="146.26" height="157.079" viewBox="0 0 146.26 157.079"><defs><linearGradient id="a" x1="0.5" y1="1" x2="0.5" gradientUnits="objectBoundingBox"><stop offset="0" stop-color="gray" stop-opacity="0.251"/><stop offset="0.535" stop-color="gray" stop-opacity="0.122"/><stop offset="1" stop-color="gray" stop-opacity="0.102"/></linearGradient></defs><g transform="translate(-80 -136.945)"><g transform="translate(55 288.945)"><g transform="translate(25 -152)"><g transform="translate(0 0)"><path d="M369.066,136.047l5.862-6.155s6.449-9.673,11.139-7.035-6.742,8.794-6.742,8.794l-5.862,9.673Z" transform="translate(-342.086 -109.329)" fill="#a0616a"/><path d="M267.233,787.668s-4.4,8.5-1.172,9.087,19.053,1.466,19.346.586,2.638-3.811.879-4.983-8.794-2.052-8.794-2.052l-2.345-2.345Z" transform="translate(-258.72 -641.649)" fill="#2f2e41"/><path d="M245.933,370.588s-9.38,11.725-1.759,23.743l1.759,20.225s-3.224,27.846.879,37.226l.586,3.224h10.259l-2.638-24.622s.293-2.931,1.173-3.517,15.242-32.243,15.242-32.243-2.345-4.4-1.466-5.276-.879-18.467-1.759-19.053S245.933,370.588,245.933,370.588Z" transform="translate(-239.764 -307.522)" fill="#2f2e41"/><path d="M73.4,712.782l1.172,6.742-11.432-.586L64.6,711.61Z" transform="translate(-50.52 -569.402)" fill="#a0616a"/><circle cx="8.794" cy="8.794" r="8.794" transform="translate(12.031 6.2)" fill="#a0616a"/><path d="M295.14,139.35l-.879,10.552,9.38,4.4s-1.612-9.82-.44-12.458Z" transform="translate(-282.229 -122.891)" fill="#a0616a"/><path d="M256.64,179.533l-.879-3.517-12.018-4.4s-1.172,0-.879,2.052.293,1.759.293,1.759-4.1,1.759-4.4,4.69-4.983,3.811-4.69,8.207a15.573,15.573,0,0,0,1.759,6.742s-1.466,3.517.879,5.569c0,0,2.345,4.1,1.172,7.035s-2.638,7.914.586,7.035,25.5-2.345,25.5-2.345,3.224-12.018-.293-16.415c0,0,0-2.638-2.638-7.914S256.64,179.533,256.64,179.533Z" transform="translate(-234.056 -148.711)" fill="#ffe0b2"/><path d="M269.325,367.58s3.811,16.122,8.5,17.88c0,0,.879,11.725,5.862,11.139s0-11.139,0-11.139l-5.569-20.225Z" transform="translate(-262.277 -303.635)" fill="#a0616a"/><path d="M344.131,191.622s4.4-7.035,5.569-5.863,7.035,4.69,6.742,7.035-2.931,2.345-2.931,2.345l-6.156,4.69Z" transform="translate(-322.134 -159.92)" fill="#ffe0b2"/><path d="M308.009,478.177l3.517,2.528,2.345,25.025s-8.5,34-10.846,34.3-12.018.293-11.725-.586,1.759-4.4,1.759-5.276,3.057-7.912,3.057-7.912l3.978-16.417-.879-12.9Z" transform="translate(-279.856 -394.007)" fill="#2f2e41"/><path d="M293.681,784.2s-12.311-3.811-12.9-2.931-4.5,9.742.976,10.734,25.112,2.75,25.112.112-.586-4.4-2.345-4.4-9.673-3.811-10.259-4.69S293.681,784.2,293.681,784.2Z" transform="translate(-269.925 -636.427)" fill="#2f2e41"/><path d="M285.979,76.563a.868.868,0,0,1,1.174-1.161l.015.009a1.521,1.521,0,0,1,.715,1.521c1.057-1.055.278-3.17,1.42-4.132.529-.445,1.387-.543,1.658-1.179.158-.37.051-.809.19-1.186a1.719,1.719,0,0,1,1.459-.883,14.166,14.166,0,0,1,5.557.662,3.9,3.9,0,0,1,1.86.853,6.551,6.551,0,0,1,1.007,1.921c.315.656,2.379.6,3.1.5.251-.713-1.6-.766-1.753-1.507-.413-2.023,1.026-4.175.32-6.116a4.916,4.916,0,0,0-2.657-2.487,14.1,14.1,0,0,0-9.978-.851,2.215,2.215,0,0,0-.922.446c-.426.4-.5,1.036-.789,1.545-.646,1.16-2.18,1.436-3.213,2.269-1.566,1.262-1.742,3.541-1.793,5.552a6.835,6.835,0,0,0,.371,2.988,2.338,2.338,0,0,0,2.391,1.483A2.846,2.846,0,0,1,285.979,76.563Z" transform="translate(-273.492 -60.992)" fill="#2f2e41"/><path d="M257.482,225.453a6.245,6.245,0,0,0-7.624.387c-2.02,1.717-4.193,4.176-4.034,6.722.293,4.69,2.052,24.036,4.4,24.329s10.845-2.052,10.845-3.517-2.052-3.224-2.052-3.224l2.491-14.948a9.881,9.881,0,0,0-3.892-9.656Z" transform="translate(-243.466 -190.895)" fill="#ffe0b2"/><g transform="translate(45.66 6.129)" opacity="0.5"><circle cx="15.093" cy="15.093" r="15.093" fill="url(#a)"/></g><circle cx="14.775" cy="14.775" r="14.775" transform="translate(46.008 6.35)" fill="#f5f5f5"/><path d="M512.406,134.353c0,4.915-3.531,7.333-8.116,7.333s-8.487-2.419-8.487-7.333,3.717-8.9,8.3-8.9S512.406,129.438,512.406,134.353Z" transform="translate(-443.496 -111.772)" fill="#333"/><path d="M504.3,214.6a14.706,14.706,0,0,0,8.122-2.43c-.544-2.975-2.616-3.145-2.616-3.145H498.382s-1.955.161-2.566,2.9A14.707,14.707,0,0,0,504.3,214.6Z" transform="translate(-443.506 -178.642)" fill="#f57c00"/><path d="M291.923,133.874h4.57v3.783a2.157,2.157,0,0,1-2.157,2.157h-.255a2.157,2.157,0,0,1-2.157-2.157v-3.783Z" transform="translate(-233.585 -107.12)" opacity="0.1"/><path d="M292.334,133.027h3.746a.412.412,0,0,1,.412.412v3.371a2.157,2.157,0,0,1-2.157,2.157h-.255a2.157,2.157,0,0,1-2.157-2.157v-3.371a.412.412,0,0,1,.412-.412Z" transform="translate(-233.585 -106.443)" fill="#fda57d"/><path d="M526.022,197.3a6.577,6.577,0,0,0,4.57.013v-.561h-4.57Z" transform="translate(-467.676 -168.821)" opacity="0.1"/><circle cx="6.55" cy="6.55" r="6.55" transform="translate(54.09 15.686)" fill="#fda57d"/><path d="M499.721,140.1a11.763,11.763,0,0,0,7.169-4.449s4.079,4.491,6.921,4a2.477,2.477,0,0,0,0-3.461c-1.648-1.73-2.925-3.914-5.109-3.625s-4.861.412-6.015,1.442S499.721,140.1,499.721,140.1Z" transform="translate(-446.631 -117.441)" opacity="0.1"/><path d="M499.721,139.693a11.763,11.763,0,0,0,7.169-4.449s4.079,4.491,6.921,4a2.477,2.477,0,0,0,0-3.461c-1.648-1.73-2.925-3.914-5.109-3.625s-4.861.412-6.015,1.442S499.721,139.693,499.721,139.693Z" transform="translate(-446.631 -117.112)" fill="#333"/><ellipse cx="0.609" cy="1.142" rx="0.609" ry="1.142" transform="translate(53.478 21.087)" fill="#fda57d"/><ellipse cx="0.609" cy="1.142" rx="0.609" ry="1.142" transform="translate(66.579 21.087)" fill="#fda57d"/><g transform="translate(109.58 7.205)" opacity="0.5"><circle cx="15.093" cy="15.093" r="15.093" fill="url(#a)"/></g><circle cx="14.775" cy="14.775" r="14.775" transform="translate(109.927 7.427)" fill="#f5f5f5"/><path d="M824.154,219.987a14.706,14.706,0,0,0,8.121-2.43c-.544-2.975-2.616-3.145-2.616-3.145H818.236s-1.955.161-2.566,2.9a14.707,14.707,0,0,0,8.484,2.678Z" transform="translate(-699.44 -182.952)" fill="#f57c00"/><circle cx="7.132" cy="7.132" r="7.132" transform="translate(117.427 14.759)" fill="#72351c"/><path d="M611.777,139.261h4.57v3.783a2.157,2.157,0,0,1-2.157,2.157h-.255a2.157,2.157,0,0,1-2.157-2.157Z" transform="translate(-489.52 -111.431)" opacity="0.1"/><path d="M612.188,138.414h3.746a.412.412,0,0,1,.412.412V142.2a2.157,2.157,0,0,1-2.157,2.157h-.255a2.157,2.157,0,0,1-2.157-2.157v-3.371a.412.412,0,0,1,.412-.412Z" transform="translate(-489.519 -110.753)" fill="#fda57d"/><path d="M845.875,202.688a6.576,6.576,0,0,0,4.57.013v-.561h-4.57Z" transform="translate(-723.609 -173.132)" opacity="0.1"/><circle cx="6.55" cy="6.55" r="6.55" transform="translate(118.009 16.762)" fill="#fda57d"/><path d="M834.005,137.231s2.76,5.6,10.547,2.348l-1.813-2.843-3.214-1.154Z" transform="translate(-714.111 -119.876)" opacity="0.1"/><path d="M834.005,136.819s2.76,5.6,10.547,2.348l-1.813-2.843-3.214-1.154Z" transform="translate(-714.111 -119.547)" fill="#72351c"/><path d="M833.336,123.424a3.783,3.783,0,0,1,.938-1.525c1.289-1.273,3.4-1.542,4.484-2.994a.848.848,0,0,1-.388,1.2c1.037-.007,2.241-.1,2.827-.952a1.941,1.941,0,0,1-.327,2.05,1.96,1.96,0,0,1,1.961,1.585,1.83,1.83,0,0,1-.847,1.543,4.711,4.711,0,0,1-1.711.644C838.522,125.356,832.194,126.973,833.336,123.424Z" transform="translate(-713.466 -106.531)" fill="#72351c"/><path d="M837.687,173.928h-.174l-3.378,3.007a6.073,6.073,0,0,0-5.644,0l-3.543-2.884-.357.045a6.549,6.549,0,1,0,13.1-.169Zm-6.559,4.161c-1.274,0-2.307-.258-2.307-.577s1.033-.577,2.307-.577,2.307.258,2.307.577-1.033.577-2.307.577Z" transform="translate(-706.578 -150.559)" fill="#72351c"/><ellipse cx="0.609" cy="1.142" rx="0.609" ry="1.142" transform="translate(117.397 22.163)" fill="#fda57d"/><ellipse cx="0.609" cy="1.142" rx="0.609" ry="1.142" transform="translate(130.499 22.163)" fill="#fda57d"/><g transform="translate(77.622 31.967)" opacity="0.5"><circle cx="15.093" cy="15.093" r="15.093" fill="url(#a)"/></g><circle cx="14.775" cy="14.775" r="14.775" transform="translate(77.94 32.203)" fill="#f5f5f5"/><path d="M658.779,292.723s-1.676,8.252-2.589,7.8c0,0,8.818,7.616,16.6,0,0,0-1.371-5.815-3.351-7.8Z" transform="translate(-571.831 -245.614)" fill="#333"/><path d="M664.236,343.9a14.706,14.706,0,0,0,8.121-2.43c-.544-2.975-2.616-3.145-2.616-3.145H658.318s-1.955.161-2.566,2.9A14.707,14.707,0,0,0,664.236,343.9Z" transform="translate(-571.48 -282.099)" fill="#f57c00"/><circle cx="6.55" cy="6.55" r="6.55" transform="translate(86.051 40.103)" fill="#333"/><path d="M451.859,263.171h4.57v3.783a2.157,2.157,0,0,1-2.157,2.157h-.255a2.157,2.157,0,0,1-2.157-2.157v-3.783Z" transform="translate(-361.56 -210.579)" opacity="0.1"/><path d="M452.27,262.324h3.746a.412.412,0,0,1,.412.412v3.371a2.157,2.157,0,0,1-2.157,2.157h-.255a2.157,2.157,0,0,1-2.157-2.157v-3.372a.412.412,0,0,1,.412-.412Z" transform="translate(-361.559 -209.9)" fill="#be7c5e"/><path d="M685.958,326.6a6.577,6.577,0,0,0,4.57.013v-.561h-4.57Z" transform="translate(-595.65 -272.279)" opacity="0.1"/><circle cx="6.55" cy="6.55" r="6.55" transform="translate(86.051 41.524)" fill="#be7c5e"/><path d="M666.1,266.136h12.49s-1.066-5.043-5.788-4.722S666.1,266.136,666.1,266.136Z" transform="translate(-579.759 -220.549)" fill="#333"/><ellipse cx="0.609" cy="1.142" rx="0.609" ry="1.142" transform="translate(85.577 46.652)" fill="#be7c5e"/><ellipse cx="0.609" cy="1.142" rx="0.609" ry="1.142" transform="translate(98.372 46.652)" fill="#be7c5e"/><path d="M666.1,266.983h12.49s-1.066-5.043-5.788-4.722S666.1,266.983,666.1,266.983Z" transform="translate(-579.759 -221.227)" opacity="0.1"/><path d="M629.317,210.036a13.757,13.757,0,1,1-13.757,13.757,13.757,13.757,0,0,1,13.757-13.757m0-3.4a17.154,17.154,0,1,0,17.154,17.154A17.154,17.154,0,0,0,629.317,206.639Z" transform="translate(-536.603 -176.733)" fill="#ccc"/><rect width="4.021" height="4.233" transform="translate(90.175 25.896)" fill="#ccc"/><rect width="4.233" height="4.021" transform="matrix(0.515, -0.857, 0.857, 0.515, 99.188, 31.239)" fill="#ccc"/><rect width="4.233" height="4.021" transform="matrix(0.875, -0.485, 0.485, 0.875, 106.231, 36.595)" fill="#ccc"/><rect width="4.021" height="4.233" transform="matrix(0.53, -0.848, 0.848, 0.53, 106.29, 57.218)" fill="#ccc"/><rect width="4.021" height="4.233" transform="matrix(0.485, -0.875, 0.875, 0.485, 73.547, 38.06)" fill="#ccc"/><rect width="4.233" height="4.021" transform="matrix(0.848, -0.53, 0.53, 0.848, 73.42, 56.051)" fill="#ccc"/><rect width="4.021" height="4.233" transform="matrix(0.857, -0.515, 0.515, 0.857, 80.615, 29.682)" fill="#ccc"/><rect width="4.021" height="4.233" transform="translate(90.175 63.992)" fill="#ccc"/><rect width="4.021" height="4.233" transform="matrix(0.857, -0.515, 0.515, 0.857, 99.188, 62.881)" fill="#ccc"/><rect width="4.233" height="4.021" transform="matrix(0.515, -0.857, 0.857, 0.515, 80.615, 64.438)" fill="#ccc"/><rect width="4.868" height="3.598" transform="translate(71.127 45.367)" fill="#ccc"/><rect width="4.868" height="3.598" transform="translate(114.302 48.965) rotate(180)" fill="#ccc"/><path d="M789.235,86.126a13.757,13.757,0,1,1-13.757,13.757,13.757,13.757,0,0,1,13.757-13.757m0-3.4a17.154,17.154,0,1,0,17.154,17.154A17.154,17.154,0,0,0,789.235,82.729Z" transform="translate(-664.563 -77.585)" fill="#ccc"/><rect width="4.021" height="4.233" transform="translate(122.133 1.134)" fill="#ccc"/><rect width="4.233" height="4.021" transform="matrix(0.515, -0.857, 0.857, 0.515, 131.146, 6.477)" fill="#ccc"/><rect width="4.233" height="4.021" transform="matrix(0.875, -0.485, 0.485, 0.875, 138.189, 11.833)" fill="#ccc"/><rect width="4.021" height="4.233" transform="matrix(0.53, -0.848, 0.848, 0.53, 138.248, 32.456)" fill="#ccc"/><rect width="4.021" height="4.233" transform="matrix(0.485, -0.875, 0.875, 0.485, 105.505, 13.298)" fill="#ccc"/><rect width="4.233" height="4.021" transform="matrix(0.848, -0.53, 0.53, 0.848, 105.378, 31.289)" fill="#ccc"/><rect width="4.021" height="4.233" transform="matrix(0.857, -0.515, 0.515, 0.857, 112.573, 4.92)" fill="#ccc"/><rect width="4.021" height="4.233" transform="translate(122.133 39.229)" fill="#ccc"/><rect width="4.021" height="4.233" transform="matrix(0.857, -0.515, 0.515, 0.857, 131.146, 38.119)" fill="#ccc"/><rect width="4.233" height="4.021" transform="matrix(0.515, -0.857, 0.857, 0.515, 112.573, 39.676)" fill="#ccc"/><rect width="4.868" height="3.598" transform="translate(103.085 20.605)" fill="#ccc"/><rect width="4.868" height="3.598" transform="translate(146.26 24.203) rotate(180)" fill="#ccc"/><path d="M468.183,80.82q.242,0,.486.008a13.756,13.756,0,1,1-.469,27.507c-.161,0-.323,0-.486-.011a13.756,13.756,0,1,1,.469-27.507m0-3.4v0a17.153,17.153,0,1,0-.587,34.3c.2,0,.4.008.6.008a17.153,17.153,0,1,0,.587-34.3c-.2,0-.4-.008-.6-.008Z" transform="translate(-407.435 -73.337)" fill="#ccc"/><rect width="4.233" height="4.021" transform="translate(58.806 4.23) rotate(-88.012)" fill="#ccc"/><rect width="4.233" height="4.021" transform="translate(67.775 5.653) rotate(-57.012)" fill="#ccc"/><rect width="4.233" height="4.021" transform="translate(74.627 11.251) rotate(-27.012)" fill="#ccc"/><rect width="4.021" height="4.233" transform="translate(73.971 31.863) rotate(-56.012)" fill="#ccc"/><rect width="4.021" height="4.233" transform="translate(41.913 11.58) rotate(-59.012)" fill="#ccc"/><rect width="4.233" height="4.021" transform="matrix(0.866, -0.5, 0.5, 0.866, 41.161, 29.556)" fill="#ccc"/><rect width="4.021" height="4.233" transform="translate(49.267 3.452) rotate(-29.012)" fill="#ccc"/><rect width="4.233" height="4.021" transform="translate(57.484 42.303) rotate(-88.012)" fill="#ccc"/><rect width="4.021" height="4.233" transform="translate(66.677 37.276) rotate(-29.012)" fill="#ccc"/><rect width="4.233" height="4.021" transform="translate(48.062 38.188) rotate(-57.012)" fill="#ccc"/><rect width="4.868" height="3.598" transform="translate(39.242 18.798) rotate(1.988)" fill="#ccc"/><rect width="4.868" height="3.598" transform="translate(82.265 23.893) rotate(-178.012)" fill="#ccc"/></g></g></g></g></svg>