<svg width="90" height="90" viewBox="0 0 90 90" fill="none" xmlns="http://www.w3.org/2000/svg">
<path d="M82.6097 69.7178C76.4802 67.0367 68.3819 63.3784 61.0886 60.3511L58.4105 58.3911L58.4184 58.5186L56.6888 55.3022C56.6888 55.3045 56.6914 55.3069 56.6914 55.3093C56.6516 55.172 56.6038 55.0378 56.548 54.9084C56.2956 54.3108 55.8758 54.0481 55.6978 53.9434C55.6951 54.0173 55.6951 54.0909 55.6924 54.1645V52.9125V50.6422C56.4656 49.3876 57.0448 48.019 57.3158 46.5072C57.4726 45.6429 57.6187 44.7956 57.7595 43.9651C57.7994 44.0413 57.8658 44.1019 57.9508 44.1301C58.1767 44.2055 58.4052 44.2438 58.631 44.2438C60.0604 44.2438 61.434 42.7065 62.0026 39.3038C62.5845 35.8152 62.186 34.795 61.5749 34.1786C61.3039 33.9049 60.9213 33.7801 60.5094 33.7801C60.3155 33.7801 60.1136 33.8066 59.9143 33.8598C59.9249 33.8518 59.9382 33.8465 59.9488 33.8412C61.1285 29.6379 61.7768 21.7947 60.9053 19.1936C59.4361 14.8017 51.0933 10.1468 45.7609 10.1468C40.4986 10.1468 29.8778 14.6821 28.4691 19.4513C27.773 21.8106 28.1206 28.9338 29.4926 33.7907C29.424 33.7827 29.356 33.7801 29.2888 33.7801C28.8751 33.7801 28.4944 33.9049 28.2212 34.1786C27.6115 34.795 27.2132 35.8152 27.7953 39.3038C28.3631 42.7065 29.737 44.2438 31.1672 44.2438C31.3931 44.2438 31.6202 44.2055 31.8455 44.1301C31.9303 44.1019 31.9965 44.0413 32.0384 43.9651C32.1771 44.7956 32.3246 45.6429 32.4803 46.5072C32.7526 48.019 33.3313 49.3878 34.1034 50.6424V54.0016C34.1031 53.9771 34.1029 53.9527 34.1023 53.9283C33.9057 54.0329 33.547 54.2806 33.2691 54.8781C33.2051 55.0157 33.1509 55.1589 33.1052 55.3056L31.3808 58.5157L31.3872 58.4134L28.7085 60.3731C21.4833 63.3725 13.4642 66.992 7.35647 69.666C5.74957 67.2189 4.37488 64.6051 3.26375 61.8573C1.15841 56.6503 0 50.9613 0 45C0 20.1474 20.1471 -7.62939e-06 44.9999 -7.62939e-06C69.8538 -7.62939e-06 90.0012 20.1474 90.0012 45C90.0012 54.1286 87.2805 62.6241 82.6097 69.7178ZM34.1034 58.8353C34.1031 58.8348 34.1029 58.8345 34.1026 58.834C34.1029 58.7715 34.1031 58.7091 34.1034 58.6469V58.8353Z" fill="#DEEBFF"/>
<path d="M44.9931 69.3589L43.977 68.7608C40.7149 65.856 37.5122 62.7038 34.9943 59.9744C34.6444 59.5947 34.3481 59.2156 34.1016 58.8362V58.6478C34.1098 57.1219 34.1255 55.5923 34.1016 54.0024V50.6433V53.0077C35.3365 55.0718 38.1916 59.3492 40.5629 59.9534C41.2 60.1157 41.8505 60.159 42.512 60.159C43.2743 60.159 44.0515 60.1014 44.84 60.1014C45.6528 60.1014 46.4552 60.1766 47.2416 60.1766C47.7996 60.1766 48.3522 60.1383 48.8942 60.0076C51.3997 59.4039 54.1443 54.927 55.6906 52.9134V54.1653C55.672 55.7552 55.68 57.306 55.6826 58.8486C55.4382 59.2238 55.1459 59.599 54.7979 59.9744C52.1596 62.8362 48.7667 66.1626 45.3419 69.1814L44.9931 69.3589Z" fill="#FDAE5B"/>
<path d="M47.2416 60.1758C46.4552 60.1758 45.6528 60.1006 44.84 60.1006C44.0515 60.1006 43.2743 60.1582 42.512 60.1582C41.8505 60.1582 41.2 60.1149 40.5629 59.9526C38.1916 59.3484 35.3365 55.071 34.1016 53.0069V50.6425C35.6091 53.0914 37.8545 55.1064 40.0023 56.908C41.1039 57.8324 43.0267 58.3406 44.962 58.3406C46.7873 58.3406 48.6232 57.889 49.7922 56.908C51.939 55.1064 54.1841 53.0914 55.6906 50.6422V52.9126C54.1443 54.9262 51.3997 59.4031 48.8942 60.0068C48.3522 60.1375 47.7996 60.1758 47.2416 60.1758Z" fill="#EC974C"/>
<path d="M44.9635 58.3403C43.0282 58.3403 41.1054 57.8321 40.0038 56.9077C37.856 55.1061 35.6106 53.0911 34.1031 50.6422C33.331 49.3876 32.7523 48.0187 32.4799 46.507C32.3242 45.6427 32.1768 44.7954 32.0381 43.9648C32.0745 43.8984 32.092 43.8203 32.087 43.7414L31.6465 37.1142H31.6467C31.694 34.2899 32.769 31.8801 33.734 29.4968C33.5812 27.8416 32.4117 21.7174 35.5516 20.6573C37.941 20.6573 43.9868 24.6612 46.5868 25.3946C48.2846 25.8755 49.6928 26.1119 50.9256 26.1119C52.711 26.1119 54.1298 25.6151 55.5433 24.6267C55.5433 26.3883 56.2155 27.8416 56.0614 29.4968C57.0285 31.8801 57.6609 34.2899 57.7087 37.1142C57.8788 36.4713 58.0568 35.9611 58.2534 35.5493L57.7087 43.7414C57.7034 43.8203 57.722 43.8984 57.7592 43.9648C57.6184 44.7954 57.4722 45.6427 57.3155 46.507C57.0445 48.0187 56.4653 49.3873 55.6921 50.6419C54.1856 53.0911 51.9405 55.1061 49.7937 56.9077C48.6247 57.8887 46.7888 58.3403 44.9635 58.3403ZM33.7436 31.8641C33.1343 34.4042 32.3466 38.4267 33.5993 40.6904C34.6347 42.5609 36.4281 44.3974 36.9125 46.5322C37.9625 51.1608 38.543 53.3472 41.2653 56.0328C42.2372 56.992 43.6108 57.4931 44.968 57.4931C46.2149 57.4931 47.4504 57.0693 48.3431 56.1874C51.0664 53.5015 51.9273 51.4207 52.5224 46.6419C52.6978 45.2502 55.0784 42.8771 56.0747 41.0066C57.0206 39.2265 56.7868 36.2374 56.3218 33.7718C56.3776 33.6044 56.3909 33.4424 56.3537 33.2936C56.3006 33.0704 56.2102 32.8499 56.088 32.64C56.0827 32.6187 56.0774 32.6001 56.0747 32.5789C56.08 32.5071 56.0614 32.4221 56.0136 32.3238C55.7001 31.0086 55.3759 30.0149 55.2484 29.7253C54.9747 29.1089 55.0438 27.6476 54.2733 27.6476C54.2574 27.6476 54.2414 27.6503 54.2255 27.6503C51.9405 27.8283 50.4819 28.0674 49.0684 28.0674C47.7772 28.0674 46.5231 27.8682 44.7132 27.2438C41.5618 26.1571 38.4716 22.5623 36.3415 22.5623C35.6874 22.5623 35.1233 22.9024 34.6767 23.7579C33.514 25.9844 34.3504 26.1146 34.2556 29.6483C34.2508 29.8263 34.1376 30.278 33.979 30.9103C33.8639 31.0352 33.7553 31.1627 33.6535 31.2982C33.4154 31.6117 33.5762 31.8455 33.7436 31.8641Z" fill="#FDAE5B"/>
<path d="M44.9705 57.4937C43.6133 57.4937 42.2397 56.9926 41.2678 56.0334C38.5455 53.3478 37.965 51.1614 36.915 46.5328C36.4306 44.398 34.6372 42.5615 33.6018 40.691C32.3491 38.4273 33.1368 34.4048 33.7461 31.8647C33.7535 31.8647 33.7607 31.8674 33.7679 31.8674C33.8064 31.8674 33.8444 31.8541 33.877 31.8302C34.8458 31.0863 35.5448 30.6798 36.4149 30.6798C36.6373 30.6798 36.8703 30.7063 37.1222 30.7595C37.0744 30.7595 37.0268 30.7568 36.9795 30.7568C35.2451 30.7568 33.9419 31.9657 33.6315 33.0922C33.3281 34.1922 35.6035 36.3948 38.4034 36.3948C39.2361 36.3948 40.1155 36.1982 40.9867 35.7226C41.1525 35.6323 41.3374 35.5951 41.5284 35.5951C41.8324 35.5951 42.1515 35.688 42.4318 35.805C42.4137 35.9033 42.4042 36.0069 42.4042 36.1185C42.4042 38.9959 40.7648 41.9451 41.3967 43.8448C41.4301 44.1161 41.5938 44.3331 41.8922 44.3634C43.6428 44.5414 43.7812 44.9809 44.7167 45.0316C44.4728 45.2338 44.298 45.7843 44.298 46.4321C44.298 47.2512 44.5778 47.5451 44.9229 47.5451C45.2688 47.5451 45.5478 47.2512 45.5478 46.4321C45.5478 45.782 45.3725 45.2293 45.1262 45.0293C46.0367 44.9684 46.2546 44.5388 47.9098 44.3634C48.234 44.3291 48.3774 44.111 48.3907 43.8262C48.8132 41.8601 47.3678 38.8817 47.3678 36.6897C47.3678 36.2726 47.3333 35.9219 47.2695 35.6323C47.2748 35.6323 47.2775 35.6323 47.2801 35.6323C47.3359 35.6323 47.397 35.6269 47.4581 35.6163C47.6548 35.5844 47.8647 35.5366 48.0666 35.5366C48.2074 35.5366 48.3429 35.5605 48.4678 35.627C49.3844 36.1371 50.3515 36.3417 51.2815 36.3417C53.7497 36.3417 55.9629 34.891 56.3243 33.7724C56.7892 36.238 57.0231 39.2271 56.0772 41.0072C55.0809 42.8777 52.7002 45.2508 52.5249 46.6425C51.9297 51.4213 51.0689 53.5021 48.3456 56.188C47.4528 57.0699 46.2174 57.4937 44.9705 57.4937ZM42.8795 50.7273C42.9587 51.1064 43.8843 51.8113 44.9856 51.8113C46.0925 51.8113 46.9719 51.1 47.041 50.7222C49.4907 49.9124 50.3276 47.8469 50.2373 47.4882C50.2452 47.4598 50.2506 47.4319 50.2559 47.4048C50.2559 47.3836 50.2453 47.3748 50.2213 47.3748C50.1655 47.3748 50.046 47.4234 49.8653 47.472C49.6846 47.5206 49.4402 47.5695 49.1346 47.5695C49.1081 47.5695 49.0789 47.569 49.0496 47.5682C47.8912 47.5639 47.2084 47.1484 46.4857 47.1484C46.398 47.1484 46.3104 47.1545 46.2227 47.1678C45.4336 47.2512 45.4894 47.653 44.9362 47.653C44.9312 47.653 44.9264 47.653 44.9213 47.653C44.3796 47.6458 44.3458 47.2961 43.6904 47.2356C43.5947 47.2228 43.4993 47.217 43.4045 47.217C42.6722 47.217 41.9469 47.5549 40.9506 47.6126C40.8887 47.616 40.8289 47.6176 40.7712 47.6176C40.4984 47.6176 40.2736 47.5815 40.1025 47.5454C39.9314 47.5092 39.8136 47.4731 39.7547 47.4731C39.7244 47.4731 39.7095 47.4826 39.7108 47.506C39.7773 47.679 39.9149 47.8876 40.141 48.0589L40.1272 48.0927C39.9787 47.9447 39.8402 47.7701 39.7127 47.5626C39.6056 47.8785 40.5284 49.9262 42.8795 50.7273ZM43.3707 34.6226C43.38 34.3277 43.3545 34.0195 43.299 33.7432C43.2028 33.2623 43.1127 32.8451 42.6507 32.4838C42.719 32.3775 42.656 32.173 42.5662 31.971C41.7306 30.0846 39.6479 30.3609 37.614 29.6914C37.3385 29.6011 37.0566 29.5585 36.7741 29.5585C35.7592 29.5585 34.7363 30.1032 33.9814 30.9109C34.1401 30.2786 34.2533 29.8269 34.258 29.6489C34.3529 26.1152 33.5165 25.985 34.6792 23.7585C35.1258 22.903 35.6899 22.5629 36.344 22.5629C38.4741 22.5629 41.5643 26.1577 44.7157 27.2444C46.5256 27.8688 47.7796 28.068 49.0709 28.068C50.4844 28.068 51.943 27.8289 54.228 27.6509C54.2439 27.6509 54.2598 27.6482 54.2758 27.6482C55.0463 27.6482 54.9772 29.1095 55.2509 29.7259C55.3784 30.0155 55.7025 31.0092 56.0161 32.3244C56.0108 32.3138 56.0055 32.3005 55.9975 32.2872C55.3439 31.1049 54.1483 30.4593 52.8995 30.4593C52.687 30.4593 52.4744 30.4778 52.2618 30.515C51.8235 30.5921 51.393 30.6133 50.9759 30.6133C50.7288 30.6133 50.487 30.608 50.2506 30.6001C50.0141 30.5921 49.7829 30.5841 49.5598 30.5841C48.5501 30.5841 47.684 30.7329 47.0809 31.6947C46.8949 31.9923 46.7753 32.3005 47.1845 32.3005C47.2031 32.3005 47.2217 32.3005 47.2429 32.2978C47.3598 32.2899 47.4741 32.2846 47.5857 32.2739C46.8231 32.6326 46.6132 33.0683 46.5017 33.629C46.4512 33.884 46.4246 34.1311 46.4273 34.3623C46.3954 34.3463 46.3661 34.333 46.3369 34.3197C46.1642 34.0355 45.8135 33.9876 45.4681 33.9876C45.2874 33.9876 45.1062 34.0009 44.9572 34.0009C44.8084 34.0009 44.5863 33.9744 44.3591 33.9744C43.9709 33.9744 43.5676 34.0514 43.4871 34.4685C43.4802 34.5031 43.4741 34.5376 43.4683 34.5722C43.4356 34.5881 43.4029 34.604 43.3707 34.6226ZM56.0905 32.6406C56.0852 32.6299 56.0798 32.622 56.0719 32.6114C56.0745 32.6007 56.0745 32.5901 56.0772 32.5795C56.0799 32.6007 56.0852 32.6193 56.0905 32.6406Z" fill="#FDBC76"/>
<path d="M44.9851 51.8115C43.8838 51.8115 42.9581 51.1066 42.8789 50.7275C43.4618 50.9262 44.1327 51.0482 44.8974 51.0482C45.7199 51.0482 46.4293 50.9241 47.0404 50.7224C46.9714 51.1003 46.0919 51.8115 44.9851 51.8115Z" fill="#FDAE5B"/>
<path d="M44.9207 49.377C44.8214 49.377 44.7217 49.3661 44.6242 49.344C44.1611 49.2404 43.6279 49.0964 43.0388 49.0332C41.8464 48.8953 40.8596 48.8225 40.125 48.0926L40.1388 48.0588C40.2953 48.1773 40.4946 48.2783 40.7422 48.337C41.1144 48.4253 41.5507 48.4486 42.0032 48.4486C42.2564 48.4486 42.5146 48.4414 42.7694 48.434C43.0242 48.4268 43.2753 48.4194 43.5147 48.4194C43.9185 48.4194 44.2886 48.4401 44.5846 48.5169C44.6949 48.5453 44.8076 48.5618 44.9197 48.5618C45.018 48.5618 45.1163 48.5493 45.2109 48.5212C45.6758 48.3865 46.2497 48.3615 46.8422 48.3615C47.0149 48.3615 47.1903 48.3636 47.363 48.3657C47.5383 48.3679 47.711 48.37 47.8784 48.37C48.4045 48.37 48.9013 48.3498 49.2999 48.2467C49.4832 48.1991 49.6426 48.1258 49.7781 48.0381C49.0528 48.7032 47.9953 48.8365 46.8422 48.9949C46.255 49.0701 45.7051 49.2266 45.2374 49.3392C45.1341 49.3645 45.0275 49.377 44.9207 49.377Z" fill="#FFF8F8"/>
<path d="M44.9201 48.561C44.808 48.561 44.6953 48.5446 44.585 48.5161C44.289 48.4393 43.919 48.4186 43.5151 48.4186C43.2757 48.4186 43.0246 48.426 42.7698 48.4332C42.515 48.4407 42.2568 48.4479 42.0036 48.4479C41.5511 48.4479 41.1148 48.4245 40.7426 48.3363C40.495 48.2775 40.2957 48.1766 40.1392 48.0581C39.9131 47.8867 39.7755 47.6781 39.7091 47.5052C39.7077 47.4818 39.7226 47.4722 39.7529 47.4722C39.8119 47.4722 39.9296 47.5084 40.1007 47.5445C40.2718 47.5806 40.4966 47.6168 40.7694 47.6168C40.8271 47.6168 40.8869 47.6152 40.9488 47.6117C41.9451 47.5541 42.6705 47.2161 43.4027 47.2161C43.4976 47.2161 43.593 47.222 43.6886 47.2347C44.3441 47.2953 44.3778 47.6449 44.9195 47.6521C44.9246 47.6521 44.9294 47.6521 44.9344 47.6521C45.4876 47.6521 45.4318 47.2504 46.2209 47.1669C46.3086 47.1536 46.3963 47.1475 46.4839 47.1475C47.2066 47.1475 47.8895 47.5631 49.0479 47.5673C49.0771 47.5681 49.1063 47.5687 49.1329 47.5687C49.4384 47.5687 49.6829 47.5198 49.8635 47.4712C50.0442 47.4225 50.1638 47.3739 50.2196 47.3739C50.2435 47.3739 50.2541 47.3827 50.2541 47.404C50.2488 47.4311 50.2435 47.4589 50.2355 47.4874C50.2328 47.4829 50.2329 47.4786 50.2302 47.4746C50.1 47.6962 49.9486 47.8814 49.7785 48.0374C49.643 48.125 49.4836 48.1984 49.3003 48.2459C48.9017 48.349 48.4049 48.3692 47.8788 48.3692C47.7114 48.3692 47.5387 48.3671 47.3634 48.365C47.1907 48.3628 47.0153 48.3607 46.8426 48.3607C46.2501 48.3607 45.6762 48.3857 45.2113 48.5204C45.1167 48.5485 45.0184 48.561 44.9201 48.561Z" fill="#C4562A"/>
<path d="M44.8966 51.0483C44.132 51.0483 43.4611 50.9264 42.8782 50.7277C40.5271 49.9266 39.6043 47.8789 39.7114 47.563C39.839 47.7705 39.9774 47.9451 40.1259 48.0931C40.8605 48.8229 41.8473 48.8957 43.0397 49.0336C43.6288 49.0969 44.162 49.2408 44.6251 49.3445C44.7226 49.3665 44.8223 49.3774 44.9216 49.3774C45.0284 49.3774 45.135 49.3649 45.2383 49.3397C45.7059 49.227 46.2559 49.0705 46.8431 48.9954C47.9962 48.837 49.0537 48.7036 49.779 48.0386C49.9491 47.8826 50.1005 47.6974 50.2307 47.4758C50.2333 47.4798 50.2333 47.4841 50.236 47.4886C50.3263 47.8473 49.4894 49.9128 47.0397 50.7226C46.4286 50.9243 45.7192 51.0483 44.8966 51.0483Z" fill="#EA9063"/>
<path d="M41.3949 43.8442C40.7631 41.9445 42.4024 38.9954 42.4024 36.1179C42.4024 36.0063 42.4119 35.9027 42.43 35.8044C42.4438 35.8097 42.4576 35.8177 42.4714 35.823C42.5607 35.8602 42.6428 35.8788 42.7178 35.8788C43.149 35.8788 43.348 35.2863 43.369 34.6221C43.4011 34.6035 43.4338 34.5875 43.4665 34.5716C43.1851 36.2534 43.8849 38.1079 42.8535 41.2165C42.476 42.3537 43.805 43.3004 44.9033 43.3004C44.9219 43.3004 44.9405 43.3001 44.9591 43.2996C45.9552 43.2701 47.4085 42.4334 46.8851 41.081C45.9897 38.7722 46.7071 36.4288 46.4547 34.7523C46.5397 35.2677 46.8028 35.6264 47.2677 35.6317C47.3315 35.9213 47.366 36.272 47.366 36.6892C47.366 38.8811 48.8114 41.8595 48.3889 43.8256C48.4022 43.5905 48.3252 43.3097 48.1844 43.0493C47.9771 42.6582 47.7486 42.4812 47.4643 42.4812C47.3554 42.4812 47.2385 42.5078 47.111 42.5556C46.5318 42.7746 46.6274 43.8267 44.8762 43.8267C43.3498 43.8267 43.3799 42.8875 42.7632 42.63C42.628 42.5732 42.5102 42.545 42.4018 42.545C42.1452 42.545 41.9393 42.7033 41.6653 43.02C41.4539 43.2648 41.3625 43.5801 41.3949 43.8442ZM46.4494 34.7177C46.4414 34.6566 46.4308 34.5982 46.4175 34.5424C46.3989 34.4547 46.3723 34.383 46.3351 34.3192C46.3644 34.3325 46.3936 34.3457 46.4255 34.3617C46.4255 34.4866 46.4334 34.6061 46.4494 34.7177Z" fill="#FDAE5B"/>
<path d="M44.9064 43.3008C43.808 43.3008 42.479 42.3541 42.8566 41.2169C43.888 38.1083 43.1882 36.2538 43.4695 34.572C43.4754 34.5375 43.4815 34.5029 43.4884 34.4684C43.5689 34.0512 43.9722 33.9742 44.3604 33.9742C44.5876 33.9742 44.8097 34.0008 44.9585 34.0008C45.1075 34.0008 45.2887 33.9875 45.4694 33.9875C45.8148 33.9875 46.1655 34.0353 46.3382 34.3196C46.3754 34.3834 46.402 34.4551 46.4206 34.5428C46.4339 34.5986 46.4445 34.657 46.4524 34.7181C46.4551 34.7288 46.4578 34.742 46.4578 34.7527C46.7102 36.4292 45.9928 38.7726 46.8882 41.0815C47.4116 42.4338 45.9583 43.2705 44.9622 43.3C44.9436 43.3005 44.925 43.3008 44.9064 43.3008ZM44.888 38.9772C44.1396 38.9772 43.533 39.6786 43.533 40.5421C43.533 41.4056 44.1396 42.107 44.888 42.107C45.6368 42.107 46.2426 41.4056 46.2426 40.5421C46.2426 39.6786 45.6368 38.9772 44.888 38.9772Z" fill="#FDBC76"/>
<path d="M44.7171 45.0308C43.7816 44.98 43.6431 44.5406 41.8925 44.3625C41.5941 44.3322 41.4305 44.1152 41.397 43.8439C41.3646 43.5798 41.456 43.2644 41.6675 43.0197C41.9414 42.703 42.1473 42.5447 42.404 42.5447C42.5124 42.5447 42.6301 42.5728 42.7653 42.6297C43.382 42.8872 43.3519 43.8264 44.8783 43.8264C46.6295 43.8264 46.5339 42.7742 47.1131 42.5553C47.2406 42.5075 47.3575 42.4809 47.4664 42.4809C47.7507 42.4809 47.9792 42.6579 48.1865 43.049C48.3273 43.3093 48.4043 43.5902 48.391 43.8253C48.3778 44.1101 48.2343 44.3283 47.9102 44.3625C46.2549 44.5379 46.037 44.9675 45.1265 45.0284C45.0628 44.9766 44.9945 44.9484 44.9233 44.9484C44.851 44.9484 44.7816 44.9774 44.7171 45.0308ZM47.2991 43.5115C47.2008 43.5115 47.0918 43.5253 46.9696 43.5586C46.3479 43.7275 46.0423 43.908 46.0636 44.0009C46.0742 44.0443 46.1885 44.0604 46.3665 44.0604C46.5737 44.0604 46.866 44.0392 47.1928 44.0137C47.7986 43.9664 47.8676 43.8524 47.8437 43.7592C47.8278 43.6864 47.6445 43.5115 47.2991 43.5115ZM42.4632 43.4696C42.1165 43.4696 41.9339 43.6444 41.9169 43.7172C41.8954 43.8104 41.9624 43.9244 42.57 43.9717C42.8952 43.9972 43.1891 44.0185 43.3953 44.0185C43.5743 44.0185 43.6873 44.0023 43.6974 43.959C43.7189 43.866 43.4133 43.6856 42.7919 43.5163C42.6694 43.4831 42.5599 43.4696 42.4632 43.4696Z" fill="#EC9132"/>
<path d="M43.3938 44.0186C43.1876 44.0186 42.8937 43.9973 42.5685 43.9718C41.9609 43.9245 41.8939 43.8105 41.9155 43.7173C41.9325 43.6445 42.115 43.4697 42.4617 43.4697C42.5585 43.4697 42.6679 43.4832 42.7904 43.5164C43.4119 43.6857 43.7174 43.8661 43.6959 43.9591C43.6858 44.0024 43.5729 44.0186 43.3938 44.0186Z" fill="#5D1917"/>
<path d="M46.3645 44.061C46.1865 44.061 46.0722 44.0448 46.0616 44.0015C46.0403 43.9085 46.3459 43.7281 46.9676 43.5592C47.0898 43.5259 47.1987 43.5121 47.2971 43.5121C47.6425 43.5121 47.8258 43.6869 47.8417 43.7597C47.8656 43.853 47.7966 43.967 47.1908 44.0143C46.864 44.0398 46.5717 44.061 46.3645 44.061Z" fill="#5D1917"/>
<path d="M31.1657 44.2441C29.7355 44.2441 28.3616 42.7068 27.7938 39.3041C27.2116 35.8156 27.6099 34.7953 28.2197 34.1789C28.4928 33.9053 28.8736 33.7804 29.2873 33.7804C29.3545 33.7804 29.4225 33.783 29.4908 33.791C29.491 33.791 29.491 33.791 29.491 33.791C30.8073 33.9743 31.4452 35.1009 31.6453 37.1148L32.0858 43.742C32.0908 43.8209 32.0733 43.899 32.0369 43.9654C31.9949 44.0417 31.9287 44.1023 31.844 44.1304C31.6187 44.2059 31.3915 44.2441 31.1657 44.2441ZM30.9258 38.0102C30.8907 38.0102 30.8532 38.0129 30.8136 38.0261C30.3054 38.1696 29.9858 38.4566 29.8675 39.1128C29.7894 39.5459 29.918 40.2367 30.3067 40.4944C30.7616 40.7973 30.8556 41.2676 31.0334 41.3579C31.1301 41.4084 31.209 41.4296 31.2733 41.4296C31.7319 41.4296 31.4388 40.2792 31.4388 39.5114C31.4388 38.7036 31.3246 38.0102 30.9258 38.0102ZM28.775 34.8378C28.4623 34.8378 28.2133 34.9787 28.1102 35.332C27.5581 37.2264 28.4846 40.0534 29.0152 40.9753C29.0274 40.9966 29.0457 41.0072 29.0638 41.0072C29.0978 41.0072 29.1313 40.9753 29.1236 40.9275C28.8454 39.2882 28.6793 37.0085 29.2096 36.4346C29.3212 36.3151 29.5054 36.169 29.7017 36.169C29.8797 36.169 30.0681 36.2885 30.2222 36.6552C30.3197 36.8863 30.5256 36.9953 30.7161 36.9953C30.9388 36.9953 31.1399 36.8465 31.1221 36.5702C31.0838 35.9803 29.6682 34.8378 28.775 34.8378Z" fill="#FDAE5B"/>
<path d="M31.2752 41.4287C31.2109 41.4287 31.132 41.4075 31.0353 41.357C30.8576 41.2666 30.7635 40.7964 30.3086 40.4935C29.9199 40.2357 29.7913 39.545 29.8694 39.1119C29.9877 38.4556 30.3073 38.1687 30.8156 38.0252C30.8551 38.0119 30.8926 38.0093 30.9277 38.0093C31.3265 38.0093 31.4407 38.7027 31.4407 39.5104C31.4407 40.2783 31.7338 41.4287 31.2752 41.4287Z" fill="#D97542"/>
<path d="M29.0666 41.0068C29.0486 41.0068 29.0302 40.9962 29.018 40.9749C28.4874 40.053 27.561 37.226 28.1131 35.3316C28.2161 34.9783 28.4651 34.8375 28.7778 34.8375C29.6711 34.8375 31.0867 35.9799 31.125 36.5698C31.1428 36.8461 30.9416 36.9949 30.719 36.9949C30.5285 36.9949 30.3226 36.8859 30.2251 36.6548C30.0709 36.2881 29.8826 36.1686 29.7046 36.1686C29.5082 36.1686 29.3241 36.3147 29.2125 36.4343C28.6822 37.0082 28.8482 39.2878 29.1264 40.9271C29.1341 40.975 29.1007 41.0068 29.0666 41.0068Z" fill="#EC974C"/>
<path d="M58.6318 44.2441C58.406 44.2441 58.1775 44.2059 57.9516 44.1304C57.8666 44.1023 57.8002 44.0417 57.7603 43.9654C57.7231 43.899 57.7046 43.8209 57.7099 43.742L58.2545 35.5499C58.6903 34.6306 59.2137 34.1949 59.9151 33.8601C60.1144 33.807 60.3163 33.7804 60.5103 33.7804C60.9221 33.7804 61.3047 33.9053 61.5757 34.1789C62.1868 34.7953 62.5853 35.8156 62.0034 39.3041C61.4349 42.7068 60.0612 44.2441 58.6318 44.2441ZM58.8709 38.0102C58.4724 38.0102 58.3582 38.7036 58.3582 39.5114C58.3582 40.2792 58.0632 41.4296 58.5229 41.4296C58.5867 41.4296 58.6664 41.4084 58.762 41.3579C58.94 41.2676 59.0357 40.7973 59.49 40.4944C59.8779 40.2367 60.0081 39.5459 59.9284 39.1128C59.8115 38.4566 59.49 38.1696 58.9825 38.0261C58.9427 38.0129 58.9055 38.0102 58.8709 38.0102ZM60.0958 36.169C60.2897 36.169 60.4757 36.3151 60.5873 36.4346C61.116 37.0085 60.9513 39.2882 60.6723 40.9275C60.6644 40.9753 60.6989 41.0072 60.7334 41.0072C60.7494 41.0072 60.768 40.9966 60.7813 40.9753C61.3126 40.0534 62.2372 37.2264 61.6873 35.332C61.5836 34.9787 61.3339 34.8378 61.0204 34.8378C60.1277 34.8378 58.7115 35.9803 58.6743 36.5702C58.6557 36.8465 58.8577 36.9953 59.0808 36.9953C59.2695 36.9953 59.4767 36.8863 59.575 36.6552C59.7291 36.2885 59.9178 36.169 60.0958 36.169Z" fill="#FDAE5B"/>
<path d="M58.5235 41.4287C58.0639 41.4287 58.3588 40.2783 58.3588 39.5104C58.3588 38.7027 58.473 38.0093 58.8716 38.0093C58.9061 38.0093 58.9433 38.0119 58.9832 38.0252C59.4906 38.1687 59.8121 38.4556 59.929 39.1119C60.0087 39.545 59.8786 40.2357 59.4906 40.4935C59.0363 40.7964 58.9406 41.2666 58.7626 41.357C58.667 41.4075 58.5873 41.4287 58.5235 41.4287Z" fill="#D97542"/>
<path d="M60.7361 41.0068C60.7015 41.0068 60.667 40.975 60.675 40.9271C60.954 39.2878 61.1187 37.0082 60.59 36.4343C60.4784 36.3147 60.2924 36.1686 60.0984 36.1686C59.9204 36.1686 59.7318 36.2881 59.5777 36.6548C59.4793 36.8859 59.2721 36.9949 59.0835 36.9949C58.8603 36.9949 58.6584 36.8461 58.677 36.5698C58.7142 35.9799 60.1303 34.8375 61.023 34.8375C61.3365 34.8375 61.5863 34.9783 61.6899 35.3316C62.2399 37.226 61.3153 40.053 60.7839 40.9749C60.7706 40.9962 60.752 41.0068 60.7361 41.0068Z" fill="#EC974C"/>
<path d="M57.708 37.1147C57.6602 34.2904 57.0278 31.8806 56.0607 29.4974C56.2148 27.8421 55.5426 26.3888 55.5426 24.6272C54.1291 25.6156 52.7103 26.1124 50.9249 26.1124C49.6921 26.1124 48.2839 25.876 46.5861 25.3951C43.9861 24.6618 37.9403 20.6578 35.5509 20.6578C32.411 21.7179 33.5805 27.8421 33.7333 29.4974C32.7683 31.8806 31.6933 34.2904 31.646 37.1147H31.6458C31.4457 35.1008 30.8078 33.9743 29.4915 33.7909C28.1195 28.9341 27.772 21.8109 28.4681 19.4515C29.8768 14.6824 40.4976 10.147 45.7598 10.147C51.0923 10.147 59.435 14.802 60.9043 19.1938C61.7757 21.795 61.1275 29.6382 59.9478 33.8414C59.9372 33.8467 59.9239 33.8521 59.9132 33.86C59.2118 34.1948 58.6884 34.6305 58.2527 35.5498C58.0561 35.9616 57.8781 36.4718 57.708 37.1147ZM37.6419 15.8753C39.7433 15.8753 41.5662 16.4705 43.3795 16.9381C45.619 17.5173 47.7286 18.0912 49.8781 18.0912C51.8309 18.0912 53.8183 17.6156 55.9624 16.2367C55.5586 16.2765 55.16 16.2978 54.7668 16.2978C51.0896 16.2978 47.795 14.6478 44.4864 13.9597C42.9897 13.6488 41.4583 13.3539 39.8928 13.3539C37.0978 13.3539 34.1945 14.2998 31.1893 17.791C33.6871 16.3456 35.7746 15.8753 37.6419 15.8753Z" fill="#060307"/>
<path d="M38.4026 36.394C35.6027 36.394 33.3273 34.1915 33.6307 33.0915C33.9411 31.965 35.2443 30.7561 36.9787 30.7561C37.026 30.7561 37.0736 30.7587 37.1214 30.7587C37.2059 30.7773 37.2922 30.7986 37.381 30.8225C38.4833 31.1254 39.9457 32.05 42.3199 32.5442C42.376 32.5548 42.4241 32.5628 42.4655 32.5628C42.5606 32.5628 42.6191 32.5335 42.6499 32.4831C43.1119 32.8444 43.202 33.2615 43.2982 33.7424C43.3537 34.0188 43.3792 34.327 43.3699 34.6219C43.3489 35.2861 43.15 35.8786 42.7187 35.8786C42.6438 35.8786 42.5617 35.86 42.4724 35.8228C42.4586 35.8175 42.4448 35.8095 42.431 35.8042C42.1507 35.6873 41.8316 35.5943 41.5276 35.5943C41.3366 35.5943 41.1517 35.6315 40.9859 35.7218C40.1147 36.1974 39.2352 36.394 38.4026 36.394ZM39.2567 35.4588C39.3545 35.4615 39.4523 35.4641 39.5504 35.4641C40.0166 35.4641 40.488 35.4322 40.9604 35.3711C40.9723 35.3685 40.9851 35.3685 40.9981 35.3685C41.0364 35.3685 41.0789 35.3738 41.1214 35.3791C41.1535 35.3844 41.1859 35.3897 41.2168 35.3924C41.2449 35.4083 41.275 35.4163 41.3052 35.4163C41.4535 35.4163 41.6015 35.2224 41.5053 35.0231C41.4846 34.9806 41.4631 34.9381 41.4405 34.8982C41.4264 33.1632 40.019 32.2546 38.5787 32.2546C37.3159 32.2546 36.0278 32.9533 35.6325 34.4093C35.324 34.5581 35.3327 34.513 35.0567 34.5395C34.7668 34.5634 34.7889 35.0045 35.0493 35.0045C35.0631 35.0045 35.0777 35.0018 35.0931 34.9992C35.3707 34.9513 35.5355 34.9327 35.747 34.853C36.0794 34.962 36.4417 35.0497 36.8233 35.1161C37.1844 35.2091 37.5542 35.2861 37.9304 35.3419C38.3638 35.411 38.8056 35.4482 39.2554 35.4615C39.256 35.4588 39.2565 35.4588 39.2567 35.4588Z" fill="#F1A35B"/>
<path d="M36.8217 35.1167C36.4401 35.0503 36.0777 34.9626 35.7454 34.8537C35.7775 34.8404 35.8107 34.8271 35.8455 34.8138C36.1625 34.928 36.4885 35.0317 36.8217 35.1167ZM41.4389 34.8988C40.9131 33.9477 39.8843 33.5571 38.7485 33.5571C37.7949 33.5571 36.7654 33.8307 35.8947 34.2771C35.786 34.3329 35.7002 34.3781 35.6309 34.4099C36.0262 32.954 37.3143 32.2552 38.5771 32.2552C40.0174 32.2552 41.4248 33.1639 41.4389 34.8988Z" fill="#FFC481"/>
<path d="M39.5509 35.4639C39.4529 35.4639 39.3551 35.4612 39.2573 35.4585C39.5293 35.2566 39.7159 34.9352 39.7385 34.5712C39.747 34.4357 39.7334 34.3054 39.7007 34.1832C40.2906 34.3692 40.7994 34.7306 41.1437 35.3124C41.1649 35.347 41.1902 35.3735 41.2173 35.3921C41.1865 35.3895 41.1541 35.3842 41.1219 35.3788C41.0794 35.3735 41.0369 35.3682 40.9986 35.3682C40.9856 35.3682 40.9729 35.3682 40.9609 35.3709C40.4885 35.432 40.0172 35.4639 39.5509 35.4639ZM37.9309 35.3417C37.5547 35.2859 37.1849 35.2088 36.8238 35.1158C36.4906 35.0308 36.1646 34.9272 35.8477 34.8129C35.9199 34.781 35.9994 34.7439 36.0908 34.696C36.4986 34.4808 36.9397 34.3081 37.3884 34.1939C37.3693 34.2656 37.3568 34.3426 37.3517 34.4224C37.3313 34.7545 37.4509 35.068 37.6645 35.2965C37.753 35.3124 37.8417 35.3284 37.9309 35.3417Z" fill="#FFE8EC"/>
<path d="M39.2541 35.4624C38.8043 35.4491 38.3625 35.4119 37.9291 35.3428C37.8398 35.3296 37.7511 35.3136 37.6626 35.2977C37.449 35.0692 37.3295 34.7556 37.3499 34.4235C37.355 34.3438 37.3674 34.2668 37.3866 34.195C37.6738 34.1207 37.9642 34.0702 38.2514 34.0463C38.244 34.0728 38.24 34.0994 38.24 34.1286C38.24 34.1339 38.2403 34.1419 38.2405 34.1472C38.1428 34.2322 38.0811 34.3571 38.0811 34.4953C38.0811 34.753 38.2886 34.9602 38.5445 34.9602C38.8003 34.9602 39.0078 34.753 39.0078 34.4953C39.0078 34.3598 38.9496 34.2376 38.8569 34.1552C38.8574 34.1446 38.8577 34.1366 38.8577 34.1286C38.8577 34.0967 38.8527 34.0649 38.8434 34.0356C39.1404 34.0516 39.4282 34.0994 39.6989 34.1844C39.7316 34.3066 39.7451 34.4368 39.7366 34.5723C39.714 34.9363 39.5275 35.2578 39.2555 35.4597C39.2552 35.4597 39.2547 35.4597 39.2541 35.4624Z" fill="#4D1D0E"/>
<path d="M38.5434 34.96C38.2876 34.96 38.0801 34.7527 38.0801 34.495C38.0801 34.3568 38.1417 34.232 38.2395 34.147C38.2485 34.309 38.3832 34.4365 38.5479 34.4365C38.71 34.4365 38.8431 34.3117 38.8559 34.1549C38.9486 34.2373 39.0068 34.3595 39.0068 34.495C39.0068 34.7527 38.7993 34.96 38.5434 34.96Z" fill="#060307"/>
<path d="M42.4639 32.5635C42.4225 32.5635 42.3744 32.5555 42.3183 32.5449C39.9441 32.0507 38.4817 31.1261 37.3794 30.8232C37.2906 30.7993 37.2043 30.778 37.1198 30.7594C36.8679 30.7063 36.6349 30.6797 36.4125 30.6797C35.5424 30.6797 34.8433 31.0862 33.8746 31.8302C33.8419 31.8541 33.804 31.8674 33.7654 31.8674C33.7583 31.8674 33.7511 31.8647 33.7436 31.8647C33.5763 31.8461 33.4155 31.6123 33.6536 31.2988C33.7553 31.1633 33.864 31.0358 33.979 30.9109C34.7339 30.1032 35.7568 29.5585 36.7717 29.5585C37.0542 29.5585 37.3361 29.601 37.6116 29.6914C39.6455 30.3609 41.7282 30.0846 42.5638 31.971C42.6536 32.1729 42.7166 32.3775 42.6483 32.4838C42.6175 32.5343 42.559 32.5635 42.4639 32.5635Z" fill="#060307"/>
<path d="M38.5473 34.437C38.3825 34.437 38.2479 34.3095 38.2388 34.1474C38.2386 34.1421 38.2383 34.1341 38.2383 34.1288C38.2383 34.0996 38.2423 34.073 38.2497 34.0465C38.3767 34.0358 38.5035 34.0305 38.6286 34.0305C38.7001 34.0305 38.771 34.0305 38.8417 34.0358C38.851 34.0651 38.856 34.0969 38.856 34.1288C38.856 34.1368 38.8557 34.1448 38.8552 34.1554C38.8425 34.3121 38.7093 34.437 38.5473 34.437Z" fill="#CCD8F8"/>
<path d="M41.3043 35.417C41.2741 35.417 41.244 35.409 41.2159 35.3931C41.1888 35.3745 41.1635 35.3479 41.1423 35.3134C40.7979 34.7315 40.2891 34.3702 39.6993 34.1842C39.4286 34.0992 39.1408 34.0513 38.8438 34.0354C38.7731 34.0301 38.7022 34.0301 38.6307 34.0301C38.5056 34.0301 38.3788 34.0354 38.2518 34.046C37.9646 34.0699 37.6742 34.1204 37.387 34.1948C36.9382 34.3091 36.4972 34.4818 36.0893 34.697C35.9979 34.7448 35.9185 34.782 35.8462 34.8139C35.8114 34.8272 35.7782 34.8404 35.7461 34.8537C35.5346 34.9334 35.3698 34.952 35.0922 34.9999C35.0768 35.0025 35.0622 35.0052 35.0484 35.0052C34.788 35.0052 34.7659 34.5641 35.0558 34.5402C35.3318 34.5136 35.3231 34.5588 35.6316 34.41C35.7009 34.3781 35.7867 34.333 35.8954 34.2772C36.7661 33.8308 37.7956 33.5571 38.7492 33.5571C39.885 33.5571 40.9138 33.9477 41.4396 34.8989C41.4622 34.9387 41.4837 34.9813 41.5044 35.0238C41.6006 35.223 41.4526 35.417 41.3043 35.417Z" fill="#060307"/>
<path d="M51.2782 36.3413C50.3483 36.3413 49.3812 36.1367 48.4645 35.6266C48.3396 35.5602 48.2041 35.5363 48.0633 35.5363C47.8614 35.5363 47.6515 35.5841 47.4549 35.616C47.3938 35.6266 47.3327 35.6319 47.2769 35.6319C47.2742 35.6319 47.2716 35.6319 47.2663 35.6319C46.8013 35.6266 46.5382 35.2679 46.4532 34.7525C46.4532 34.7418 46.4506 34.7286 46.4479 34.7179C46.432 34.6064 46.424 34.4868 46.424 34.3619C46.4214 34.1308 46.4479 33.8837 46.4984 33.6286C46.61 33.068 46.8199 32.6323 47.5824 32.2736C50.4891 32.0637 52.0593 31.6014 53.2337 31.6014C54.1477 31.6014 54.8199 31.883 55.6993 32.7837C55.7365 32.8183 55.7817 32.8368 55.8321 32.8368C55.9358 32.8368 56.0474 32.7545 56.0686 32.611C56.0766 32.6216 56.0819 32.6296 56.0872 32.6402C56.2094 32.8501 56.2998 33.0706 56.3529 33.2938C56.3901 33.4426 56.3768 33.6047 56.321 33.7721C55.9597 34.8906 53.7465 36.3413 51.2782 36.3413ZM50.4492 35.5602V35.5628C50.4519 35.5628 50.4545 35.5628 50.4599 35.5628C50.8982 35.5628 51.3287 35.5389 51.7538 35.4831C52.4047 35.4061 53.0397 35.2679 53.6429 35.0793C53.8288 35.0288 54.0095 34.9756 54.1822 34.9145C54.3151 34.9491 54.4532 34.9677 54.6419 34.9996C54.6578 35.0022 54.6711 35.0049 54.687 35.0049C54.9447 35.0049 54.9687 34.5638 54.6791 34.5399C54.4134 34.516 54.4107 34.5559 54.1424 34.4283C53.7704 32.8501 52.5455 32.1513 51.3154 32.1513C49.8435 32.1513 48.3635 33.1504 48.3264 34.8428C48.2918 34.9013 48.2599 34.9624 48.2307 35.0235C48.1404 35.2068 48.2599 35.3875 48.3954 35.4141C48.4247 35.4327 48.4645 35.438 48.507 35.438C48.5416 35.438 48.5788 35.4353 48.6186 35.43C48.6558 35.4273 48.693 35.422 48.7276 35.422C48.7435 35.422 48.7594 35.4247 48.7754 35.4273C49.336 35.5177 49.8966 35.5602 50.4492 35.5602Z" fill="#F1A35B"/>
<path d="M53.6446 35.0786C53.7934 35.0308 53.9396 34.983 54.083 34.9298C54.0511 34.9033 54.0192 34.8767 53.9874 34.8501C54.0538 34.8767 54.1176 34.8979 54.184 34.9139C54.0113 34.975 53.8306 35.0281 53.6446 35.0786ZM48.3281 34.8422C48.3653 33.1497 49.8452 32.1507 51.3172 32.1507C52.5473 32.1507 53.7722 32.8495 54.1441 34.4277C54.0671 34.3931 53.9714 34.3453 53.8412 34.2762C52.9698 33.8299 51.9415 33.5562 50.9877 33.5562C49.8718 33.5562 48.8622 33.9308 48.3281 34.8422Z" fill="#FFC481"/>
<path d="M50.4522 35.5605C49.8996 35.5605 49.339 35.518 48.7784 35.4277C48.7624 35.425 48.7465 35.4224 48.7306 35.4224C48.696 35.4224 48.6588 35.4277 48.6216 35.4303C48.5817 35.4357 48.5445 35.4383 48.51 35.4383C48.4675 35.4383 48.4277 35.433 48.3984 35.4144C48.4117 35.4171 48.4223 35.4171 48.433 35.4171C48.4914 35.4171 48.5499 35.3878 48.595 35.3134C48.9511 34.7103 49.4825 34.3463 50.0989 34.1657C50.0324 34.3198 49.9979 34.4924 50.0032 34.6758C50.0165 35.0345 50.1892 35.356 50.4522 35.5605ZM51.7568 35.4835C51.8471 35.4729 51.9348 35.4596 52.0225 35.4463C52.2377 35.2284 52.3652 34.9229 52.3546 34.5961C52.3493 34.442 52.3147 34.3011 52.2589 34.171C52.7398 34.2879 53.2128 34.4659 53.6485 34.697C53.7813 34.7661 53.8903 34.8166 53.9886 34.8511C54.0205 34.8777 54.0524 34.9043 54.0842 34.9309C53.9408 34.984 53.7946 35.0318 53.6458 35.0796C53.0427 35.2683 52.4077 35.4064 51.7568 35.4835Z" fill="#FFE8EC"/>
<path d="M50.4582 35.5635C50.4529 35.5635 50.4503 35.5635 50.4476 35.5635V35.5608C50.1846 35.3562 50.0119 35.0347 49.9986 34.6761C49.9933 34.4927 50.0278 34.32 50.0942 34.1659C50.3785 34.0809 50.6814 34.0384 50.9949 34.0304C50.9232 34.0836 50.878 34.1686 50.8754 34.2642C50.8754 34.2722 50.8754 34.2802 50.8754 34.2882C50.7824 34.3705 50.7213 34.4874 50.7186 34.6203C50.7106 34.8727 50.9073 35.0826 51.1597 35.0906C51.165 35.0906 51.1703 35.0906 51.1729 35.0906C51.42 35.0906 51.622 34.8939 51.6299 34.6468C51.6326 34.5087 51.5768 34.3838 51.4811 34.2988C51.4811 34.2935 51.4838 34.2882 51.4838 34.2802C51.4865 34.1845 51.4413 34.0968 51.3722 34.0384C51.6645 34.057 51.9621 34.1022 52.2543 34.1712C52.3101 34.3014 52.3446 34.4422 52.35 34.5963C52.3606 34.9231 52.233 35.2287 52.0178 35.4466C51.9302 35.4598 51.8425 35.4731 51.7521 35.4838C51.327 35.5396 50.8966 35.5635 50.4582 35.5635Z" fill="#4D1D0E"/>
<path d="M51.1792 35.0903C51.1765 35.0903 51.1712 35.0903 51.1659 35.0903C50.9135 35.0824 50.7169 34.8725 50.7248 34.6201C50.7275 34.4872 50.7886 34.3703 50.8816 34.2879C50.8896 34.4447 51.0171 34.5722 51.1765 34.5749C51.1792 34.5749 51.1818 34.5776 51.1845 34.5776C51.3439 34.5776 51.4741 34.4553 51.4874 34.2986C51.583 34.3836 51.6388 34.5085 51.6362 34.6466C51.6282 34.8937 51.4263 35.0903 51.1792 35.0903Z" fill="#060307"/>
<path d="M51.1799 34.5776C51.1772 34.5776 51.1745 34.575 51.1719 34.575C51.0125 34.5723 50.8849 34.4448 50.877 34.288C50.877 34.2801 50.877 34.2721 50.877 34.2641C50.8796 34.1685 50.9248 34.0834 50.9965 34.0303C51.0311 34.0303 51.0683 34.0303 51.1028 34.0303C51.1931 34.0303 51.2835 34.0329 51.3738 34.0383C51.4429 34.0967 51.4881 34.1844 51.4854 34.2801C51.4854 34.288 51.4827 34.2933 51.4827 34.2987C51.4694 34.4554 51.3393 34.5776 51.1799 34.5776Z" fill="#CCD8F8"/>
<path d="M55.8361 32.8374C55.7856 32.8374 55.7405 32.8188 55.7033 32.7843C54.8238 31.8836 54.1516 31.6019 53.2376 31.6019C52.0633 31.6019 50.493 32.0642 47.5864 32.2741C47.4748 32.2848 47.3606 32.2901 47.2436 32.298C47.2224 32.3007 47.2038 32.3007 47.1852 32.3007C46.776 32.3007 46.8956 31.9925 47.0816 31.6949C47.6847 30.7331 48.5508 30.5843 49.5605 30.5843C49.7836 30.5843 50.0148 30.5923 50.2513 30.6003C50.4877 30.6082 50.7295 30.6136 50.9766 30.6136C51.3938 30.6136 51.8242 30.5923 52.2626 30.5152C52.4751 30.478 52.6877 30.4595 52.9002 30.4595C54.149 30.4595 55.3446 31.1051 55.9982 32.2874C56.0062 32.3007 56.0115 32.314 56.0168 32.3246C56.0646 32.4229 56.0832 32.5079 56.0779 32.5797C56.0752 32.5903 56.0752 32.6009 56.0726 32.6116C56.0513 32.755 55.9397 32.8374 55.8361 32.8374Z" fill="#060307"/>
<path d="M48.4299 35.417C48.4193 35.417 48.4087 35.417 48.3954 35.4143C48.2599 35.3878 48.1403 35.2071 48.2307 35.0238C48.2599 34.9627 48.2918 34.9016 48.3263 34.8431C48.8604 33.9318 49.87 33.5571 50.9859 33.5571C51.9397 33.5571 52.9679 33.8308 53.8394 34.2772C53.9696 34.3462 54.0653 34.3941 54.1423 34.4286C54.4107 34.5561 54.4133 34.5163 54.679 34.5402C54.9686 34.5641 54.9447 35.0052 54.687 35.0052C54.671 35.0052 54.6578 35.0025 54.6418 34.9999C54.4532 34.968 54.315 34.9494 54.1822 34.9148C54.1157 34.8989 54.052 34.8776 53.9855 34.8511C53.8872 34.8165 53.7783 34.7661 53.6455 34.697C53.2097 34.4658 52.7368 34.2878 52.2559 34.1709C51.9636 34.1018 51.6661 34.0566 51.3738 34.038C51.2835 34.0327 51.1931 34.0301 51.1028 34.0301C51.0683 34.0301 51.0311 34.0301 50.9965 34.0301C50.683 34.038 50.3801 34.0806 50.0958 34.1656C49.4794 34.3463 48.948 34.7102 48.592 35.3134C48.5468 35.3878 48.4884 35.417 48.4299 35.417Z" fill="#060307"/>
<path d="M44.9218 47.5444C44.5767 47.5444 44.2969 47.2506 44.2969 46.4315C44.2969 45.7837 44.4717 45.2332 44.7156 45.031C44.7802 44.9776 44.8495 44.9486 44.9218 44.9486C44.993 44.9486 45.0613 44.9768 45.1251 45.0286C45.3714 45.2287 45.5467 45.7813 45.5467 46.4315C45.5467 47.2506 45.2677 47.5444 44.9218 47.5444Z" fill="#FBB35D"/>
<path d="M44.8843 42.1069C44.1359 42.1069 43.5293 41.4055 43.5293 40.542C43.5293 39.6785 44.1359 38.9771 44.8843 38.9771C45.633 38.9771 46.2388 39.6785 46.2388 40.542C46.2388 41.4055 45.633 42.1069 44.8843 42.1069Z" fill="#FFC781"/>
<path d="M39.6556 89.6865C37.1535 89.3905 34.7116 88.8886 32.3525 88.1994L31.9043 73.2758L36.1572 80.6023C36.3365 81.034 36.5204 81.4764 36.708 81.9288C36.7436 81.8635 36.7789 81.7987 36.8143 81.7338L36.9275 81.9288L41.8122 75.6349L42.9536 77.0478C42.5843 78.9863 41.6661 81.7466 40.6804 85.4748L40.6795 85.4756C40.3899 86.5715 40.0945 87.7517 39.8054 89.0186L39.8057 89.0183C39.7555 89.2383 39.7055 89.4612 39.6556 89.6865ZM44.7773 69.4676C44.51 69.2338 44.243 68.9979 43.976 68.7604L44.992 69.3584L44.7773 69.4676Z" fill="#D1DFF2"/>
<path d="M50.146 89.7085C50.0371 89.2233 49.9308 88.7507 49.8219 88.29C49.774 88.0865 49.7262 87.8856 49.6757 87.6871V87.6874C49.0354 85.0491 48.3871 82.8231 47.8557 80.971V80.9704C47.6405 80.2127 47.4439 79.519 47.2739 78.8834V78.8845C47.0613 78.0871 46.8966 77.3847 46.793 76.7707L47.7096 75.634L52.5957 81.928L52.8481 81.4907C52.9278 81.6347 53.0075 81.7803 53.0872 81.928C53.523 80.8801 53.9348 79.8883 54.3253 78.949L57.6173 73.2749L57.1656 88.3359C54.8939 88.9725 52.5479 89.4351 50.146 89.7085Z" fill="#E5F0FF"/>
<path d="M43.0137 76.7417C43.0724 76.7305 43.1322 76.7199 43.1922 76.7101C43.1343 76.7202 43.0748 76.7308 43.0137 76.7417ZM44.1652 69.9809C44.2736 69.9081 44.3799 69.8481 44.4859 69.7976L44.5002 69.9674C44.3884 69.9706 44.277 69.9751 44.1652 69.9809Z" fill="#9DB8D5"/>
<path d="M32.3568 88.1997C31.8815 88.0608 31.4117 87.9149 30.9428 87.7608C30.8458 80.9609 30.819 74.2825 30.8145 67.3793L30.8158 67.3559C31.8302 70.1938 33.554 74.3224 36.1615 80.6025L31.9086 73.2761L32.3568 88.1997ZM36.9317 81.9291L36.8186 81.7341C38.7743 78.1481 40.17 75.6439 41.2205 73.8853C41.8826 74.7129 42.447 75.6609 43.0126 76.7426C42.9962 76.8419 42.9778 76.9439 42.9579 77.0481L41.8165 75.6352L36.9317 81.9291Z" fill="#9DB8D5"/>
<path d="M45.511 69.9756C45.3489 69.9687 45.1895 69.9644 45.0293 69.9628L45.0521 69.6908C45.2054 69.7436 45.3569 69.8108 45.511 69.9017V69.9756Z" fill="#9DB8D5"/>
<path d="M45.6346 69.9814C45.5948 69.9793 45.5523 69.9772 45.5098 69.9756V69.9017C45.5523 69.9264 45.5921 69.953 45.6346 69.9814Z" fill="#ACC6E0"/>
<path d="M57.165 88.3359L57.6167 73.275L54.3248 78.9491C56.5513 73.5826 58.0631 69.9328 58.985 67.3516V67.3561V67.358C58.9797 74.2907 58.9531 80.9959 58.8548 87.8263C58.2969 88.007 57.7336 88.1768 57.165 88.3359ZM52.5951 81.928L47.7091 75.634L46.7924 76.7707C46.7898 76.7608 46.7871 76.751 46.7871 76.7414C47.353 75.6598 47.9163 74.7118 48.5779 73.8842C49.6061 75.6027 50.9611 78.0335 52.8476 81.4907L52.5951 81.928Z" fill="#ACC6E0"/>
<path d="M45.0821 69.4102L44.9941 69.3586L45.343 69.1811C45.2553 69.2576 45.169 69.3342 45.0821 69.4102Z" fill="#BE8F50"/>
<path d="M44.9136 69.5552L44.8276 69.5114C44.8108 69.497 44.7938 69.4821 44.7773 69.4675L44.992 69.3583L45.08 69.4098C45.0244 69.4585 44.9689 69.5071 44.9136 69.5552Z" fill="#9DB8D5"/>
<path d="M44.4987 69.9683L44.4844 69.7985C44.6215 69.7334 44.7583 69.684 44.8994 69.6436C44.9504 69.6582 45.0006 69.6739 45.0506 69.6912L45.0277 69.9632C44.9847 69.9629 44.9419 69.9627 44.8988 69.9627C44.7655 69.9627 44.6321 69.9645 44.4987 69.9683ZM44.8994 69.5716C44.8765 69.5517 44.8542 69.532 44.8314 69.5118L44.9174 69.5556C44.9113 69.5612 44.9058 69.566 44.8994 69.5716Z" fill="#7698BB"/>
<path d="M44.998 90C43.1897 90 41.4088 89.8935 39.6562 89.6862C39.7062 89.4609 39.7562 89.238 39.8064 89.018L47.8523 80.9715C48.3837 82.8237 49.032 85.0496 49.6723 87.688L47.4246 89.9354C46.6222 89.9782 45.8118 90 44.998 90ZM50.1399 89.7093C50.0336 89.225 49.9247 88.7513 49.8184 88.2905C49.9274 88.7513 50.0337 89.2239 50.1426 89.7091C50.1399 89.7093 50.1426 89.7091 50.1399 89.7093ZM40.681 85.4745C41.6667 81.7463 42.585 78.986 42.9543 77.0475C42.9742 76.9434 42.9926 76.8413 43.009 76.742C43.0701 76.7311 43.1296 76.7205 43.1876 76.7104C43.711 76.624 44.2849 76.5807 44.8667 76.5807C45.5142 76.5807 46.1731 76.6344 46.7842 76.742C46.7842 76.7515 46.7869 76.7614 46.7896 76.7712C46.8932 77.3852 47.0579 78.0877 47.2704 78.8851L40.681 85.4745Z" fill="#303F87"/>
<path d="M46.788 76.7417C46.1769 76.6341 45.518 76.5804 44.8705 76.5804C44.2886 76.5804 43.7147 76.6237 43.1913 76.7101C43.1313 76.7199 43.0715 76.7305 43.0128 76.7417C42.4471 75.6601 41.8828 74.7121 41.2207 73.8844C42.6698 71.4589 43.4626 70.452 44.1643 69.9809C44.2762 69.9751 44.3875 69.9706 44.4993 69.9674C44.6327 69.9636 44.7661 69.9618 44.8995 69.9618C44.9425 69.9618 44.9853 69.962 45.0283 69.9623C45.1886 69.9639 45.348 69.9682 45.51 69.9751C45.5526 69.9767 45.5951 69.9788 45.6349 69.9809C46.3363 70.4522 47.1308 71.4592 48.5788 73.8844C47.9172 74.7121 47.3539 75.6601 46.788 76.7417Z" fill="#3751A2"/>
<path d="M39.8086 89.0186C40.0977 87.7517 40.3931 86.5715 40.6827 85.4756L40.6835 85.4748L47.2729 78.8853V78.8843C47.443 79.5198 47.6396 80.2135 47.8548 80.9713V80.9718L39.8089 89.0183L39.8086 89.0186Z" fill="#4C639D"/>
<path d="M47.4258 89.9355L49.6735 87.6881V87.6878C49.724 87.8863 49.7718 88.0871 49.8197 88.2906C49.9259 88.7514 50.0349 89.2251 50.1411 89.7094C49.2457 89.8115 48.3398 89.8872 47.4258 89.9355Z" fill="#4C639D"/>
<path d="M34.1013 58.834C33.3404 57.6625 33.0526 56.4901 33.1058 55.3022L33.1039 55.3056C33.1496 55.1589 33.2038 55.0157 33.2678 54.8781C33.5457 54.2806 33.9044 54.0329 34.101 53.9283C34.1016 53.9527 34.1018 53.9771 34.1021 54.0016C34.126 55.5915 34.1103 57.1211 34.1021 58.6469C34.1018 58.7091 34.1016 58.7715 34.1013 58.834Z" fill="#60778C"/>
<path d="M36.7109 81.9287C36.5234 81.4762 36.3395 81.0339 36.1602 80.6021C33.5527 74.322 31.8289 70.1934 30.8145 67.3555L31.3809 58.5159L33.1052 55.3059L33.1071 55.3024C33.054 56.4903 33.3417 57.6628 34.1026 58.8343C34.1029 58.8348 34.1032 58.8351 34.1035 58.8356C34.35 59.215 34.6463 59.5941 34.9962 59.9738C37.5141 62.7033 40.7168 65.8554 43.9789 68.7602C44.246 68.9978 44.513 69.2337 44.7803 69.4675C44.7967 69.4821 44.8137 69.497 44.8305 69.5114C44.8533 69.5315 44.8757 69.5512 44.8985 69.5711C44.8778 69.5892 44.8565 69.6078 44.8358 69.6259C44.8568 69.6314 44.8778 69.6373 44.8985 69.6431C44.7574 69.6835 44.6206 69.7329 44.4835 69.798C44.3775 69.8485 44.2712 69.9086 44.1628 69.9814C43.4611 70.4524 42.6683 71.4594 41.2192 73.8849C40.1686 75.6435 38.773 78.1477 36.8172 81.7337C36.7819 81.7985 36.7465 81.8634 36.7109 81.9287Z" fill="#E5F0FF"/>
<path d="M55.6856 58.8486C55.683 57.306 55.675 55.7552 55.6936 54.1653C55.6963 54.0917 55.6963 54.0181 55.6989 53.9442C55.8769 54.0489 56.2967 54.3117 56.5491 54.9092C56.6049 55.0386 56.6527 55.1728 56.6926 55.3102C56.7431 56.5005 56.4535 57.6748 55.6856 58.8486Z" fill="#60778C"/>
<path d="M53.0862 81.9287C53.0065 81.781 52.9268 81.6354 52.8471 81.4914C50.9607 78.0342 49.6056 75.6034 48.5774 73.8849C47.1294 71.4597 46.335 70.4527 45.6336 69.9814C45.591 69.9529 45.5512 69.9264 45.5087 69.9016C45.3546 69.8108 45.2031 69.7436 45.0498 69.6907C44.9999 69.6734 44.9497 69.6578 44.8987 69.6431C44.8779 69.6373 44.8569 69.6314 44.8359 69.6259C44.8567 69.6078 44.8779 69.5892 44.8987 69.5711C44.905 69.5656 44.9106 69.5608 44.9167 69.5552C44.972 69.5071 45.0275 69.4585 45.083 69.4099C45.1699 69.3339 45.2563 69.2573 45.3439 69.1808C48.7687 66.162 52.1616 62.8356 54.7999 59.9738C55.148 59.5984 55.4402 59.2232 55.6847 58.8481C56.4525 57.6742 56.7421 56.4999 56.6916 55.3096C56.6916 55.3072 56.689 55.3048 56.689 55.3024L58.4186 58.5189L58.9846 67.3523C58.0626 69.9335 56.5508 73.5833 54.3243 78.9498C53.9338 79.889 53.5219 80.8808 53.0862 81.9287Z" fill="#F0F7FF"/>
<path d="M17.8165 80.8623C13.7272 77.7572 10.1837 73.9673 7.35938 69.6658C13.4671 66.9919 21.4862 63.3723 28.7114 60.373L19.0838 67.417L19.451 67.8166L19.2411 67.9672L21.7639 71.6691L16.882 73.983C16.9121 74.1036 16.9423 74.2248 16.9724 74.3454L16.4901 74.5349C16.4901 74.5349 16.9734 76.9885 17.8165 80.8623Z" fill="#25314A"/>
<path d="M18.8019 81.5903C18.4687 81.3515 18.1411 81.1094 17.8146 80.8618C16.9716 76.988 16.4883 74.5344 16.4883 74.5344L16.9705 74.3449C17.5872 76.8148 18.1951 79.223 18.8019 81.5903ZM21.762 71.6686L19.2393 67.9667L19.4491 67.8161L22.6181 71.2629L21.762 71.6686Z" fill="#1A263F"/>
<path d="M22.6201 71.2632L19.4512 67.8164L19.084 67.4168L28.7116 60.3727L31.3903 58.413L31.3839 58.5153L30.8175 67.3548L30.8161 67.3782L22.6201 71.2632Z" fill="#35425B"/>
<path d="M30.9431 87.7603C26.5619 86.3205 22.4745 84.2247 18.8026 81.5911C18.1958 79.2238 17.5878 76.8156 16.9712 74.3458C16.9412 74.2251 16.9109 74.104 16.8809 73.9833L21.7627 71.6694L22.6187 71.2637L30.8148 67.3788C30.8193 74.282 30.8461 80.9604 30.9431 87.7603Z" fill="#2B3654"/>
<path d="M71.9381 81.0498C72.8095 77.0554 73.3117 74.513 73.3117 74.513L72.8281 74.3233C72.86 74.2027 72.8892 74.082 72.9184 73.9609L68.0377 71.647L70.5591 67.9454L70.3492 67.7945L70.7185 67.3949L61.0898 60.3511C68.3831 63.3784 76.4814 67.0367 82.6109 69.7178C79.7334 74.086 76.1174 77.9221 71.9381 81.0498Z" fill="#25314A"/>
<path d="M70.9458 81.7734C71.5702 79.3405 72.1972 76.8645 72.8295 74.3237L73.3131 74.5134C73.3131 74.5134 72.8109 77.0558 71.9395 81.0502C71.6127 81.296 71.2806 81.5364 70.9458 81.7734ZM68.0391 71.6474L67.1836 71.2417L70.3506 67.7949L70.5605 67.9458L68.0391 71.6474Z" fill="#1A263F"/>
<path d="M67.1826 71.2412L58.986 67.3565C58.986 67.3571 58.986 67.3579 58.986 67.3584V67.3565V67.352L58.4201 58.5186L58.4121 58.391L61.0903 60.351L70.719 67.3948L70.3496 67.7944L67.1826 71.2412Z" fill="#35425B"/>
<path d="M58.8516 87.8276C58.9499 80.9972 58.9764 74.292 58.9818 67.3593C58.9818 67.3587 58.9818 67.3579 58.9818 67.3574L67.1784 71.2421L68.0339 71.6478L72.9146 73.9617C72.8854 74.0829 72.8562 74.2035 72.8243 74.3241C72.192 76.8649 71.5649 79.3409 70.9405 81.7739C67.2793 84.3628 63.2089 86.4189 58.8516 87.8276Z" fill="#2B3654"/>
</svg>
