<svg width="24" height="24" viewBox="0 0 24 24" fill="none" xmlns="http://www.w3.org/2000/svg">
<path d="M21.8906 0H2.10938C0.946266 0 0 0.946266 0 2.10938V21.7969C0 22.96 0.946266 23.9062 2.10938 23.9062H21.8906C23.0537 23.9062 24 22.96 24 21.7969V2.10938C24 0.946266 23.0537 0 21.8906 0ZM2.10938 1.40625H21.8906C22.2783 1.40625 22.5938 1.72167 22.5938 2.10938V5.625H1.40625V2.10938C1.40625 1.72167 1.72167 1.40625 2.10938 1.40625ZM21.8906 22.5H2.10938C1.72167 22.5 1.40625 22.1846 1.40625 21.7969V7.03125H22.5938V21.7969C22.5938 22.1846 22.2783 22.5 21.8906 22.5Z" fill="#414950"/>
<path d="M14.3879 9.19683C14.031 9.04387 13.6176 9.2092 13.4646 9.56611L9.24586 19.4099C9.09286 19.7668 9.25824 20.1802 9.61515 20.3331C9.97219 20.4861 10.3855 20.3206 10.5384 19.9638L14.7571 10.1201C14.9101 9.76312 14.7448 9.34978 14.3879 9.19683Z" fill="#414950"/>
<path d="M8.32982 11.5141C8.08719 11.2108 7.64465 11.1617 7.34155 11.4043L3.82593 14.2168C3.47441 14.4979 3.47418 15.0335 3.82593 15.3149L7.34155 18.1274C7.64479 18.37 8.08733 18.3208 8.32982 18.0176C8.5724 17.7144 8.52327 17.2719 8.21999 17.0293L5.39071 14.7658L8.21999 12.5024C8.52327 12.2598 8.5724 11.8174 8.32982 11.5141Z" fill="#414950"/>
<path d="M20.1749 14.2168L16.6592 11.4043C16.356 11.1617 15.9135 11.2109 15.671 11.5141C15.4284 11.8173 15.4775 12.2598 15.7808 12.5024L18.6101 14.7659L15.7808 17.0293C15.4775 17.2719 15.4284 17.7143 15.671 18.0176C15.9139 18.3211 16.3564 18.3697 16.6592 18.1274L20.1749 15.3149C20.5264 15.0338 20.5266 14.4982 20.1749 14.2168Z" fill="#414950"/>
<path d="M3.56391 4.21802C3.95224 4.21802 4.26704 3.90322 4.26704 3.51489C4.26704 3.12657 3.95224 2.81177 3.56391 2.81177C3.17559 2.81177 2.86079 3.12657 2.86079 3.51489C2.86079 3.90322 3.17559 4.21802 3.56391 4.21802Z" fill="#414950"/>
<path d="M6.37569 4.21802C6.76401 4.21802 7.07881 3.90322 7.07881 3.51489C7.07881 3.12657 6.76401 2.81177 6.37569 2.81177C5.98736 2.81177 5.67256 3.12657 5.67256 3.51489C5.67256 3.90322 5.98736 4.21802 6.37569 4.21802Z" fill="#414950"/>
<path d="M9.18747 4.21802C9.57579 4.21802 9.89059 3.90322 9.89059 3.51489C9.89059 3.12657 9.57579 2.81177 9.18747 2.81177C8.79914 2.81177 8.48434 3.12657 8.48434 3.51489C8.48434 3.90322 8.79914 4.21802 9.18747 4.21802Z" fill="#414950"/>
<path d="M16.22 4.21802H20.4387C20.827 4.21802 21.1419 3.90321 21.1419 3.51489C21.1419 3.12658 20.827 2.81177 20.4387 2.81177H16.22C15.8317 2.81177 15.5169 3.12658 15.5169 3.51489C15.5169 3.90321 15.8317 4.21802 16.22 4.21802Z" fill="#414950"/>
</svg>
