<svg width="44" height="37" viewBox="0 0 44 37" fill="none" xmlns="http://www.w3.org/2000/svg">
<path d="M38.8015 6.41136C35.8436 5.81284 31.0743 5.00339 29.7418 7.78784C25.6695 14.8413 23.3316 22.2235 21.5718 25.3908C21.7566 25.4976 29.8677 30.2036 30.4415 30.482C32.265 31.3669 35.3094 30.9687 36.6063 28.6296C40.2041 22.1407 39.2896 23.8301 43.1123 17.2091C45.5826 12.9304 42.494 7.15839 38.8015 6.41136Z" fill="#EA4335"/>
<path d="M13.2094 35.0464C11.2233 32.7742 9.76629 28.2282 11.5115 25.6823C16.6099 16.8514 20.6913 11.5055 23.9012 6.14697C25.6032 7.12972 32.423 10.9981 32.8771 11.3967C34.4008 12.7333 35.663 15.2872 34.2858 17.5799C30.4651 23.9402 28.8974 26.8186 25.0142 33.5448C22.5433 37.8247 15.6907 37.885 13.2094 35.0464Z" fill="#FDBD00"/>
<path d="M31.4967 1.90957C27.5234 -0.412209 25.4811 -0.107919 23.3444 0.234757C21.4018 0.720355 18.7752 2.13205 17.668 3.94568C14.8747 8.52066 12.2291 13.0477 8.8018 19.1826C7.74619 21.072 8.52975 23.3934 9.50392 24.3147C10.1641 24.9393 15.0218 27.6194 15.9181 28.0047C17.1859 28.5498 19.0851 28.1706 20.2307 26.9914C20.5471 26.6657 27.7938 14.2185 29.8345 10.5473C30.696 8.99806 31.4719 8.14072 32.7601 7.31431C35.2486 6.00845 37.1916 5.84 40.1676 6.92821C40.1676 6.92821 33.6904 3.17387 31.4967 1.90957Z" fill="#2DA94F"/>
<path d="M5.93175 31.1214C1.93424 28.8413 1.17659 26.9205 0.404962 24.8986C-0.145668 22.9737 -0.236414 19.993 0.78062 18.1271C3.34631 13.4209 3.32786 13.397 6.92717 7.36136C8.0357 5.50245 10.438 5.0204 11.723 5.40332C12.5939 5.6627 17.3437 8.52952 18.1255 9.11313C19.2316 9.93861 19.8527 11.7729 19.4044 13.3547C19.2805 13.7915 14.74 21.7601 12.5812 25.3633C11.67 26.8838 11.3156 27.9844 11.2441 29.5131C11.3574 32.3212 12.1828 34.088 14.6134 36.1214C14.6134 36.1214 8.12347 32.389 5.93175 31.1214Z" fill="#297AEC"/>
</svg>
