<svg width="645" height="120" viewBox="0 0 645 120" fill="none" xmlns="http://www.w3.org/2000/svg">
<rect width="645" height="120" rx="8" fill="url(#paint0_linear_634_10834)"/>
<path d="M525.35 26.1024L525.489 26.9679L525.468 26.9702L525.35 26.1024Z" fill="#99B6BB"/>
<path d="M525.591 28.7582C525.583 29.3573 525.532 29.9563 525.439 30.5496L525.332 30.5315C525.439 29.9458 525.503 29.3523 525.526 28.7565L525.591 28.7582Z" fill="#99B6BB"/>
<path d="M525.032 32.3034C524.851 32.8765 524.628 33.437 524.365 33.978L524.209 33.901C524.476 33.3711 524.703 32.8213 524.889 32.2576L525.032 32.3034Z" fill="#99B6BB"/>
<path d="M523.456 35.537C523.114 36.0325 522.733 36.5023 522.316 36.9382L522.155 36.783C522.57 36.3611 522.95 35.9056 523.293 35.4229L523.456 35.537Z" fill="#99B6BB"/>
<path d="M520.962 38.1374C520.476 38.4966 519.959 38.8141 519.416 39.0825L519.304 38.854C519.833 38.5946 520.339 38.2874 520.816 37.9387L520.962 38.1374Z" fill="#99B6BB"/>
<path d="M517.724 39.7363C517.141 39.9003 516.544 40.0091 515.943 40.0728L515.915 39.8031C516.503 39.7439 517.085 39.6397 517.653 39.483L517.724 39.7363Z" fill="#99B6BB"/>
<path d="M514.136 40.1328C513.533 40.1115 512.931 40.0508 512.336 39.9528L512.383 39.6694C512.966 39.7681 513.555 39.8302 514.146 39.8539L514.136 40.1328Z" fill="#99B6BB"/>
<path d="M510.572 39.5391C509.995 39.3593 509.429 39.1399 508.888 38.8641L509.014 38.6146C509.539 38.879 510.092 39.0909 510.656 39.2639L510.572 39.5391Z" fill="#99B6BB"/>
<path d="M507.39 37.8137C507.175 37.5914 506.98 37.3375 506.855 37.039C506.725 36.7399 506.707 36.3965 506.755 36.0895L507.016 36.1265C506.975 36.4084 506.992 36.6839 507.102 36.936C507.209 37.1901 507.384 37.4192 507.584 37.6238L507.39 37.8137Z" fill="#99B6BB"/>
<path d="M507.636 34.458C507.772 34.3637 507.955 34.2917 508.14 34.3133C508.321 34.3296 508.478 34.4084 508.612 34.5035C508.879 34.6979 509.071 34.9669 509.185 35.2727L508.952 35.355C508.857 35.1014 508.685 34.8639 508.466 34.7081C508.358 34.6307 508.236 34.5747 508.118 34.5654C508.002 34.5519 507.888 34.5951 507.779 34.6687L507.636 34.458Z" fill="#99B6BB"/>
<path d="M508.789 37.065C508.444 37.5745 507.999 38.0043 507.501 38.3533L507.386 38.1902C507.86 37.8485 508.283 37.4268 508.602 36.9416L508.789 37.065Z" fill="#99B6BB"/>
<path d="M505.813 39.0287C505.202 39.0985 504.587 39.0045 504.012 38.8201L504.057 38.6768C504.619 38.8487 505.213 38.9295 505.791 38.8554L505.813 39.0287Z" fill="#99B6BB"/>
<path d="M502.393 38.0237C501.89 37.6939 501.423 37.3129 500.99 36.8994L501.035 36.8515C501.475 37.2519 501.947 37.6181 502.452 37.9315L502.393 38.0237Z" fill="#99B6BB"/>
<path d="M499.79 35.5693L499.271 34.8632L499.807 35.5559L499.79 35.5693Z" fill="#99B6BB"/>
<path d="M596.564 8.43257L597.38 8.75413L597.371 8.77368L596.564 8.43257Z" fill="#99B6BB"/>
<path d="M598.973 9.58074C599.484 9.89355 599.974 10.2428 600.437 10.6254L600.366 10.7083C599.917 10.3178 599.439 9.9592 598.938 9.63589L598.973 9.58074Z" fill="#99B6BB"/>
<path d="M601.736 11.8709C602.137 12.3189 602.505 12.7962 602.836 13.2987L602.69 13.3936C602.371 12.8937 602.014 12.4178 601.624 11.9699L601.736 11.8709Z" fill="#99B6BB"/>
<path d="M603.711 14.8763C603.963 15.4237 604.173 15.9909 604.335 16.5722L604.119 16.6309C603.968 16.0592 603.77 15.4996 603.53 14.9583L603.711 14.8763Z" fill="#99B6BB"/>
<path d="M604.676 18.3492C604.737 18.9503 604.746 19.5573 604.701 20.1604L604.446 20.1409C604.493 19.5532 604.488 18.9608 604.431 18.3734L604.676 18.3492Z" fill="#99B6BB"/>
<path d="M604.398 21.9481C604.241 22.5332 604.03 23.1025 603.779 23.6514L603.532 23.5379C603.781 23.0024 603.989 22.448 604.144 21.8796L604.398 21.9481Z" fill="#99B6BB"/>
<path d="M602.909 25.2375C602.583 25.7453 602.224 26.2314 601.836 26.6936L601.616 26.5083C601.998 26.0572 602.352 25.5821 602.674 25.0864L602.909 25.2375Z" fill="#99B6BB"/>
<path d="M600.58 27.9982C600.131 28.4026 599.653 28.7773 599.14 29.1021L598.99 28.8657C599.485 28.5494 599.95 28.182 600.386 27.7849L600.58 27.9982Z" fill="#99B6BB"/>
<path d="M597.472 29.8547C597.171 29.9262 596.853 29.9647 596.533 29.9195C596.209 29.8786 595.905 29.719 595.665 29.5212L595.83 29.3158C596.052 29.4943 596.297 29.6207 596.57 29.6543C596.843 29.6922 597.13 29.6583 597.408 29.5906L597.472 29.8547Z" fill="#99B6BB"/>
<path d="M594.711 27.9307C594.7 27.7655 594.731 27.5717 594.844 27.4232C594.951 27.2753 595.098 27.1804 595.248 27.1142C595.552 26.9838 595.881 26.9558 596.202 27.0141L596.154 27.2566C595.888 27.2082 595.596 27.2353 595.35 27.3439C595.228 27.3978 595.118 27.4743 595.05 27.5709C594.979 27.6634 594.958 27.7839 594.966 27.9146L594.711 27.9307Z" fill="#99B6BB"/>
<path d="M597.545 28.269C597.807 28.8257 597.949 29.4271 597.996 30.0343L597.797 30.0498C597.745 29.4674 597.598 28.8887 597.343 28.367L597.545 28.269Z" fill="#99B6BB"/>
<path d="M597.714 31.8303C597.462 32.3909 597.067 32.8724 596.615 33.2727L596.515 33.1607C596.95 32.7653 597.322 32.2955 597.553 31.76L597.714 31.8303Z" fill="#99B6BB"/>
<path d="M595.103 34.26C594.563 34.5238 593.997 34.7307 593.421 34.8923L593.402 34.8293C593.971 34.6548 594.527 34.436 595.054 34.1623L595.103 34.26Z" fill="#99B6BB"/>
<path d="M591.667 35.2451L590.795 35.3306L591.663 35.2241L591.667 35.2451Z" fill="#99B6BB"/>
<path d="M522.169 15.6761C522.169 15.6761 516.585 36.425 517.163 37.3953C517.741 38.3658 531.415 43.296 535.851 39.758C535.851 39.758 535.516 36.5158 535.97 33.9129C536.424 31.3101 539.407 18.7213 539.407 18.7213L522.169 15.6761Z" fill="white"/>
<path d="M532.856 40.198C533.306 39.8213 533.72 39.4417 534.088 39.0162C534.276 38.8076 534.45 38.5867 534.614 38.3565C534.783 38.1286 534.926 37.884 535.092 37.6383C535.04 37.9272 534.948 38.2132 534.808 38.4743C534.676 38.7413 534.502 38.9847 534.307 39.2091C534.11 39.4312 533.89 39.6337 533.645 39.8014C533.404 39.9707 533.141 40.1148 532.856 40.198Z" fill="#99B6BB"/>
<path d="M523.688 19.2067L525.229 19.5183L526.766 19.8422L529.84 20.4824C530.863 20.6989 531.891 20.8947 532.918 21.0879C533.947 21.2755 534.977 21.4509 536.022 21.5417C535.76 21.5428 535.497 21.5454 535.235 21.537L534.448 21.4918C533.925 21.4386 533.402 21.3826 532.882 21.3097C531.842 21.1679 530.809 20.9788 529.781 20.7681C528.754 20.5522 527.731 20.3243 526.715 20.0599C525.7 19.7993 524.687 19.5256 523.688 19.2067Z" fill="#99B6BB"/>
<path d="M523.326 21.6272L524.868 21.9388L526.405 22.2624L529.479 22.9026C530.502 23.1191 531.529 23.3149 532.557 23.5081C533.585 23.6954 534.616 23.8711 535.661 23.9616C535.399 23.963 535.136 23.9657 534.874 23.9572L534.086 23.912C533.564 23.8589 533.041 23.8028 532.521 23.7299C531.48 23.5881 530.448 23.399 529.42 23.1883C528.393 22.9727 527.369 22.7445 526.354 22.4801C525.339 22.2195 524.326 21.9458 523.326 21.6272Z" fill="#99B6BB"/>
<path d="M522.963 24.0468L524.504 24.3584L526.042 24.6823L529.115 25.3225C530.139 25.539 531.166 25.7348 532.193 25.928C533.222 26.1153 534.253 26.291 535.298 26.3817C535.036 26.3829 534.773 26.3855 534.51 26.3771L533.723 26.3315C533.201 26.2787 532.678 26.2227 532.158 26.1498C531.117 26.0079 530.084 25.8189 529.057 25.6082C528.03 25.3922 527.006 25.1644 525.991 24.9C524.975 24.6394 523.963 24.3657 522.963 24.0468Z" fill="#99B6BB"/>
<path d="M522.599 26.4675L524.14 26.7788L525.677 27.1027L528.751 27.7429C529.775 27.9594 530.802 28.1552 531.829 28.3484C532.858 28.5357 533.889 28.7114 534.934 28.8021C534.672 28.8033 534.409 28.8059 534.146 28.7975L533.359 28.7522C532.836 28.6991 532.314 28.6431 531.794 28.5702C530.753 28.4284 529.72 28.2393 528.693 28.0286C527.666 27.8127 526.642 27.5845 525.627 27.3204C524.611 27.0598 523.599 26.7861 522.599 26.4675Z" fill="#99B6BB"/>
<path d="M522.234 28.8876L523.776 29.199L525.313 29.5229L528.387 30.1631C529.411 30.3796 530.438 30.5754 531.465 30.7686C532.493 30.9562 533.524 31.1316 534.569 31.2223C534.307 31.2235 534.044 31.2261 533.782 31.2176L532.994 31.1724C532.472 31.1193 531.95 31.0633 531.43 30.9903C530.389 30.8485 529.356 30.6594 528.328 30.4488C527.301 30.2328 526.278 30.0049 525.263 29.7406C524.247 29.48 523.234 29.2063 522.234 28.8876Z" fill="#99B6BB"/>
<path d="M521.871 31.308L523.412 31.6194L524.95 31.9436L528.023 32.5835C529.047 32.8 530.074 32.9958 531.102 33.1893C532.13 33.3766 533.161 33.552 534.206 33.6427C533.944 33.6439 533.681 33.6465 533.418 33.6381L532.631 33.5928C532.109 33.5397 531.586 33.4837 531.066 33.4107C530.025 33.2689 528.992 33.0798 527.965 32.8692C526.938 32.6532 525.914 32.425 524.899 32.161C523.883 31.9004 522.871 31.6267 521.871 31.308Z" fill="#99B6BB"/>
<path d="M521.51 33.7282L523.051 34.0396L524.588 34.3637L527.662 35.0037C528.686 35.2202 529.713 35.416 530.74 35.6094C531.769 35.7968 532.799 35.9721 533.844 36.0629C533.583 36.0641 533.319 36.0667 533.057 36.0582L532.27 36.013C531.748 35.9599 531.225 35.9039 530.705 35.8309C529.664 35.6891 528.631 35.5 527.603 35.2893C526.577 35.0734 525.553 34.8452 524.538 34.5811C523.522 34.3206 522.509 34.0471 521.51 33.7282Z" fill="#99B6BB"/>
<path d="M598.743 66.1763C598.743 66.1763 604.221 61.1877 603.484 58.6983C602.747 56.2087 604.008 53.4515 602.308 50.4486C600.608 47.4457 599.835 47.9549 595.839 47.2318C591.844 46.509 591.228 44.3325 587.688 47.055C584.217 49.7244 584.968 51.3917 589.353 51.7839C591.979 52.0185 595.21 51.2604 595.512 56.0316C595.881 61.8752 598.743 66.1763 598.743 66.1763Z" fill="#5AC587"/>
<path d="M601.024 76.9567C599.698 75.9844 601.367 72.1814 603.919 70.3588C605.682 69.0997 607.17 70.512 609.706 68.9045C611.498 67.7688 611.549 66.5613 612.877 66.4309C614.447 66.2771 614.855 67.9153 617.232 68.692C619.521 69.4402 620.244 68.2815 621.624 69.0477C624.156 70.4528 625.372 76.3742 623.541 77.926C622.42 78.8755 620.355 75.3716 617.578 76.1603C616.194 76.5534 616.111 77.5499 614.754 77.7291C612.853 77.98 612.116 76.144 610.214 75.5887C606.539 74.5155 602.506 78.0439 601.024 76.9567Z" fill="#5AC587"/>
<path d="M588.369 102.381C589.41 98.8526 590.601 95.3668 591.951 91.9417C592.613 90.2238 593.344 88.5328 594.106 86.8562C594.866 85.1786 595.692 83.5294 596.598 81.9221C597.516 80.326 598.509 78.7523 599.754 77.3765L600.699 76.3613C601.022 76.0316 601.372 75.7284 601.708 75.4109C601.88 75.2574 602.041 75.09 602.223 74.9476L602.766 74.5157C603.128 74.2291 603.486 73.9359 603.877 73.6882C605.392 72.6307 607.049 71.7716 608.798 71.1793C610.546 70.603 612.386 70.233 614.228 70.3164C612.386 70.2808 610.565 70.6975 608.845 71.3141C607.119 71.9295 605.49 72.8028 604.006 73.872C603.623 74.1218 603.273 74.4176 602.919 74.7062L602.385 75.1369C602.205 75.2785 602.047 75.4454 601.877 75.5983C601.547 75.9143 601.202 76.2151 600.883 76.5431L599.953 77.5524C598.733 78.9131 597.757 80.4757 596.851 82.0663C595.943 83.6589 595.113 85.298 594.347 86.967C593.575 88.6335 592.852 90.3227 592.158 92.0245C591.463 93.7256 590.802 95.4409 590.177 97.1698C589.541 98.8946 588.934 100.631 588.369 102.381Z" fill="#2A5F57"/>
<path d="M591.953 88.8262C592.798 85.7836 593.68 82.7521 594.569 79.7229L597.269 70.6453C598.181 67.6238 599.087 64.5999 599.917 61.557C600.326 60.0353 600.721 58.5059 600.971 56.9524C601.094 56.1771 601.181 55.3907 601.121 54.6078C601.083 54.2185 601.003 53.8316 600.851 53.4707C600.7 53.1082 600.471 52.7805 600.196 52.4975C600.481 52.77 600.725 53.0907 600.891 53.4526C601.057 53.8141 601.148 54.206 601.198 54.6002C601.28 55.3921 601.215 56.1891 601.112 56.9731C600.89 58.5424 600.518 60.0819 600.134 61.6139C599.347 64.6749 598.439 67.6999 597.548 70.7291L594.783 79.7874C593.849 82.8029 592.913 85.818 591.953 88.8262Z" fill="#2A5F57"/>
<path d="M593.142 91.363C593.142 91.363 593.388 85.1803 595.402 84.3802C597.416 83.5801 598.576 81.3306 601.423 80.8973C604.271 80.4642 604.336 81.2343 606.871 83.4841C609.406 85.7338 611.152 85.0154 611.191 88.7435C611.229 92.3979 609.747 92.7653 607.228 90.0886C605.72 88.4867 604.551 85.9749 601.264 88.2372C597.238 91.0087 593.142 91.363 593.142 91.363Z" fill="#5AC587"/>
<path d="M589.161 102.574C589.554 100.831 590.032 99.1065 590.595 97.408C591.158 95.7099 591.821 94.0435 592.583 92.4214C593.367 90.8122 594.252 89.2408 595.34 87.811C595.599 87.4445 595.902 87.1116 596.194 86.7713C596.476 86.4212 596.812 86.1206 597.127 85.802C597.208 85.7244 597.287 85.6444 597.369 85.5691L597.631 85.3567L598.153 84.9336C598.506 84.659 598.898 84.4364 599.269 84.1907L598.73 84.5884C598.555 84.7249 598.36 84.8364 598.201 84.994L597.704 85.4396L597.456 85.6613C597.377 85.7401 597.303 85.8236 597.227 85.9041C596.926 86.2312 596.602 86.5356 596.334 86.8916C596.055 87.237 595.766 87.5741 595.52 87.9449C594.482 89.3856 593.604 90.939 592.846 92.5472C592.067 94.1468 591.412 95.8054 590.806 97.4809L590.364 98.743L589.949 100.015L589.546 101.291L589.161 102.574Z" fill="#2A5F57"/>
<path d="M560.488 24.8608H551.17V16.7398H560.488V24.8608Z" fill="#76D0E4"/>
<path d="M562.039 21.356H549.615V12.9831C553.582 11.8372 558.072 11.8372 562.039 12.9831V21.356Z" fill="#4165AB"/>
<path d="M550.4 13.4913C550.84 13.6101 551.283 13.7035 551.73 13.7741C552.176 13.8514 552.624 13.9136 553.074 13.953C553.973 14.0367 554.875 14.0752 555.778 14.0653C556.228 14.0478 556.68 14.0487 557.13 14.007L557.806 13.9606C558.031 13.9343 558.255 13.9115 558.481 13.8905C559.381 13.7989 560.273 13.6402 561.171 13.4913C560.736 13.62 560.296 13.7432 559.854 13.8538C559.407 13.9396 558.963 14.0525 558.511 14.1132C557.61 14.2716 556.695 14.3274 555.782 14.3565C554.867 14.3597 553.951 14.3128 553.047 14.1747C552.144 14.0361 551.244 13.8412 550.4 13.4913Z" fill="#76D0E4"/>
<path d="M550.404 14.9935C550.474 15.9293 550.487 16.8572 550.52 17.7837C550.53 18.2471 550.551 18.7096 550.576 19.1712C550.607 19.6322 550.629 20.0947 550.71 20.5566C550.519 20.1257 550.419 19.6585 550.349 19.1948C550.277 18.7297 550.244 18.2608 550.228 17.793C550.204 16.8566 550.244 15.9191 550.404 14.9935Z" fill="#76D0E4"/>
<path d="M552.079 15.3089C552.185 16.1881 552.213 17.0641 552.238 17.9398L552.259 19.252L552.271 19.9074C552.281 20.1245 552.277 20.3457 552.34 20.5566C552.131 20.158 552.088 19.7005 552.032 19.2666C551.981 18.8271 551.959 18.3868 551.947 17.9468C551.931 17.0664 551.956 16.1861 552.079 15.3089Z" fill="#76D0E4"/>
<path d="M553.967 15.6104C554.044 16.396 554.061 17.1727 554.095 17.948C554.106 18.3358 554.125 18.7225 554.148 19.1085C554.176 19.4946 554.195 19.8809 554.264 20.2693C554.086 19.9145 553.988 19.5237 553.922 19.1354C553.852 18.7458 553.82 18.3519 553.803 17.9591C553.778 17.1733 553.815 16.3857 553.967 15.6104Z" fill="#76D0E4"/>
<path d="M561.024 14.9935C561.183 15.9191 561.224 16.8566 561.2 17.793C561.183 18.2608 561.151 18.7297 561.079 19.1948C561.009 19.6585 560.909 20.1257 560.718 20.5566C560.799 20.0947 560.821 19.6322 560.852 19.1712C560.877 18.7096 560.898 18.2471 560.908 17.7837C560.941 16.8572 560.954 15.9293 561.024 14.9935Z" fill="#76D0E4"/>
<path d="M559.35 15.3089C559.474 16.1861 559.499 17.0664 559.483 17.9468C559.47 18.3868 559.448 18.8271 559.398 19.2666C559.341 19.7005 559.299 20.158 559.09 20.5566C559.153 20.3457 559.148 20.1245 559.158 19.9074L559.171 19.252L559.191 17.9398C559.217 17.0641 559.244 16.1881 559.35 15.3089Z" fill="#76D0E4"/>
<path d="M557.461 15.6104C557.614 16.3857 557.65 17.1733 557.625 17.9591C557.608 18.3519 557.576 18.7458 557.507 19.1354C557.44 19.5237 557.342 19.9145 557.164 20.2693C557.233 19.8809 557.252 19.4946 557.28 19.1085C557.303 18.7225 557.322 18.3358 557.334 17.948C557.368 17.1727 557.384 16.396 557.461 15.6104Z" fill="#76D0E4"/>
<path d="M555.741 15.6104C555.863 16.3863 555.892 17.1643 555.891 17.9425C555.886 18.3315 555.875 18.7207 555.842 19.11C555.809 19.4975 555.769 19.8911 555.654 20.2693C555.656 19.8786 555.619 19.4922 555.614 19.1041C555.601 18.716 555.6 18.3285 555.6 17.9404C555.61 17.1645 555.634 16.3884 555.741 15.6104Z" fill="#76D0E4"/>
<path d="M557.611 108.609C537.5 108.609 521.197 108.279 521.197 107.872C521.197 107.51 534.118 107.209 551.144 107.147C552.914 107.374 554.717 107.492 556.55 107.492C558.399 107.492 560.218 107.373 562.004 107.14C580.044 107.184 594.025 107.495 594.025 107.872C594.025 108.279 577.722 108.609 557.611 108.609Z" fill="#E3E8EE"/>
<path d="M556.55 102.997C535.886 102.997 519.136 86.2461 519.136 65.5832C519.136 44.9201 535.886 28.1693 556.55 28.1693C577.213 28.1693 593.963 44.9201 593.963 65.5832C593.963 86.2461 577.213 102.997 556.55 102.997Z" fill="#EEF9F8"/>
<path d="M564.808 63.8206C557.01 63.8206 550.688 57.499 550.688 49.701C550.688 41.9033 557.01 35.5817 564.808 35.5817C572.606 35.5817 578.927 41.9033 578.927 49.701C578.927 57.499 572.606 63.8206 564.808 63.8206Z" fill="white"/>
<path d="M523.395 88.246C523.395 88.246 516.778 107.309 518.788 107.855C520.798 108.401 535.153 96.3309 535.153 96.3309L523.395 88.246Z" fill="#4165AB"/>
<path d="M589.461 88.246C589.461 88.246 596.077 107.309 594.067 107.855C592.057 108.401 577.702 96.3309 577.702 96.3309L589.461 88.246Z" fill="#4165AB"/>
<path d="M556.55 102.997C535.886 102.997 519.136 86.246 519.136 65.5832C519.136 44.92 535.886 28.1693 556.55 28.1693C577.213 28.1693 593.963 44.92 593.963 65.5832C593.963 86.246 577.213 102.997 556.55 102.997ZM556.55 23.6741C533.404 23.6741 514.641 42.4374 514.641 65.5832C514.641 88.7287 533.404 107.492 556.55 107.492C579.695 107.492 598.459 88.7287 598.459 65.5832C598.459 42.4374 579.695 23.6741 556.55 23.6741Z" fill="#4165AB"/>
<path d="M557.353 63.3972C557.241 63.3412 557.125 63.2919 557.006 63.2493L556.901 61.3999C557.018 61.4786 557.135 61.5554 557.254 61.6307L557.353 63.3972Z" fill="#CDEEF1"/>
<path d="M557.252 61.6304C557.134 61.5551 557.016 61.4783 556.9 61.3996L556.163 48.3147L556.333 45.3048L557.252 61.6304Z" fill="#DBF3F7"/>
<path d="M554.724 66.8401H557.207L555.965 44.7994L554.724 66.8401Z" fill="#76D0E4"/>
<path d="M559.049 65.8064C559.019 65.5487 558.957 65.301 558.867 65.0667L560.409 63.1216C560.613 63.1884 560.82 63.2508 561.029 63.3089L559.049 65.8064Z" fill="#CDEEF1"/>
<path d="M561.027 63.3081C560.818 63.25 560.612 63.1876 560.407 63.1208L570.329 50.6003L575.186 45.4404L561.027 63.3081Z" fill="#DBF3F7"/>
<path d="M554.799 66.2028L556.678 67.8264L574.818 44.9351L554.799 66.2028Z" fill="#76D0E4"/>
<path d="M559.052 66.5078C559.031 66.3141 558.993 66.1253 558.938 65.9441L559.047 65.8057C559.062 65.9268 559.069 66.05 559.069 66.1752C559.069 66.2875 559.063 66.3984 559.052 66.5078ZM552.878 66.5078C552.866 66.3984 552.86 66.2875 552.86 66.1752C552.86 64.8253 553.722 63.6765 554.925 63.249L554.887 63.928C553.803 64.3292 553.005 65.3181 552.878 66.5078ZM557.357 63.4854L557.352 63.3969C557.372 63.4072 557.391 63.4171 557.411 63.4276L557.357 63.4854Z" fill="#CDEEF1"/>
<path d="M557.036 63.8254L557.004 63.2491C557.123 63.2917 557.239 63.3411 557.351 63.3971L557.356 63.4855L557.036 63.8254Z" fill="#B1E3EB"/>
<path d="M554.89 63.9285L554.928 63.2495C555.253 63.1342 555.603 63.0712 555.967 63.0712C556.332 63.0712 556.682 63.1342 557.007 63.2495L557.039 63.8258L556.968 63.9013C556.654 63.7942 556.317 63.7365 555.967 63.7365C555.589 63.7365 555.225 63.8042 554.89 63.9285Z" fill="#69C6DF"/>
<path d="M558.938 65.9441C558.871 65.7226 558.781 65.5116 558.669 65.3141L558.865 65.0661C558.955 65.3004 559.017 65.5481 559.047 65.8058L558.938 65.9441Z" fill="#B1E3EB"/>
<path d="M558.67 65.314C558.298 64.6562 557.693 64.1479 556.967 63.9008L557.038 63.8252L557.358 63.4853L557.412 63.4275C558.075 63.7771 558.596 64.3595 558.866 65.0659L558.67 65.314Z" fill="#69C6DF"/>
<path d="M555.965 70.4585C554.25 70.4585 552.86 69.0687 552.86 67.354C552.86 67.2677 552.864 67.1819 552.871 67.0973C553.002 68.6917 554.337 69.9446 555.965 69.9446C557.593 69.9446 558.928 68.6917 559.059 67.0973C559.066 67.1819 559.069 67.2677 559.069 67.354C559.069 69.0687 557.679 70.4585 555.965 70.4585Z" fill="#CDEEF1"/>
<path d="M559.069 66.8399C559.069 68.5545 557.679 69.9443 555.965 69.9443C554.25 69.9443 552.86 68.5545 552.86 66.8399C552.86 65.1256 554.25 63.7357 555.965 63.7357C557.679 63.7357 559.069 65.1256 559.069 66.8399Z" fill="#76D0E4"/>
<path d="M556.015 68.8296C555.42 68.8296 554.783 68.4465 554.582 67.7838C554.362 67.0584 554.752 66.2871 555.422 65.998C555.612 65.916 555.813 65.8778 556.01 65.8778C556.463 65.8778 556.901 66.0788 557.156 66.4182C557.726 67.1777 557.295 68.5177 556.368 68.7817C556.255 68.8138 556.136 68.8296 556.015 68.8296Z" fill="#69C6DF"/>
<path d="M556.548 30.1154C556.729 30.4133 556.823 30.7115 556.891 31.0094C556.955 31.3074 556.985 31.6056 556.985 31.9035C556.986 32.2014 556.956 32.4997 556.892 32.7976C556.824 33.0955 556.73 33.3937 556.548 33.6917C556.366 33.3937 556.271 33.0955 556.204 32.7976C556.14 32.4997 556.11 32.2014 556.11 31.9035C556.111 31.6056 556.141 31.3074 556.205 31.0094C556.273 30.7115 556.367 30.4133 556.548 30.1154Z" fill="#76D0E4"/>
<path d="M538.816 34.8673C539.122 35.0347 539.352 35.2457 539.56 35.4698C539.765 35.696 539.94 35.939 540.089 36.197C540.239 36.4546 540.361 36.7278 540.455 37.0178C540.546 37.3096 540.613 37.6151 540.604 37.9641C540.297 37.7972 540.066 37.5862 539.859 37.3621C539.654 37.136 539.479 36.8929 539.331 36.6344C539.182 36.3761 539.059 36.103 538.966 35.813C538.876 35.5209 538.808 35.2157 538.816 34.8673Z" fill="#76D0E4"/>
<path d="M525.834 47.8493C526.183 47.8414 526.488 47.9091 526.78 47.9993C527.07 48.0926 527.343 48.2158 527.601 48.3643C527.86 48.5128 528.103 48.6876 528.329 48.8925C528.553 49.0996 528.764 49.3304 528.931 49.6374C528.582 49.6462 528.277 49.5791 527.985 49.4886C527.694 49.3949 527.421 49.2718 527.164 49.1224C526.906 48.9727 526.663 48.7979 526.437 48.5934C526.212 48.3856 526.001 48.1551 525.834 47.8493Z" fill="#76D0E4"/>
<path d="M521.082 65.583C521.38 65.4018 521.678 65.3076 521.976 65.2399C522.274 65.1757 522.572 65.1459 522.87 65.1453C523.168 65.1448 523.466 65.1745 523.764 65.2387C524.062 65.3064 524.36 65.4007 524.658 65.583C524.36 65.7654 524.062 65.8597 523.764 65.9271C523.466 65.9913 523.168 66.0213 522.87 66.0207C522.572 66.0202 522.274 65.9901 521.976 65.9262C521.678 65.8582 521.38 65.7643 521.082 65.583Z" fill="#76D0E4"/>
<path d="M525.834 83.3172C526.001 83.0114 526.212 82.7809 526.437 82.5731C526.663 82.3686 526.906 82.1941 527.164 82.0444C527.421 81.8947 527.694 81.7715 527.985 81.6782C528.277 81.5877 528.582 81.5203 528.931 81.5291C528.764 81.836 528.553 82.0668 528.329 82.2743C528.103 82.4789 527.86 82.6539 527.601 82.8025C527.343 82.9507 527.07 83.0738 526.78 83.1675C526.488 83.2577 526.183 83.3254 525.834 83.3172Z" fill="#76D0E4"/>
<path d="M538.816 96.2988C538.808 95.9502 538.876 95.645 538.966 95.3532C539.059 95.0628 539.182 94.79 539.331 94.5317C539.479 94.2732 539.654 94.0299 539.859 93.8041C540.066 93.5796 540.297 93.3686 540.604 93.2018C540.613 93.551 540.546 93.8563 540.455 94.1481C540.361 94.4384 540.239 94.7115 540.089 94.9692C539.94 95.2271 539.765 95.4701 539.56 95.696C539.352 95.9204 539.122 96.1314 538.816 96.2988Z" fill="#76D0E4"/>
<path d="M556.548 101.051C556.367 100.753 556.273 100.455 556.205 100.156C556.141 99.8585 556.111 99.5606 556.11 99.2626C556.11 98.9644 556.14 98.6665 556.204 98.3683C556.271 98.0703 556.366 97.7724 556.548 97.4746C556.73 97.7724 556.825 98.0703 556.892 98.3683C556.956 98.6665 556.986 98.9644 556.986 99.2626C556.985 99.5606 556.955 99.8585 556.891 100.156C556.823 100.455 556.729 100.753 556.548 101.051Z" fill="#76D0E4"/>
<path d="M574.282 96.2988C573.976 96.1314 573.746 95.9204 573.538 95.696C573.333 95.4701 573.158 95.2271 573.009 94.9692C572.86 94.7115 572.736 94.4384 572.643 94.1481C572.552 93.8563 572.485 93.551 572.494 93.2018C572.801 93.3686 573.032 93.5796 573.239 93.8041C573.444 94.0299 573.619 94.2732 573.767 94.5317C573.916 94.79 574.039 95.0628 574.132 95.3532C574.222 95.645 574.29 95.9502 574.282 96.2988Z" fill="#76D0E4"/>
<path d="M587.265 83.3172C586.916 83.3254 586.611 83.2577 586.319 83.1675C586.029 83.0738 585.756 82.9507 585.498 82.8025C585.239 82.6539 584.996 82.4789 584.77 82.2743C584.546 82.0668 584.335 81.836 584.168 81.5291C584.517 81.5203 584.822 81.5877 585.114 81.6782C585.404 81.7715 585.677 81.8947 585.935 82.0444C586.193 82.1941 586.436 82.3686 586.662 82.5731C586.886 82.7809 587.097 83.0114 587.265 83.3172Z" fill="#76D0E4"/>
<path d="M592.017 65.583C591.72 65.7643 591.422 65.8582 591.124 65.9262C590.825 65.9901 590.527 66.0202 590.229 66.0207C589.932 66.0213 589.633 65.9913 589.335 65.9271C589.037 65.8597 588.739 65.7654 588.441 65.583C588.739 65.4007 589.037 65.3064 589.335 65.2387C589.633 65.1745 589.932 65.1448 590.229 65.1453C590.527 65.1459 590.825 65.1757 591.124 65.2399C591.422 65.3076 591.72 65.4018 592.017 65.583Z" fill="#76D0E4"/>
<path d="M587.265 47.8493C587.097 48.1551 586.886 48.3856 586.662 48.5934C586.436 48.7979 586.193 48.9727 585.935 49.1224C585.677 49.2718 585.404 49.3949 585.114 49.4886C584.822 49.5791 584.517 49.6462 584.168 49.6374C584.335 49.3304 584.546 49.0999 584.77 48.8925C584.996 48.6876 585.239 48.5128 585.498 48.3643C585.756 48.2158 586.029 48.0926 586.319 47.9993C586.611 47.9091 586.916 47.8414 587.265 47.8493Z" fill="#76D0E4"/>
<path d="M574.282 34.8673C574.29 35.2157 574.222 35.5209 574.132 35.813C574.039 36.103 573.916 36.3761 573.767 36.6344C573.619 36.8929 573.444 37.136 573.239 37.3621C573.032 37.5862 572.801 37.7972 572.494 37.9641C572.485 37.6151 572.552 37.3096 572.643 37.0178C572.736 36.7278 572.86 36.4546 573.009 36.197C573.158 35.939 573.333 35.696 573.538 35.4698C573.746 35.2457 573.976 35.0347 574.282 34.8673Z" fill="#76D0E4"/>
<path d="M593.949 66.5159C593.415 46.3193 576.875 30.111 556.55 30.111C543.328 30.111 531.708 36.9701 525.053 47.3237C524.743 47.2151 524.449 47.1708 524.156 47.1708C524.094 47.1708 524.032 47.1728 523.969 47.1766C530.394 35.8277 542.577 28.1691 556.55 28.1691C562.931 28.1691 568.939 29.7664 574.196 32.5837C574.197 32.5849 574.198 32.5861 574.198 32.5872C574.963 32.9969 575.711 33.4329 576.442 33.893C576.444 33.8928 576.444 33.8925 576.446 33.8919C586.97 40.5128 593.963 52.2309 593.963 65.583C593.963 65.8949 593.958 66.206 593.949 66.5159ZM519.15 66.5159C519.141 66.206 519.136 65.8949 519.136 65.583C519.136 61.0665 519.936 56.7368 521.402 52.7284C521.667 52.6589 521.944 52.6222 522.229 52.6067C520.367 56.8859 519.28 61.5827 519.15 66.5159Z" fill="#CDEEF1"/>
<path d="M554.582 67.2852C554.824 68.0821 555.696 68.4746 556.368 68.2832C557.295 68.0191 557.726 66.6791 557.156 65.9196C556.79 65.432 556.047 65.2301 555.422 65.4994C554.752 65.7886 554.362 66.5598 554.582 67.2852Z" fill="#4165AB"/>
<path d="M564.809 25.6117C567.583 26.0754 570.277 26.9636 572.864 28.0722C575.454 29.1839 577.91 30.598 580.211 32.2262C581.353 33.0549 582.443 33.9513 583.492 34.8935C584.526 35.8506 585.522 36.8521 586.438 37.923C588.273 40.0622 589.842 42.4252 591.104 44.9358C590.403 43.7187 589.694 42.5057 588.869 41.3703C588.078 40.2122 587.189 39.1252 586.269 38.0709C585.332 37.0301 584.35 36.0307 583.313 35.0902C582.266 34.1614 581.178 33.279 580.041 32.4626C577.77 30.8264 575.329 29.4258 572.774 28.2767C571.498 27.6975 570.193 27.1816 568.863 26.736C567.536 26.2828 566.185 25.8927 564.809 25.6117Z" fill="#76D0E4"/>
<path d="M555.911 104.729C553.099 104.775 550.288 104.39 547.543 103.769C544.795 103.145 542.123 102.199 539.565 101.015C538.293 100.407 537.058 99.7225 535.856 98.9864C534.664 98.2326 533.504 97.4281 532.409 96.5411C530.216 94.7696 528.246 92.7299 526.549 90.4897C527.46 91.5598 528.377 92.6243 529.394 93.591C530.381 94.5868 531.452 95.4949 532.548 96.3651C533.659 97.2186 534.805 98.0237 535.995 98.7605C537.193 99.4842 538.423 100.155 539.69 100.752C542.22 101.949 544.874 102.885 547.595 103.552C548.955 103.89 550.332 104.16 551.721 104.358C553.107 104.563 554.506 104.702 555.911 104.729Z" fill="#76D0E4"/>
<path d="M569.059 52.2045C569.167 52.3101 569.204 52.2946 569.275 52.3994C569.5 52.7344 570.239 52.9993 570.659 53.1575C571.385 53.7379 572.543 54.9016 572.801 53.763C573.03 52.7548 573.218 52.2511 573.038 51.6594C573.027 51.5996 572.597 51.3273 572.561 51.2605C572.212 50.6165 571.873 49.9489 571.467 49.379C570.87 48.5403 570.085 49.0119 570.212 49.2614C570.251 49.339 571.649 49.9439 571.383 49.7761C571.064 49.2941 571.085 49.3763 570.733 49.1149C570.017 48.5838 569.234 49.1566 569.84 49.5435C569.934 49.6034 570.305 49.5958 570.474 49.6448C570.507 49.6538 570.53 49.6664 570.542 49.6836C570.555 49.704 570.249 49.4913 570.081 49.3869C569.328 48.9165 568.821 49.6448 569.035 49.9308C569.114 50.0361 569.677 49.8689 569.769 49.9594C569.849 50.039 569.172 49.5435 568.957 49.7005C568.408 50.1006 568.579 51.1368 568.735 51.3936L569.293 50.8692C569.267 50.8283 569.511 51.2214 569.602 51.4216C569.699 51.6994 569.686 51.6673 569.564 51.5666" fill="#F9AA91"/>
<path d="M569.057 49.6705C569.18 49.6393 569.31 49.6504 569.435 49.6839C569.56 49.7175 569.677 49.7855 569.774 49.8754C569.872 49.9681 569.937 50.0828 569.992 50.1885C570.049 50.2967 570.105 50.4064 570.147 50.5249C570.055 50.4397 569.976 50.3457 569.898 50.25C569.818 50.1534 569.757 50.0545 569.674 49.9813C569.512 49.8255 569.299 49.7283 569.057 49.6705Z" fill="#E07766"/>
<path d="M569.652 49.2353C569.776 49.2461 569.897 49.2727 570.017 49.3019C570.141 49.3372 570.249 49.3509 570.379 49.4241C570.49 49.5108 570.561 49.6106 570.627 49.7168C570.692 49.8227 570.749 49.9322 570.788 50.0515C570.698 49.9648 570.618 49.8729 570.537 49.7842C570.456 49.699 570.377 49.603 570.294 49.5426C570.265 49.5152 570.194 49.4997 570.142 49.477C570.087 49.4533 570.031 49.4335 569.977 49.4061C569.867 49.3562 569.759 49.3036 569.652 49.2353Z" fill="#E07766"/>
<path d="M570.347 48.928C570.454 48.9495 570.552 48.9872 570.65 49.0239C570.746 49.0622 570.841 49.1074 570.931 49.1494L570.962 49.1626L570.977 49.1684L571.015 49.1871C571.046 49.2113 571.064 49.2358 571.081 49.2588C571.115 49.305 571.141 49.3522 571.163 49.4012C571.211 49.497 571.249 49.5959 571.274 49.7009C571.201 49.6213 571.137 49.5381 571.074 49.457L570.978 49.3426L570.935 49.3029L570.938 49.3041L570.916 49.2971L570.874 49.2816C570.773 49.2384 570.683 49.1865 570.595 49.1284C570.508 49.068 570.423 49.0067 570.347 48.928Z" fill="#E07766"/>
<path d="M591.874 118.734C585.631 118.734 580.569 118.404 580.569 117.997C580.569 117.59 585.631 117.26 591.874 117.26C598.118 117.26 603.18 117.59 603.18 117.997C603.18 118.404 598.118 118.734 591.874 118.734Z" fill="#E3E8EE"/>
<path d="M598.193 85.1074C598.135 85.6268 597.968 86.377 597.846 86.974C597.689 87.7485 597.295 87.726 597.324 87.4094C597.334 87.2924 597.564 85.4736 597.591 85.3621C597.615 85.2644 597.498 85.2769 597.456 85.6679C597.455 85.6694 597.346 86.1328 597.268 86.5457C597.076 87.5509 596.716 87.3283 596.714 87.0607C596.714 86.9621 596.846 85.3566 596.848 85.2594C596.849 85.2162 596.807 84.5253 596.782 84.3312C596.71 84.0047 596.652 83.9609 596.606 84.1313C596.509 84.9314 596.336 85.4398 596.104 85.2912C595.914 85.1693 596.054 84.326 596.078 83.7424C596.093 83.3832 596.369 82.607 596.614 82.291C596.894 81.5121 597.389 80.3199 598.116 81.0631C598.759 81.7205 599.191 82.6493 599.331 83.1818C599.35 83.232 599.371 83.3837 599.375 83.4512C599.411 84.1024 599.383 84.4929 599.34 85.1147C599.278 86.0295 598.963 86.2612 598.943 86.0126C598.936 85.9355 599.024 84.4964 598.9 84.7479C598.884 85.2626 598.699 85.8798 598.63 86.4765C598.538 87.2647 598.161 87.2016 598.163 86.8833C598.164 86.7663 598.302 85.3263 598.306 85.2107C598.306 85.1891 598.313 85.0438 598.248 85.0353C598.219 85.0312 598.198 85.0709 598.193 85.1074Z" fill="#F9AA91"/>
<path d="M572.658 51.6565L580.198 57.957L579.278 57.4569L586.408 59.163L585.618 64.8257L578.339 61.3819L577.751 61.2412L577.418 60.882L570.743 53.6711L572.658 51.6565Z" fill="#FABB43"/>
<path d="M594.209 78.4236C594.209 78.4236 596.726 88.8361 597.32 97.68C597.32 97.68 595.035 99.5956 592.891 99.9009C592.891 99.9009 589.182 91.6561 586.333 83.7527L594.209 78.4236Z" fill="#203763"/>
<path d="M591.873 80.6658C591.873 80.6658 589.527 90.9907 585.731 99.7733C585.731 99.7733 583.125 100.193 581.068 99.5087C581.068 99.5087 581.845 86.7874 583.175 77.8808L591.873 80.6658Z" fill="#203763"/>
<path d="M587.174 58.3861C587.757 58.0044 587.527 56.6703 587.475 55.9543L590.932 53.3015C590.946 53.3917 590.948 56.1629 590.962 56.2554C591.16 57.5332 593.38 58.9335 593.605 59.0596C594.957 59.8168 592.996 66.6945 586.139 62.9201C586.11 62.9049 586.081 62.888 586.053 62.8702C584.679 62.0931 585.998 59.1565 587.174 58.3861Z" fill="#F9AA91"/>
<path d="M582.54 65.211C582.57 64.623 582.797 61.0344 584.924 59.5518C585.711 59.0029 587.174 58.3858 587.175 58.3861C587.313 58.8019 587.436 59.5518 588.692 59.5719C591.348 59.6145 592.048 57.8737 592.048 57.8737C593.787 59.2402 594.325 59.0607 594.842 59.5115C596.485 60.9437 597.631 61.6172 595.512 67.0575L594.173 73.4152L594.843 79.1035C588.874 81.9375 585.064 81.8199 582.974 79.1671C582.974 79.1671 582.205 71.5687 582.54 65.211Z" fill="#FABB43"/>
<path d="M590.23 59.8555L588.229 62.0454L586.975 59.8893L590.23 59.8555Z" fill="white"/>
<path d="M589.216 59.9807C589.216 59.9807 588.498 61.1354 587.44 59.838L588.423 59.5541L589.216 59.9807Z" fill="#203763"/>
<path d="M599.063 82.4263C599.072 82.3822 599.083 82.3274 599.095 82.2669C599.082 82.3352 599.071 82.3872 599.063 82.4263Z" fill="#FABB43"/>
<path d="M599.096 82.2671C599.102 82.2373 599.108 82.2052 599.115 82.1693C599.109 82.2023 599.102 82.2353 599.096 82.2671Z" fill="#FABB43"/>
<path d="M600.57 71.3441C599.824 69.4675 598.675 65.2595 597.204 62.0407C595.846 59.0684 591.927 57.1128 593.335 63.5819C593.775 65.6018 595.364 69.7993 596.747 72.3592L596.504 81.8345C597.161 81.8882 599.193 81.7811 599.193 81.7811C599.528 80.108 600.57 71.3441 600.57 71.3441Z" fill="#FABB43"/>
<path d="M599.126 82.1057C599.137 82.0517 599.148 81.994 599.162 81.9274C599.151 81.9799 599.139 82.0418 599.126 82.1057Z" fill="#FABB43"/>
<path d="M596.382 81.8437C596.382 81.8437 598.461 81.6902 599.299 81.5084C599.299 81.5084 599.481 82.3552 599.153 82.6595C598.826 82.9636 596.799 83.0891 596.55 82.8215C596.324 82.5793 596.382 81.8437 596.382 81.8437Z" fill="#EFEFED"/>
<path d="M596.717 82.4164C596.783 82.4444 596.86 82.4135 596.888 82.3473C596.916 82.281 596.884 82.2049 596.818 82.1769C596.752 82.1489 596.676 82.1801 596.648 82.246C596.62 82.3123 596.651 82.3887 596.717 82.4164Z" fill="#FABB43"/>
<path d="M573.517 51.9445C573.517 51.9445 571.833 53.7549 571.25 54.5891C571.25 54.5891 570.409 53.9994 570.449 53.4704C570.488 52.9413 572.15 51.1981 572.583 51.2299C572.974 51.2585 573.517 51.9445 573.517 51.9445Z" fill="#EFEFED"/>
<path d="M571.098 53.4736C571.018 53.5025 570.976 53.5909 571.005 53.6711C571.034 53.7511 571.123 53.7925 571.203 53.7634C571.283 53.7342 571.324 53.6461 571.295 53.5658C571.266 53.4859 571.178 53.4444 571.098 53.4736Z" fill="#FABB43"/>
<path d="M589.265 91.1655C589.113 90.9409 588.975 90.7089 588.833 90.4789C588.695 90.2472 588.563 90.0123 588.432 89.7771C588.175 89.3038 587.924 88.8276 587.691 88.3427L587.751 88.4045C587.033 88.0138 586.325 87.6027 585.647 87.1332C586.417 87.4276 587.156 87.7801 587.884 88.153L587.923 88.1728L587.945 88.2149C588.194 88.6922 588.425 89.1784 588.651 89.6671C588.761 89.9134 588.87 90.1594 588.973 90.4089C589.073 90.6598 589.176 90.9093 589.265 91.1655Z" fill="#080B0E"/>
<path d="M600.877 110.765L592.836 99.7918L595.983 95.7309C595.983 95.7309 598.792 98.0518 599.803 100.375C601.829 105.03 603.032 107.555 603.74 108.925C602.917 109.648 601.888 110.409 600.877 110.765Z" fill="#203763"/>
<path d="M602.267 112.663L600.877 110.765C601.887 110.409 602.917 109.649 603.739 108.925C604.542 110.479 604.705 110.545 604.705 110.545C604.705 110.545 604.182 112.021 602.267 112.663Z" fill="#F9AA91"/>
<path d="M579.691 113.559L581.186 98.8328L585.854 98.2457C585.854 98.2457 586.094 104.31 585.301 106.715C584.147 110.209 583.484 112.475 583.105 113.943C582.066 113.927 580.758 113.84 579.691 113.559Z" fill="#203763"/>
<path d="M582.652 116.019C582.652 116.019 581.221 117.141 579.42 116.228L579.691 113.558C580.757 113.839 582.066 113.926 583.104 113.943C582.638 115.932 582.652 116.019 582.652 116.019Z" fill="#F9AA91"/>
<path d="M587.384 48.5392C587.384 48.5392 586.061 49.3312 586.099 50.7934C586.109 51.164 585.653 53.037 585.653 53.037C585.423 55.3565 586.848 56.901 587.397 56.9209C588.722 56.969 589.803 56.3087 590.459 55.6833C591.663 54.5345 592.386 50.627 591.443 49.3428C590.176 47.6171 588.026 47.766 587.384 48.5392Z" fill="#F9AA91"/>
<path d="M585.641 53.8801C585.641 53.8801 585.998 54.0928 586.746 53.8562C587.221 53.7056 587.929 53.2058 588.081 53.5221C588.772 54.9592 588.745 56.7091 587.509 56.9227C586.272 57.1363 585.468 54.401 585.641 53.8801Z" fill="#203763"/>
<path d="M590.825 53.0472C590.785 52.7507 590.619 51.0837 590.72 50.7449C590.668 50.7096 590.571 50.6912 590.453 50.6836C589.87 50.6469 589.413 50.1663 589.39 49.5827C589.39 49.5827 588.263 49.6081 587.121 49.3834C585.647 49.0936 586.034 47.4187 586.063 47.4114C586.454 47.3122 589.611 46.8152 591.41 47.988C593.176 49.1391 592.324 51.9562 592.166 52.4274C592.152 52.4694 592.114 52.496 592.07 52.4977L590.934 53.1388C590.88 53.1412 590.833 53.1012 590.825 53.0472Z" fill="#203763"/>
<path d="M592.107 48.7107C592.107 48.7107 593.504 49.4907 592.402 52.1934C592.402 52.1934 591.494 51.3013 592.107 48.7107Z" fill="#203763"/>
<path d="M586.317 51.0399C586.317 51.0399 585.762 52.1563 584.968 52.884C584.702 53.1283 585.506 53.9275 585.858 53.9631C586.639 54.0413 586.317 51.0399 586.317 51.0399Z" fill="#F9AA91"/>
<path d="M592.272 53.4444C591.911 54.0768 591.255 54.3525 590.808 54.0604C590.361 53.7686 590.291 53.019 590.652 52.387C591.014 51.7546 591.67 51.4786 592.117 51.771C592.564 52.0628 592.634 52.8121 592.272 53.4444Z" fill="#F9AA91"/>
<path d="M590.511 54.9906C590.443 55.2763 590.302 55.543 590.125 55.7802C589.948 56.0178 589.729 56.2281 589.477 56.388C589.223 56.5421 588.951 56.6763 588.66 56.7359C588.518 56.7796 588.369 56.7864 588.224 56.8114C588.077 56.8205 587.93 56.8202 587.785 56.8182C588.073 56.7683 588.358 56.7224 588.629 56.6282C588.903 56.5459 589.157 56.4143 589.397 56.2658C589.639 56.117 589.848 55.9215 590.038 55.7102C590.226 55.4957 590.387 55.2547 590.511 54.9906Z" fill="#E07766"/>
<path d="M587.509 54.0935C587.423 54.3135 587.243 54.4924 587.028 54.6004C586.812 54.7086 586.544 54.7235 586.33 54.6278C586.447 54.6129 586.557 54.6088 586.663 54.5788C586.767 54.5514 586.869 54.519 586.964 54.4691C587.158 54.3769 587.332 54.245 587.509 54.0935Z" fill="#F9AA91"/>
<path d="M586.78 51.9774C586.773 52.1023 586.834 52.207 586.917 52.212C587 52.2169 587.074 52.1198 587.081 51.9952C587.088 51.8706 587.027 51.7655 586.944 51.7606C586.861 51.7556 586.787 51.8528 586.78 51.9774Z" fill="#203763"/>
<path d="M591.882 52.1362C591.715 52.1272 591.548 52.1596 591.422 52.2462C591.36 52.2897 591.31 52.3469 591.274 52.4123C591.234 52.4756 591.214 52.5509 591.193 52.6247L591.15 52.5421C591.228 52.5742 591.297 52.6101 591.366 52.6632C591.426 52.714 591.515 52.796 591.492 52.9232C591.481 52.9819 591.444 53.0218 591.414 53.0537L591.327 53.1313C591.298 53.1572 591.267 53.1809 591.235 53.2042C591.195 53.2279 591.186 53.2483 591.109 53.271L591.153 53.2264C591.139 53.3755 591.155 53.5491 591.271 53.6729C591.197 53.6317 591.142 53.5579 591.106 53.4776C591.07 53.3962 591.057 53.3101 591.055 53.2176L591.1 53.173L591.163 53.1161L591.242 53.0388C591.293 52.9854 591.357 52.9288 591.354 52.8967C591.364 52.8666 591.328 52.8167 591.276 52.777C591.224 52.7371 591.16 52.7 591.098 52.6737L591.094 52.672C591.062 52.6583 591.046 52.6235 591.055 52.5914C591.08 52.5048 591.113 52.419 591.167 52.3434C591.215 52.2646 591.292 52.2042 591.372 52.1619C591.536 52.0755 591.725 52.0802 591.882 52.1362Z" fill="#E07766"/>
<path d="M587.617 51.416C587.685 51.3293 587.65 51.0527 587.284 50.8834C587.08 50.7889 586.895 50.8443 586.869 50.8604C586.814 50.8942 586.786 50.9748 586.811 51.039C586.854 51.1525 587.025 51.1113 587.241 51.2593C587.396 51.3655 587.335 51.3914 587.489 51.4402C587.504 51.4448 587.577 51.467 587.617 51.416Z" fill="#203763"/>
<path d="M591.203 56.8845C591.203 56.8845 589.975 58.9747 588.422 59.5545C588.422 59.5545 589.419 60.0575 590.141 60.5469C590.141 60.5469 592.267 58.5285 592.403 58.1448C592.403 58.1448 592.25 57.1915 591.203 56.8845Z" fill="white"/>
<path d="M587.485 57.9102L587.267 58.673L588.422 59.5542C588.422 59.5542 587.493 59.9656 587.067 60.2253C587.067 60.2253 586.572 59.6735 586.563 58.7491C586.563 58.7491 586.755 58.1101 587.485 57.9102Z" fill="white"/>
<path d="M591.369 48.4663C591.369 48.4663 590.633 47.3041 586.95 46.6466C586.95 46.6466 586.339 48.3899 591.369 48.4663Z" fill="#203763"/>
<path d="M591.859 48.3706C591.859 48.3706 591.165 47.4228 588.956 46.7926C588.956 46.7926 588.791 48.012 591.859 48.3706Z" fill="#203763"/>
<path d="M591.542 48.6187C591.542 48.6187 591.539 48.1083 592.255 47.5565C592.255 47.5565 592.637 48.1845 591.542 48.6187Z" fill="#203763"/>
<path d="M591.529 48.5451C591.529 48.5451 591.894 48.1877 592.789 48.3193C592.789 48.3193 592.603 49.0304 591.529 48.5451Z" fill="#203763"/>
<path d="M586.361 51.9789H586.308C586.308 52.2229 586.382 52.4447 586.505 52.6078C586.627 52.7706 586.802 52.8762 586.997 52.8762C587.193 52.8762 587.367 52.7706 587.49 52.6078C587.613 52.4447 587.687 52.2229 587.687 51.9789C587.687 51.735 587.613 51.5132 587.49 51.3501C587.367 51.187 587.193 51.0817 586.997 51.0817C586.802 51.0817 586.627 51.187 586.505 51.3501C586.382 51.5132 586.308 51.735 586.308 51.9789H586.361H586.414C586.414 51.7566 586.482 51.5564 586.59 51.4143C586.698 51.2716 586.841 51.1885 586.997 51.1885C587.153 51.1885 587.297 51.2716 587.404 51.4143C587.512 51.5564 587.58 51.7566 587.58 51.9789C587.58 52.201 587.512 52.4012 587.404 52.5436C587.297 52.686 587.153 52.7694 586.997 52.7694C586.841 52.7694 586.698 52.686 586.59 52.5436C586.482 52.4012 586.414 52.201 586.414 51.9789H586.361Z" fill="#EFEFED"/>
<path d="M586.429 51.742C586.428 51.7377 586.406 51.6784 586.347 51.6172C586.29 51.5562 586.191 51.4943 586.05 51.4946C586.022 51.4946 585.992 51.4972 585.961 51.5022L585.978 51.6075L586.05 51.6014C586.16 51.602 586.226 51.646 586.27 51.6913L586.316 51.7534L586.327 51.7733L586.329 51.7788L586.429 51.742Z" fill="#EFEFED"/>
<path d="M588.136 53.6823C588.136 53.6823 588.755 54.4004 588.713 55.0474C588.713 55.0474 588.052 54.3587 588.136 53.6823Z" fill="#203763"/>
<path d="M585.969 54.0125C585.969 54.0125 586.797 53.1058 587.422 53.47C587.422 53.47 586.615 54.472 585.969 54.0125Z" fill="#203763"/>
<path d="M588.291 54.1326C588.291 54.1326 588.859 55.0019 588.572 55.6091C588.572 55.6091 587.937 54.7556 588.291 54.1326Z" fill="#203763"/>
<path d="M588.336 60.2255L589.216 60.9672L588.23 62.0454L587.493 60.7781L588.336 60.2255Z" fill="#203763"/>
<path d="M578.74 116.288L578.742 116.286C579.311 116.022 579.101 115.154 579.794 115.643C580.24 115.958 580.475 116.522 580.938 116.584C581.962 116.559 582.654 116.02 582.654 116.02V116.019L582.767 116.012C582.767 116.012 583.264 116.889 583.122 118.607C583.114 118.703 583.034 118.78 582.938 118.786L581.141 118.889C579.437 118.31 579.832 119.385 575.019 118.795C574.933 118.785 574.861 118.72 574.848 118.636C574.773 118.145 574.831 116.54 578.74 116.288Z" fill="#203763"/>
<path d="M601.45 112.888L601.451 112.885C601.739 112.328 601.042 111.77 601.891 111.733C602.435 111.709 602.966 112.013 603.371 111.779C604.167 111.132 604.383 110.282 604.383 110.282V110.282L604.468 110.207C604.468 110.207 605.398 110.597 606.336 112.044C606.388 112.124 606.373 112.234 606.3 112.297L604.94 113.477C603.239 114.061 604.209 114.671 600.04 117.148C599.966 117.192 599.869 117.185 599.807 117.126C599.447 116.784 598.513 115.478 601.45 112.888Z" fill="#203763"/>
<path d="M587.599 52.0394L590.777 52.2466L590.784 52.1398L587.605 51.9329" fill="#EFEFED"/>
<path d="M595.049 68.6829C594.794 68.162 594.602 67.621 594.425 67.075C594.255 66.5273 594.101 65.9744 594.01 65.4016C594.265 65.9222 594.457 66.4629 594.633 67.0091C594.803 67.5568 594.957 68.1101 595.049 68.6829Z" fill="#BA8231"/>
<path d="M583.334 61.616C583.251 61.9402 583.164 62.2434 583.074 62.5518C582.981 62.8588 582.894 63.1661 582.76 63.4751C582.723 63.1398 582.774 62.8086 582.865 62.4897C582.963 62.1751 583.098 61.8609 583.334 61.616Z" fill="#BA8231"/>
<path d="M591.105 64.0446C590.883 64.8351 590.615 65.6113 590.328 66.3805C590.04 67.1494 589.716 67.9048 589.373 68.6521C589.013 69.3912 588.635 70.1251 588.174 70.8111C587.942 71.1525 587.69 71.4832 587.399 71.779C587.109 72.0627 586.752 72.3475 586.33 72.3591C586.742 72.2967 587.059 72.0075 587.321 71.7052C587.589 71.4023 587.821 71.067 588.033 70.7195C588.458 70.0256 588.833 69.3002 589.175 68.5587C589.532 67.824 589.852 67.0712 590.172 66.3183C590.491 65.5643 590.798 64.8056 591.105 64.0446Z" fill="#BA8231"/>
<path d="M584.168 67.8269C584.297 68.7026 584.429 69.5765 584.575 70.4475C584.722 71.318 584.871 72.1881 585.063 73.0486C585.239 73.9123 585.452 74.7682 585.722 75.6048C585.857 76.0223 586.011 76.4352 586.205 76.8283C586.395 77.2211 586.628 77.6027 586.975 77.8811C586.597 77.6424 586.334 77.2596 586.11 76.8785C585.893 76.4881 585.719 76.0763 585.563 75.6596C585.256 74.8236 585.043 73.9593 584.85 73.0941C584.674 72.2246 584.522 71.3506 584.409 70.472C584.297 69.5934 584.208 68.7116 584.168 67.8269Z" fill="#BA8231"/>
<path d="M593.347 73.2698C593.156 73.3191 592.97 73.3752 592.781 73.4154C592.592 73.4598 592.403 73.496 592.215 73.5342L591.654 73.6416C591.564 73.662 591.466 73.6833 591.401 73.7174L591.383 73.7215L591.417 73.7592C591.454 73.7843 591.498 73.8064 591.542 73.8301C591.492 73.8295 591.442 73.8269 591.391 73.8114C591.366 73.8035 591.337 73.7945 591.311 73.7624C591.277 73.7177 591.308 73.6614 591.328 73.6387C591.418 73.5529 591.51 73.5179 591.604 73.4785C591.79 73.4043 591.982 73.3585 592.174 73.3194C592.559 73.2526 592.951 73.2065 593.347 73.2698Z" fill="#BA8231"/>
<path d="M593.112 73.5493C592.951 73.7597 592.764 73.9222 592.587 74.088C592.498 74.1685 592.409 74.2511 592.341 74.3337C592.309 74.376 592.281 74.4162 592.283 74.4501C592.276 74.4924 592.33 74.535 592.384 74.5735C592.32 74.5785 592.239 74.5709 592.184 74.4909C592.136 74.404 592.165 74.3138 592.192 74.2496C592.252 74.1145 592.345 74.0179 592.439 73.9269C592.634 73.7542 592.854 73.6173 593.112 73.5493Z" fill="#BA8231"/>
<path d="M525.454 52.7568C525.319 52.7568 525.179 52.7548 525.036 52.7507C524.233 52.7285 523.381 52.5972 522.574 52.5972C522.458 52.5972 522.342 52.6001 522.228 52.6063C523.03 50.7627 523.976 48.9982 525.052 47.3232C525.358 47.4306 525.68 47.6005 526.033 47.8526C525.985 47.8497 525.937 47.8482 525.888 47.8482C525.869 47.8482 525.851 47.8482 525.833 47.8488C526 48.1546 526.211 48.3851 526.436 48.5929C526.661 48.7974 526.904 48.9722 527.162 49.1219C527.324 49.2156 527.491 49.2987 527.665 49.3708C529.6 51.587 528.738 52.7568 525.454 52.7568Z" fill="#BED1E1"/>
<path d="M515.125 64.6382C515.125 64.6382 514.945 64.4313 514.669 64.087C514.869 58.3785 516.21 52.9613 518.473 48.055C518.844 48.043 519.254 48.0267 519.713 47.9984C521.727 47.8732 522.867 47.2438 523.968 47.1766C522.968 48.9429 522.107 50.7987 521.401 52.7284C520.331 53.0091 519.46 53.8224 519.081 55.9038C518.136 61.0917 515.125 64.6382 515.125 64.6382Z" fill="#36589E"/>
<path d="M527.666 49.3711C527.493 49.299 527.325 49.2159 527.164 49.1222C526.906 48.9725 526.663 48.7977 526.437 48.5932C526.212 48.3854 526.001 48.1549 525.834 47.8491C525.852 47.8485 525.871 47.8485 525.889 47.8485C525.938 47.8485 525.987 47.8499 526.034 47.8529C526.338 48.0694 526.664 48.3463 527.024 48.6965C527.264 48.9311 527.479 49.156 527.666 49.3711Z" fill="#64AFD1"/>
<path d="M521.402 52.7288C522.108 50.7991 522.969 48.9433 523.969 47.177C524.031 47.1732 524.094 47.1712 524.156 47.1712C524.449 47.1712 524.743 47.2155 525.053 47.3241C523.977 48.999 523.031 50.7635 522.229 52.6071C521.944 52.6225 521.667 52.6593 521.402 52.7288Z" fill="#A5C9DB"/>
<path d="M515.125 62.9817C515.125 62.9817 510.75 57.9441 511.67 55.7947C512.591 53.6453 511.753 51.0465 513.589 48.5391C515.424 46.0317 516.063 46.5683 519.713 46.3416C523.363 46.1148 524.142 44.2324 527.023 47.0398C529.847 49.7921 529 51.2047 525.036 51.0944C522.663 51.0284 519.852 50.0112 519.081 54.247C518.136 59.4349 515.125 62.9817 515.125 62.9817Z" fill="#5AC587"/>
<path d="M509.468 59.9766C510.756 59.2462 509.663 55.6694 507.572 53.7709C506.128 52.4593 504.648 53.5664 502.548 51.8617C501.065 50.6577 501.146 49.5725 499.972 49.3163C498.584 49.0137 498.047 50.4365 495.839 50.8812C493.713 51.3099 493.188 50.1975 491.873 50.738C489.461 51.7286 487.751 56.8975 489.226 58.4779C490.129 59.4449 492.344 56.5278 494.745 57.5249C495.942 58.0221 495.911 58.922 497.106 59.2249C498.781 59.6492 499.632 58.0843 501.392 57.7872C504.792 57.2136 508.029 60.7933 509.468 59.9766Z" fill="#5AC587"/>
<path d="M518.117 84.0483C517.784 82.4256 517.43 80.8076 517.041 79.1984C516.662 77.5867 516.249 75.9833 515.805 74.3892C514.914 71.2045 513.943 68.0321 512.651 64.9918C512.008 63.4742 511.3 61.9749 510.353 60.6306L509.628 59.6303C509.378 59.3038 509.101 58.9983 508.839 58.6808C508.703 58.5264 508.579 58.3607 508.434 58.2151L508.002 57.7742C507.716 57.4786 507.434 57.1772 507.118 56.9131C505.905 55.8005 504.541 54.8474 503.063 54.115C501.59 53.3806 500.005 52.8238 498.355 52.6508C500.014 52.7582 501.621 53.2898 503.125 53.9866C504.629 54.6989 506.022 55.6408 507.267 56.7459C507.592 57.0085 507.881 57.3079 508.176 57.6026L508.617 58.0459C508.764 58.1926 508.891 58.3589 509.029 58.5148C509.296 58.8343 509.578 59.1424 509.833 59.471L510.571 60.4786C511.541 61.841 512.265 63.3537 512.92 64.8783C513.561 66.4117 514.126 67.974 514.629 69.555C515.134 71.1351 515.611 72.7245 516.021 74.3311C516.863 77.5383 517.568 80.7808 518.117 84.0483Z" fill="#2A5F57"/>
<path d="M518.817 83.9541C518.268 81.1636 517.746 78.3691 517.225 75.5739L515.7 67.1815C515.223 64.3785 514.728 61.5772 514.348 58.7558C514.167 57.3447 513.997 55.9283 513.964 54.5008C513.956 53.7882 513.982 53.0684 514.14 52.368C514.227 52.0205 514.35 51.6797 514.538 51.3736C514.725 51.0678 514.977 50.8066 515.261 50.5936C514.986 50.8183 514.747 51.0876 514.576 51.396C514.401 51.703 514.29 52.0406 514.215 52.3847C514.082 53.0783 514.078 53.7906 514.107 54.4967C514.168 55.9119 514.363 57.3207 514.57 58.7246C514.995 61.5329 515.488 64.333 515.987 67.131L517.445 75.5348C517.92 78.3384 518.387 81.1432 518.817 83.9541Z" fill="#2A5F57"/>
<path d="M515.006 73.6921C515.006 73.6921 515.435 68.136 513.717 67.2087C512 66.2813 511.199 64.1474 508.697 63.4608C506.196 62.7745 506.057 63.4564 503.553 65.2022C501.049 66.9484 499.563 66.1223 499.136 69.4529C498.718 72.7178 500.005 73.2019 502.539 71.0724C504.057 69.7978 505.366 67.6738 508.069 70.0432C511.379 72.9445 515.006 73.6921 515.006 73.6921Z" fill="#5AC587"/>
<path d="M517.386 84.1375L517.173 82.9498L516.944 81.7666L516.704 80.5863L516.439 79.4115C516.072 77.8501 515.66 76.298 515.131 74.7865C514.622 73.2688 514.001 71.7876 513.226 70.3896C513.046 70.0322 512.823 69.7001 512.611 69.3616C512.409 69.015 512.152 68.7086 511.918 68.3838L511.739 68.1425L511.541 67.9175L511.145 67.4658C511.02 67.3079 510.858 67.1874 510.715 67.0459L510.276 66.6321C510.583 66.8898 510.912 67.1291 511.2 67.4112L511.623 67.844L511.836 68.0608L512.029 68.2939C512.278 68.612 512.548 68.9161 512.763 69.2583C512.99 69.5933 513.227 69.9231 513.421 70.2779C514.246 71.6706 514.872 73.1699 515.406 74.6925C515.917 76.2245 516.335 77.7847 516.658 79.3636C516.981 80.9425 517.225 82.5361 517.386 84.1375Z" fill="#2A5F57"/>
<path d="M519.02 119.715C505.059 119.715 493.741 117.99 493.741 115.862C493.741 113.733 505.059 112.008 519.02 112.008C532.981 112.008 544.299 113.733 544.299 115.862C544.299 117.99 532.981 119.715 519.02 119.715Z" fill="#E3E8EE"/>
<path d="M497.172 76.0835L493.741 115.017H502.053L497.172 76.0835Z" fill="#99B6BB"/>
<path d="M497.688 83.4764C497.688 83.4764 498.917 116.51 500.961 117.692C503.005 118.873 538.807 120.213 546.846 113.068C546.846 113.068 543.796 108.43 543.059 104.393C542.321 100.356 540.615 80.4896 540.615 80.4896L497.688 83.4764Z" fill="white"/>
<path d="M512.216 93.3872L512.206 93.3149L505.706 94.1964L505.228 87.3808L511.921 86.9116L512.143 93.3895L512.216 93.3872L512.289 93.3846L512.062 86.7555L505.072 87.2457L505.571 94.3618L512.291 93.4505L512.289 93.3846L512.216 93.3872Z" fill="#C3C5C2"/>
<path d="M521.014 93.2012L521.008 93.1284L514.24 93.603L513.729 86.3121L520.457 86.3083L520.941 93.2064L521.014 93.2012L521.086 93.1962L520.593 86.1624L513.572 86.1662L514.105 93.7588L521.092 93.2688L521.086 93.1962L521.014 93.2012Z" fill="#C3C5C2"/>
<path d="M529.278 92.1403L529.268 92.0679L522.771 92.9994L522.294 86.1847L528.987 85.7152L529.205 92.1427L529.278 92.1403L529.351 92.1377L529.127 85.5591L522.138 86.0493L522.637 93.1663L529.353 92.2031L529.351 92.1377L529.278 92.1403Z" fill="#C3C5C2"/>
<path d="M513.154 103.434L513.153 103.361L506.356 103.486L505.877 96.6623L512.573 96.1926L513.081 103.439L513.154 103.434L513.227 103.429L512.709 96.037L505.722 96.5269L506.22 103.635L513.232 103.506L513.227 103.429L513.154 103.434Z" fill="#C3C5C2"/>
<path d="M521.662 102.482L521.652 102.41L514.924 103.384L514.41 96.0597L521.082 95.2427L521.59 102.487L521.662 102.482L521.735 102.477L521.216 95.0793L514.255 95.9316L514.789 103.551L521.74 102.544L521.735 102.477L521.662 102.482Z" fill="#C3C5C2"/>
<path d="M530.232 102.39L530.233 102.317L523.423 102.291L522.945 95.465L529.641 94.9958L530.16 102.395L530.232 102.39L530.305 102.384L529.776 94.8399L522.789 95.3299L523.287 102.436L530.31 102.463L530.305 102.384L530.232 102.39Z" fill="#C3C5C2"/>
<path d="M513.782 112.361L513.777 112.288L507.008 112.763L506.514 105.711L513.226 105.471L513.709 112.366L513.782 112.361L513.854 112.356L513.361 105.32L506.357 105.571L506.873 112.919L513.86 112.429L513.854 112.356L513.782 112.361Z" fill="#C3C5C2"/>
<path d="M537.882 92.0181L537.876 91.9451L531.108 92.4199L530.629 85.5996L537.325 85.1299L537.809 92.023L537.882 92.0181L537.954 92.0128L537.461 84.9743L530.474 85.4643L530.972 92.5757L537.959 92.0854L537.954 92.0128L537.882 92.0181Z" fill="#C3C5C2"/>
<path d="M538.532 101.3L538.527 101.227L531.758 101.701L531.28 94.8811L537.976 94.4116L538.459 101.305L538.532 101.3L538.605 101.295L538.111 94.2558L531.124 94.7457L531.623 101.857L538.61 101.367L538.605 101.295L538.532 101.3Z" fill="#C3C5C2"/>
<path d="M539.185 110.58L539.18 110.507L532.414 110.981L532.18 103.71L538.628 103.687L539.112 110.585L539.185 110.58L539.257 110.575L538.764 103.541L532.029 103.564L532.273 111.137L539.263 110.648L539.257 110.575L539.185 110.58Z" fill="#C3C5C2"/>
<path d="M522.313 111.763L522.315 111.69L515.163 111.5L515.057 105.344L521.757 104.875L522.24 111.768L522.313 111.763L522.386 111.758L521.892 104.719L514.909 105.209L515.019 111.642L522.391 111.838L522.386 111.758L522.313 111.763Z" fill="#C3C5C2"/>
<path d="M530.846 111.164L530.841 111.091L524.072 111.566L523.594 104.743L530.274 104.045L530.773 111.169L530.846 111.164L530.919 111.159L530.409 103.884L523.438 104.613L523.937 111.722L530.924 111.232L530.919 111.159L530.846 111.164Z" fill="#C3C5C2"/>
<path d="M534.431 78.4157C533.755 78.4629 533.168 77.9534 533.121 77.2773C533.074 76.6015 533.583 76.0147 534.26 75.9675C534.935 75.9202 535.522 76.4297 535.569 77.1058C535.617 77.7816 535.107 78.3681 534.431 78.4157ZM527.122 78.928C526.445 78.9753 525.859 78.4658 525.812 77.7897C525.764 77.1136 526.274 76.5274 526.95 76.4801C527.626 76.4323 528.212 76.9421 528.26 77.6182C528.307 78.2943 527.798 78.8808 527.122 78.928ZM519.812 79.4404C519.136 79.488 518.549 78.9782 518.502 78.3024C518.455 77.6263 518.964 77.0395 519.64 76.9923C520.316 76.945 520.903 77.4545 520.95 78.1309C520.998 78.8067 520.488 79.3932 519.812 79.4404ZM512.502 79.9531C511.826 80.0004 511.24 79.4909 511.193 78.8145C511.145 78.1387 511.655 77.5522 512.331 77.5047C513.007 77.4574 513.593 77.9672 513.641 78.6433C513.688 79.3191 513.178 79.9056 512.502 79.9531ZM505.193 80.4655C504.517 80.5131 503.93 80.0033 503.883 79.3272C503.835 78.6511 504.345 78.0646 505.021 78.0173C505.697 77.9701 506.284 78.4796 506.331 79.1557C506.379 79.8318 505.869 80.4183 505.193 80.4655ZM540.097 73.0964L497.17 76.0833L497.688 83.4763L540.615 80.4895L540.097 73.0964Z" fill="#FABB43"/>
<path d="M518.716 88.382C518.58 88.7243 518.397 89.0269 518.204 89.3198C518.008 89.6108 517.795 89.8862 517.567 90.1491C517.339 90.412 517.096 90.6615 516.835 90.8962C516.572 91.1283 516.298 91.3511 515.978 91.5334C516.113 91.1908 516.296 90.888 516.489 90.5953C516.685 90.3044 516.898 90.0286 517.127 89.7666C517.355 89.504 517.598 89.2545 517.859 89.0199C518.122 88.7879 518.396 88.5649 518.716 88.382Z" fill="#3E3F42"/>
<path d="M518.923 91.3271C518.581 91.1909 518.278 91.0086 517.985 90.815C517.694 90.6195 517.419 90.4063 517.156 90.1784C516.893 89.9505 516.643 89.7074 516.409 89.4465C516.177 89.1836 515.954 88.9093 515.771 88.5889C516.114 88.7246 516.417 88.9067 516.71 89.1005C517.001 89.296 517.276 89.5093 517.539 89.7377C517.801 89.9662 518.05 90.2096 518.285 90.4702C518.517 90.7334 518.74 91.0073 518.923 91.3271Z" fill="#3E3F42"/>
<path d="M528.57 106.229C528.434 106.571 528.252 106.874 528.058 107.167C527.863 107.458 527.649 107.733 527.421 107.996C527.194 108.259 526.95 108.508 526.69 108.743C526.427 108.975 526.152 109.198 525.832 109.381C525.968 109.038 526.15 108.735 526.343 108.442C526.539 108.152 526.752 107.875 526.981 107.613C527.209 107.351 527.453 107.101 527.713 106.867C527.976 106.635 528.25 106.412 528.57 106.229Z" fill="#3E3F42"/>
<path d="M528.775 109.174C528.433 109.037 528.131 108.855 527.838 108.662C527.547 108.466 527.271 108.252 527.008 108.025C526.745 107.797 526.496 107.553 526.261 107.293C526.029 107.03 525.806 106.756 525.624 106.435C525.967 106.571 526.269 106.753 526.562 106.947C526.853 107.142 527.129 107.355 527.391 107.584C527.653 107.812 527.903 108.056 528.138 108.316C528.37 108.58 528.592 108.854 528.775 109.174Z" fill="#3E3F42"/>
<path d="M510.833 98.2617C510.697 98.6039 510.514 98.9062 510.321 99.1995C510.125 99.4902 509.912 99.7659 509.684 100.029C509.456 100.292 509.213 100.541 508.953 100.776C508.689 101.008 508.415 101.231 508.095 101.413C508.231 101.07 508.413 100.768 508.606 100.475C508.802 100.184 509.015 99.9086 509.244 99.646C509.472 99.3836 509.716 99.1341 509.976 98.8995C510.239 98.6676 510.513 98.4446 510.833 98.2617Z" fill="#76D0E4"/>
<path d="M511.04 101.206C510.698 101.07 510.395 100.887 510.102 100.694C509.812 100.498 509.536 100.285 509.273 100.057C509.01 99.8293 508.761 99.5859 508.526 99.3257C508.294 99.0625 508.071 98.7881 507.889 98.4675C508.231 98.6035 508.534 98.7859 508.827 98.9791C509.118 99.1751 509.393 99.3882 509.656 99.6169C509.918 99.8453 510.168 100.088 510.402 100.349C510.634 100.613 510.857 100.886 511.04 101.206Z" fill="#76D0E4"/>
<path d="M540.064 115.017C540.469 114.706 540.847 114.37 541.214 114.027C541.576 113.679 541.92 113.315 542.231 112.926C542.546 112.54 542.812 112.119 543.048 111.681C543.279 111.238 543.442 110.766 543.575 110.271C543.556 110.779 543.46 111.298 543.255 111.776C543.052 112.253 542.782 112.703 542.459 113.108C541.804 113.908 540.991 114.58 540.064 115.017Z" fill="#C3C5C2"/>
<path d="M498.905 84.5236L499.145 88.4681L499.401 92.4106C499.585 95.038 499.774 97.6647 500.023 100.286C500.251 102.908 500.535 105.526 500.904 108.131C501.091 109.433 501.306 110.731 501.591 112.015C501.656 112.337 501.736 112.655 501.818 112.973C501.893 113.294 501.995 113.606 502.09 113.92C502.134 114.079 502.196 114.231 502.254 114.385C502.316 114.536 502.361 114.696 502.437 114.841L502.652 115.284L502.929 115.693C502.488 115.193 502.255 114.557 502.017 113.945C501.911 113.633 501.797 113.322 501.712 113.003C501.618 112.686 501.528 112.369 501.452 112.047C501.137 110.765 500.897 109.466 500.682 108.165C500.266 105.559 499.984 102.936 499.732 100.312C499.507 97.6852 499.314 95.0564 499.178 92.4243C499.043 89.7923 498.939 87.1585 498.905 84.5236Z" fill="#C3C5C2"/>
<path d="M497.688 83.4763L499.353 83.3596L498.906 76.619L497.17 76.0833L497.688 83.4763Z" fill="#BA8231"/>
<path d="M500.917 75.8211C501.147 75.3236 501.454 74.8597 501.82 74.4386C502.19 74.0245 502.63 73.6414 503.178 73.4173C503.451 73.3058 503.749 73.2358 504.054 73.23C504.359 73.2265 504.665 73.2883 504.947 73.3963C505.513 73.6256 505.967 74.0079 506.343 74.4558C506.726 74.902 506.986 75.4859 507.031 76.0919C507.078 76.6995 506.906 77.2962 506.626 77.8007C506.343 78.3079 505.952 78.7365 505.506 79.0791C505.057 79.4158 504.548 79.6846 504.004 79.7803C504.503 79.5521 504.935 79.2276 505.306 78.8515C505.677 78.4771 505.99 78.0484 506.202 77.5845C506.416 77.1226 506.521 76.6221 506.47 76.1412C506.428 75.6577 506.208 75.2087 505.898 74.8188C505.583 74.4281 505.181 74.0911 504.744 73.8851C504.302 73.6904 503.804 73.6642 503.327 73.8203C502.851 73.977 502.404 74.272 502.007 74.6251C501.608 74.9787 501.244 75.3837 500.917 75.8211Z" fill="#3E3F42"/>
<path d="M508.269 75.1592C508.499 74.6617 508.806 74.1978 509.172 73.777C509.541 73.3629 509.981 72.9795 510.53 72.7557C510.802 72.6439 511.101 72.5745 511.406 72.5681C511.711 72.5648 512.016 72.6264 512.299 72.7347C512.864 72.9643 513.319 73.346 513.695 73.7939C514.078 74.2407 514.337 74.8242 514.382 75.4303C514.43 76.0375 514.258 76.6346 513.978 77.1388C513.694 77.6462 513.304 78.0746 512.857 78.4172C512.409 78.7542 511.9 79.0227 511.356 79.1187C511.854 78.8902 512.287 78.566 512.658 78.1901C513.029 77.8155 513.342 77.3865 513.553 76.9226C513.768 76.4607 513.873 75.9602 513.822 75.4796C513.779 74.9961 513.559 74.547 513.249 74.1572C512.935 73.7665 512.532 73.4292 512.096 73.2231C511.653 73.0285 511.155 73.0025 510.679 73.159C510.203 73.3154 509.756 73.6104 509.358 73.9634C508.959 74.3168 508.596 74.7218 508.269 75.1592Z" fill="#3E3F42"/>
<path d="M515.669 74.8222C515.876 74.3629 516.156 73.9345 516.49 73.5456C516.828 73.1627 517.232 72.8076 517.739 72.5993C517.99 72.4951 518.266 72.43 518.549 72.4233C518.832 72.4195 519.115 72.4767 519.377 72.5765C519.901 72.7878 520.321 73.1403 520.669 73.554C521.023 73.966 521.263 74.5073 521.304 75.069C521.347 75.6313 521.187 76.1837 520.927 76.6486C520.664 77.1157 520.303 77.5091 519.889 77.8222C519.475 78.1297 519.004 78.3743 518.503 78.4565C518.959 78.2418 519.353 77.9415 519.69 77.5949C520.028 77.2497 520.312 76.8563 520.503 76.4318C520.697 76.0095 520.791 75.5543 520.743 75.1184C520.705 74.6795 520.504 74.2724 520.223 73.9167C519.937 73.5607 519.569 73.2532 519.174 73.065C518.773 72.8879 518.323 72.8619 517.888 73.0022C517.454 73.1432 517.043 73.4102 516.677 73.732C516.309 74.0539 515.973 74.423 515.669 74.8222Z" fill="#3E3F42"/>
<path d="M522.925 74.1779C523.131 73.7206 523.409 73.2943 523.742 72.9071C524.078 72.5263 524.48 72.1726 524.984 71.9649C525.234 71.861 525.509 71.7962 525.791 71.7898C526.073 71.7863 526.355 71.8429 526.615 71.9421C527.138 72.1525 527.555 72.5035 527.901 72.9153C528.254 73.3255 528.493 73.8645 528.534 74.4236C528.577 74.9838 528.417 75.533 528.159 75.9958C527.896 76.4609 527.537 76.8525 527.125 77.1639C526.712 77.47 526.244 77.713 525.745 77.7944C526.198 77.5805 526.59 77.2817 526.926 76.9368C527.261 76.5931 527.544 76.2012 527.734 75.7793C527.927 75.3594 528.02 74.9065 527.973 74.4729C527.935 74.0361 527.735 73.6319 527.455 73.2783C527.171 72.9237 526.805 72.6176 526.412 72.4309C526.013 72.2543 525.566 72.2284 525.133 72.3681C524.702 72.5082 524.293 72.7735 523.929 73.0936C523.562 73.4137 523.228 73.7807 522.925 74.1779Z" fill="#3E3F42"/>
<path d="M530.606 73.5894C530.807 73.1409 531.079 72.7227 531.405 72.3425C531.735 71.9684 532.128 71.6209 532.623 71.4169C532.868 71.3148 533.138 71.2509 533.415 71.2445C533.692 71.2404 533.969 71.2961 534.225 71.3936C534.737 71.6002 535.147 71.9445 535.487 72.3483C535.834 72.7507 536.068 73.2806 536.108 73.8295C536.15 74.3795 535.993 74.9191 535.739 75.3731C535.482 75.8292 535.128 76.2126 534.724 76.5176C534.319 76.8172 533.859 77.0545 533.37 77.1335C533.814 76.922 534.197 76.6287 534.525 76.2902C534.853 75.9532 535.129 75.5695 535.315 75.1563C535.503 74.7452 535.594 74.3025 535.548 73.8785C535.51 73.4525 535.315 73.0574 535.041 72.7113C534.763 72.3647 534.405 72.0653 534.022 71.8823C533.632 71.7099 533.195 71.6842 532.772 71.8199C532.349 71.9567 531.949 72.2159 531.592 72.5287C531.233 72.8418 530.905 73.201 530.606 73.5894Z" fill="#3E3F42"/>
<path d="M516.181 98.9281C516.159 99.6666 516.356 100.41 516.78 100.999C517.191 101.587 517.842 102.031 518.548 102.055C519.25 102.075 519.94 101.75 520.44 101.249C520.936 100.75 521.296 100.077 521.299 99.3784C521.325 98.6848 520.962 98.0084 520.445 97.5322C519.931 97.0537 519.211 96.7572 518.523 96.8943C517.835 97.0285 517.27 97.5952 517.011 98.2622C516.73 98.9302 516.74 99.7084 517 100.401C516.679 99.733 516.628 98.9293 516.877 98.2115C517.123 97.5013 517.7 96.8593 518.476 96.6751C518.858 96.5824 519.266 96.6142 519.633 96.7434C520.001 96.8707 520.336 97.0782 520.623 97.3352C521.19 97.8455 521.609 98.5844 521.591 99.3849C521.574 100.18 521.168 100.904 520.625 101.438C520.079 101.969 519.321 102.337 518.534 102.279C517.744 102.219 517.067 101.709 516.662 101.078C516.26 100.436 516.093 99.6638 516.181 98.9281Z" fill="#FABB43"/>
<path d="M535.636 86.1605C534.903 86.0694 534.145 86.1972 533.519 86.5652C532.896 86.9197 532.394 87.527 532.304 88.2279C532.219 88.925 532.479 89.6422 532.932 90.1861C533.383 90.726 534.02 91.1467 534.715 91.2147C535.403 91.3049 536.11 91.0058 536.632 90.5348C537.156 90.0674 537.518 89.3781 537.445 88.6804C537.375 87.9825 536.863 87.3676 536.223 87.0478C535.584 86.7067 534.808 86.6449 534.094 86.8392C534.789 86.5815 535.594 86.6055 536.286 86.9194C536.97 87.2296 537.556 87.8637 537.668 88.6533C537.724 89.0426 537.655 89.4461 537.492 89.7992C537.332 90.1543 537.094 90.4683 536.811 90.7303C536.251 91.2479 535.476 91.5967 534.681 91.5042C533.891 91.414 533.208 90.943 532.726 90.353C532.248 89.7598 531.952 88.9711 532.083 88.1934C532.215 87.4123 532.785 86.7849 533.451 86.4403C534.127 86.0989 534.912 86.0044 535.636 86.1605Z" fill="#FABB43"/>
<path d="M517.758 99.4564C518.107 99.681 518.426 99.9386 518.737 100.204L518.543 100.224C518.66 100.038 518.786 99.8596 518.912 99.6816C519.043 99.5071 519.172 99.3303 519.314 99.164C519.454 98.9953 519.599 98.8307 519.755 98.6755C519.911 98.522 520.076 98.3653 520.273 98.2611C520.13 98.428 520.017 98.6122 519.892 98.7893L519.524 99.3245C519.276 99.6788 519.021 100.03 518.754 100.371L518.659 100.493L518.561 100.391C518.278 100.095 518.002 99.7922 517.758 99.4564Z" fill="#FABB43"/>
<path d="M576.443 33.8923C575.71 33.4316 574.959 32.9945 574.193 32.5842C573.318 31.3298 572.115 29.4514 570.883 27.4745C571.519 27.7263 572.149 27.9939 572.771 28.2767C575.234 29.384 577.59 30.7251 579.791 32.2854C578.46 33.0301 577.252 33.5932 576.443 33.8923Z" fill="#36589E"/>
<path d="M576.443 33.8931C575.712 33.4329 574.963 32.997 574.199 32.5873C574.198 32.5861 574.197 32.5849 574.196 32.5838C574.962 32.994 575.713 33.4311 576.446 33.8919C576.445 33.8925 576.444 33.8928 576.443 33.8931Z" fill="#A5C9DB"/>
<path d="M580.072 32.1272C577.811 30.5404 575.402 29.1608 572.864 28.0715C572.159 27.7695 571.447 27.4835 570.726 27.2183C570.441 26.7598 570.155 26.2973 569.872 25.8372C573.897 27.1859 577.649 29.1295 581.025 31.5629C580.705 31.7598 580.386 31.9483 580.072 32.1272Z" fill="#36589E"/>
<path d="M579.793 32.2854C577.592 30.7252 575.236 29.384 572.773 28.2767C572.15 27.9939 571.521 27.7263 570.885 27.4745C570.832 27.3893 570.779 27.3044 570.726 27.2189C571.446 27.4841 572.159 27.7701 572.864 28.0721C575.401 29.1614 577.81 30.541 580.072 32.1278C579.978 32.1812 579.885 32.2338 579.793 32.2854Z" fill="#64AFD1"/>
<path d="M568.33 19.2519C568.33 19.2519 577.403 34.5716 578.313 34.7905C579.223 35.0096 590.06 29.7543 590.53 25.0759C590.53 25.0759 588.414 23.3978 587.133 21.6222C585.852 19.8463 580.113 10.7924 580.113 10.7924L568.33 19.2519Z" fill="white"/>
<path d="M589.06 27.1062C589.077 26.6171 589.086 26.1561 589.047 25.6936C589.033 25.4628 589.003 25.2334 588.966 25.0032C588.933 24.7709 588.876 24.5439 588.836 24.2988C588.987 24.4926 589.109 24.712 589.186 24.9466C589.272 25.1792 589.317 25.4252 589.338 25.6717C589.355 25.9189 589.347 26.1678 589.301 26.4105C589.257 26.6525 589.185 26.8923 589.06 27.1062Z" fill="#99B6BB"/>
<path d="M571.305 20.3936L572.375 19.6495L573.453 18.9194L575.608 17.4627C576.329 16.9816 577.039 16.4867 577.751 15.9932C578.46 15.4951 579.163 14.9897 579.828 14.4301C579.679 14.5879 579.53 14.7472 579.374 14.8996L578.895 15.3446C578.563 15.6259 578.228 15.9051 577.885 16.173C577.201 16.7122 576.491 17.2162 575.771 17.7043C575.048 18.1876 574.32 18.6623 573.573 19.1076C572.829 19.5558 572.078 19.9941 571.305 20.3936Z" fill="#99B6BB"/>
<path d="M572.531 22.0098L573.602 21.2657L574.679 20.5356L576.835 19.0789C577.555 18.5978 578.266 18.1026 578.978 17.6091C579.686 17.111 580.389 16.6059 581.055 16.0463C580.906 16.2041 580.757 16.3635 580.6 16.5158L580.122 16.9608C579.789 17.2418 579.455 17.5213 579.112 17.7895C578.427 18.3284 577.718 18.8324 576.998 19.3205C576.275 19.8038 575.547 20.2785 574.8 20.7238C574.056 21.172 573.305 21.61 572.531 22.0098Z" fill="#99B6BB"/>
<path d="M573.755 23.6262L574.825 22.8818L575.903 22.1521L578.058 20.6954C578.779 20.2139 579.49 19.719 580.201 19.2256C580.91 18.7275 581.613 18.2224 582.278 17.6627C582.13 17.8206 581.98 17.9799 581.824 18.1322L581.345 18.5772C581.013 18.8582 580.678 19.1378 580.335 19.4059C579.651 19.9446 578.941 20.4485 578.221 20.9367C577.499 21.4202 576.77 21.895 576.024 22.3403C575.279 22.7885 574.528 23.2265 573.755 23.6262Z" fill="#99B6BB"/>
<path d="M574.981 25.2419L576.052 24.4979L577.13 23.7681L579.285 22.3111C580.005 21.8299 580.716 21.3351 581.428 20.8416C582.136 20.3435 582.839 19.8384 583.505 19.2787C583.356 19.4366 583.207 19.5956 583.051 19.7483L582.571 20.193C582.239 20.4742 581.904 20.7535 581.562 21.0217C580.878 21.5606 580.168 22.0645 579.448 22.5527C578.725 23.0362 577.997 23.511 577.25 23.9563C576.505 24.4045 575.754 24.8425 574.981 25.2419Z" fill="#99B6BB"/>
<path d="M576.205 26.8584L577.276 26.1143L578.353 25.3845L580.509 23.9276C581.23 23.4467 581.94 22.9515 582.652 22.4581C583.36 21.96 584.063 21.4546 584.729 20.8952C584.58 21.0528 584.43 21.2124 584.274 21.3644L583.796 21.8094C583.463 22.0907 583.128 22.3699 582.785 22.6381C582.101 23.1771 581.391 23.681 580.672 24.1692C579.949 24.6527 579.221 25.1274 578.474 25.5724C577.729 26.0209 576.978 26.4589 576.205 26.8584Z" fill="#99B6BB"/>
<path d="M577.429 28.4749L578.499 27.7308L579.577 27.001L581.732 25.544C582.453 25.0629 583.163 24.568 583.875 24.0742C584.584 23.5761 585.287 23.071 585.952 22.5114C585.803 22.6692 585.654 22.8285 585.498 22.9809L585.019 23.4259C584.687 23.7069 584.352 23.9864 584.009 24.2546C583.325 24.7935 582.615 25.2975 581.895 25.7856C581.172 26.2691 580.444 26.7439 579.697 27.1892C578.953 27.6371 578.202 28.0751 577.429 28.4749Z" fill="#99B6BB"/>
<path d="M578.653 30.0913L579.724 29.3472L580.802 28.6171L582.956 27.1605C583.678 26.6793 584.388 26.1844 585.1 25.6907C585.809 25.1926 586.511 24.6875 587.177 24.1281C587.028 24.286 586.879 24.445 586.723 24.5973L586.244 25.0423C585.911 25.3233 585.577 25.6029 585.234 25.871C584.549 26.41 583.84 26.9139 583.12 27.4018C582.397 27.8853 581.669 28.3601 580.922 28.8053C580.177 29.2536 579.427 29.6915 578.653 30.0913Z" fill="#99B6BB"/>
<defs>
<linearGradient id="paint0_linear_634_10834" x1="-35.5" y1="-20.9999" x2="687" y2="160.5" gradientUnits="userSpaceOnUse">
<stop stop-color="#C33764"/>
<stop offset="1" stop-color="#1D2671"/>
</linearGradient>
</defs>
</svg>
