<svg width="800" height="150" viewBox="0 0 800 150" fill="none" xmlns="http://www.w3.org/2000/svg">
<rect width="800" height="150" rx="8" fill="url(#paint0_linear_1284_13175)"/>
<path d="M758.181 111.844C756.369 111.844 754.688 111.283 753.304 110.323C753.593 110.042 753.879 109.751 754.154 109.456L753.965 109.279C753.681 109.581 753.387 109.88 753.09 110.169C750.975 108.608 749.605 106.099 749.605 103.27C749.605 98.5339 753.445 94.6942 758.181 94.6942C762.917 94.6942 766.755 98.5339 766.755 103.27C766.755 108.005 762.917 111.844 758.181 111.844ZM755.645 107.312C755.382 107.651 755.107 107.988 754.828 108.315L755.025 108.483C755.307 108.153 755.584 107.813 755.849 107.471L755.645 107.312ZM757.133 105.197C756.903 105.558 756.661 105.92 756.414 106.272L756.626 106.421C756.875 106.067 757.12 105.701 757.352 105.336L757.133 105.197ZM758.416 102.949C758.22 103.333 758.014 103.716 757.802 104.088L758.026 104.218C758.241 103.841 758.45 103.455 758.648 103.067L758.416 102.949ZM759.482 100.59C759.324 100.988 759.155 101.389 758.977 101.782L759.214 101.889C759.393 101.492 759.564 101.088 759.724 100.686L759.482 100.59ZM760.319 98.141C760.2 98.5536 760.069 98.9684 759.93 99.3738L760.177 99.4579C760.316 99.0484 760.449 98.6295 760.57 98.2137L760.319 98.141ZM760.92 95.6276C760.84 96.0496 760.749 96.4747 760.65 96.8915L760.902 96.9518C761.003 96.5309 761.094 96.1016 761.176 95.6754L760.92 95.6276Z" fill="#F5F5FF"/>
<path d="M617.072 56.4966C609.847 56.4966 603.99 50.6393 603.99 43.4151C603.99 36.19 609.847 30.3327 617.072 30.3327C622.533 30.3327 627.213 33.6797 629.172 38.4341H622.465C620.751 38.4341 619.357 39.8291 619.357 41.5421V56.298C618.615 56.429 617.852 56.4966 617.072 56.4966Z" fill="#F5F5FF"/>
<path d="M662.321 30.8398C659.578 30.8398 656.993 29.1747 655.952 26.4607C654.603 22.9442 656.361 19.0006 659.877 17.6514C660.681 17.3437 661.506 17.1971 662.318 17.1971C665.06 17.1971 667.646 18.8633 668.687 21.5763C670.035 25.0938 668.278 29.0375 664.761 30.3856C663.958 30.6943 663.132 30.8398 662.321 30.8398Z" fill="#F5F5FF"/>
<path d="M654.374 11.4521C653.96 11.3544 653.535 11.2889 653.112 11.2587L653.13 10.9999C653.568 11.0311 654.006 11.0976 654.434 11.1995L654.374 11.4521ZM650.577 11.4905L650.512 11.239C650.938 11.1288 651.375 11.0529 651.811 11.0134L651.835 11.2722C651.413 11.3107 650.989 11.3845 650.577 11.4905ZM656.727 12.425C656.365 12.2015 655.982 12.0061 655.589 11.8439L655.689 11.6038C656.094 11.7712 656.489 11.9738 656.863 12.2036L656.727 12.425ZM648.244 12.5113L648.103 12.2919C648.471 12.0549 648.862 11.846 649.266 11.6693L649.37 11.9073C648.979 12.0788 648.6 12.2815 648.244 12.5113ZM658.651 14.0891C658.379 13.7638 658.078 13.4571 657.756 13.1796L657.926 12.9832C658.259 13.27 658.57 13.586 658.851 13.9228L658.651 14.0891ZM646.355 14.216L646.152 14.0538C646.427 13.7108 646.731 13.3875 647.056 13.0944L647.23 13.2867C646.916 13.5715 646.621 13.8844 646.355 14.216ZM659.948 16.2793C659.792 15.8822 659.603 15.4965 659.388 15.1317L659.612 14.9997C659.834 15.376 660.029 15.7751 660.19 16.1846L659.948 16.2793ZM645.103 16.432L644.86 16.3427C645.012 15.931 645.198 15.5288 645.414 15.1463L645.64 15.2741C645.431 15.6441 645.251 16.0339 645.103 16.432ZM660.333 17.565C660.246 17.1513 660.124 16.7387 659.971 16.3406L660.214 16.247C660.372 16.6586 660.497 17.0848 660.587 17.512L660.333 17.565ZM644.613 18.9309L644.354 18.9226C644.368 18.4839 644.418 18.0432 644.503 17.6118L644.758 17.6617C644.676 18.0796 644.627 18.5057 644.613 18.9309ZM660.704 20.1387L660.446 20.1086C660.482 19.8019 660.5 19.4911 660.5 19.1835C660.5 19.067 660.498 18.9485 660.492 18.8321L660.752 18.8207C660.757 18.9402 660.76 19.0629 660.76 19.1835C660.76 19.5015 660.741 19.8227 660.704 20.1387ZM644.693 21.5295C644.567 21.1075 644.474 20.674 644.418 20.2395L644.675 20.2063C644.73 20.6272 644.82 21.0472 644.942 21.4547L644.693 21.5295ZM659.982 22.6666L659.747 22.5565C659.928 22.1708 660.078 21.7686 660.195 21.3601L660.445 21.4318C660.324 21.8538 660.169 22.2685 659.982 22.6666ZM645.837 23.8963C645.586 23.5377 645.361 23.1552 645.17 22.7592L645.404 22.6459C645.589 23.0294 645.807 23.3995 646.05 23.7477L645.837 23.8963ZM658.502 24.8381L658.313 24.6593C658.605 24.3516 658.875 24.0169 659.115 23.6656L659.329 23.8121C659.082 24.1749 658.803 24.52 658.502 24.8381ZM647.672 25.7777C647.319 25.5168 646.985 25.2258 646.678 24.9118L646.865 24.7299C647.161 25.0345 647.485 25.3162 647.827 25.5688L647.672 25.7777ZM656.408 26.4274L656.286 26.1987C656.662 25.9991 657.024 25.7673 657.362 25.5106L657.519 25.7185C657.17 25.9825 656.796 26.2215 656.408 26.4274ZM650.008 26.9835C649.591 26.8463 649.182 26.6758 648.792 26.4741L648.911 26.2434C649.289 26.4378 649.685 26.6041 650.089 26.7361L650.008 26.9835ZM653.919 27.2756L653.876 27.0188C654.294 26.9481 654.71 26.8431 655.114 26.7049L655.198 26.9512C654.781 27.0926 654.351 27.2018 653.919 27.2756ZM652.556 27.3899C652.134 27.3899 651.708 27.3566 651.29 27.2911L651.331 27.0344C651.735 27.0978 652.148 27.13 652.556 27.13H652.604L652.605 27.3899H652.556Z" fill="#9192FF"/>
<path d="M735.072 63.0441C734.695 63.0296 734.311 63.0213 733.934 63.0213C733.882 63.0213 733.831 63.0213 733.779 63.0213L733.778 62.7614C733.83 62.7614 733.883 62.7614 733.934 62.7614C734.316 62.7614 734.702 62.7697 735.083 62.7853L735.072 63.0441ZM731.198 63.1564L731.172 62.8976C731.603 62.855 732.04 62.8217 732.474 62.7988L732.487 63.0587C732.058 63.0816 731.625 63.1138 731.198 63.1564ZM737.647 63.2707C737.222 63.2125 736.79 63.1647 736.362 63.1273L736.385 62.8685C736.817 62.9059 737.253 62.9547 737.681 63.013L737.647 63.2707ZM728.641 63.5306L728.591 63.2759C729.017 63.1928 729.449 63.119 729.877 63.0566L729.916 63.3134C729.491 63.3757 729.062 63.4485 728.641 63.5306ZM740.189 63.7364C739.772 63.6398 739.346 63.5514 738.924 63.4734L738.97 63.2177C739.396 63.2957 739.827 63.3851 740.248 63.4838L740.189 63.7364ZM726.131 64.146L726.057 63.8965C726.472 63.7738 726.895 63.6595 727.317 63.5566L727.378 63.8081C726.962 63.911 726.542 64.0243 726.131 64.146ZM742.676 64.4422C742.268 64.305 741.853 64.1771 741.441 64.0597L741.512 63.8102C741.928 63.9277 742.347 64.0576 742.758 64.1958L742.676 64.4422ZM723.689 64.9952L723.593 64.754C723.995 64.5929 724.407 64.438 724.815 64.2956L724.9 64.542C724.496 64.6823 724.089 64.8351 723.689 64.9952ZM745.089 65.3808C744.697 65.2062 744.294 65.0388 743.894 64.8829L743.988 64.6407C744.392 64.7987 744.798 64.9671 745.194 65.1438L745.089 65.3808ZM721.345 66.07L721.226 65.8392C721.609 65.6407 722.003 65.4494 722.396 65.2686L722.504 65.5045C722.116 65.6833 721.725 65.8735 721.345 66.07ZM747.402 66.545C747.028 66.334 746.643 66.1292 746.26 65.9359L746.376 65.7041C746.764 65.8985 747.152 66.1053 747.53 66.3184L747.402 66.545ZM719.111 67.361L718.969 67.1427C719.334 66.9088 719.708 66.6801 720.082 66.4639L720.212 66.6895C719.841 66.9036 719.471 67.1302 719.111 67.361ZM749.593 67.9202C749.241 67.6749 748.877 67.4348 748.514 67.2071L748.653 66.9868C749.019 67.2165 749.386 67.4587 749.742 67.7071L749.593 67.9202ZM717.005 68.8578L716.845 68.653C717.186 68.3859 717.537 68.1239 717.889 67.8734L718.04 68.0844C717.691 68.3329 717.343 68.5937 717.005 68.8578ZM751.645 69.495C751.319 69.2185 750.98 68.9451 750.638 68.6831L750.796 68.4773C751.141 68.7414 751.483 69.0168 751.814 69.2964L751.645 69.495ZM715.048 70.5448L714.87 70.3566C715.184 70.0583 715.51 69.7642 715.837 69.4814L716.007 69.6789C715.683 69.9585 715.36 70.2496 715.048 70.5448ZM753.54 71.2537C753.24 70.9471 752.928 70.6435 752.614 70.3515L752.791 70.1612C753.108 70.4554 753.422 70.762 753.726 71.0718L753.54 71.2537ZM713.256 72.4085L713.061 72.238C713.347 71.9117 713.643 71.5874 713.944 71.2755L714.131 71.4564C713.833 71.7651 713.539 72.0853 713.256 72.4085ZM755.262 73.1808C754.991 72.8482 754.71 72.5166 754.424 72.1965L754.618 72.0239C754.906 72.3472 755.191 72.6809 755.463 73.0166L755.262 73.1808ZM711.646 74.4323L711.436 74.2806C711.689 73.9303 711.955 73.58 712.224 73.2401L712.428 73.4022C712.161 73.738 711.898 74.0852 711.646 74.4323ZM756.795 75.2597C756.557 74.9032 756.307 74.5477 756.053 74.2026L756.261 74.0477C756.519 74.397 756.771 74.7556 757.011 75.1152L756.795 75.2597ZM710.233 76.5996L710.009 76.4686C710.229 76.0944 710.46 75.7212 710.697 75.3574L710.915 75.4998C710.68 75.8595 710.45 76.2295 710.233 76.5996ZM758.125 77.4717C757.922 77.0954 757.707 76.7181 757.486 76.3501L757.709 76.216C757.933 76.5881 758.15 76.9686 758.354 77.348L758.125 77.4717ZM709.029 78.8916L708.794 78.7814C708.977 78.3895 709.172 77.9955 709.374 77.6099L709.604 77.7315C709.404 78.113 709.211 78.5028 709.029 78.8916ZM759.242 79.7979C759.075 79.404 758.896 79.009 758.71 78.6213L758.945 78.509C759.132 78.8999 759.312 79.299 759.481 79.6961L759.242 79.7979ZM708.047 81.2875L707.802 81.2012C707.948 80.7917 708.105 80.3811 708.269 79.9798L708.509 80.0776C708.347 80.4757 708.191 80.8821 708.047 81.2875ZM760.133 82.2199C760.003 81.8103 759.863 81.3987 759.716 80.9964L759.959 80.907C760.108 81.3124 760.251 81.7282 760.381 82.1419L760.133 82.2199ZM707.297 83.7645L707.046 83.7011C707.151 83.2811 707.268 82.8581 707.394 82.4433L707.642 82.5192C707.519 82.9298 707.402 83.3487 707.297 83.7645ZM760.792 84.7187C760.703 84.2998 760.602 83.8778 760.492 83.462L760.744 83.3955C760.854 83.8154 760.956 84.2416 761.046 84.6646L760.792 84.7187ZM706.786 86.2986L706.529 86.2591C706.595 85.8309 706.672 85.3985 706.757 84.9744L707.012 85.0253C706.927 85.4453 706.851 85.8735 706.786 86.2986ZM761.212 87.2695C761.162 86.8433 761.102 86.413 761.033 85.9889L761.289 85.9473C761.359 86.3745 761.42 86.8101 761.47 87.2393L761.212 87.2695ZM706.516 88.8682L706.257 88.8536C706.282 88.4202 706.317 87.9826 706.363 87.5533L706.621 87.5803C706.576 88.0054 706.541 88.4389 706.516 88.8682ZM761.391 89.8473C761.382 89.418 761.362 88.9835 761.332 88.5563L761.591 88.5376C761.621 88.969 761.642 89.4076 761.651 89.8411L761.391 89.8473ZM706.227 91.4626C706.215 91.1404 706.209 90.8119 706.209 90.4866C706.209 90.3764 706.21 90.2673 706.211 90.1571L706.471 90.1602C706.47 90.2693 706.469 90.3774 706.469 90.4866C706.469 90.8088 706.475 91.1342 706.485 91.4533L706.227 91.4626ZM761.628 91.79L761.369 91.7786C761.389 91.3514 761.398 90.9169 761.398 90.4866H761.658C761.658 90.9211 761.649 91.3597 761.628 91.79ZM706.438 94.0633C706.383 93.6351 706.337 93.1985 706.301 92.765L706.56 92.7443C706.596 93.1725 706.64 93.606 706.695 94.03L706.438 94.0633ZM761.386 94.3887L761.129 94.3523C761.188 93.9282 761.239 93.4968 761.279 93.0675L761.538 93.0925C761.497 93.5249 761.446 93.9604 761.386 94.3887ZM706.893 96.6318C706.797 96.2108 706.711 95.7805 706.635 95.3522L706.891 95.3075C706.966 95.7316 707.052 96.1578 707.147 96.5746L706.893 96.6318ZM760.901 96.9519L760.648 96.8916C760.748 96.4748 760.838 96.0497 760.918 95.6277L761.174 95.6755C761.093 96.1017 761.001 96.531 760.901 96.9519ZM707.588 99.1462C707.453 98.7346 707.326 98.3136 707.211 97.8978L707.462 97.8282C707.576 98.2409 707.702 98.6566 707.836 99.0651L707.588 99.1462ZM760.175 99.458L759.929 99.3738C760.067 98.9685 760.198 98.5537 760.317 98.1411L760.568 98.2138C760.447 98.6296 760.314 99.0485 760.175 99.458ZM708.519 101.582C708.345 101.185 708.18 100.779 708.025 100.376L708.268 100.283C708.421 100.683 708.585 101.085 708.757 101.477L708.519 101.582ZM759.212 101.889L758.975 101.782C759.153 101.389 759.323 100.988 759.481 100.59L759.723 100.686C759.563 101.088 759.391 101.492 759.212 101.889ZM709.673 103.915C709.464 103.537 709.26 103.149 709.069 102.761L709.301 102.647C709.491 103.031 709.692 103.415 709.9 103.789L709.673 103.915ZM758.024 104.218L757.8 104.088C758.012 103.716 758.219 103.333 758.414 102.95L758.646 103.067C758.448 103.455 758.24 103.841 758.024 104.218ZM711.043 106.132C710.799 105.776 710.56 105.409 710.332 105.04L710.553 104.904C710.778 105.269 711.015 105.632 711.258 105.986L711.043 106.132ZM756.624 106.421L756.412 106.272C756.66 105.92 756.902 105.559 757.131 105.197L757.351 105.336C757.118 105.701 756.874 106.067 756.624 106.421ZM712.615 108.212C712.339 107.88 712.065 107.536 711.804 107.192L712.012 107.035C712.27 107.376 712.54 107.716 712.816 108.046L712.615 108.212ZM755.023 108.484L754.826 108.315C755.106 107.988 755.38 107.651 755.643 107.312L755.848 107.471C755.583 107.813 755.305 108.153 755.023 108.484ZM714.376 110.137C714.069 109.831 713.765 109.514 713.474 109.196L713.665 109.02C713.954 109.336 714.255 109.65 714.56 109.953L714.376 110.137ZM753.238 110.387L753.057 110.2C753.365 109.901 753.669 109.592 753.963 109.279L754.152 109.456C753.856 109.772 753.549 110.085 753.238 110.387ZM716.31 111.89C715.976 111.613 715.643 111.326 715.323 111.035L715.497 110.843C715.815 111.131 716.144 111.416 716.476 111.689L716.31 111.89ZM751.283 112.113L751.12 111.911C751.454 111.642 751.787 111.362 752.108 111.078L752.28 111.272C751.955 111.559 751.619 111.842 751.283 112.113ZM718.401 113.454C718.043 113.212 717.684 112.956 717.337 112.696L717.493 112.489C717.837 112.746 718.192 112.999 718.546 113.239L718.401 113.454ZM749.176 113.65L749.032 113.432C749.392 113.195 749.748 112.948 750.093 112.696L750.247 112.906C749.898 113.16 749.538 113.411 749.176 113.65ZM720.629 114.816C720.25 114.608 719.869 114.388 719.499 114.161L719.634 113.94C720.001 114.164 720.379 114.382 720.755 114.588L720.629 114.816ZM746.935 114.98L746.813 114.75C747.191 114.549 747.57 114.337 747.938 114.117L748.071 114.341C747.699 114.562 747.317 114.776 746.935 114.98ZM722.978 115.962C722.579 115.791 722.18 115.607 721.79 115.417L721.905 115.184C722.29 115.372 722.686 115.554 723.081 115.723L722.978 115.962ZM744.581 116.092L744.481 115.852C744.875 115.689 745.271 115.512 745.66 115.329L745.771 115.564C745.38 115.749 744.978 115.927 744.581 116.092ZM725.427 116.881C725.015 116.748 724.599 116.604 724.191 116.451L724.283 116.208C724.686 116.358 725.099 116.502 725.506 116.634L725.427 116.881ZM742.13 116.979L742.053 116.731C742.464 116.604 742.877 116.465 743.279 116.32L743.368 116.564C742.961 116.712 742.545 116.851 742.13 116.979ZM727.946 117.562C727.523 117.47 727.096 117.365 726.678 117.251L726.746 117.001C727.16 117.113 727.582 117.216 728.001 117.308L727.946 117.562ZM739.604 117.631L739.551 117.376C739.972 117.289 740.395 117.19 740.81 117.083L740.875 117.334C740.457 117.443 740.029 117.542 739.604 117.631ZM730.517 118.002C730.088 117.95 729.654 117.885 729.226 117.813L729.27 117.557C729.694 117.629 730.124 117.692 730.549 117.744L730.517 118.002ZM737.028 118.04L736.998 117.782C737.426 117.735 737.856 117.676 738.28 117.609L738.321 117.866C737.893 117.933 737.458 117.992 737.028 118.04ZM733.118 118.199C732.686 118.187 732.247 118.164 731.816 118.131L731.836 117.872C732.263 117.904 732.697 117.927 733.127 117.939L733.118 118.199ZM734.424 118.207L734.42 117.947C734.85 117.939 735.284 117.922 735.711 117.895L735.727 118.154C735.297 118.182 734.858 118.199 734.424 118.207Z" fill="#9192FF"/>
<path d="M623.167 51.6351C622.741 51.5977 622.308 51.5738 621.88 51.5665L621.884 51.3066C622.319 51.315 622.758 51.3378 623.19 51.3763L623.167 51.6351ZM619.306 51.7037L619.274 51.4459C619.704 51.3929 620.142 51.3534 620.576 51.3306L620.59 51.5894C620.162 51.6133 619.73 51.6507 619.306 51.7037ZM625.711 52.0446C625.294 51.9469 624.869 51.8627 624.446 51.7941L624.488 51.5374C624.916 51.607 625.348 51.6923 625.771 51.7921L625.711 52.0446ZM616.779 52.2068L616.71 51.9563C617.128 51.8409 617.556 51.7401 617.983 51.6549L618.033 51.9095C617.613 51.9937 617.191 52.0935 616.779 52.2068ZM628.171 52.817C627.773 52.659 627.363 52.5145 626.954 52.3866L627.032 52.1382C627.447 52.2681 627.862 52.4157 628.267 52.5748L628.171 52.817ZM614.352 53.0664L614.247 52.8294C614.645 52.6548 615.053 52.4937 615.462 52.3482L615.549 52.5935C615.146 52.7359 614.743 52.8949 614.352 53.0664ZM630.495 53.9354C630.124 53.7223 629.739 53.5196 629.353 53.3346L629.466 53.0997C629.858 53.2889 630.247 53.4936 630.625 53.7098L630.495 53.9354ZM612.073 54.267L611.936 54.0456C612.304 53.8169 612.686 53.5976 613.07 53.3959L613.191 53.6257C612.813 53.8252 612.436 54.0404 612.073 54.267ZM632.635 55.374C632.297 55.11 631.946 54.8553 631.591 54.6162L631.736 54.4011C632.096 54.6433 632.452 54.9021 632.795 55.1692L632.635 55.374ZM609.988 55.7794L609.821 55.5808C610.153 55.3012 610.499 55.031 610.851 54.7753L611.004 54.9863C610.657 55.2368 610.315 55.505 609.988 55.7794ZM634.547 57.1026C634.251 56.7939 633.939 56.4914 633.622 56.2045L633.796 56.0112C634.118 56.3033 634.434 56.6099 634.735 56.9228L634.547 57.1026ZM608.139 57.5745L607.945 57.402C608.234 57.0777 608.539 56.7606 608.85 56.4581L609.031 56.6442C608.724 56.9425 608.424 57.2554 608.139 57.5745ZM636.194 59.0848C635.945 58.7366 635.68 58.3936 635.406 58.0641L635.606 57.8988C635.883 58.2325 636.152 58.5807 636.405 58.9331L636.194 59.0848ZM606.563 59.6149L606.346 59.4715C606.586 59.1098 606.843 58.7522 607.109 58.4081L607.314 58.5672C607.052 58.906 606.799 59.2584 606.563 59.6149ZM637.541 61.2801C637.344 60.8997 637.131 60.5224 636.907 60.1586L637.129 60.0224C637.355 60.3924 637.572 60.775 637.772 61.1606L637.541 61.2801ZM605.294 61.8602L605.059 61.7489C605.245 61.3571 605.448 60.9652 605.662 60.5868L605.888 60.7147C605.677 61.0878 605.477 61.4735 605.294 61.8602ZM638.56 63.6438C638.419 63.2405 638.262 62.8362 638.093 62.4433L638.332 62.3404C638.503 62.7395 638.663 63.1491 638.805 63.5586L638.56 63.6438ZM604.36 64.2654L604.111 64.1885C604.239 63.7727 604.384 63.357 604.541 62.9516L604.783 63.0462C604.628 63.4453 604.486 63.8559 604.36 64.2654ZM639.228 66.1323C639.147 65.7123 639.05 65.2893 638.939 64.8756L639.19 64.8091C639.303 65.228 639.401 65.6573 639.483 66.0834L639.228 66.1323ZM603.783 66.7767L603.526 66.7372C603.592 66.3069 603.675 65.8755 603.773 65.4525L604.026 65.5107C603.93 65.9275 603.848 66.3537 603.783 66.7767ZM639.533 68.6914C639.513 68.2621 639.477 67.8297 639.427 67.4056L639.685 67.3755C639.736 67.8058 639.772 68.2434 639.793 68.6789L639.533 68.6914ZM603.57 69.3442L603.311 69.341C603.316 68.9066 603.336 68.4669 603.372 68.0355L603.631 68.0563C603.596 68.4825 603.575 68.9159 603.57 69.3442ZM639.767 70.8628L639.508 70.8451C639.538 70.419 639.554 69.9855 639.554 69.5562H639.814C639.814 69.9907 639.798 70.4304 639.767 70.8628ZM603.465 71.9511C603.409 71.5208 603.367 71.0832 603.342 70.6487L603.601 70.6341C603.626 71.0613 603.667 71.4937 603.723 71.9168L603.465 71.9511ZM639.397 73.451L639.143 73.3959C639.234 72.9781 639.311 72.5509 639.371 72.1268L639.629 72.1631C639.567 72.5935 639.489 73.0269 639.397 73.451ZM603.99 74.5123C603.872 74.0934 603.769 73.6662 603.681 73.241L603.936 73.1891C604.022 73.608 604.124 74.029 604.24 74.4416L603.99 74.5123ZM638.659 75.9582L638.416 75.8677C638.566 75.4665 638.703 75.0549 638.824 74.6443L639.073 74.7181C638.951 75.1339 638.811 75.5517 638.659 75.9582ZM604.878 76.9695C604.701 76.5725 604.537 76.165 604.39 75.7576L604.634 75.6692C604.779 76.0704 604.941 76.4727 605.115 76.8635L604.878 76.9695ZM637.567 78.3364L637.339 78.2117C637.546 77.8354 637.741 77.4477 637.92 77.0589L638.156 77.167C637.974 77.562 637.776 77.956 637.567 78.3364ZM606.108 79.273C605.877 78.906 605.656 78.5256 605.451 78.1431L605.681 78.0204C605.882 78.3977 606.1 78.773 606.328 79.1347L606.108 79.273ZM636.146 80.5328L635.938 80.3758C636.196 80.0338 636.445 79.6783 636.677 79.3187L636.895 79.4601C636.66 79.8249 636.407 80.1856 636.146 80.5328ZM607.656 81.3789C607.374 81.0483 607.101 80.7032 606.844 80.354L607.054 80.2001C607.307 80.5442 607.576 80.8851 607.854 81.2115L607.656 81.3789ZM634.427 82.5036L634.244 82.3185C634.547 82.0171 634.844 81.7001 635.126 81.3778L635.321 81.5483C635.036 81.8757 634.735 82.1969 634.427 82.5036ZM609.488 83.2447C609.162 82.9578 608.843 82.6543 608.538 82.3445L608.724 82.1626C609.024 82.4682 609.339 82.7665 609.66 83.0503L609.488 83.2447ZM632.446 84.2093L632.291 84.0004C632.634 83.7447 632.973 83.4734 633.297 83.1948L633.467 83.3912C633.138 83.675 632.795 83.9494 632.446 84.2093ZM611.567 84.8309C611.204 84.5928 610.844 84.3382 610.499 84.0752L610.656 83.8684C610.997 84.1282 611.351 84.3787 611.709 84.6136L611.567 84.8309ZM630.244 85.6146L630.12 85.387C630.496 85.1833 630.869 84.9629 631.23 84.7321L631.37 84.9515C631.004 85.1853 630.625 85.4088 630.244 85.6146ZM613.852 86.1052C613.458 85.9213 613.066 85.7206 612.686 85.5096L612.813 85.282C613.187 85.4909 613.574 85.6884 613.962 85.8693L613.852 86.1052ZM627.864 86.6905L627.774 86.4472C628.175 86.2996 628.576 86.1354 628.966 85.9587L629.073 86.1957C628.678 86.3745 628.271 86.5418 627.864 86.6905ZM616.298 87.0376C615.881 86.9129 615.464 86.7705 615.058 86.6156L615.15 86.3724C615.551 86.5252 615.962 86.6655 616.372 86.7892L616.298 87.0376ZM625.352 87.4139L625.298 87.1603C625.717 87.0719 626.138 86.967 626.549 86.8485L626.621 87.0979C626.203 87.2185 625.776 87.3245 625.352 87.4139ZM618.849 87.6083C618.418 87.5438 617.986 87.4638 617.563 87.3692L617.62 87.1156C618.036 87.2091 618.463 87.2881 618.887 87.3515L618.849 87.6083ZM622.762 87.7694L622.745 87.5106C623.172 87.4825 623.604 87.4389 624.028 87.3806L624.063 87.6384C623.633 87.6977 623.195 87.7413 622.762 87.7694ZM621.455 87.8079C621.019 87.8058 620.579 87.7871 620.148 87.7548L620.168 87.495C620.593 87.5282 621.026 87.5459 621.456 87.548L621.455 87.8079Z" fill="#9192FF"/>
<path d="M694.647 17.2274C692.336 17.2274 690.457 19.1067 690.457 21.4174C690.457 23.727 692.336 25.6074 694.647 25.6074C696.958 25.6074 698.837 23.727 698.837 21.4174C698.837 19.1067 696.958 17.2274 694.647 17.2274ZM694.647 25.8018C692.229 25.8018 690.262 23.8351 690.262 21.4174C690.262 18.9996 692.229 17.0319 694.647 17.0319C697.065 17.0319 699.032 18.9996 699.032 21.4174C699.032 23.8351 697.065 25.8018 694.647 25.8018Z" fill="#9192FF"/>
<path d="M740.267 41.5422V120.559C740.267 122.203 738.934 123.537 737.292 123.537H622.464C620.819 123.537 619.486 122.203 619.486 120.559V41.5422C619.486 39.8978 620.819 38.5642 622.464 38.5642H737.292C738.934 38.5642 740.267 39.8978 740.267 41.5422Z" fill="white"/>
<path d="M622.465 38.6941C620.895 38.6941 619.617 39.9726 619.617 41.5421V120.559C619.617 122.129 620.895 123.407 622.465 123.407H737.293C738.862 123.407 740.139 122.129 740.139 120.559V41.5421C740.139 39.9726 738.862 38.6941 737.293 38.6941H622.465ZM737.293 123.667H622.465C620.752 123.667 619.357 122.273 619.357 120.559V41.5421C619.357 39.8291 620.752 38.4342 622.465 38.4342H737.293C739.005 38.4342 740.398 39.8291 740.398 41.5421V120.559C740.398 122.273 739.005 123.667 737.293 123.667Z" fill="#9192FF"/>
<path d="M740.268 41.5421V46.23H619.486V41.5421C619.486 39.8977 620.819 38.5641 622.464 38.5641H737.292C738.934 38.5641 740.268 39.8977 740.268 41.5421Z" fill="white"/>
<path d="M619.617 46.1H740.139V41.542C740.139 39.9725 738.862 38.6939 737.293 38.6939H622.465C620.895 38.6939 619.617 39.9725 619.617 41.542V46.1ZM740.399 46.3599H619.357V41.542C619.357 39.829 620.752 38.4341 622.465 38.4341H737.293C739.005 38.4341 740.399 39.829 740.399 41.542V46.3599Z" fill="#9192FF"/>
<path d="M627.579 42.3974C627.579 43.1624 626.958 43.783 626.193 43.783C625.427 43.783 624.807 43.1624 624.807 42.3974C624.807 41.6323 625.427 41.0118 626.193 41.0118C626.958 41.0118 627.579 41.6323 627.579 42.3974Z" fill="#3335CF"/>
<path d="M631.476 41.0118C630.712 41.0118 630.09 41.6334 630.09 42.3974C630.09 43.1614 630.712 43.783 631.476 43.783C632.24 43.783 632.862 43.1614 632.862 42.3974C632.862 41.6334 632.24 41.0118 631.476 41.0118Z" fill="#3335CF"/>
<path d="M636.761 41.2717C636.14 41.2717 635.635 41.7768 635.635 42.3974C635.635 43.0179 636.14 43.5231 636.761 43.5231C637.382 43.5231 637.887 43.0179 637.887 42.3974C637.887 41.7768 637.382 41.2717 636.761 41.2717ZM636.761 43.783C635.997 43.783 635.375 43.1614 635.375 42.3974C635.375 41.6334 635.997 41.0118 636.761 41.0118C637.525 41.0118 638.147 41.6334 638.147 42.3974C638.147 43.1614 637.525 43.783 636.761 43.783Z" fill="#9192FF"/>
<path d="M645.104 41.1147C644.396 41.1147 643.82 41.6895 643.82 42.3974C643.82 43.1053 644.396 43.6801 645.104 43.6801H670.862C671.57 43.6801 672.145 43.1053 672.145 42.3974C672.145 41.6895 671.57 41.1147 670.862 41.1147H645.104ZM670.862 43.9399H645.104C644.253 43.9399 643.561 43.2477 643.561 42.3974C643.561 41.5461 644.253 40.8549 645.104 40.8549H670.862C671.713 40.8549 672.405 41.5461 672.405 42.3974C672.405 43.2477 671.713 43.9399 670.862 43.9399Z" fill="#9192FF"/>
<path d="M703.62 83.0005C703.62 95.4427 693.535 105.531 681.093 105.531C668.65 105.531 658.562 95.4427 658.562 83.0005C658.562 71.3275 667.442 61.7282 678.813 60.5848L679.565 67.9784C671.945 68.7445 665.997 75.1787 665.997 83.0005C665.997 91.34 672.756 98.0985 681.093 98.0985C689.429 98.0985 696.186 91.34 696.186 83.0005C696.186 81.5453 695.98 80.1399 695.595 78.8095L702.739 76.7462C703.313 78.7315 703.62 80.8312 703.62 83.0005Z" fill="#9192FF"/>
<path d="M699.281 83.0004C699.281 93.0466 691.137 101.191 681.091 101.191C671.044 101.191 662.9 93.0466 662.9 83.0004C662.9 72.9541 671.044 64.81 681.091 64.81C691.137 64.81 699.281 72.9541 699.281 83.0004Z" fill="white"/>
<path d="M681.091 101.191C671.044 101.191 662.9 93.0466 662.9 83.0004C662.9 72.9541 671.044 64.81 681.091 64.81C691.137 64.81 699.281 72.9541 699.281 83.0004C699.281 93.0466 691.137 101.191 681.091 101.191Z" fill="#E8E8FF"/>
<path d="M693.973 83.0006C693.973 90.1187 688.205 95.8887 681.089 95.8887C673.974 95.8887 668.205 90.1187 668.205 83.0006C668.205 75.8835 673.974 70.1125 681.089 70.1125C688.205 70.1125 693.973 75.8835 693.973 83.0006Z" fill="white"/>
<path d="M761.29 53.1184H712.279V23.1501H761.29V53.1184Z" fill="white"/>
<path d="M712.408 52.9884H761.159V23.28H712.408V52.9884ZM761.419 53.2483H712.148V23.0201H761.419V53.2483Z" fill="#9192FF"/>
<path d="M721.268 48.76H718.447V43.5794H721.268V48.76Z" fill="#D1D1FF"/>
<path d="M726.913 48.76H724.092V41.2126H726.913V48.76Z" fill="#D1D1FF"/>
<path d="M732.552 48.76H729.73V43.147H732.552V48.76Z" fill="#D1D1FF"/>
<path d="M738.196 48.76H735.375V39.1981H738.196V48.76Z" fill="#D1D1FF"/>
<path d="M743.836 48.76H741.016V36.6723H743.836V48.76Z" fill="#D1D1FF"/>
<path d="M749.477 48.76H746.656V33.0644H749.477V48.76Z" fill="#D1D1FF"/>
<path d="M755.12 48.76H752.299V27.5096H755.12V48.76Z" fill="#D1D1FF"/>
<path d="M720.689 32.5696H718.447V30.0312H720.689V32.5696Z" fill="#D1D1FF"/>
<path d="M739.336 31.8555H724.154V31.2058H739.336V31.8555Z" fill="#D1D1FF"/>
<path d="M717.189 68.3132L714.085 59.7388C710.578 61.008 708.072 64.3675 708.072 68.3132C708.072 73.3483 712.154 77.4302 717.189 77.4302C722.225 77.4302 726.306 73.3483 726.306 68.3132C726.306 66.7977 725.935 65.3705 725.281 64.1128L717.189 68.3132Z" fill="#EBEBFF"/>
<path d="M726.494 60.8643C724.975 57.9434 721.923 55.9467 718.403 55.9467C717.312 55.9467 716.268 56.139 715.299 56.4903L718.403 65.0647L726.494 60.8643Z" fill="#9192FF"/>
<path d="M730.094 118.059H708.525V97.5298H730.094V118.059Z" fill="#EBEBFF"/>
<path d="M723.988 103.854H711.904V102.987H723.988V103.854Z" fill="white"/>
<path d="M723.988 106.452H711.904V105.585H723.988V106.452Z" fill="white"/>
<path d="M647.763 89.9937H629.008V58.2905H647.763V89.9937Z" fill="#EBEBFF"/>
<path d="M644.167 74.1423H631.867V62.882H644.167V74.1423Z" fill="white"/>
<path d="M644.079 74.238L631.779 62.9777L631.955 62.7854L644.255 74.0468L644.079 74.238Z" fill="#EBEBFF"/>
<path d="M631.955 74.238L631.779 74.0468L644.079 62.7854L644.255 62.9777L631.955 74.238Z" fill="#EBEBFF"/>
<path d="M595.125 99.5046H638.024V71.239H595.125V99.5046Z" fill="white"/>
<path d="M595.248 99.381H637.899V71.3627H595.248V99.381ZM638.147 99.6284H595V71.1153H638.147V99.6284Z" fill="#9192FF"/>
<path d="M599.645 92.6787L602.416 87.4815L608.133 92.8523L611.945 81.7645L619.048 89.5604L623.725 87.6551L632.214 76.5673" fill="white"/>
<path d="M608.192 93.0852L602.453 87.6925L599.761 92.7401L599.531 92.6185L602.383 87.2705L608.077 92.6195L611.894 81.5151L619.084 89.4066L623.645 87.5481L632.112 76.4884L632.318 76.6464L623.808 87.7622L619.014 89.7153L618.953 89.6478L611.998 82.0141L608.192 93.0852Z" fill="#9192FF"/>
<path d="M603.152 87.4607C603.152 87.8547 602.832 88.1748 602.437 88.1748C602.043 88.1748 601.723 87.8547 601.723 87.4607C601.723 87.0657 602.043 86.7456 602.437 86.7456C602.832 86.7456 603.152 87.0657 603.152 87.4607Z" fill="#9192FF"/>
<path d="M608.804 92.7224C608.804 93.1174 608.484 93.4375 608.09 93.4375C607.695 93.4375 607.375 93.1174 607.375 92.7224C607.375 92.3274 607.695 92.0083 608.09 92.0083C608.484 92.0083 608.804 92.3274 608.804 92.7224Z" fill="#9192FF"/>
<path d="M612.701 81.8081C612.701 82.2031 612.381 82.5222 611.986 82.5222C611.591 82.5222 611.271 82.2031 611.271 81.8081C611.271 81.4131 611.591 81.093 611.986 81.093C612.381 81.093 612.701 81.4131 612.701 81.8081Z" fill="#9192FF"/>
<path d="M625.669 76.0051H607.479V75.7453H625.669V76.0051Z" fill="#9192FF"/>
<path d="M697.121 139.562C696.351 134.523 697.409 129.224 700.052 124.866C702.696 120.507 706.906 117.121 711.73 115.475C708.998 117.386 707.331 120.478 706.167 123.602C705.004 126.728 704.241 130.007 702.804 133.017C701.369 136.027 699.106 138.839 695.967 139.965L697.121 139.562Z" fill="#9192FF"/>
<path d="M696.366 139.603C696.257 133.779 695.125 127.976 693.039 122.537C692.299 120.605 691.41 118.678 689.966 117.197C688.522 115.717 686.421 114.742 684.385 115.104C686.92 117.002 688.234 120.124 688.974 123.204C689.714 126.285 689.999 129.481 691.04 132.473C692.082 135.464 694.074 138.348 697.057 139.417L696.366 139.603Z" fill="#9192FF"/>
<path d="M695.968 139.986C694.518 136.081 692.942 132.078 690.026 129.103C687.11 126.129 682.49 124.427 678.672 126.09C681.765 126.791 684.598 128.582 686.56 131.074C687.998 132.901 688.965 135.067 690.444 136.862C691.923 138.656 694.18 140.101 696.465 139.673L695.968 139.986Z" fill="#D1D1FF"/>
<path d="M695.505 139.719C694.911 135.433 694.317 131.079 694.942 126.799C695.568 122.518 697.593 118.244 701.22 115.886C699.212 117.854 698.542 120.835 698.541 123.647C698.54 126.459 699.11 129.244 699.157 132.056C699.205 134.867 698.647 137.853 696.746 139.925L695.505 139.719Z" fill="#D1D1FF"/>
<path d="M697.512 139.094C698.901 135.553 700.383 131.876 703.213 129.334C705.031 127.702 707.346 126.631 709.767 126.304C708.069 127.658 707.007 129.642 706.126 131.627C705.244 133.611 704.483 135.677 703.207 137.434C701.93 139.191 700.014 140.635 697.844 140.729L697.512 139.094Z" fill="#D1D1FF"/>
<path d="M704.571 149.87H688.96L686.553 137.861H706.977L704.571 149.87Z" fill="white"/>
<path d="M689.066 149.74H704.464L706.819 137.991H686.712L689.066 149.74ZM704.676 150H688.853L686.395 137.731H707.136L704.676 150Z" fill="#9192FF"/>
<path d="M732.518 142.649V149.87H723.152L727.44 146.372L727.666 141.971L732.518 142.649Z" fill="#D1D1FF"/>
<path d="M729.139 148.167L727.352 146.466L727.531 146.278L729.319 147.978L729.139 148.167Z" fill="#1B1B43"/>
<path d="M731.611 144.824H728.406V144.565H731.611V144.824Z" fill="#1B1B43"/>
<path d="M743.462 142.987L743.801 149.87H734.436L738.385 146.485V142.31L743.462 142.987Z" fill="#D1D1FF"/>
<path d="M739.753 147.867L738.299 146.582L738.47 146.388L739.925 147.673L739.753 147.867Z" fill="#1B1B43"/>
<path d="M742.612 144.955H739.451V144.695H742.612V144.955Z" fill="#1B1B43"/>
<path d="M733.459 101.141C733.62 115.53 734.813 129.689 737.094 143.607H744.984C743.343 132.963 742.601 120.038 743.519 102.901L737.821 98.2335L733.459 101.141Z" fill="#FE5B52"/>
<path d="M727.223 103.044L723.652 118.925C722.794 122.741 722.734 126.693 723.477 130.532L725.985 143.505H733.876L731.489 126.475L737.199 100.517L727.223 103.044Z" fill="#FE5B52"/>
<path d="M733.992 118.262C733.972 117.934 733.523 110.631 733.476 109.706L731.414 108.956L731.502 108.712L733.732 109.522V109.614C733.732 109.774 734.072 115.33 734.252 118.246L733.992 118.262Z" fill="#BE443D"/>
<path d="M751.076 67.1905L751.498 66.1843C751.498 66.1843 749.973 62.9683 750.459 62.5462C750.947 62.1232 751.726 63.3258 751.726 63.3258C751.726 63.3258 751.498 59.4279 752.246 59.3946C752.876 59.3676 752.831 60.4996 752.895 62.1887C752.895 62.1887 753.285 61.669 754.002 62.2063C754.325 61.669 755.007 62.0265 755.202 62.3508C755.43 62.091 756.371 62.1564 756.241 63.2603C756.076 64.6615 755.43 67.256 755.43 67.256L753.351 68.9773L751.076 67.1905Z" fill="#FFBC96"/>
<path d="M734.381 80.6386L737.542 80.6137C743.086 80.1189 747.418 75.615 747.418 75.615L751.076 67.1903L755.43 67.2557L752.875 77.1554C752.508 78.5774 751.717 79.8549 750.608 80.8164L741.527 88.6943L734.381 80.6386Z" fill="#3335CF"/>
<path d="M725.717 87.8067L727.222 103.044L743.519 102.901L742.957 84.5366L734.382 80.6387L728.447 83.151L725.717 87.8067Z" fill="#3335CF"/>
<path d="M715.626 89.287C715.36 89.05 715.025 88.9066 714.67 88.8775C712.869 88.7267 707.236 88.2922 707.291 88.7288C707.356 89.2485 711.644 91.1975 711.644 91.1975C712.56 92.2297 713.478 93.2618 714.395 94.293L716.915 90.4304L715.626 89.287Z" fill="#FFBC96"/>
<path d="M727.91 82.1052C726.749 82.3079 725.752 83.0449 725.217 84.0958L720.414 93.536L716.914 90.4302L714.395 94.2928C714.701 94.6379 715.008 94.983 715.313 95.3281C716.674 96.8592 718.261 98.9173 720.386 99.3632C721.468 99.5898 722.476 99.1407 723.252 98.3955C723.821 97.8498 724.33 97.1752 724.735 96.4985L726.651 93.3417L732.757 81.2581L727.91 82.1052Z" fill="#3335CF"/>
<path d="M726.499 97.1963L725.588 87.8194L725.846 87.7945L726.758 97.1713L726.499 97.1963Z" fill="#D1D1FF"/>
<path d="M743.054 87.3305L741.527 88.6943L743.152 91.3906L743.054 87.3305Z" fill="#1B1B43"/>
<path d="M753.46 64.1272C752.847 64.1272 752.8 63.3237 752.799 62.1886H752.994C752.994 63.5243 753.103 63.9318 753.46 63.9318C753.532 63.9318 753.592 63.9037 753.647 63.8445C753.821 63.6584 753.888 63.2239 753.909 62.8321C753.895 62.5504 753.902 62.304 753.906 62.2021L754.101 62.199C754.102 62.2229 754.12 62.4859 754.105 62.8092C754.132 63.3383 754.221 63.8611 754.397 63.9141C754.496 63.9443 754.581 63.9307 754.659 63.8756C754.869 63.7239 754.988 63.2956 755.049 62.9121C755.054 62.7478 755.072 62.5576 755.106 62.3362L755.301 62.3539C755.3 62.3757 755.292 62.5982 755.251 62.8778C755.237 63.2832 755.283 63.6761 755.447 63.7447C755.568 63.7956 755.669 63.7956 755.753 63.7436C755.976 63.6075 756.057 63.148 756.07 62.9828L756.264 62.9973C756.262 63.0254 756.208 63.6937 755.855 63.9099C755.714 63.9952 755.552 64.0004 755.371 63.9245C755.326 63.9048 755.182 63.8216 755.102 63.5181C755.025 63.7353 754.919 63.9287 754.773 64.0336C754.645 64.1262 754.5 64.149 754.341 64.1012C754.17 64.0492 754.064 63.831 753.999 63.5576C753.952 63.727 753.884 63.8767 753.789 63.9775C753.697 64.0763 753.587 64.1272 753.46 64.1272Z" fill="#D28572"/>
<path d="M733.006 84.3359C731.621 84.4481 730.41 83.416 730.298 82.0335L730.27 81.6832L729.875 76.7822L732.928 76.538L734.887 76.3789L735.308 81.6281C735.42 83.0137 734.388 84.2247 733.006 84.3359Z" fill="#FFBC96"/>
<path d="M733.905 78.1908C732.954 79.8664 731.592 81.0722 730.27 81.6833L729.875 76.7824L732.928 76.5381L733.905 78.1908Z" fill="#1B1B43"/>
<path d="M734.901 73.0581L734.295 78.1701C734.295 78.1701 732.346 80.0328 729.488 79.9445C728.446 79.9133 727.833 78.9258 727.474 77.6712C727.326 77.1463 727.223 76.5767 727.149 76.0081C726.91 74.1267 727.019 72.2785 727.019 72.2785L731.437 70.8077L734.901 73.0581Z" fill="#FFBC96"/>
<path d="M734.229 75.16C733.769 73.5208 732.942 72.6955 731.825 72.5177C728.274 74.4459 725.968 73.2973 724.289 71.154C728.404 71.9554 730.201 66.1085 734.143 70.0064C737.066 70.8941 737.012 73.6871 735.356 75.9614L734.229 75.16Z" fill="#1B1B43"/>
<path d="M736.065 75.7866C735.914 76.5578 735.25 77.0776 734.581 76.9466C733.912 76.8167 733.491 76.0849 733.642 75.3136C733.793 74.5413 734.458 74.0226 735.126 74.1526C735.796 74.2835 736.216 75.0153 736.065 75.7866Z" fill="#FFBC96"/>
<path d="M735.308 75.0206C735.104 75.0549 734.972 75.2098 734.873 75.3844C734.777 75.5632 734.713 75.7607 734.675 75.9738L734.599 75.979C734.567 75.8647 734.566 75.743 734.585 75.6266C734.605 75.5092 734.645 75.3948 734.705 75.2899C734.765 75.1849 734.844 75.0872 734.951 75.0175C735.055 74.9468 735.193 74.9115 735.313 74.9448L735.308 75.0206Z" fill="#1B1B43"/>
<path d="M728.082 75.3659C728.082 75.5873 727.976 75.7661 727.843 75.7661C727.711 75.7661 727.605 75.5873 727.605 75.3659C727.605 75.1445 727.711 74.9657 727.843 74.9657C727.976 74.9657 728.082 75.1445 728.082 75.3659Z" fill="#1B1B43"/>
<path d="M730.049 75.2023C730.049 75.4424 729.933 75.6357 729.791 75.6357C729.649 75.6357 729.533 75.4424 729.533 75.2023C729.533 74.9622 729.649 74.7678 729.791 74.7678C729.933 74.7678 730.049 74.9622 730.049 75.2023Z" fill="#1B1B43"/>
<path d="M728.622 75.6908C728.623 75.7678 728.592 75.8436 728.555 75.9081C728.516 75.9725 728.47 76.0276 728.423 76.0786C728.331 76.1794 728.245 76.2709 728.225 76.3675C728.199 76.4652 728.238 76.5619 728.313 76.6586C728.388 76.7542 728.49 76.8405 728.589 76.9361L728.547 76.9995C728.421 76.9465 728.295 76.8789 728.186 76.7739C728.132 76.7209 728.084 76.6565 728.052 76.5775C728.022 76.4975 728.014 76.406 728.036 76.3228C728.058 76.2376 728.102 76.1648 728.151 76.1077C728.201 76.0505 728.255 76.0027 728.306 75.959C728.408 75.8717 728.505 75.7958 728.546 75.6794L728.622 75.6908Z" fill="#1B1B43"/>
<path d="M728.809 77.8561C729.083 77.7948 729.338 77.7085 729.564 77.5661C729.679 77.4965 729.786 77.4154 729.889 77.327C729.993 77.2377 730.09 77.142 730.193 77.0433L730.254 77.088C730.128 77.3489 729.923 77.5776 729.665 77.7324C729.409 77.8873 729.104 77.9611 728.813 77.932L728.809 77.8561Z" fill="#1B1B43"/>
<path d="M729.477 74.1266C729.421 74.4197 730.343 74.5143 730.508 74.5434C730.645 74.5673 730.84 74.5829 730.869 74.376C730.904 74.1193 730.625 74.0923 730.467 74.058C730.316 74.0247 729.53 73.8501 729.477 74.1266Z" fill="#1B1B43"/>
<path d="M728.196 74.3075C728.19 74.5903 727.458 74.6194 727.323 74.636C727.213 74.6495 727.059 74.6505 727.071 74.452C727.085 74.2046 727.307 74.1973 727.436 74.1755C727.558 74.1537 728.2 74.0393 728.196 74.3075Z" fill="#1B1B43"/>
<path d="M731.637 77.0173C731.117 77.0173 730.695 76.5953 730.695 76.0746C730.695 75.5548 731.117 75.1328 731.637 75.1328C732.158 75.1328 732.58 75.5548 732.58 76.0746C732.58 76.5953 732.158 77.0173 731.637 77.0173Z" fill="#FFA988"/>
<path d="M727.476 77.6711C727.327 77.1462 727.224 76.5766 727.15 76.008C727.557 76.1141 727.855 76.4831 727.855 76.9196C727.855 77.2294 727.708 77.5017 727.476 77.6711Z" fill="#FFA988"/>
<path d="M660.712 108.491H642.635V107.274H660.712V108.491Z" fill="#9192FF"/>
<path d="M660.712 107.274H645.445L651.227 93.1774H666.494L660.712 107.274Z" fill="white"/>
<path d="M645.639 107.145H660.625L666.301 93.3076H651.315L645.639 107.145ZM660.8 107.405H645.252L651.141 93.0477H666.688L660.8 107.405Z" fill="#9192FF"/>
<path d="M659.393 106.09H647.395L651.938 95.0101H663.936L659.393 106.09Z" fill="#EBEBFF"/>
<path d="M654.635 149.936H654.375V108.881H654.635V149.936Z" fill="#1B1B43"/>
<path d="M669.084 110.812H639.922V108.492H669.084V110.812Z" fill="#D1D1FF"/>
<path d="M616.389 149.936H616.129V126.126H616.389V149.936Z" fill="#1B1B43"/>
<path d="M623.39 127.23H609.127C609.43 125.782 610.706 124.744 612.186 124.744H620.331C621.811 124.744 623.087 125.782 623.39 127.23Z" fill="#D1D1FF"/>
<path d="M619.962 149.867H612.557C612.557 148.967 613.287 148.236 614.187 148.236H618.331C619.232 148.236 619.962 148.967 619.962 149.867Z" fill="#D1D1FF"/>
<path d="M627.263 90.7983C627.628 91.3221 628.151 92.0643 628.209 92.714C628.293 93.6578 626.783 92.9957 626.766 93.0778L627.263 90.7983Z" fill="#D28572"/>
<path d="M620.184 98.9041H624.957V91.9086H620.184V98.9041Z" fill="#FFBC96"/>
<path d="M624.958 93.108V98.1025C623.453 97.1577 622.153 95.7544 621.029 94.1339L624.958 93.108Z" fill="#1B1B43"/>
<path d="M627.641 91.2223C627.492 93.639 626.562 96.3728 624.025 95.6982C622.032 95.1691 619.838 93.4904 619.838 91.0695C619.838 88.6486 621.514 86.6851 623.581 86.6851C624.873 86.6851 626.499 87.3129 627.265 88.5239C627.724 89.2505 627.706 90.1683 627.641 91.2223Z" fill="#FFBC96"/>
<path d="M623.416 90.5218C624.091 88.7287 625.638 88.5531 625.638 88.5531C625.638 88.5531 629.22 92.0955 628.998 88.4356C628.822 85.5262 625.979 85.8017 625.979 85.8017C624.59 83.9941 622.363 84.7009 621.55 85.7497C620.738 86.7975 621.026 86.1946 619.114 86.8764C617.201 87.5573 618.223 90.4657 617.882 90.6756C615.34 90.6756 615.812 93.1911 615.812 93.1911L621.829 95.1536L623.279 91.1974L623.416 90.5218Z" fill="#1B1B43"/>
<path d="M624.043 90.7266C624.415 91.3711 624.314 92.1257 623.818 92.4126C623.322 92.6985 622.618 92.4085 622.246 91.764C621.874 91.1196 621.975 90.3649 622.471 90.0791C622.967 89.7922 623.671 90.0822 624.043 90.7266Z" fill="#FFBC96"/>
<path d="M623.276 91.5032C623.192 91.34 623.12 91.1809 623.006 91.0697C622.951 91.0136 622.886 90.9689 622.812 90.9284C622.738 90.8889 622.656 90.8556 622.572 90.8161L622.585 90.7475C622.681 90.7423 622.777 90.7537 622.872 90.786C622.967 90.8171 623.059 90.8722 623.132 90.9471C623.204 91.0219 623.256 91.1113 623.289 91.2038C623.323 91.2963 623.34 91.3909 623.343 91.4865L623.276 91.5032Z" fill="#1B1B43"/>
<path d="M620.819 82.7934C621.935 82.7404 622.886 83.6769 622.943 84.8858C623 86.0937 622.142 87.1165 621.027 87.1695C619.911 87.2225 618.96 86.286 618.903 85.0771C618.846 83.8682 619.704 82.8454 620.819 82.7934Z" fill="#1B1B43"/>
<path d="M625.566 93.502C625.064 93.502 624.656 93.0945 624.656 92.5924C624.656 92.0904 625.064 91.6829 625.566 91.6829C626.068 91.6829 626.475 92.0904 626.475 92.5924C626.475 93.0945 626.068 93.502 625.566 93.502Z" fill="#FFA988"/>
<path d="M629.137 116.11L613.85 114.161L616.731 98.9673C616.934 97.904 617.641 97.0017 618.626 96.5558C619.447 96.1816 620.385 96.1577 621.227 96.4872L626.437 98.8031C627.44 99.248 628.132 100.191 628.256 101.28L628.55 106.243L628.885 111.869L629.137 116.11Z" fill="#FFA121"/>
<path d="M643.127 105.196L647.174 104.006C647.466 103.92 647.779 103.967 648.032 104.135C649.14 104.871 652.088 106.951 651.343 107.801C650.972 108.227 647.588 107.231 647.588 107.231L642.689 108.598L643.127 105.196Z" fill="#FFBC96"/>
<path d="M628.885 111.869C627.612 110.247 626.856 108.106 626.604 105.456L628.55 106.243L628.885 111.869Z" fill="#1B1B43"/>
<path d="M625.977 98.613L626.586 98.875C627.84 99.4155 628.964 100.219 629.882 101.229L634.899 106.755L643.128 105.196L644.211 109.613L633.871 112.845C633.054 112.991 632.22 112.709 631.659 112.098L624.201 103.983L625.977 98.613Z" fill="#FFA121"/>
<path d="M634.802 106.843C634.777 106.816 632.33 104.151 630.21 101.774C628.114 99.4247 624.919 98.2824 624.887 98.2709L624.973 98.0256C625.006 98.0371 628.262 99.2002 630.404 101.601C632.522 103.976 634.969 106.641 634.993 106.667L634.802 106.843Z" fill="#1B1B43"/>
<path d="M631.565 112.188L624.627 105.026L624.814 104.846L631.752 112.007L631.565 112.188Z" fill="#1B1B43"/>
<path d="M628.583 139.091L625.285 145.516L633.617 149.792L631.4 144.723L633.208 140.705L628.583 139.091Z" fill="#D1D1FF"/>
<path d="M629.071 145.544L628.998 145.294L631.365 144.598L631.439 144.848L629.071 145.544Z" fill="#1B1B43"/>
<path d="M633.772 143.313L626.225 140.497L631.393 124.415C632.282 122.034 635.018 120.856 637.506 121.784H637.506C639.994 122.711 641.29 125.395 640.401 127.777L633.772 143.313Z" fill="#26289C"/>
<path d="M641.092 142.226L641.829 149.87H651.194L646.906 146.372L645.899 141.966L641.092 142.226Z" fill="#D1D1FF"/>
<path d="M644.749 147.71L644.623 147.482L646.842 146.258L646.968 146.485L644.749 147.71Z" fill="#1B1B43"/>
<path d="M647.848 143.136L639.662 144.435L634.057 127.951L633.035 124.945L619.115 125.057C615.672 125.135 612.933 122.185 613.27 118.755L613.85 114.161L627.623 115.894L636.674 116.889C640.442 117.539 641.598 119.821 642.383 122.752L647.848 143.136Z" fill="#3335CF"/>
<path d="M634.056 127.951L633.035 124.945L634.919 124.881C635.093 126.014 634.644 127.279 634.056 127.951Z" fill="#1B1B43"/>
<path d="M758.291 150H600.555V149.74H758.291V150Z" fill="#1B1B43"/>
<defs>
<linearGradient id="paint0_linear_1284_13175" x1="-44.031" y1="-26.2499" x2="852.915" y2="197.326" gradientUnits="userSpaceOnUse">
<stop stop-color="#9192FF"/>
<stop offset="1" stop-color="#1D2671"/>
</linearGradient>
</defs>
</svg>
