<svg xmlns="http://www.w3.org/2000/svg" xmlns:xlink="http://www.w3.org/1999/xlink" viewBox="0 0 1514.9 325.12"><defs><style>.cls-1{fill:#231f20;}.cls-2{clip-path:url(#clip-path);}.cls-3{fill:#fff;}.cls-4{fill:#f7901e;}</style><clipPath id="clip-path"><path class="cls-1" d="M105.9,10.17a162.59,162.59,0,0,0,0,304.78V10.17Z"/></clipPath></defs><g id="Layer_2" data-name="Layer 2"><g id="Layer_1-2" data-name="Layer 1"><path class="cls-1" d="M461.5,233.85V104.73H402.11V77.4H548.23v27.33h-59.4V233.85Z"/><path class="cls-1" d="M634.09,233.85a74.09,74.09,0,0,1-30.23-6.13,74.45,74.45,0,0,1-40-42.08,86.37,86.37,0,0,1-5.7-31.63,83.64,83.64,0,0,1,5.7-31.42,69.78,69.78,0,0,1,15.92-24.21,71.79,71.79,0,0,1,24.11-15.49,81.45,81.45,0,0,1,30.23-5.49h38.09A83.83,83.83,0,0,1,703.28,83a69.29,69.29,0,0,1,39.92,39.92,83.63,83.63,0,0,1,5.59,31.1,86.37,86.37,0,0,1-5.7,31.63,75.68,75.68,0,0,1-15.93,25.29A74.74,74.74,0,0,1,703,227.72a75.92,75.92,0,0,1-30.77,6.13Zm38.09-27.33a49.64,49.64,0,0,0,19.8-3.88,46.75,46.75,0,0,0,25.82-26.89,56.27,56.27,0,0,0,3.66-20.45A55.41,55.41,0,0,0,717.8,135,46,46,0,0,0,692,108.5a51,51,0,0,0-19.8-3.77H634.09a49.59,49.59,0,0,0-19.47,3.77,46,46,0,0,0-15.39,10.43,47.75,47.75,0,0,0-10.11,15.93,54.91,54.91,0,0,0-3.66,20.44,56.06,56.06,0,0,0,3.66,20.45A48.44,48.44,0,0,0,599.23,192a46.44,46.44,0,0,0,15.39,10.65,48.25,48.25,0,0,0,19.47,3.88Z"/><path class="cls-1" d="M910.83,77.4h26.69v87.37q0,18.07-4.74,31.53a51.71,51.71,0,0,1-14.84,22.27q-10.12,8.82-26.15,13.13T853,236q-22.61,0-38.63-4.3t-26.15-13.13a51.82,51.82,0,0,1-14.85-22.27q-4.74-13.45-4.73-31.53V77.4h28.19v87.37a62.37,62.37,0,0,0,2.9,20.23,30.15,30.15,0,0,0,9.47,13.77q6.57,5.39,17.54,7.86t27.12,2.47q16.14,0,27.11-2.47t17.54-7.86A30.22,30.22,0,0,0,907.93,185q2.91-8.4,2.9-20.23Z"/><path class="cls-1" d="M1033.71,233.85a74.09,74.09,0,0,1-30.23-6.13,74.45,74.45,0,0,1-40-42.08,86.37,86.37,0,0,1-5.7-31.63,83.64,83.64,0,0,1,5.7-31.42,69.78,69.78,0,0,1,15.92-24.21,71.79,71.79,0,0,1,24.11-15.49,81.45,81.45,0,0,1,30.23-5.49h84.79v27.33h-84.79a49.59,49.59,0,0,0-19.47,3.77,46,46,0,0,0-15.39,10.43,47.75,47.75,0,0,0-10.11,15.93,54.91,54.91,0,0,0-3.66,20.44,56.06,56.06,0,0,0,3.66,20.45A48.44,48.44,0,0,0,998.85,192a46.44,46.44,0,0,0,15.39,10.65,48.25,48.25,0,0,0,19.47,3.88h84.79v27.33Z"/><path class="cls-1" d="M1303.78,233.85l-23.45-39.38h-74l12.91-22.17h48l-34.86-58.53-71,120.08h-31.2l90-149.78a20.88,20.88,0,0,1,5.6-6.46,12.77,12.77,0,0,1,7.74-2.36,12.3,12.3,0,0,1,7.64,2.36,21.57,21.57,0,0,1,5.49,6.46l90.17,149.78Z"/><path class="cls-1" d="M1378.89,119.36V233.85h-26v-142q0-7.53,3.77-11.95a12.72,12.72,0,0,1,10.22-4.41,13.74,13.74,0,0,1,5.81,1.29,20.92,20.92,0,0,1,5.81,4.31l110.4,109.53V76.11h26V219.43q0,7.74-3.77,12a12.41,12.41,0,0,1-9.79,4.31q-6.67,0-12.48-5.82Z"/><path class="cls-1" d="M105.9,10.17a162.59,162.59,0,0,0,0,304.78V10.17Z"/><g class="cls-2"><circle class="cls-3" cx="115.4" cy="104.5" r="66.86" transform="translate(-8.02 199.41) rotate(-79.72)"/><rect class="cls-1" x="99.73" y="30.85" width="20.36" height="149.34"/></g><path class="cls-1" d="M230.46,283.21a6.11,6.11,0,0,1,0-12.22h53.18a162.13,162.13,0,0,0,16-21H210.1a6.11,6.11,0,0,1,0-12.22h96.59a160.22,160.22,0,0,0,9.16-21H189.73a6.11,6.11,0,1,1,0-12.22H319.64a162.7,162.7,0,0,0,5.48-41.91H135.43v135.3a27.13,27.13,0,0,0,26.85,27.26h.28a162,162,0,0,0,108.93-41.91Z"/><path class="cls-4" d="M321.69,151c-14.39-17.8-37.56-20.81-47.93-21.23H138.67V5.06a159.13,159.13,0,0,1,178.6,119.63l.7,2.86h0A156.82,156.82,0,0,1,321.69,151Z"/><path class="cls-1" d="M162.56,6.48a155.6,155.6,0,0,1,151.56,119l.53,2.15.05.2c1.25,5.29,2.12,10,2.73,14.2-14.89-12.67-34.19-15.08-43.54-15.45h-132V7.87a157,157,0,0,1,20.65-1.39m0-6.48a162.74,162.74,0,0,0-27.13,2.3V133h138.2c11.57.46,39.56,4.26,51.49,29.53,0,0,1.28-13.35-4.11-36.23-.07-.32-.15-.63-.22-.94-.12-.5-.22-1-.35-1.47h0A162.56,162.56,0,0,0,162.56,0Z"/><circle class="cls-1" cx="81.76" cy="73.92" r="6.41"/><path class="cls-1" d="M321.24,152a3.23,3.23,0,0,1-3.23-3.09,84.5,84.5,0,0,0-84.54-80.55H139.84a3.24,3.24,0,0,1,0-6.48h93.63a91,91,0,0,1,91,86.72A3.24,3.24,0,0,1,321.4,152Z"/></g></g></svg>