<svg width="39" height="39" viewBox="0 0 39 39" fill="none" xmlns="http://www.w3.org/2000/svg">
<path fill-rule="evenodd" clip-rule="evenodd" d="M25.9345 13.2266C22.6187 9.16735 16.1807 9.06842 12.7276 13.0237C10.2422 15.8704 10.1375 19.9571 12.4741 22.9145L15.5385 26.7932C15.695 26.9913 15.9406 27.1086 16.202 27.1101L19.65 27.1287L22.7334 27.1453C23.0087 27.1468 23.2671 27.0195 23.4241 26.8054L26.5627 22.5201C28.5227 19.8443 28.4247 16.2752 26.3206 13.6994L25.9345 13.2266ZM11.441 12.0173C15.5758 7.28136 23.2846 7.39982 27.2548 12.2603L27.6411 12.7332C30.1902 15.8539 30.3089 20.1783 27.9344 23.4202L24.7956 27.7055C24.3251 28.348 23.55 28.7294 22.724 28.725L19.6406 28.7086L16.1924 28.6897C15.4082 28.6855 14.6715 28.3337 14.2019 27.7392L11.1375 23.8607C8.33965 20.3193 8.46507 15.426 11.441 12.0173Z" fill="#14B8A6"/>
<path fill-rule="evenodd" clip-rule="evenodd" d="M15.6406 33.3125C15.6406 32.8638 16.0044 32.5 16.4531 32.5H22.5709C23.0195 32.5 23.3834 32.8638 23.3834 33.3125C23.3834 33.7612 23.0195 34.125 22.5709 34.125H16.4531C16.0044 34.125 15.6406 33.7612 15.6406 33.3125Z" fill="#14B8A6"/>
<path fill-rule="evenodd" clip-rule="evenodd" d="M14.9238 27.2977C15.3726 27.2977 15.7363 27.6614 15.7363 28.1102V28.9227C15.7363 29.3714 16.1001 29.7352 16.5489 29.7352H22.2364C22.685 29.7352 23.0489 29.3714 23.0489 28.9227V28.1102C23.0489 27.6614 23.4125 27.2977 23.8614 27.2977C24.31 27.2977 24.6739 27.6614 24.6739 28.1102V28.9227C24.6739 30.2688 23.5825 31.3602 22.2364 31.3602H16.5489C15.2026 31.3602 14.1113 30.2688 14.1113 28.9227V28.1102C14.1113 27.6614 14.4751 27.2977 14.9238 27.2977Z" fill="#14B8A6"/>
<path fill-rule="evenodd" clip-rule="evenodd" d="M30.875 18.2917C30.875 17.843 31.2388 17.4792 31.6875 17.4792H34.9375C35.3862 17.4792 35.75 17.843 35.75 18.2917C35.75 18.7405 35.3862 19.1042 34.9375 19.1042H31.6875C31.2388 19.1042 30.875 18.7405 30.875 18.2917Z" fill="#14B8A6"/>
<path fill-rule="evenodd" clip-rule="evenodd" d="M29.3546 27.3933C29.5834 27.0073 30.0858 26.8726 30.477 27.0926L33.2915 28.676C33.6826 28.8961 33.8142 29.3873 33.5854 29.7734C33.3566 30.1593 32.8542 30.2941 32.4632 30.074L29.6485 28.4906C29.2574 28.2706 29.1258 27.7794 29.3546 27.3933Z" fill="#14B8A6"/>
<path fill-rule="evenodd" clip-rule="evenodd" d="M3.25 18.2917C3.25 17.843 3.61377 17.4792 4.0625 17.4792H7.3125C7.76123 17.4792 8.125 17.843 8.125 18.2917C8.125 18.7405 7.76123 19.1042 7.3125 19.1042H4.0625C3.61377 19.1042 3.25 18.7405 3.25 18.2917Z" fill="#14B8A6"/>
<path fill-rule="evenodd" clip-rule="evenodd" d="M6.14181 6.34623C6.45625 6.02611 6.97721 6.01467 7.30539 6.32069L9.65339 8.51016C9.98157 8.8162 9.99272 9.3238 9.67827 9.64394C9.36383 9.96407 8.84289 9.97551 8.5147 9.66949L6.16671 7.48001C5.83852 7.17397 5.82737 6.66637 6.14181 6.34623Z" fill="#14B8A6"/>
<path fill-rule="evenodd" clip-rule="evenodd" d="M33.0045 6.65426C32.6901 6.33412 32.1691 6.32268 31.8408 6.62871L29.4929 8.81819C29.1646 9.12421 29.1536 9.63183 29.468 9.95195C29.7825 10.2721 30.3034 10.2835 30.6315 9.9775L32.9796 7.78802C33.3077 7.482 33.3189 6.97438 33.0045 6.65426Z" fill="#14B8A6"/>
<path fill-rule="evenodd" clip-rule="evenodd" d="M5.79205 29.7734C5.5633 29.3873 5.69491 28.8961 6.08602 28.676L8.9006 27.0926C9.29169 26.8726 9.79417 27.0073 10.0229 27.3933C10.2517 27.7794 10.1201 28.2706 9.72897 28.4906L6.91439 30.074C6.52329 30.2941 6.02081 30.1593 5.79205 29.7734Z" fill="#14B8A6"/>
<path fill-rule="evenodd" clip-rule="evenodd" d="M19.5 2.4375C19.9487 2.4375 20.3125 2.80127 20.3125 3.25V6.41667C20.3125 6.8654 19.9487 7.22917 19.5 7.22917C19.0513 7.22917 18.6875 6.8654 18.6875 6.41667V3.25C18.6875 2.80127 19.0513 2.4375 19.5 2.4375Z" fill="#14B8A6"/>
<path fill-rule="evenodd" clip-rule="evenodd" d="M21.167 11.9306C21.3088 11.5049 21.769 11.2748 22.1946 11.4167C22.6092 11.5549 23.0341 11.7502 23.4519 11.9966C23.8383 12.2246 23.9668 12.7228 23.7387 13.1093C23.5107 13.4957 23.0126 13.6242 22.6261 13.3962C22.2986 13.203 21.9777 13.0573 21.6808 12.9583C21.255 12.8164 21.0249 12.3563 21.167 11.9306ZM24.6294 14.0347C24.9555 13.7264 25.4696 13.7407 25.7781 14.0667C26.6122 14.9487 27.1735 15.9339 27.3504 17.1675C27.524 18.3764 27.3168 19.7448 26.7711 21.382C26.6291 21.8077 26.169 22.0378 25.7433 21.8958C25.3175 21.7539 25.0874 21.2939 25.2295 20.8681C25.7345 19.3528 25.8653 18.2581 25.7418 17.3984C25.6221 16.5637 25.2517 15.8751 24.5973 15.1833C24.2891 14.8573 24.3034 14.3431 24.6294 14.0347Z" fill="#14B8A6"/>
</svg>
