<svg width="40" height="40" viewBox="0 0 40 40" fill="none" xmlns="http://www.w3.org/2000/svg">
<circle cx="20" cy="20" r="19.5" stroke="black" stroke-opacity="0.06"/>
<path d="M25.5024 16.401C25.5024 14.9685 24.9334 13.5948 23.9205 12.5819C22.9076 11.569 21.5339 11 20.1014 11C18.669 11 17.2953 11.569 16.2824 12.5819C15.2695 13.5948 14.7005 14.9685 14.7005 16.401C14.7005 22.7021 12 24.5024 12 24.5024H28.2029C28.2029 24.5024 25.5024 22.7021 25.5024 16.401Z" stroke="black" stroke-linecap="round" stroke-linejoin="round"/>
<path d="M21.6583 28.103C21.5 28.3758 21.2728 28.6023 20.9995 28.7597C20.7262 28.9171 20.4164 29 20.101 29C19.7856 29 19.4757 28.9171 19.2024 28.7597C18.9291 28.6023 18.702 28.3758 18.5437 28.103" stroke="black" stroke-linecap="round" stroke-linejoin="round"/>
</svg>
