<svg xmlns="http://www.w3.org/2000/svg" width="24" height="24" viewBox="0 0 24 24">
    <defs>
        <style>
            .cls-1{fill:#f57c00}
        </style>
    </defs>
    <g id="noun_card_payment_2127221" data-name="noun_card payment_2127221" transform="translate(-5 -5)">
        <g id="Group_311" data-name="Group 311" transform="translate(5 5)">
            <path id="Path_1921" d="M17.081 957.371q-5.343 1.524-10.7 3.033a.268.268 0 0 0-.133.083 4.941 4.941 0 0 0-.666 5.6 9.94 9.94 0 0 0 4.132 3.875c1.525 2.349 3.345 5.206 4.973 7.466a27.917 27.917 0 0 0 2.249 2.816 5.956 5.956 0 0 0 .925.825 1.723 1.723 0 0 0 .85.275 9.076 9.076 0 0 0 2.436-.222 17.658 17.658 0 0 0 4.778-1.661 6.77 6.77 0 0 0 2.441-2.391 3.234 3.234 0 0 0 .566-2.391c-.647-1.3-1.259-2.314-1.849-3.291-.96-1.587-2.192-3.549-3.466-5.5S21.03 962 19.9 960.463a15.472 15.472 0 0 0-2.624-3.05.2.2 0 0 0-.2-.041zm.7 1.258c.624.693 1.226 1.507 1.691 2.141a110.331 110.331 0 0 1 2.707 3.908l-9.98 3a340.314 340.314 0 0 0-2.7-4.316 11.972 11.972 0 0 0-1.558-1.983zm-.766 1.141q-3.478.926-6.964 1.858a.28.28 0 0 0-.158.4l2.766 4.258a.274.274 0 0 0 .292.108l7.173-1.983a.28.28 0 0 0 .142-.408l-2.991-4.124c-.073-.1-.183-.084-.258-.108zm-11.464 4.284a2.009 2.009 0 0 0 .758.242 2.034 2.034 0 0 1 .766.142 14.06 14.06 0 0 1 1.55 1.892c.784 1.062 1.771 2.47 2.832 4.025a380.257 380.257 0 0 1 6.181 9.357 3.6 3.6 0 0 0 1.158 1.108 1.11 1.11 0 0 1-.633-.192 5.581 5.581 0 0 1-.833-.75 27.758 27.758 0 0 1-2.208-2.766c-1.624-2.252-3.458-5.123-4.99-7.483a.269.269 0 0 0-.108-.092 9.416 9.416 0 0 1-3.982-3.716 4.9 4.9 0 0 1-.492-1.766zm16.936 1.092c.228.344.457.687.683 1.033 1.271 1.945 2.5 3.9 3.457 5.483.7 1.165 1.26 2.129 1.566 2.708a8.449 8.449 0 0 1-4.7 4.066 10.747 10.747 0 0 1-2.7.725 2.7 2.7 0 0 1-1.483-.133c-1.714-2.482-4.262-6.706-6.831-10.882zm-.15 1.542c-.623.187-1.263.384-1.891.575a.267.267 0 1 0 .15.508l1.808-.55a.279.279 0 0 0 .233-.3.254.254 0 0 0-.3-.233zm-2.937 1.066c-.617.182-1.252.373-1.874.558a.267.267 0 1 0 .15.508l1.791-.533a.279.279 0 0 0 .233-.3.259.259 0 0 0-.3-.233zm3.89.517c-.615.181-1.235.382-1.849.575a.267.267 0 0 0 .167.508l1.8-.567a.276.276 0 0 0 .171-.31.243.243 0 0 0-.288-.206zm-6.814.55c-.565.167-1.135.37-1.7.558a.267.267 0 0 0 .167.508l1.6-.533a.279.279 0 0 0 .233-.3.251.251 0 0 0-.295-.234zm3.99.533c-.618.186-1.252.384-1.874.575a.267.267 0 1 0 .15.508l1.791-.55a.269.269 0 0 0-.067-.533zm3.74.8c-.565.167-1.135.37-1.7.558a.267.267 0 0 0 .167.508l1.6-.533a.279.279 0 0 0 .233-.3.254.254 0 0 0-.3-.233zm-6.665.267c-.565.167-1.135.37-1.7.558a.267.267 0 0 0 .167.508l1.6-.533a.279.279 0 0 0 .233-.3c-.042-.195-.15-.25-.3-.233zm3.882.708c-.537.129-1.081.319-1.616.483a.267.267 0 1 0 .158.508l1.508-.458a.278.278 0 0 0 .231-.291.251.251 0 0 0-.275-.243zm3.849.625c-.562.163-1.137.371-1.7.558a.268.268 0 0 0 .167.508l1.6-.533a.279.279 0 0 0 .233-.3.249.249 0 0 0-.3-.233zm-6.665.267c-.565.167-1.135.37-1.7.558a.268.268 0 0 0 .167.508l1.6-.533a.279.279 0 0 0 .233-.3.264.264 0 0 0-.3-.233zm3.865.742c-.546.15-1.1.364-1.649.55a.267.267 0 1 0 .175.5l1.533-.516a.279.279 0 0 0 .237-.3.246.246 0 0 0-.3-.237zm3.865.592c-.565.167-1.135.37-1.7.558a.267.267 0 0 0 .167.508l1.6-.533a.279.279 0 0 0 .233-.3.257.257 0 0 0-.293-.235zm-6.665.267c-.565.167-1.135.37-1.7.558a.267.267 0 0 0 .167.508l1.6-.533a.279.279 0 0 0 .233-.3.257.257 0 0 0-.292-.235zm2.149 1.325a.267.267 0 1 0 .175.5l1.566-.558a.267.267 0 0 0-.108-.517c-.567.179-1.149.4-1.633.575zm-1.116.333c-.533.184-1.078.362-1.616.542a.268.268 0 0 0 .167.508l1.574-.533a.276.276 0 0 0 .175-.316.258.258 0 0 0-.3-.2z" class="cls-1" data-name="Path 1921" transform="translate(-5 -957.362)"/>
        </g>
    </g>
</svg>
