<svg xmlns="http://www.w3.org/2000/svg" width="21.695" height="24.7" viewBox="0 0 21.695 24.7">
    <defs>
        <style>
            .cls-1{fill:#f57c00;stroke:#f57c00;stroke-width:.7px}
        </style>
    </defs>
    <g id="noun_financial_statement_2033288" data-name="noun_financial statement_2033288" transform="translate(-4.75 -.65)">
        <g id="Group_312" data-name="Group 312" transform="translate(5.1 1)">
            <path id="Path_1922" d="M15.144 38.848a1.089 1.089 0 0 1 1.059 1.1.392.392 0 1 0 .785 0 1.9 1.9 0 0 0-1.452-1.848v-.51a.392.392 0 1 0-.785 0v.51a1.9 1.9 0 0 0-1.451 1.846 1.851 1.851 0 0 0 1.844 1.883 1.089 1.089 0 0 1 1.059 1.1 1.064 1.064 0 0 1-1.059 1.1 1.089 1.089 0 0 1-1.059-1.1.392.392 0 0 0-.785 0 1.9 1.9 0 0 0 1.452 1.844v.589a.392.392 0 1 0 .785 0v-.51a1.9 1.9 0 0 0 1.452-1.844 1.851 1.851 0 0 0-1.844-1.883 1.089 1.089 0 0 1-1.059-1.1 1.164 1.164 0 0 1 1.058-1.177z" class="cls-1" data-name="Path 1922" transform="translate(-10.083 -24.068)"/>
            <path id="Path_1923" d="M30.723 51.3h-3.531a.392.392 0 1 0 0 .785h3.531a.371.371 0 0 0 .392-.392.393.393 0 0 0-.392-.393z" class="cls-1" data-name="Path 1923" transform="translate(-18.739 -32.435)"/>
            <path id="Path_1924" d="M13.768 11.885h13.707a.393.393 0 0 0 0-.785H13.768a.36.36 0 0 0-.368.392.382.382 0 0 0 .368.393z" class="cls-1" data-name="Path 1924" transform="translate(-10.144 -7.137)"/>
            <path id="Path_1925" d="M13.768 21.885h13.707a.393.393 0 0 0 0-.785H13.768a.393.393 0 0 0 0 .785z" class="cls-1" data-name="Path 1925" transform="translate(-10.144 -13.562)"/>
            <path id="Path_1926" d="M13.768 31.885h13.707a.393.393 0 0 0 0-.785H13.768a.393.393 0 0 0 0 .785z" class="cls-1" data-name="Path 1926" transform="translate(-10.144 -19.811)"/>
            <path id="Path_1927" d="M36.855 41.1h-9.063a.392.392 0 1 0 0 .785h9.063a.392.392 0 0 0 0-.785z" class="cls-1" data-name="Path 1927" transform="translate(-19.329 -26.061)"/>
            <path id="Path_1928" d="M24.255 1H6.9a1.8 1.8 0 0 0-1.8 1.8v20.4A1.8 1.8 0 0 0 6.9 25h13a.426.426 0 0 0 .3-.113l5.745-5.187a.464.464 0 0 0 .15-.3V2.8a1.861 1.861 0 0 0-1.84-1.8zM5.851 23.235V2.8A1.05 1.05 0 0 1 6.9 1.751h17.355A1.05 1.05 0 0 1 25.307 2.8v16.266h-5.371a.355.355 0 0 0-.376.376v4.845H6.9a1.05 1.05 0 0 1-1.049-1.052zm18.854-3.418L20.311 23.8v-3.983z" class="cls-1" data-name="Path 1928" transform="translate(-5.1 -1)"/>
        </g>
    </g>
</svg>
