<svg xmlns="http://www.w3.org/2000/svg" width="24" height="22.977" viewBox="0 0 24 22.977">
    <defs>
        <style>
            .cls-1{fill:#f07c05}
        </style>
    </defs>
    <g id="noun_Tissue_Paper_1067942" data-name="noun_Tissue Paper_1067942" transform="rotate(180 12 11.989)">
        <path id="Path_1920" d="M23.5 6.25h-2.45a11.459 11.459 0 0 0-.95-4.3A1.379 1.379 0 0 0 18.8 1H5.35c-1.6 0-2.9 2.25-3 5.25H.5a.5.5 0 1 0 0 1h1.8v16.1c0 .2.1.55.25.6.2.1.5-.1.65-.25l1.75-1.75 1.65 1.7a.483.483 0 0 0 .7 0l1.8-1.75 1.65 1.7a.483.483 0 0 0 .7 0l1.8-1.75 1.65 1.7a.483.483 0 0 0 .7 0l1.8-1.7 1.65 1.85a.478.478 0 0 0 .85-.35V11.9c.1-.1.15-.25.25-.35a14.442 14.442 0 0 0 .95-4.3h2.4a.5.5 0 1 0 0-1zM5.3 2c.95 0 2 1.95 2 4.75s-1.05 4.75-2 4.75c-.9 0-1.9-1.7-2-4.25h.65c.1 1.1.55 2.15 1.35 2.15.95 0 1.35-1.4 1.35-2.65S6.2 4.1 5.3 4.1c-.8 0-1.25 1.05-1.35 2.15H3.3C3.4 3.7 4.4 2 5.3 2zm-.15 4.25h-.2A2.55 2.55 0 0 1 5.3 5.1a3.038 3.038 0 0 1 .35 1.65A3.615 3.615 0 0 1 5.3 8.4a2.55 2.55 0 0 1-.35-1.15h.2a.5.5 0 1 0 0-1zm13.75 15.9l-1.1-1.25a.483.483 0 0 0-.7 0l-1.8 1.75-1.65-1.7a.483.483 0 0 0-.7 0l-1.8 1.75L9.5 21a.483.483 0 0 0-.7 0L7 22.75l-1.65-1.7a.483.483 0 0 0-.7 0l-1.3 1.35V11a2.537 2.537 0 0 0 2 1.45h13.6v9.7zm.3-11c-.05.05-.05.15-.15.2a.711.711 0 0 1-.3.1H7.05a7.9 7.9 0 0 0 1.3-4.75 8.012 8.012 0 0 0-1.3-4.75H18.8a.38.38 0 0 1 .4.3 12.074 12.074 0 0 1 0 8.9z" class="cls-1" data-name="Path 1920"/>
    </g>
</svg>
