<svg width="26" height="26" viewBox="0 0 26 26" fill="none" xmlns="http://www.w3.org/2000/svg">
<path d="M20.68 16.36C18.4602 16.36 16.6264 18.0431 16.3868 20.2H14.44V5.8H16.3868C16.6264 7.95693 18.4602 9.64 20.68 9.64C23.062 9.64 25 7.70205 25 5.32C25 2.93795 23.062 1 20.68 1C18.4602 1 16.6264 2.68302 16.3868 4.84H13.96C13.6949 4.84 13.48 5.0549 13.48 5.32V12.52H11.5379C11.2946 9.83272 9.02958 7.72 6.28 7.72C3.36861 7.72 1 10.0886 1 13C1 15.9114 3.36861 18.28 6.28 18.28C9.02958 18.28 11.2946 16.1672 11.5379 13.48H13.48V20.68C13.48 20.9451 13.6949 21.16 13.96 21.16H16.3868C16.6264 23.3169 18.4602 25 20.68 25C23.062 25 25 23.062 25 20.68C25 18.298 23.062 16.36 20.68 16.36ZM20.68 1.96C22.5327 1.96 24.04 3.4673 24.04 5.32C24.04 7.1727 22.5327 8.68 20.68 8.68C18.8273 8.68 17.32 7.1727 17.32 5.32C17.32 3.4673 18.8273 1.96 20.68 1.96ZM6.28 17.32C3.89795 17.32 1.96 15.382 1.96 13C1.96 10.618 3.89795 8.68 6.28 8.68C8.66205 8.68 10.6 10.618 10.6 13C10.6 15.382 8.66205 17.32 6.28 17.32ZM20.68 24.04C18.8273 24.04 17.32 22.5327 17.32 20.68C17.32 18.8273 18.8273 17.32 20.68 17.32C22.5327 17.32 24.04 18.8273 24.04 20.68C24.04 22.5327 22.5327 24.04 20.68 24.04Z" fill="#414950" stroke="#414950" stroke-width="0.5"/>
</svg>
