<svg width="24" height="24" viewBox="0 0 24 24" fill="none" xmlns="http://www.w3.org/2000/svg">
<path d="M9.24943 7.33296H1.74984C1.15317 7.33296 0.666667 6.84655 0.666667 6.2496V1.74984C0.666667 1.15312 1.15312 0.666667 1.74984 0.666667H9.24943C9.84639 0.666667 10.3328 1.15317 10.3328 1.74984V6.2496C10.3328 6.8465 9.84634 7.33296 9.24943 7.33296ZM1.74984 0.833251C1.24378 0.833251 0.833251 1.24378 0.833251 1.74984V6.2496C0.833251 6.75552 1.24346 7.16637 1.74984 7.16637H9.24943C9.75568 7.16637 10.1662 6.75584 10.1662 6.2496V1.74984C10.1662 1.24347 9.75536 0.833251 9.24943 0.833251H1.74984Z" fill="#414950" stroke="#414950" stroke-width="1.33333"/>
<path d="M9.24943 23.3333H1.74984C1.15312 23.3333 0.666667 22.8469 0.666667 22.2502V11.7507C0.666667 11.1538 1.15317 10.6674 1.74984 10.6674H9.24943C9.84634 10.6674 10.3328 11.1538 10.3328 11.7507V22.2502C10.3328 22.8468 9.84639 23.3333 9.24943 23.3333ZM1.74984 10.834C1.24347 10.834 0.833251 11.2448 0.833251 11.7507V22.2502C0.833251 22.7562 1.24379 23.1667 1.74984 23.1667H9.24943C9.75536 23.1667 10.1662 22.7565 10.1662 22.2502V11.7507C10.1662 11.2445 9.75568 10.834 9.24943 10.834H1.74984Z" fill="#414950" stroke="#414950" stroke-width="1.33333"/>
<path d="M22.2464 23.3333H14.7468C14.1499 23.3333 13.6635 22.8468 13.6635 22.2502V17.7504C13.6635 17.1535 14.1499 16.667 14.7468 16.667H22.2464C22.8431 16.667 23.3296 17.1535 23.3296 17.7504V22.2502C23.3296 22.8469 22.8431 23.3333 22.2464 23.3333ZM14.7468 16.8336C14.2406 16.8336 13.83 17.2442 13.83 17.7504V22.2502C13.83 22.7565 14.2409 23.1668 14.7468 23.1668H22.2464C22.7525 23.1668 23.163 22.7562 23.163 22.2502V17.7504C23.163 17.2445 22.7528 16.8336 22.2464 16.8336H14.7468Z" fill="#414950" stroke="#414950" stroke-width="1.33333"/>
<path d="M22.2464 13.3326H14.7468C14.1499 13.3326 13.6635 12.8462 13.6635 12.2493V1.74984C13.6635 1.15317 14.1499 0.666667 14.7468 0.666667H22.2464C22.8431 0.666667 23.3296 1.15312 23.3296 1.74984V12.2493C23.3296 12.8462 22.8431 13.3326 22.2464 13.3326ZM14.7468 0.833251C14.2409 0.833251 13.83 1.24347 13.83 1.74984V12.2493C13.83 12.7555 14.2406 13.166 14.7468 13.166H22.2464C22.7528 13.166 23.163 12.7552 23.163 12.2493V1.74984C23.163 1.24378 22.7525 0.833251 22.2464 0.833251H14.7468Z" fill="#414950" stroke="#414950" stroke-width="1.33333"/>
</svg>
