<svg width="110" height="30" viewBox="0 0 110 30" fill="none" xmlns="http://www.w3.org/2000/svg">
<path d="M75.5369 23.4716V18.0477C75.5369 16.7127 75.0362 16.0452 73.7848 16.0452C73.284 16.0452 72.7001 16.1288 72.3662 16.2119V24.1391C72.3662 24.3895 72.1158 24.6399 71.8655 24.6399H69.9461C69.6958 24.6399 69.4454 24.3895 69.4454 24.1391V14.877C69.4454 14.543 69.6958 14.2931 69.9461 14.2095C71.198 13.7923 72.4493 13.542 73.7843 13.542C76.7883 13.542 78.4572 15.1273 78.4572 18.0481V24.2227C78.4572 24.4731 78.2069 24.7235 77.9565 24.7235H76.7883C76.0376 24.723 75.5369 24.1391 75.5369 23.4716ZM83.047 20.2173L82.9634 20.9684C82.9634 21.9699 83.6308 22.5538 84.7155 22.5538C85.5497 22.5538 86.3008 22.3034 87.1355 21.8863C87.2191 21.8863 87.3023 21.8027 87.3859 21.8027C87.5526 21.8027 87.6362 21.8863 87.7198 21.9695C87.8034 22.0531 87.9702 22.3034 87.9702 22.3034C88.137 22.5538 88.3042 22.8873 88.3042 23.1377C88.3042 23.5548 88.0538 23.9719 87.7203 24.1391C86.8024 24.6399 85.7178 24.8902 84.5496 24.8902C83.2146 24.8902 82.1295 24.5563 81.2953 23.8888C80.461 23.1377 79.9603 22.1367 79.9603 20.8848V17.6305C79.9603 15.0437 81.6292 13.4584 84.4664 13.4584C87.22 13.4584 88.8053 14.9606 88.8053 17.6305V19.633C88.8053 19.8834 88.555 20.1337 88.3046 20.1337H83.0478L83.047 20.2173ZM82.9634 18.3816H86.1341V17.5474C86.1341 16.5459 85.5502 15.8784 84.5487 15.8784C83.5472 15.8784 82.9634 16.4623 82.9634 17.5474V18.3816ZM104.242 20.2173L104.158 20.9684C104.158 21.9699 104.826 22.5538 105.91 22.5538C106.745 22.5538 107.496 22.3034 108.33 21.8863C108.414 21.8863 108.497 21.8027 108.581 21.8027C108.747 21.8027 108.831 21.8863 108.915 21.9695C108.998 22.0531 109.165 22.3034 109.165 22.3034C109.332 22.5538 109.499 22.8873 109.499 23.1377C109.499 23.5548 109.249 23.9719 108.915 24.1391C107.997 24.6399 106.913 24.8902 105.744 24.8902C104.409 24.8902 103.324 24.5563 102.49 23.8888C101.656 23.1377 101.155 22.1367 101.155 20.8848V17.6305C101.155 15.0437 102.824 13.4584 105.661 13.4584C108.415 13.4584 110 14.9606 110 17.6305V19.633C110 19.8834 109.75 20.1337 109.499 20.1337H104.243V20.2173H104.242ZM104.158 18.3816H107.329V17.5474C107.329 16.5459 106.745 15.8784 105.743 15.8784C104.742 15.8784 104.158 16.4623 104.158 17.5474V18.3816ZM55.0932 24.723H56.2614C56.5118 24.723 56.7622 24.4727 56.7622 24.2223V18.0477C56.7622 15.2105 55.26 13.5415 52.7568 13.5415C52.0057 13.5415 51.1714 13.7083 50.6707 13.8755V10.788C50.6707 10.1205 50.0868 9.53613 49.4188 9.53613H48.2506C48.0003 9.53613 47.7499 9.7865 47.7499 10.0369V24.2223C47.7499 24.4727 48.0003 24.723 48.2506 24.723H50.1699C50.4203 24.723 50.6707 24.4727 50.6707 24.2223V16.3787C51.0878 16.2119 51.6721 16.1283 52.0893 16.1283C53.3411 16.1283 53.8414 16.7122 53.8414 18.1308V23.5548C53.925 24.1391 54.4257 24.723 55.0932 24.723ZM67.6933 17.7137V20.8012C67.6933 23.388 65.9412 24.9734 63.0204 24.9734C60.1832 24.9734 58.3475 23.388 58.3475 20.8012V17.7137C58.3475 15.1269 60.0996 13.5415 63.0204 13.5415C65.9412 13.5415 67.6933 15.1273 67.6933 17.7137ZM64.773 17.7137C64.773 16.7122 64.1891 16.0447 63.104 16.0447C62.0189 16.0447 61.435 16.6286 61.435 17.7137V20.8012C61.435 21.8027 62.0189 22.3866 63.104 22.3866C64.1891 22.3866 64.773 21.8027 64.773 20.8012V17.7137ZM46.165 16.2955C46.165 18.966 44.1625 20.8017 41.4921 20.8017C40.8246 20.8017 40.2403 20.7181 39.6564 20.4677V24.2227C39.6564 24.4731 39.406 24.7235 39.1556 24.7235H37.2363C36.986 24.7235 36.7356 24.4731 36.7356 24.2227V10.9552C36.7356 10.6212 36.986 10.3713 37.2363 10.2877C38.4882 9.87054 39.7395 9.62017 41.0745 9.62017C44.0785 9.62017 46.1645 11.4559 46.1645 14.2931C46.165 14.2926 46.165 16.2955 46.165 16.2955ZM43.161 14.1259C43.161 12.7909 42.2432 12.1234 40.9914 12.1234C40.2403 12.1234 39.7395 12.3737 39.7395 12.3737V17.8809C40.2403 18.1313 40.4906 18.2149 41.0745 18.2149C42.3263 18.2149 43.2442 17.4638 43.2442 16.2124V14.1263H43.161V14.1259ZM100.07 16.2955C100.07 18.966 98.0671 20.8017 95.3967 20.8017C94.7292 20.8017 94.1449 20.7181 93.561 20.4677V24.2227C93.561 24.4731 93.3106 24.7235 93.0602 24.7235H91.1409C90.8906 24.7235 90.6402 24.4731 90.6402 24.2227V10.9552C90.6402 10.6212 90.8906 10.3713 91.1409 10.2877C92.3927 9.87054 93.6441 9.62017 94.9791 9.62017C97.9831 9.62017 100.069 11.4559 100.069 14.2931C100.07 14.2926 100.07 16.2955 100.07 16.2955ZM97.0656 14.1259C97.0656 12.7909 96.1478 12.1234 94.896 12.1234C94.1449 12.1234 93.6441 12.3737 93.6441 12.3737V17.8809C94.1449 18.1313 94.3952 18.2149 94.9791 18.2149C96.2309 18.2149 97.1488 17.4638 97.1488 16.2124V14.1263H97.0656V14.1259Z" fill="#5F259F"/>
<path d="M14.9365 29.8731C23.1858 29.8731 29.8731 23.1858 29.8731 14.9365C29.8731 6.68732 23.1858 0 14.9365 0C6.68732 0 0 6.68732 0 14.9365C0 23.1858 6.68732 29.8731 14.9365 29.8731Z" fill="#5F259F"/>
<path d="M21.7157 11.0385C21.7157 10.4546 21.215 9.95383 20.6311 9.95383H18.6286L14.0393 4.69705C13.6222 4.19632 12.9547 4.02956 12.2872 4.19632L10.7019 4.69705C10.4515 4.78065 10.3679 5.11418 10.5351 5.28094L15.5415 10.0374H7.9474C7.69704 10.0374 7.53027 10.2042 7.53027 10.4546V11.2888C7.53027 11.8727 8.031 12.3734 8.61489 12.3734H9.78312V16.3788C9.78312 19.3828 11.3685 21.1353 14.0389 21.1353C14.8731 21.1353 15.5411 21.0517 16.3753 20.7182V23.3886C16.3753 24.1397 16.9592 24.7236 17.7103 24.7236H18.8785C19.1289 24.7236 19.3793 24.4732 19.3793 24.2229V12.2903H21.2986C21.549 12.2903 21.7157 12.1235 21.7157 11.8732V11.0385ZM16.3753 18.2146C15.8746 18.4649 15.2071 18.5485 14.7064 18.5485C13.3714 18.5485 12.7039 17.881 12.7039 16.3788V12.3734H16.3753V18.2146Z" fill="white"/>
</svg>
