<svg width="26" height="26" viewBox="0 0 26 26" fill="none" xmlns="http://www.w3.org/2000/svg">
<path d="M13.7366 20.8744C13.9665 20.8741 14.1869 20.7826 14.3494 20.6201C14.5119 20.4575 14.6032 20.2371 14.6034 20.0072V19.0681C15.1472 18.9247 15.6691 18.7081 16.1546 18.4243L16.8199 19.0897C16.9825 19.2521 17.2029 19.3433 17.4327 19.3433C17.6625 19.3433 17.8829 19.252 18.0455 19.0895L19.0889 18.0457C19.251 17.883 19.342 17.6627 19.342 17.433C19.342 17.2033 19.251 16.983 19.0889 16.8204L18.4238 16.1552C18.7076 15.6695 18.9241 15.1474 19.0674 14.6034H20.0069C20.2366 14.6032 20.4569 14.5119 20.6194 14.3494C20.7819 14.187 20.8734 13.9667 20.8736 13.737V12.2619C20.8734 12.0321 20.7821 11.8118 20.6196 11.6493C20.4572 11.4868 20.2369 11.3954 20.0071 11.3951H19.0674C18.9242 10.851 18.7076 10.3289 18.4237 9.84316L19.0886 9.17833C19.1692 9.0979 19.2331 9.00239 19.2767 8.89724C19.3203 8.7921 19.3428 8.67939 19.3428 8.56555C19.3429 8.45172 19.3204 8.33899 19.2769 8.23383C19.2333 8.12866 19.1694 8.03312 19.0889 7.95266L18.0459 6.90954C17.9655 6.82891 17.87 6.76493 17.7648 6.72126C17.6597 6.67759 17.5469 6.65508 17.4331 6.65503C17.3192 6.65498 17.2065 6.67738 17.1013 6.72096C16.9961 6.76454 16.9006 6.82844 16.8201 6.90899L16.1548 7.57456C15.6693 7.29051 15.1473 7.07381 14.6034 6.93042V5.9913C14.6032 5.76143 14.5119 5.54101 14.3494 5.37843C14.1869 5.21585 13.9665 5.1244 13.7366 5.12415H12.2612C12.0313 5.1244 11.8109 5.21585 11.6484 5.37843C11.4859 5.54101 11.3946 5.76143 11.3944 5.9913V6.93042C10.8505 7.07381 10.3285 7.29051 9.843 7.57456L9.17798 6.90918C9.09755 6.82862 9.00202 6.7647 8.89687 6.72109C8.79171 6.67748 8.67898 6.65503 8.56514 6.65503C8.4513 6.65503 8.33858 6.67748 8.23342 6.72109C8.12827 6.7647 8.03274 6.82862 7.95231 6.90918L6.90891 7.95285C6.74673 8.11551 6.65568 8.33584 6.65572 8.56553C6.65575 8.79522 6.74687 9.01553 6.90909 9.17814L7.57412 9.84316C7.29017 10.3289 7.07362 10.851 6.93043 11.3951H5.99067C5.76095 11.3956 5.54078 11.4871 5.37836 11.6495C5.21595 11.812 5.12454 12.0322 5.12415 12.2619L5.12443 13.7366C5.12424 13.8504 5.14652 13.9632 5.18999 14.0685C5.23346 14.1737 5.29728 14.2693 5.37777 14.3498C5.45827 14.4304 5.55387 14.4942 5.65909 14.5377C5.76431 14.5812 5.87708 14.6035 5.99094 14.6034H6.93043C7.07356 15.1475 7.29011 15.6695 7.57412 16.1552L6.90909 16.8204C6.74685 16.983 6.65574 17.2034 6.65574 17.4331C6.65574 17.6628 6.74685 17.8832 6.90909 18.0458L7.95194 19.0888C8.03233 19.1694 8.12786 19.2335 8.23304 19.2772C8.33822 19.3209 8.45099 19.3434 8.56489 19.3435C8.67879 19.3435 8.79158 19.3211 8.8968 19.2775C9.00202 19.2339 9.0976 19.1699 9.17807 19.0893L9.843 18.4243C10.3286 18.7081 10.8505 18.9246 11.3944 19.0681V20.0072C11.3946 20.2371 11.4859 20.4575 11.6484 20.6201C11.8109 20.7826 12.0313 20.8741 12.2612 20.8744H13.7366ZM12.1444 20.0072V18.7716C12.1444 18.6857 12.1149 18.6024 12.0607 18.5357C12.0066 18.469 11.9312 18.4229 11.8471 18.4053C11.1864 18.2651 10.5574 18.004 9.99166 17.6351C9.91965 17.5882 9.83368 17.5675 9.74818 17.5764C9.66268 17.5853 9.58285 17.6234 9.5221 17.6842L8.64773 18.5589C8.63691 18.5699 8.62401 18.5786 8.60978 18.5845C8.59556 18.5905 8.58029 18.5935 8.56487 18.5935C8.54955 18.5936 8.53438 18.5906 8.52026 18.5846C8.50614 18.5787 8.49338 18.5699 8.48275 18.5589L7.43953 17.5161C7.41764 17.4942 7.40533 17.4646 7.40529 17.4336C7.40526 17.4026 7.4175 17.3729 7.43935 17.351L8.31393 16.4759C8.37474 16.4151 8.41282 16.3353 8.42178 16.2497C8.43075 16.1642 8.41006 16.0782 8.36318 16.0061C7.99429 15.4404 7.73331 14.8113 7.59343 14.1506C7.57555 14.0665 7.52937 13.9912 7.4626 13.9371C7.39584 13.883 7.31253 13.8535 7.2266 13.8534H5.99094C5.97562 13.8535 5.96045 13.8505 5.94629 13.8447C5.93213 13.8388 5.91927 13.8303 5.90844 13.8194C5.89761 13.8086 5.88902 13.7958 5.88318 13.7816C5.87734 13.7674 5.87436 13.7523 5.87441 13.737L5.87413 12.2623C5.87412 12.2313 5.88641 12.2015 5.90831 12.1795C5.93021 12.1576 5.95992 12.1452 5.99094 12.1451H7.2266C7.31251 12.145 7.39578 12.1154 7.46254 12.0613C7.52929 12.0073 7.57549 11.9319 7.59343 11.8479C7.73338 11.1871 7.99435 10.5579 8.36318 9.99203C8.41004 9.91996 8.43071 9.83398 8.42175 9.74848C8.41278 9.66298 8.37472 9.58316 8.31393 9.52238L7.43935 8.6477C7.41752 8.62572 7.40527 8.59601 7.40527 8.56503C7.40527 8.53406 7.41752 8.50434 7.43935 8.48237L8.48256 7.43962C8.49336 7.42871 8.50622 7.42006 8.52038 7.41415C8.53455 7.40824 8.54975 7.4052 8.5651 7.4052C8.58045 7.4052 8.59564 7.40824 8.60981 7.41415C8.62398 7.42006 8.63683 7.42871 8.64763 7.43962L9.5221 8.31428C9.58301 8.37484 9.66282 8.41271 9.74825 8.42161C9.83368 8.4305 9.91958 8.40988 9.99166 8.36318C10.5574 7.99443 11.1865 7.7334 11.8471 7.59323C11.9312 7.57555 12.0066 7.52949 12.0607 7.46278C12.1149 7.39607 12.1444 7.31276 12.1444 7.22685V5.9913C12.1444 5.97595 12.1474 5.96074 12.1532 5.94655C12.1591 5.93235 12.1677 5.91946 12.1785 5.90859C12.1894 5.89772 12.2023 5.8891 12.2164 5.88322C12.2306 5.87734 12.2458 5.87431 12.2612 5.87431H13.7366C13.752 5.87431 13.7672 5.87734 13.7814 5.88322C13.7955 5.8891 13.8084 5.89772 13.8193 5.90859C13.8301 5.91946 13.8387 5.93235 13.8446 5.94655C13.8504 5.96074 13.8534 5.97595 13.8534 5.9913V7.22685C13.8534 7.31276 13.8829 7.39606 13.9371 7.46278C13.9912 7.52949 14.0666 7.57555 14.1507 7.59323C14.8113 7.7334 15.4404 7.99443 16.0061 8.36318C16.0781 8.41011 16.1641 8.43086 16.2495 8.42196C16.335 8.41305 16.4148 8.37504 16.4756 8.31428L17.3504 7.43943C17.3612 7.42857 17.3741 7.41995 17.3882 7.41407C17.4024 7.4082 17.4176 7.40518 17.4329 7.4052C17.4482 7.40521 17.4634 7.40826 17.4775 7.41417C17.4916 7.42008 17.5045 7.42873 17.5152 7.43962L18.5586 8.48255C18.5695 8.49339 18.5781 8.50627 18.584 8.52044C18.5899 8.53462 18.5929 8.54982 18.5929 8.56516C18.5928 8.58051 18.5898 8.5957 18.5839 8.60986C18.578 8.62403 18.5693 8.63689 18.5584 8.6477L17.6839 9.52238C17.6231 9.58316 17.585 9.66298 17.576 9.74848C17.5671 9.83398 17.5878 9.91996 17.6346 9.99203C18.0034 10.5579 18.2644 11.1871 18.4044 11.8479C18.4223 11.9319 18.4685 12.0073 18.5353 12.0613C18.602 12.1154 18.6853 12.145 18.7712 12.1451H20.0069C20.0222 12.1451 20.0374 12.1481 20.0516 12.154C20.0657 12.1598 20.0786 12.1685 20.0895 12.1793C20.1003 12.1901 20.1089 12.203 20.1148 12.2172C20.1206 12.2314 20.1237 12.2466 20.1237 12.2619V13.737C20.1236 13.7679 20.1113 13.7975 20.0894 13.8194C20.0675 13.8412 20.0378 13.8534 20.0069 13.8534H18.7712C18.6853 13.8535 18.602 13.883 18.5352 13.9371C18.4684 13.9912 18.4222 14.0665 18.4044 14.1506C18.2644 14.8113 18.0034 15.4403 17.6347 16.0061C17.5878 16.0782 17.5672 16.1642 17.5761 16.2497C17.5851 16.3353 17.6232 16.4151 17.684 16.4759L18.5584 17.3506C18.5803 17.3726 18.5925 17.4024 18.5925 17.4334C18.5925 17.4644 18.5803 17.4941 18.5584 17.5161L17.5153 18.5589C17.5046 18.5699 17.4917 18.5787 17.4775 18.5846C17.4633 18.5905 17.4481 18.5935 17.4327 18.5933C17.4173 18.5934 17.4021 18.5904 17.3879 18.5846C17.3737 18.5787 17.3608 18.57 17.3501 18.5591L16.4755 17.6842C16.4146 17.6236 16.3348 17.5857 16.2494 17.5767C16.1639 17.5678 16.078 17.5884 16.0059 17.6351C15.4403 18.0041 14.8113 18.2652 14.1507 18.4053C14.0666 18.4229 13.9912 18.469 13.9371 18.5357C13.8829 18.6024 13.8534 18.6857 13.8534 18.7716V20.0072C13.8534 20.0382 13.8411 20.0679 13.8192 20.0899C13.7973 20.1118 13.7676 20.1242 13.7366 20.1242H12.2612C12.2302 20.1242 12.2005 20.1118 12.1786 20.0899C12.1567 20.0679 12.1444 20.0382 12.1444 20.0072Z" fill="#414950" stroke="#414950" stroke-width="0.5"/>
<path d="M16.373 13.003C16.373 12.3356 16.1751 11.6831 15.8042 11.1281C15.4334 10.5731 14.9063 10.1405 14.2896 9.88506C13.673 9.62962 12.9944 9.56279 12.3397 9.69301C11.685 9.82323 11.0837 10.1447 10.6117 10.6166C10.1397 11.0886 9.8183 11.69 9.68808 12.3446C9.55786 12.9993 9.62469 13.6779 9.88013 14.2946C10.1356 14.9112 10.5681 15.4383 11.1231 15.8092C11.6781 16.18 12.3306 16.3779 12.9981 16.3779C13.8929 16.3768 14.7506 16.0209 15.3833 15.3883C16.016 14.7556 16.3719 13.8978 16.373 13.003ZM10.3732 13.003C10.3732 12.4839 10.5272 11.9764 10.8157 11.5448C11.1041 11.1131 11.5141 10.7767 11.9937 10.5781C12.4734 10.3794 13.0012 10.3275 13.5103 10.4288C14.0195 10.5301 14.4872 10.7801 14.8543 11.1472C15.2214 11.5143 15.4713 11.982 15.5726 12.4912C15.6739 13.0004 15.6219 13.5282 15.4232 14.0078C15.2245 14.4874 14.8881 14.8974 14.4564 15.1858C14.0248 15.4742 13.5173 15.6282 12.9981 15.6282C12.3022 15.6274 11.6349 15.3505 11.1428 14.8584C10.6507 14.3663 10.3739 13.699 10.3732 13.003Z" fill="#414950" stroke="#414950" stroke-width="0.5"/>
<path d="M2.52661 13.7191L2.56276 13.7729C2.61868 13.8547 2.70441 13.9114 2.8016 13.9308C2.89879 13.9502 2.99972 13.9308 3.08277 13.8767C3.12376 13.8495 3.15896 13.8144 3.18637 13.7735C3.21378 13.7326 3.23286 13.6867 3.24252 13.6384C3.25218 13.5901 3.25223 13.5404 3.24266 13.4921C3.2331 13.4438 3.21411 13.3979 3.18677 13.3569L2.4368 12.2319C2.40252 12.1806 2.35611 12.1386 2.30169 12.1095C2.24726 12.0804 2.1865 12.0652 2.12479 12.0652C2.06308 12.0652 2.00232 12.0804 1.94789 12.1095C1.89347 12.1386 1.84706 12.1806 1.81278 12.2319L1.06281 13.3569C1.00774 13.4397 0.98778 13.5409 1.00731 13.6384C1.02685 13.7358 1.08428 13.8215 1.16698 13.8767C1.24969 13.9318 1.3509 13.9518 1.44838 13.9324C1.54585 13.9129 1.63162 13.8556 1.68682 13.7729L1.77031 13.6481C1.91663 16.2294 2.94857 18.6814 4.69215 20.5905C6.43573 22.4997 8.78428 23.7492 11.3418 24.1285C11.2823 23.8776 11.313 23.6138 11.4284 23.3833C9.06571 23.0274 6.89533 21.8754 5.27652 20.118C3.65772 18.3606 2.68755 16.103 2.52661 13.7191Z" fill="#414950" stroke="#414950" stroke-width="0.5"/>
<path d="M24.1227 14.6588C23.8718 14.7173 23.6083 14.6864 23.3778 14.5712C23.0155 16.9311 21.8617 19.0977 20.1057 20.7154C18.3497 22.3331 16.0959 23.3057 13.7143 23.4735L13.768 23.4378C13.809 23.4105 13.8442 23.3754 13.8716 23.3345C13.899 23.2936 13.9181 23.2476 13.9278 23.1993C13.9374 23.151 13.9375 23.1013 13.9279 23.053C13.9184 23.0047 13.8994 22.9587 13.8721 22.9177C13.8448 22.8767 13.8096 22.8415 13.7687 22.8141C13.7278 22.7867 13.6819 22.7676 13.6336 22.758C13.5853 22.7483 13.5356 22.7483 13.4872 22.7578C13.4389 22.7674 13.393 22.7863 13.352 22.8136L12.2272 23.5636C12.1758 23.5979 12.1337 23.6443 12.1046 23.6987C12.0755 23.7532 12.0602 23.814 12.0602 23.8757C12.0602 23.9375 12.0755 23.9983 12.1046 24.0527C12.1337 24.1071 12.1758 24.1535 12.2272 24.1878L13.352 24.9378C13.4351 24.9919 13.5361 25.0113 13.6333 24.9918C13.7305 24.9722 13.8162 24.9154 13.872 24.8334C13.9271 24.7507 13.9471 24.6494 13.9276 24.552C13.9081 24.4545 13.8507 24.3687 13.768 24.3136L13.6427 24.2299C16.2215 24.0762 18.6694 23.0418 20.577 21.2996C22.4847 19.5574 23.7363 17.2131 24.1227 14.6588Z" fill="#414950" stroke="#414950" stroke-width="0.5"/>
<path d="M24.8317 12.128C24.749 12.073 24.6477 12.053 24.5502 12.0725C24.4528 12.092 24.367 12.1494 24.3117 12.232L24.2293 12.3551C24.2253 12.0533 24.1259 11.3347 24.1074 11.2175C23.7373 8.85446 22.62 6.67217 20.9191 4.99053C19.2183 3.3089 17.0234 2.21638 14.6564 1.87317C14.7164 2.12416 14.6863 2.3883 14.5712 2.6193C16.1605 2.85357 17.6742 3.45136 18.9947 4.36616C20.3152 5.28097 21.4068 6.48811 22.1846 7.89367L22.1771 7.89787C22.8251 9.06373 23.2448 10.3425 23.4135 11.6657C23.4156 11.6831 23.4695 12.2445 23.4723 12.287L23.4358 12.232C23.4085 12.1909 23.3734 12.1557 23.3325 12.1282C23.2915 12.1007 23.2456 12.0815 23.1972 12.0718C23.1489 12.0621 23.0991 12.0621 23.0507 12.0716C23.0023 12.0812 22.9563 12.1002 22.9153 12.1275C22.8743 12.1549 22.8391 12.1901 22.8117 12.2311C22.7842 12.2721 22.7652 12.318 22.7556 12.3664C22.746 12.4148 22.746 12.4646 22.7556 12.5129C22.7653 12.5613 22.7843 12.6072 22.8118 12.6482L23.5618 13.773C23.596 13.8244 23.6424 13.8665 23.6968 13.8956C23.7513 13.9247 23.812 13.94 23.8738 13.94C23.9355 13.94 23.9963 13.9247 24.0507 13.8956C24.1051 13.8665 24.1515 13.8244 24.1858 13.773L24.9358 12.6482C24.9909 12.5654 25.011 12.4641 24.9915 12.3666C24.972 12.269 24.9145 12.1832 24.8317 12.128Z" fill="#414950" stroke="#414950" stroke-width="0.5"/>
<path d="M12.1232 3.08332C12.179 3.16529 12.2648 3.2221 12.362 3.24151C12.4593 3.26093 12.5602 3.2414 12.6432 3.18713L13.768 2.43716C13.8194 2.4029 13.8615 2.35649 13.8906 2.30204C13.9198 2.2476 13.935 2.18681 13.935 2.12506C13.935 2.06332 13.9198 2.00253 13.8906 1.94809C13.8615 1.89364 13.8194 1.84723 13.768 1.81297L12.6432 1.063C12.6023 1.03568 12.5563 1.0167 12.508 1.00714C12.4598 0.997577 12.41 0.997621 12.3618 1.00727C12.3135 1.01692 12.2676 1.03598 12.2267 1.06337C12.1858 1.09076 12.1506 1.12594 12.1233 1.1669C12.096 1.20786 12.077 1.2538 12.0675 1.30209C12.0579 1.35039 12.058 1.40009 12.0676 1.44837C12.0773 1.49665 12.0963 1.54255 12.1237 1.58346C12.1511 1.62438 12.1863 1.65949 12.2272 1.68681L12.8841 2.12534L12.2272 2.5633C12.1863 2.59061 12.1511 2.62573 12.1236 2.66665C12.0962 2.70756 12.0772 2.75348 12.0675 2.80177C12.0578 2.85006 12.0578 2.89978 12.0674 2.94808C12.0769 2.99639 12.0959 3.04235 12.1232 3.08332Z" fill="#414950" stroke="#414950" stroke-width="0.5"/>
<path d="M3.0623 4.37476C3.32188 4.37476 3.57563 4.29779 3.79147 4.15357C4.0073 4.00936 4.17552 3.80438 4.27486 3.56456C4.37419 3.32474 4.40018 3.06085 4.34954 2.80626C4.2989 2.55167 4.1739 2.31781 3.99035 2.13426C3.8068 1.95071 3.57294 1.82571 3.31835 1.77507C3.06376 1.72443 2.79987 1.75042 2.56005 1.84975C2.32023 1.94909 2.11525 2.11731 1.97104 2.33314C1.82682 2.54898 1.74985 2.80273 1.74985 3.06231C1.75025 3.41027 1.88866 3.74386 2.1347 3.98991C2.38075 4.23595 2.71434 4.37436 3.0623 4.37476ZM3.0623 2.49964C3.1736 2.4996 3.2824 2.53257 3.37496 2.59437C3.46751 2.65618 3.53966 2.74404 3.58228 2.84685C3.62489 2.94966 3.63606 3.0628 3.61437 3.17196C3.59268 3.28112 3.53911 3.3814 3.46043 3.46011C3.38174 3.53882 3.28148 3.59242 3.17233 3.61415C3.06318 3.63587 2.95004 3.62474 2.84721 3.58216C2.74439 3.53958 2.6565 3.46746 2.59466 3.37493C2.53283 3.28239 2.49982 3.1736 2.49982 3.06231C2.50001 2.91317 2.55933 2.77019 2.66477 2.66471C2.77021 2.55924 2.91317 2.49987 3.0623 2.49964Z" fill="#414950" stroke="#414950" stroke-width="0.5"/>
<path d="M22.9382 4.37476C23.1977 4.37476 23.4515 4.29779 23.6673 4.15357C23.8831 4.00936 24.0514 3.80438 24.1507 3.56456C24.25 3.32474 24.276 3.06085 24.2254 2.80626C24.1747 2.55167 24.0497 2.31781 23.8662 2.13426C23.6826 1.95071 23.4488 1.82571 23.1942 1.77507C22.9396 1.72443 22.6757 1.75042 22.4359 1.84975C22.1961 1.94909 21.9911 2.11731 21.8469 2.33314C21.7027 2.54898 21.6257 2.80273 21.6257 3.06231C21.6261 3.41027 21.7645 3.74386 22.0106 3.98991C22.2566 4.23595 22.5902 4.37436 22.9382 4.37476ZM22.9382 2.49964C23.0494 2.4996 23.1583 2.53257 23.2508 2.59437C23.3434 2.65618 23.4155 2.74404 23.4581 2.84685C23.5007 2.94966 23.5119 3.0628 23.4902 3.17196C23.4685 3.28112 23.415 3.3814 23.3363 3.46011C23.2576 3.53882 23.1573 3.59242 23.0482 3.61415C22.939 3.63587 22.8259 3.62474 22.7231 3.58216C22.6202 3.53958 22.5323 3.46746 22.4705 3.37493C22.4087 3.28239 22.3757 3.1736 22.3757 3.06231C22.3759 2.91317 22.4352 2.77019 22.5406 2.66471C22.6461 2.55924 22.789 2.49987 22.9382 2.49964Z" fill="#414950" stroke="#414950" stroke-width="0.5"/>
<path d="M3.06249 21.6257C2.80289 21.6257 2.54912 21.7026 2.33326 21.8469C2.1174 21.9911 1.94916 22.196 1.8498 22.4359C1.75043 22.6757 1.72442 22.9396 1.77505 23.1942C1.82568 23.4488 1.95067 23.6827 2.13422 23.8663C2.31777 24.0499 2.55163 24.1749 2.80624 24.2256C3.06085 24.2762 3.32476 24.2503 3.5646 24.1509C3.80445 24.0516 4.00945 23.8834 4.15369 23.6675C4.29793 23.4517 4.37493 23.1979 4.37495 22.9383C4.37459 22.5904 4.2362 22.2567 3.99015 22.0106C3.7441 21.7646 3.41048 21.6261 3.06249 21.6257ZM3.06249 23.5008C2.95124 23.5008 2.84249 23.4678 2.74999 23.406C2.65749 23.3442 2.5854 23.2564 2.54283 23.1536C2.50025 23.0508 2.48912 22.9377 2.51082 22.8286C2.53252 22.7195 2.58609 22.6193 2.66476 22.5406C2.74342 22.4619 2.84365 22.4084 2.95276 22.3867C3.06187 22.365 3.17497 22.3761 3.27775 22.4187C3.38053 22.4613 3.46837 22.5333 3.53018 22.6258C3.59199 22.7183 3.62497 22.8271 3.62497 22.9383C3.62481 23.0875 3.5655 23.2305 3.46005 23.3359C3.3546 23.4414 3.21162 23.5007 3.06249 23.5008Z" fill="#414950" stroke="#414950" stroke-width="0.5"/>
<path d="M22.9383 21.6257C22.6787 21.6257 22.425 21.7026 22.2091 21.8469C21.9933 21.9911 21.825 22.196 21.7256 22.4359C21.6263 22.6757 21.6003 22.9396 21.6509 23.1942C21.7015 23.4488 21.8265 23.6827 22.0101 23.8663C22.1936 24.0499 22.4275 24.1749 22.6821 24.2256C22.9367 24.2762 23.2006 24.2503 23.4405 24.1509C23.6803 24.0516 23.8853 23.8834 24.0295 23.6675C24.1738 23.4517 24.2508 23.1979 24.2508 22.9383C24.2504 22.5904 24.112 22.2567 23.866 22.0106C23.6199 21.7646 23.2863 21.6261 22.9383 21.6257ZM22.9383 23.5008C22.8271 23.5008 22.7183 23.4678 22.6258 23.406C22.5333 23.3442 22.4612 23.2564 22.4187 23.1536C22.3761 23.0508 22.365 22.9377 22.3867 22.8286C22.4084 22.7195 22.4619 22.6193 22.5406 22.5406C22.6193 22.4619 22.7195 22.4084 22.8286 22.3867C22.9377 22.365 23.0508 22.3761 23.1536 22.4187C23.2564 22.4613 23.3442 22.5333 23.406 22.6258C23.4678 22.7183 23.5008 22.8271 23.5008 22.9383C23.5007 23.0875 23.4413 23.2305 23.3359 23.3359C23.2304 23.4414 23.0875 23.5007 22.9383 23.5008Z" fill="#414950" stroke="#414950" stroke-width="0.5"/>
<path d="M4.09272 6.12799C4.05309 6.17907 4.0139 6.23058 3.97516 6.28253C3.94572 6.32199 3.92433 6.36687 3.91222 6.4146C3.90012 6.46233 3.89754 6.51197 3.90462 6.5607C3.9117 6.60943 3.92831 6.65629 3.9535 6.6986C3.97869 6.7409 4.01197 6.77784 4.05144 6.80728C4.13154 6.86565 4.2313 6.89036 4.32938 6.87612C4.42746 6.86189 4.51608 6.80985 4.57629 6.73112C4.61236 6.68279 4.64886 6.63475 4.68578 6.58702C4.74665 6.50837 4.77379 6.40877 4.76122 6.31011C4.74865 6.21146 4.69741 6.12184 4.61877 6.06097C4.54012 6.0001 4.44052 5.97297 4.34186 5.98554C4.24321 5.99811 4.15359 6.04935 4.09272 6.12799Z" fill="#414950" stroke="#414950" stroke-width="0.5"/>
<path d="M1.95342 10.8539C1.94124 10.9173 1.92942 10.9808 1.91827 11.0453C1.90133 11.1415 1.923 11.2406 1.97858 11.321C2.16707 11.2963 2.35874 11.3199 2.53557 11.3897C2.5996 11.3338 2.64249 11.2577 2.65707 11.174C2.66749 11.115 2.67841 11.0551 2.68984 10.9964C2.70857 10.8988 2.6878 10.7978 2.6321 10.7155C2.57639 10.6332 2.49031 10.5764 2.39275 10.5575C2.2952 10.5386 2.19413 10.5592 2.11176 10.6148C2.02939 10.6704 1.97244 10.7564 1.95342 10.8539Z" fill="#414950" stroke="#414950" stroke-width="0.5"/>
<path d="M5.38722 5.60669C5.46461 5.59628 5.53916 5.57065 5.60659 5.53127C5.67401 5.4919 5.73297 5.43955 5.78006 5.37727C5.85235 5.30887 5.8945 5.21456 5.89725 5.11508C5.89999 5.0156 5.86311 4.91911 5.79471 4.84682C5.72631 4.77454 5.632 4.73238 5.53252 4.72964C5.43304 4.72689 5.33655 4.76377 5.26426 4.83217C5.2172 4.87685 5.1707 4.92207 5.12456 4.96731C5.07088 5.019 5.03398 5.08564 5.01864 5.15857C5.00331 5.23149 5.01025 5.30735 5.03857 5.37628C5.06689 5.44521 5.11527 5.50404 5.17745 5.54513C5.23962 5.58621 5.31271 5.60766 5.38722 5.60669Z" fill="#414950" stroke="#414950" stroke-width="0.5"/>
<path d="M3.37481 8.30308C3.44296 8.30268 3.50976 8.28394 3.56817 8.24882C3.62658 8.2137 3.67446 8.1635 3.70677 8.10349C3.73497 8.05058 3.76371 7.99713 3.79283 7.9442C3.81656 7.90105 3.83156 7.85365 3.83697 7.8047C3.84239 7.75575 3.8381 7.70622 3.82438 7.65893C3.81065 7.61164 3.78773 7.56751 3.75695 7.52907C3.72617 7.49064 3.68812 7.45864 3.64497 7.43491C3.60182 7.41117 3.55442 7.39617 3.50547 7.39076C3.45653 7.38535 3.40699 7.38963 3.3597 7.40336C3.31241 7.41709 3.26829 7.44 3.22985 7.47078C3.19141 7.50156 3.15941 7.53962 3.13568 7.58276C3.10456 7.63916 3.07379 7.69665 3.04358 7.75359C3.01466 7.81082 3.00075 7.87445 3.00314 7.93852C3.00553 8.0026 3.02415 8.06501 3.05725 8.11993C3.09035 8.17484 3.13685 8.22045 3.19239 8.25248C3.24794 8.28452 3.3107 8.30193 3.37481 8.30308Z" fill="#414950" stroke="#414950" stroke-width="0.5"/>
<path d="M3.06179 9.60225C3.08136 9.54439 3.10152 9.48764 3.12211 9.43088C3.13896 9.38455 3.14651 9.33535 3.14434 9.2861C3.14216 9.23684 3.13029 9.1885 3.10941 9.14384C3.08853 9.09918 3.05904 9.05907 3.02265 9.02582C2.98625 8.99256 2.94366 8.9668 2.8973 8.95003C2.85094 8.93325 2.80172 8.92578 2.75247 8.92804C2.70322 8.9303 2.6549 8.94225 2.61028 8.9632C2.56565 8.98415 2.52559 9.0137 2.49239 9.05015C2.4592 9.0866 2.43351 9.12924 2.41681 9.17563C2.39474 9.23625 2.37333 9.29757 2.35228 9.35874C2.33629 9.40532 2.32963 9.4546 2.33269 9.50376C2.33574 9.55292 2.34845 9.601 2.37009 9.64525C2.39172 9.6895 2.42186 9.72905 2.45878 9.76165C2.49571 9.79425 2.53869 9.81926 2.58527 9.83525C2.63186 9.85124 2.68114 9.8579 2.7303 9.85484C2.77946 9.85179 2.82754 9.83908 2.87179 9.81744C2.91604 9.79581 2.95559 9.76567 2.98819 9.72874C3.02079 9.69182 3.0458 9.64884 3.06179 9.60225Z" fill="#414950" stroke="#414950" stroke-width="0.5"/>
<path d="M9.67746 3.01989C9.77474 3.00178 9.87083 2.97774 9.96519 2.94793C10.0124 2.93366 10.0562 2.91024 10.0944 2.87901C10.1325 2.84778 10.1641 2.80934 10.1873 2.7659C10.2106 2.72246 10.225 2.67487 10.2299 2.62583C10.2348 2.5768 10.2299 2.52729 10.2157 2.48012C10.2014 2.43296 10.178 2.38907 10.1467 2.35096C10.1155 2.31284 10.0771 2.28126 10.0336 2.258C9.94591 2.21102 9.84311 2.20082 9.74786 2.22964C9.68607 2.2485 9.62448 2.26785 9.56311 2.28767C9.47796 2.31497 9.40537 2.37179 9.35843 2.44789C9.31148 2.52399 9.29326 2.61435 9.30706 2.7027C9.32086 2.79104 9.36576 2.87155 9.43367 2.92971C9.50159 2.98787 9.58805 3.01985 9.67746 3.01989Z" fill="#414950" stroke="#414950" stroke-width="0.5"/>
<path d="M11.3199 2.63092C11.3389 2.63092 11.4979 2.60859 11.5584 2.60016C11.6072 2.59326 11.6542 2.57681 11.6966 2.55177C11.739 2.52672 11.7761 2.49357 11.8057 2.45419C11.8354 2.41481 11.8569 2.36999 11.8692 2.32227C11.8815 2.27456 11.8843 2.22489 11.8774 2.1761C11.8705 2.12731 11.8541 2.08036 11.829 2.03793C11.804 1.9955 11.7708 1.95841 11.7314 1.92879C11.6921 1.89918 11.6472 1.8776 11.5995 1.86531C11.5518 1.85301 11.5021 1.85024 11.4533 1.85714C11.3897 1.86666 11.3264 1.876 11.2631 1.88571C11.1698 1.90007 11.0853 1.94914 11.0266 2.0231C10.9679 2.09705 10.9392 2.19045 10.9464 2.28461C10.9536 2.37876 10.996 2.46674 11.0653 2.53095C11.1345 2.59516 11.2254 2.63086 11.3199 2.63092Z" fill="#414950" stroke="#414950" stroke-width="0.5"/>
<path d="M8.11896 3.65109C8.23318 3.62434 8.34402 3.58479 8.44937 3.53317C8.53878 3.48984 8.60735 3.41281 8.64004 3.31898C8.67273 3.22515 8.66686 3.12218 8.62373 3.03267C8.5806 2.94316 8.50373 2.87442 8.40997 2.84151C8.31622 2.80861 8.21324 2.81424 8.12363 2.85716C8.06549 2.88518 8.00766 2.91386 7.95014 2.94322C7.90616 2.96527 7.86697 2.99577 7.83479 3.03299C7.80262 3.0702 7.7781 3.1134 7.76264 3.1601C7.74718 3.20681 7.74108 3.2561 7.74469 3.30516C7.74831 3.35423 7.76157 3.40209 7.78371 3.44603C7.81577 3.50737 7.8639 3.55885 7.92295 3.59497C7.982 3.63108 8.04975 3.65048 8.11896 3.65109Z" fill="#414950" stroke="#414950" stroke-width="0.5"/>
<path d="M6.67845 4.52279C6.81526 4.50543 6.94323 4.44578 7.04448 4.35215C7.08498 4.32417 7.11958 4.28849 7.1463 4.24714C7.17301 4.2058 7.19132 4.15959 7.20018 4.11117C7.20904 4.06275 7.20827 4.01305 7.19792 3.96492C7.18758 3.9168 7.16785 3.87118 7.13988 3.83067C7.1119 3.79017 7.07622 3.75557 7.03487 3.72886C6.99352 3.70214 6.94732 3.68383 6.8989 3.67497C6.85047 3.66611 6.80078 3.66688 6.75265 3.67723C6.70452 3.68757 6.6589 3.7073 6.6184 3.73528C6.56521 3.77172 6.51248 3.80889 6.46012 3.84588C6.37919 3.90382 6.32457 3.99153 6.30826 4.08972C6.29195 4.1879 6.31529 4.28855 6.37314 4.36955C6.40856 4.41713 6.45461 4.45577 6.50762 4.48238C6.56064 4.50898 6.61914 4.52282 6.67845 4.52279Z" fill="#414950" stroke="#414950" stroke-width="0.5"/>
</svg>
