<svg width="90" height="70" viewBox="0 0 90 70" fill="none" xmlns="http://www.w3.org/2000/svg">
<path d="M82.6097 69.7178C76.4802 67.0367 68.3819 63.3784 61.0886 60.3511L58.4105 58.3911L58.4184 58.5186L56.6888 55.3022C56.6888 55.3045 56.6914 55.3069 56.6914 55.3093C56.6516 55.172 56.6038 55.0378 56.548 54.9084C56.2956 54.3108 55.8758 54.0481 55.6978 53.9434C55.6951 54.0173 55.6951 54.0909 55.6924 54.1645V52.9125V50.6422C56.4656 49.3876 57.0448 48.019 57.3158 46.5072C57.4726 45.6429 57.6187 44.7956 57.7595 43.9651C57.7994 44.0413 57.8658 44.1019 57.9508 44.1301C58.1767 44.2055 58.4052 44.2438 58.631 44.2438C60.0604 44.2438 61.434 42.7065 62.0026 39.3038C62.5845 35.8152 62.186 34.795 61.5749 34.1786C61.3039 33.9049 60.9213 33.7801 60.5094 33.7801C60.3155 33.7801 60.1136 33.8066 59.9143 33.8598C59.9249 33.8518 59.9382 33.8465 59.9488 33.8412C61.1285 29.6379 61.7768 21.7947 60.9053 19.1936C59.4361 14.8017 51.0933 10.1468 45.7609 10.1468C40.4986 10.1468 29.8778 14.6821 28.4691 19.4513C27.773 21.8106 28.1206 28.9338 29.4926 33.7907C29.424 33.7827 29.356 33.7801 29.2888 33.7801C28.8751 33.7801 28.4944 33.9049 28.2212 34.1786C27.6115 34.795 27.2132 35.8152 27.7953 39.3038C28.3631 42.7065 29.737 44.2438 31.1672 44.2438C31.3931 44.2438 31.6202 44.2055 31.8455 44.1301C31.9303 44.1019 31.9965 44.0413 32.0384 43.9651C32.1771 44.7956 32.3246 45.6429 32.4803 46.5072C32.7526 48.019 33.3313 49.3878 34.1034 50.6424V54.0016C34.1031 53.9771 34.1029 53.9527 34.1023 53.9283C33.9057 54.0329 33.547 54.2806 33.2691 54.8781C33.2051 55.0157 33.1509 55.1589 33.1052 55.3056L31.3808 58.5157L31.3872 58.4134L28.7085 60.3731C21.4833 63.3725 13.4642 66.992 7.35647 69.666C5.74957 67.2189 4.37488 64.6051 3.26375 61.8573C1.15841 56.6503 0 50.9613 0 45C0 20.1474 20.1471 -7.62939e-06 44.9999 -7.62939e-06C69.8538 -7.62939e-06 90.0012 20.1474 90.0012 45C90.0012 54.1286 87.2805 62.6241 82.6097 69.7178ZM34.1034 58.8353C34.1031 58.8348 34.1029 58.8345 34.1026 58.834C34.1029 58.7715 34.1031 58.7091 34.1034 58.6469V58.8353Z" fill="#DEEBFF"/>
</svg>
