<svg width="90" height="90" viewBox="0 0 90 90" fill="none" xmlns="http://www.w3.org/2000/svg">
<path d="M45.0002 0C69.8498 0 90 20.1444 90 45.0002C90 69.8498 69.8498 90 45.0002 90C20.1503 90 0 69.8498 0 45.0002C0 20.1444 20.1503 0 45.0002 0Z" fill="#FFDFB0"/>
<path d="M45 90C69.8434 90.0062 89.9878 69.8798 89.9998 45.0364V45.0002C90.0119 20.1565 69.8796 0.0120739 45.0362 -2.24647e-06H45V90Z" fill="#FFF5E7"/>
<path d="M45.0008 16.1155C51.4578 16.1155 56.6947 21.3465 56.6947 27.8035C56.6947 34.2545 51.4578 39.4915 45.0008 39.4915C38.5498 39.4915 33.3066 34.2545 33.3066 27.8035C33.3066 21.3465 38.5498 16.1155 45.0008 16.1155Z" fill="#FF9800"/>
<path d="M20.4258 64.0569C20.4258 50.4843 31.419 39.485 44.9915 39.485C58.5579 39.485 69.5696 50.4843 69.5696 64.0569" fill="#FF9800"/>
</svg>
