<svg xmlns="http://www.w3.org/2000/svg" id="settings-remote" width="24" height="24" viewBox="0 0 24 24">
    <defs>
        <style>
            .cls-1{fill:none}.cls-2{fill:#f57c00}
        </style>
    </defs>
    <path id="Path_1908" d="M0 0h24v24H0z" class="cls-1" data-name="Path 1908"/>
    <path id="Path_1909" d="M15 9H9a1 1 0 0 0-1 1v12a1 1 0 0 0 1 1h6a1 1 0 0 0 1-1V10a1 1 0 0 0-1-1zm-1 12h-4V11h4z" class="cls-2" data-name="Path 1909"/>
    <circle id="Ellipse_52" cx="1" cy="1" r="1" class="cls-2" data-name="Ellipse 52" transform="translate(11 12)"/>
    <path id="Path_1910" d="M7.05 6.05l1.41 1.41a5.022 5.022 0 0 1 7.08 0l1.41-1.41a7 7 0 0 0-9.9 0zM12 0a10.965 10.965 0 0 0-7.78 3.22l1.41 1.41a9.005 9.005 0 0 1 12.73.01l1.41-1.41A10.892 10.892 0 0 0 12 0z" class="cls-2" data-name="Path 1910"/>
</svg>
