<svg width="148" height="49" viewBox="0 0 148 49" fill="none" xmlns="http://www.w3.org/2000/svg">
<path d="M45.7733 23.419V10.8925H40.0098V8.24023H54.19V10.8925H48.4255V23.419H45.7733Z" fill="#20231F"/>
<path d="M62.5226 23.4235C61.5137 23.4337 60.5141 23.231 59.5889 22.8286C58.7015 22.4426 57.9007 21.8823 57.2339 21.181C56.567 20.4797 56.0479 19.6516 55.7071 18.7459C55.332 17.7661 55.144 16.7246 55.153 15.6754C55.1401 14.6332 55.3283 13.5983 55.7071 12.6272C56.052 11.7446 56.5783 10.9442 57.252 10.2778C57.9227 9.62393 58.7185 9.1123 59.5918 8.77359C60.527 8.41149 61.5226 8.23069 62.5255 8.24081H66.2219C67.2533 8.22852 68.2776 8.41296 69.24 8.78426C70.1215 9.12191 70.922 9.64137 71.5895 10.3088C72.2569 10.9763 72.7764 11.7768 73.114 12.6583C73.485 13.6204 73.6691 14.6444 73.6565 15.6754C73.6658 16.7245 73.4782 17.766 73.1034 18.7459C72.7563 19.6584 72.2308 20.4924 71.5574 21.1992C70.8904 21.8932 70.0917 22.4471 69.208 22.8286C68.2641 23.2335 67.2459 23.4362 66.219 23.4235H62.5226ZM66.219 20.7713C66.8784 20.7784 67.5323 20.6506 68.1405 20.3957C68.715 20.1558 69.2339 19.8003 69.665 19.3512C70.0961 18.9021 70.4301 18.369 70.6462 17.7852C70.8867 17.1518 71.0072 16.4791 71.0014 15.8016C71.0079 15.1272 70.8874 14.4575 70.6462 13.8277C70.4289 13.2505 70.0945 12.7247 69.6639 12.2832C69.2333 11.8418 68.7159 11.4943 68.1444 11.2628C67.5346 11.0142 66.8813 10.8898 66.2229 10.8969H62.5226C61.8745 10.8904 61.2318 11.0149 60.6331 11.2628C60.0713 11.4951 59.5631 11.8399 59.1396 12.2759C58.7132 12.7209 58.3794 13.246 58.1575 13.8209C57.9144 14.4539 57.7939 15.1274 57.8023 15.8055C57.7965 16.483 57.9169 17.1557 58.1575 17.7891C58.3772 18.3746 58.711 18.9106 59.1396 19.366C59.5621 19.8083 60.0703 20.16 60.6331 20.3996C61.2302 20.6539 61.8735 20.7818 62.5226 20.7751L66.219 20.7713Z" fill="#20231F"/>
<path d="M89.3779 8.04688H91.968V16.5296C91.968 17.6999 91.8147 18.7199 91.508 19.5894C91.2262 20.4241 90.7291 21.1696 90.0669 21.7506C89.4128 22.3219 88.5672 22.7466 87.5302 23.0248C86.4931 23.303 85.2367 23.4424 83.7609 23.4431C82.2988 23.4431 81.0492 23.3036 80.0121 23.0248C78.975 22.7459 78.1291 22.3212 77.4744 21.7506C76.8125 21.1693 76.3154 20.4239 76.0332 19.5894C75.7266 18.7141 75.5736 17.6941 75.5742 16.5296V8.04688H78.3099V16.5296C78.295 17.195 78.3901 17.8583 78.5913 18.4928C78.7658 19.0159 79.0843 19.4791 79.5104 19.8291C79.9354 20.1765 80.5028 20.4305 81.2125 20.5909C81.9223 20.7514 82.7995 20.8316 83.8444 20.8316C84.8886 20.8316 85.7656 20.7514 86.4753 20.5909C87.185 20.4305 87.7524 20.1765 88.1774 19.8291C88.6033 19.4785 88.9218 19.0151 89.0965 18.4918C89.2847 17.9497 89.3785 17.2953 89.3779 16.5286V8.04688Z" fill="#20231F"/>
<path d="M101.304 23.4233C100.295 23.4335 99.2953 23.2308 98.3701 22.8284C97.4827 22.4424 96.6819 21.8822 96.0151 21.1808C95.3483 20.4795 94.8291 19.6515 94.4883 18.7458C94.1132 17.7659 93.9253 16.7244 93.9342 15.6753C93.9214 14.633 94.1095 13.5981 94.4883 12.6271C94.8333 11.7444 95.3596 10.944 96.0333 10.2776C96.704 9.62376 97.4998 9.11213 98.373 8.77341C99.3083 8.41132 100.304 8.23051 101.307 8.24064H109.535V10.8929H101.307C100.659 10.8864 100.016 11.0108 99.4172 11.2587C98.8555 11.491 98.3472 11.8358 97.9237 12.2719C97.4974 12.7168 97.1636 13.242 96.9416 13.8168C96.6989 14.45 96.5787 15.1234 96.5874 15.8014C96.5813 16.4789 96.7014 17.1515 96.9416 17.785C97.1614 18.3705 97.4952 18.9065 97.9237 19.362C98.3463 19.8043 98.8544 20.1559 99.4172 20.3955C100.014 20.6499 100.658 20.7778 101.307 20.7711H109.535V23.4233H101.304Z" fill="#20231F"/>
<path d="M127.513 23.5345L125.237 19.7129H118.056L119.309 17.5624H123.967L120.58 11.8891L113.688 23.5345H110.66L119.394 9.00009C119.53 8.75546 119.715 8.54191 119.938 8.37318C120.156 8.2167 120.42 8.13594 120.689 8.14318C120.955 8.13472 121.216 8.21571 121.43 8.37318C121.648 8.5446 121.829 8.75774 121.963 9.00009L130.709 23.5345H127.513Z" fill="#20231F"/>
<path d="M134.801 12.3094V23.4152H132.277V9.63484C132.277 9.14767 132.399 8.76143 132.643 8.47612C132.765 8.33427 132.918 8.22203 133.09 8.14789C133.262 8.07375 133.448 8.03964 133.635 8.04815C133.83 8.04828 134.022 8.09101 134.199 8.17334C134.41 8.27859 134.6 8.4198 134.763 8.59063L145.476 19.2209V8.11123H148V22.0207C148 22.5214 147.878 22.9112 147.635 23.1901C147.517 23.3259 147.371 23.4339 147.207 23.5061C147.042 23.5783 146.864 23.6129 146.685 23.6074C146.253 23.6074 145.849 23.4194 145.474 23.0435L134.801 12.3094Z" fill="#20231F"/>
<path d="M9.75457 0.935425C4.05327 3.05114 0 8.52973 0 14.966C0 21.4022 4.05327 26.8808 9.75457 28.9965V26.8362V0.935425Z" fill="black"/>
<mask id="mask0_9963_2" style="mask-type:luminance" maskUnits="userSpaceOnUse" x="0" y="0" width="10" height="29">
<path d="M9.75457 0.933472C4.05327 3.04919 0 8.52778 0 14.964C0 21.4002 4.05327 26.8788 9.75457 28.9946V26.8343V0.933472Z" fill="white"/>
</mask>
<g mask="url(#mask0_9963_2)">
<path d="M10.6233 15.766C14.018 15.766 16.77 13.014 16.77 9.61925C16.77 6.22451 14.018 3.47253 10.6233 3.47253C7.22854 3.47253 4.47656 6.22451 4.47656 9.61925C4.47656 13.014 7.22854 15.766 10.6233 15.766Z" fill="white"/>
</g>
<mask id="mask1_9963_2" style="mask-type:luminance" maskUnits="userSpaceOnUse" x="0" y="0" width="10" height="29">
<path d="M9.75457 0.933472C4.05327 3.04919 0 8.52778 0 14.964C0 21.4002 4.05327 26.8788 9.75457 28.9946V26.8343V0.933472Z" fill="white"/>
</mask>
<g mask="url(#mask1_9963_2)">
<path d="M11.07 2.828H9.19922V16.569H11.07V2.828Z" fill="black"/>
</g>
<path d="M21.2223 26.0804C20.9105 26.0804 20.6655 25.8354 20.6655 25.5236C20.6655 25.2118 20.9105 24.9668 21.2223 24.9668H26.1219C26.6564 24.3655 27.1463 23.7197 27.5917 23.0293H19.3516C19.0398 23.0293 18.7948 22.7843 18.7948 22.4725C18.7948 22.1607 19.0398 21.9158 19.3516 21.9158H28.2376C28.5716 21.2922 28.8389 20.6463 29.0839 19.9782H17.4808C17.169 19.9782 16.9241 19.7332 16.9241 19.4214C16.9241 19.1097 17.169 18.8647 17.4808 18.8647H29.4402C29.7742 17.6398 29.9524 16.3481 29.9524 15.0118H12.4922V27.4166C12.4922 28.7974 13.5835 29.9332 14.9642 29.9332H14.9865C18.8393 29.9332 22.3581 28.4633 25.0083 26.0804H21.2223Z" fill="black"/>
<path d="M29.6206 13.8965C28.2844 12.2484 26.1687 11.9812 25.211 11.9366H12.7617V0.467229C13.4967 0.355875 14.2316 0.289062 14.9665 0.289062C21.7591 0.289062 27.6163 4.87682 29.2198 11.469L29.2866 11.7362C29.487 12.627 29.5984 13.362 29.6206 13.8965Z" fill="#F7901E"/>
<path d="M14.967 0.579038C21.6036 0.579038 27.3495 5.07772 28.9307 11.5362L28.9752 11.7367V11.7589C29.0866 12.2489 29.1757 12.672 29.2202 13.0729C27.8394 11.9148 26.08 11.6921 25.2115 11.6476H25.1892H25.167H13.0294V0.712662C13.7198 0.623579 14.3434 0.579038 14.967 0.579038ZM14.967 0C14.1207 0 13.2744 0.0668121 12.4727 0.222707V12.2712H25.1892C26.2582 12.3157 28.8416 12.672 29.9329 14.9882C29.9329 14.9882 30.0442 13.7633 29.5543 11.6476C29.5543 11.6253 29.532 11.5808 29.532 11.5585C29.532 11.5139 29.5097 11.4694 29.5097 11.4249C27.9062 4.85501 22.0268 0 14.967 0Z" fill="black"/>
<path d="M7.52709 7.39598C7.85919 7.39598 8.1284 7.12676 8.1284 6.79467C8.1284 6.46258 7.85919 6.19336 7.52709 6.19336C7.195 6.19336 6.92578 6.46258 6.92578 6.79467C6.92578 7.12676 7.195 7.39598 7.52709 7.39598Z" fill="black"/>
<path d="M29.5765 13.9878C29.4206 13.9878 29.287 13.8542 29.287 13.6983C29.0866 9.53368 25.6792 6.28216 21.4923 6.28216H12.8735C12.7176 6.28216 12.584 6.14854 12.584 5.99264C12.584 5.83675 12.7176 5.70312 12.8735 5.70312H21.4923C25.9687 5.70312 29.6656 9.22189 29.866 13.6983C29.8883 13.8542 29.777 13.9878 29.5765 13.9878C29.5988 13.9878 29.5988 13.9878 29.5765 13.9878Z" fill="black"/>
<path d="M41.9161 49C41.1475 49 40.4751 48.8771 39.8987 48.6313C39.3223 48.3855 38.8702 48.0526 38.5425 47.6327C38.226 47.2128 38.0452 46.7467 38 46.2346H38.7968C38.8872 46.798 39.1754 47.2998 39.6614 47.7402C40.1586 48.1806 40.9102 48.4008 41.9161 48.4008C42.5038 48.4008 43.0123 48.3035 43.4418 48.1089C43.8826 47.9143 44.2216 47.648 44.459 47.3101C44.6963 46.9721 44.815 46.5982 44.815 46.1885C44.815 45.6662 44.6737 45.2514 44.3911 44.9441C44.1199 44.6369 43.7752 44.4064 43.357 44.2528C42.9502 44.0992 42.3964 43.9353 41.6957 43.7612C40.9272 43.5768 40.3056 43.3925 39.8309 43.2081C39.3675 43.0237 38.972 42.7421 38.6442 42.3631C38.3278 41.9739 38.1695 41.4465 38.1695 40.7807C38.1695 40.2686 38.3164 39.8026 38.6103 39.3827C38.9154 38.9525 39.3449 38.6145 39.8987 38.3687C40.4525 38.1229 41.091 38 41.8143 38C42.8654 38 43.713 38.2356 44.3572 38.7067C45.0014 39.1778 45.3857 39.7565 45.51 40.4427H44.6963C44.6285 40.1662 44.4759 39.8845 44.2386 39.5978C44.0125 39.311 43.6848 39.0754 43.2553 38.8911C42.8372 38.6965 42.3342 38.5992 41.7465 38.5992C40.9554 38.5992 40.2886 38.7989 39.7461 39.1983C39.2036 39.5875 38.9324 40.1099 38.9324 40.7654C38.9324 41.2877 39.0737 41.7076 39.3562 42.0251C39.6388 42.3324 39.9835 42.568 40.3903 42.7318C40.8085 42.8855 41.3679 43.0442 42.0686 43.2081C42.8485 43.4027 43.4644 43.5922 43.9165 43.7765C44.3798 43.9507 44.7698 44.2323 45.0862 44.6215C45.414 45.0005 45.5778 45.5177 45.5778 46.1732C45.5778 46.6546 45.4366 47.1103 45.154 47.5405C44.8715 47.9707 44.4533 48.324 43.8995 48.6006C43.357 48.8669 42.6959 49 41.9161 49Z" fill="#FFA000"/>
<path d="M48.5566 38.1075V44.852C48.5566 46.0708 48.8617 46.9669 49.472 47.5405C50.0823 48.1038 50.913 48.3855 51.9641 48.3855C53.0038 48.3855 53.8232 48.1038 54.4222 47.5405C55.0212 46.9772 55.3207 46.081 55.3207 44.852V38.1075H56.0836V44.8366C56.0836 46.2398 55.7106 47.2845 54.9647 47.9707C54.2188 48.6569 53.2186 49 51.9641 49C50.7096 49 49.6981 48.6569 48.9296 47.9707C48.1723 47.2742 47.7937 46.2295 47.7937 44.8366V38.1075H48.5566Z" fill="#FFA000"/>
<path d="M65.9929 41.1494C65.9929 42.102 65.6652 42.8445 65.0097 43.3771C64.3542 43.8994 63.3822 44.1606 62.0938 44.1606H59.5509V48.8925H58.788V38.1075H62.0938C63.4048 38.1075 64.3824 38.3841 65.0266 38.9372C65.6708 39.48 65.9929 40.2174 65.9929 41.1494ZM62.0938 43.5461C64.1846 43.5461 65.23 42.7472 65.23 41.1494C65.23 40.3608 64.9814 39.7616 64.4841 39.352C63.9869 38.932 63.1901 38.7221 62.0938 38.7221H59.5509V43.5461H62.0938Z" fill="#FFA000"/>
<path d="M68.8053 38.6913V43.1927H73.5521V43.7765H68.8053V48.3087H74.0607V48.8925H68.0425V38.1075H74.0607V38.6913H68.8053Z" fill="#FFA000"/>
<path d="M82.7948 48.8925L79.7434 44.2989H77.1327V48.8925H76.3698V38.1075H79.6417C80.964 38.1075 81.9529 38.3892 82.6084 38.9525C83.2752 39.5158 83.6086 40.2635 83.6086 41.1955C83.6086 42.0251 83.3486 42.7114 82.8287 43.2542C82.3202 43.7868 81.5742 44.1145 80.591 44.2374L83.7103 48.8925H82.7948ZM77.1327 43.7151H79.6756C80.7266 43.7151 81.5121 43.4846 82.032 43.0237C82.5519 42.5628 82.8118 41.9534 82.8118 41.1955C82.8118 39.5466 81.7551 38.7221 79.6417 38.7221H77.1327V43.7151Z" fill="#FFA000"/>
<path d="M94.0984 49C93.3299 49 92.6574 48.8771 92.0811 48.6313C91.5047 48.3855 91.0526 48.0526 90.7248 47.6327C90.4084 47.2128 90.2276 46.7467 90.1824 46.2346H90.9791C91.0695 46.798 91.3577 47.2998 91.8437 47.7402C92.341 48.1806 93.0926 48.4008 94.0984 48.4008C94.6861 48.4008 95.1947 48.3035 95.6242 48.1089C96.0649 47.9143 96.404 47.648 96.6413 47.3101C96.8786 46.9721 96.9973 46.5982 96.9973 46.1885C96.9973 45.6662 96.856 45.2514 96.5735 44.9441C96.3023 44.6369 95.9576 44.4064 95.5394 44.2528C95.1325 44.0992 94.5787 43.9353 93.878 43.7612C93.1095 43.5768 92.4879 43.3925 92.0132 43.2081C91.5499 43.0237 91.1543 42.7421 90.8266 42.3631C90.5101 41.9739 90.3519 41.4465 90.3519 40.7807C90.3519 40.2686 90.4988 39.8026 90.7926 39.3827C91.0978 38.9525 91.5273 38.6145 92.0811 38.3687C92.6348 38.1229 93.2734 38 93.9967 38C95.0478 38 95.8954 38.2356 96.5396 38.7067C97.1838 39.1778 97.5681 39.7565 97.6924 40.4427H96.8786C96.8108 40.1662 96.6583 39.8845 96.4209 39.5978C96.1949 39.311 95.8671 39.0754 95.4377 38.8911C95.0195 38.6965 94.5166 38.5992 93.9289 38.5992C93.1378 38.5992 92.471 38.7989 91.9285 39.1983C91.386 39.5875 91.1147 40.1099 91.1147 40.7654C91.1147 41.2877 91.256 41.7076 91.5386 42.0251C91.8211 42.3324 92.1658 42.568 92.5727 42.7318C92.9908 42.8855 93.5503 43.0442 94.251 43.2081C95.0308 43.4027 95.6468 43.5922 96.0988 43.7765C96.5622 43.9507 96.9521 44.2323 97.2686 44.6215C97.5963 45.0005 97.7602 45.5177 97.7602 46.1732C97.7602 46.6546 97.6189 47.1103 97.3364 47.5405C97.0538 47.9707 96.6357 48.324 96.0819 48.6006C95.5394 48.8669 94.8782 49 94.0984 49Z" fill="#FFA000"/>
<path d="M106.622 38.1075V38.6913H103.231V48.8925H102.468V38.6913H99.0776V38.1075H106.622Z" fill="#FFA000"/>
<path d="M114.862 48.8925L111.811 44.2989H109.2V48.8925H108.437V38.1075H111.709C113.032 38.1075 114.021 38.3892 114.676 38.9525C115.343 39.5158 115.676 40.2635 115.676 41.1955C115.676 42.0251 115.416 42.7114 114.896 43.2542C114.388 43.7868 113.642 44.1145 112.659 44.2374L115.778 48.8925H114.862ZM109.2 43.7151H111.743C112.794 43.7151 113.58 43.4846 114.1 43.0237C114.62 42.5628 114.879 41.9534 114.879 41.1955C114.879 39.5466 113.823 38.7221 111.709 38.7221H109.2V43.7151Z" fill="#FFA000"/>
<path d="M118.703 38.6913V43.1927H123.45V43.7765H118.703V48.3087H123.958V48.8925H117.94V38.1075H123.958V38.6913H118.703Z" fill="#FFA000"/>
<path d="M133.015 46.1271H127.369L126.234 48.8925H125.403L129.777 38.3534H130.624L134.981 48.8925H134.15L133.015 46.1271ZM132.777 45.5433L130.201 39.2598L127.607 45.5433H132.777Z" fill="#FFA000"/>
<path d="M148 38.338V48.8925H147.237V39.7821L142.762 48.8925H142.151L137.659 39.7821V48.8925H136.896V38.338H137.71L142.456 47.986L147.203 38.338H148Z" fill="#FFA000"/>
</svg>
