<svg xmlns="http://www.w3.org/2000/svg" xmlns:xlink="http://www.w3.org/1999/xlink" viewBox="0 0 1169.41 1169.41"><defs><style>.cls-1{fill:#231f20;}.cls-2{fill:#fff;}.cls-3{clip-path:url(#clip-path);}.cls-4{fill:#f7901e;}</style><clipPath id="clip-path"><path class="cls-1" d="M410.78,117.51C221.21,188,86.13,370.57,86.13,584.71s135.08,396.68,324.65,467.2V117.51Z"/></clipPath></defs><g id="Layer_2" data-name="Layer 2"><g id="Layer_1-2" data-name="Layer 1"><circle class="cls-2" cx="584.71" cy="584.71" r="584.71"/><path class="cls-1" d="M410.78,117.51C221.21,188,86.13,370.57,86.13,584.71s135.08,396.68,324.65,467.2V117.51Z"/><g class="cls-3"><circle class="cls-2" cx="439.92" cy="406.72" r="204.99" transform="translate(-158.74 430.2) rotate(-45)"/><rect class="cls-1" x="391.87" y="180.92" width="62.43" height="457.84"/></g><path class="cls-1" d="M792.67,954.6a18.73,18.73,0,1,1,0-37.46H955.72a500.59,500.59,0,0,0,48.92-64.52H730.23a18.73,18.73,0,0,1,0-37.46h296.13a495.46,495.46,0,0,0,28.11-64.51H667.8a18.73,18.73,0,1,1,0-37.46h398.27a499,499,0,0,0,16.81-128.48H501.31V999.52c0,45.67,36.67,83.48,82.34,83.56h.85a496.52,496.52,0,0,0,334-128.48Z"/><path class="cls-4" d="M1072.37,549.32c-44.14-54.55-115.16-63.8-147-65.07H511.25V101.86a490,490,0,0,1,73.25-5.59c225.8,0,420.83,153.11,474.3,372.35l2.14,8.75h0A478.11,478.11,0,0,1,1072.37,549.32Z"/><path class="cls-1" d="M584.5,106.2c221.2,0,412.27,150,464.65,364.78l1.64,6.58.14.62c3.82,16.2,6.49,30.77,8.36,43.53-45.63-38.85-104.8-46.24-133.48-47.38l-.4,0H521.18V110.47a480.21,480.21,0,0,1,63.32-4.27m0-19.87a501.29,501.29,0,0,0-83.19,7v400.8H925c35.48,1.41,121.27,13.06,157.86,90.53,0,0,3.92-40.94-12.61-111.08-.22-1-.45-1.93-.68-2.89-.36-1.51-.68-2.95-1.06-4.49l-.07,0c-53.18-218-249.56-379.94-484-379.94Z"/><path class="cls-1" d="M356.46,313A19.67,19.67,0,1,1,336.8,293.3,19.66,19.66,0,0,1,356.46,313Z"/><path class="cls-1" d="M1071,552.35a9.93,9.93,0,0,1-9.92-9.46A259.05,259.05,0,0,0,801.89,295.94h-287a9.94,9.94,0,1,1,0-19.87h287a278.9,278.9,0,0,1,279,265.88,9.94,9.94,0,0,1-9.45,10.4Z"/></g></g></svg>