<svg xmlns="http://www.w3.org/2000/svg" id="Layer_2" width="130.484" height="28.011" data-name="Layer 2" viewBox="0 0 130.484 28.011">
    <defs>
        <clipPath id="clip-path">
            <path id="Path_2057" d="M9.086 10.17a14.023 14.023 0 0 0 0 26.257z" class="cls-1" data-name="Path 2057" transform="translate(.008 -10.17)"/>
        </clipPath>
        <style>
            .cls-1{fill:#231f20}
        </style>
    </defs>
    <g id="Layer_1" data-name="Layer 1">
        <path id="Path_2050" d="M407.21 90.835V79.747h-5.1V77.4h12.548v2.347h-5.1v11.088z" class="cls-1" data-name="Path 2050" transform="translate(-367.463 -70.715)"/>
        <path id="Path_2051" d="M564.674 90.83a6.379 6.379 0 0 1-6.031-4.14 7.421 7.421 0 0 1-.489-2.716 7.183 7.183 0 0 1 .489-2.7 6 6 0 0 1 1.367-2.074 6.162 6.162 0 0 1 2.07-1.33 6.994 6.994 0 0 1 2.6-.471h3.271a7.2 7.2 0 0 1 2.668.481 5.95 5.95 0 0 1 3.428 3.428 7.182 7.182 0 0 1 .48 2.671 7.416 7.416 0 0 1-.489 2.716 6.5 6.5 0 0 1-1.368 2.172 6.417 6.417 0 0 1-2.075 1.441 6.518 6.518 0 0 1-2.642.526zm3.271-2.347a4.264 4.264 0 0 0 1.7-.333 4.014 4.014 0 0 0 2.217-2.309 4.83 4.83 0 0 0 .314-1.756 4.753 4.753 0 0 0-.314-1.743 3.95 3.95 0 0 0-2.216-2.276 4.38 4.38 0 0 0-1.7-.324h-3.273a4.259 4.259 0 0 0-1.672.324 3.95 3.95 0 0 0-1.322.9 4.1 4.1 0 0 0-.868 1.368 4.716 4.716 0 0 0-.314 1.755 4.815 4.815 0 0 0 .314 1.756 4.162 4.162 0 0 0 .868 1.4 3.987 3.987 0 0 0 1.322.915 4.143 4.143 0 0 0 1.672.333z" class="cls-1" data-name="Path 2051" transform="translate(-510.056 -70.71)"/>
        <path id="Path_2052" d="M780.85 77.4h2.292v7.5a8.149 8.149 0 0 1-.407 2.708 4.441 4.441 0 0 1-1.274 1.912 5.556 5.556 0 0 1-2.246 1.127 15.146 15.146 0 0 1-6.648 0 5.548 5.548 0 0 1-2.246-1.127 4.45 4.45 0 0 1-1.275-1.912 8.133 8.133 0 0 1-.406-2.708v-7.5h2.421v7.5a5.36 5.36 0 0 0 .249 1.737 2.589 2.589 0 0 0 .813 1.182 3.582 3.582 0 0 0 1.506.675 12.886 12.886 0 0 0 4.657 0 3.581 3.581 0 0 0 1.506-.675 2.594 2.594 0 0 0 .809-1.182 5.319 5.319 0 0 0 .249-1.737z" class="cls-1" data-name="Path 2052" transform="translate(-702.409 -70.714)"/>
        <path id="Path_2053" d="M964.294 90.831a6.378 6.378 0 0 1-6.031-4.14 7.418 7.418 0 0 1-.489-2.716 7.181 7.181 0 0 1 .489-2.7 5.993 5.993 0 0 1 1.367-2.075 6.167 6.167 0 0 1 2.07-1.33 7 7 0 0 1 2.6-.471h7.281v2.347H964.3a4.256 4.256 0 0 0-1.672.324 3.951 3.951 0 0 0-1.322.9 4.1 4.1 0 0 0-.868 1.368 4.712 4.712 0 0 0-.314 1.755 4.805 4.805 0 0 0 .314 1.756 4.158 4.158 0 0 0 .865 1.4 3.994 3.994 0 0 0 1.321.915 4.145 4.145 0 0 0 1.672.333h7.281v2.347z" class="cls-1" data-name="Path 2053" transform="translate(-875.247 -70.711)"/>
        <path id="Path_2054" d="M1145.088 88.864l-2.014-3.382h-6.355l1.109-1.9h4.122l-2.994-5.026-6.1 10.311h-2.679L1137.909 76a1.789 1.789 0 0 1 .481-.555 1.1 1.1 0 0 1 .665-.2 1.056 1.056 0 0 1 .656.2 1.845 1.845 0 0 1 .471.555l7.743 12.862z" class="cls-1" data-name="Path 2054" transform="translate(-1032.733 -68.744)"/>
        <path id="Path_2055" d="M1355.123 79.245v9.831h-2.233V76.883a1.528 1.528 0 0 1 .324-1.026 1.092 1.092 0 0 1 .877-.379 1.181 1.181 0 0 1 .5.111 1.8 1.8 0 0 1 .5.37l9.48 9.406v-9.834h2.232v12.307a1.5 1.5 0 0 1-.323 1.03 1.066 1.066 0 0 1-.841.37 1.5 1.5 0 0 1-1.072-.5z" class="cls-1" data-name="Path 2055" transform="translate(-1236.318 -68.957)"/>
        <path id="Path_2056" d="M9.086 10.17a14.023 14.023 0 0 0 0 26.257z" class="cls-1" data-name="Path 2056" transform="translate(.008 -9.297)"/>
        <g id="Group_525" clip-path="url(#clip-path)" data-name="Group 525" transform="translate(0 .873)">
            <path id="Path_2062" fill="#fff" d="M5.763 0A5.742 5.742 0 1 1 0 5.745 5.743 5.743 0 0 1 5.763 0z" data-name="Path 2062" transform="rotate(-79.75 9.26 4.45)"/>
            <path id="Rectangle_637" d="M0 0H1.748V12.866H0z" class="cls-1" data-name="Rectangle 637" transform="translate(8.565 1.782)"/>
        </g>
        <path id="Path_2058" d="M143.59 172.994a.525.525 0 1 1 0-1.049h4.567a13.921 13.921 0 0 0 1.374-1.8h-7.689a.525.525 0 1 1 0-1.049h8.294a13.761 13.761 0 0 0 .787-1.8h-10.83a.525.525 0 0 1 0-1.049h11.156a13.972 13.972 0 0 0 .471-3.6h-16.29v11.618a2.33 2.33 0 0 0 2.306 2.341h.024a13.911 13.911 0 0 0 9.354-3.6z" class="cls-1" data-name="Path 2058" transform="translate(-123.799 -148.589)"/>
        <path id="Path_2059" fill="#f7901e" d="M154.386 15.913a5.626 5.626 0 0 0-4.116-1.823h-11.6V3.381a13.665 13.665 0 0 1 15.337 10.273l.06.246a13.466 13.466 0 0 1 .319 2.013z" data-name="Path 2059" transform="translate(-126.761 -2.947)"/>
        <path id="Path_2060" d="M137.741.556a13.362 13.362 0 0 1 13.015 10.219l.046.185v.017c.107.454.182.859.234 1.219a6.293 6.293 0 0 0-3.736-1.326h-11.334V.676a13.482 13.482 0 0 1 1.774-.12m0-.556a13.974 13.974 0 0 0-2.33.2v11.221h11.867c.994.04 3.4.366 4.422 2.536a10.617 10.617 0 0 0-.353-3.111l-.019-.081c-.01-.043-.019-.086-.03-.126A13.959 13.959 0 0 0 137.741 0z" class="cls-1" data-name="Path 2060" transform="translate(-123.781)"/>
        <circle id="Ellipse_75" cx=".55" cy=".55" r=".55" class="cls-1" data-name="Ellipse 75" transform="translate(6.471 5.816)"/>
        <path id="Path_2061" d="M152.455 69.619a.277.277 0 0 1-.277-.265 7.256 7.256 0 0 0-7.26-6.917h-8.04a.278.278 0 1 1 0-.556h8.04a7.814 7.814 0 0 1 7.814 7.447.278.278 0 0 1-.264.292z" class="cls-1" data-name="Path 2061" transform="translate(-124.869 -56.544)"/>
    </g>
</svg>
