<svg width="24" height="26" viewBox="0 0 24 26" fill="none" xmlns="http://www.w3.org/2000/svg">
<path d="M1.50002 5.99995H22.5C23.3284 5.99995 24 6.67152 24 7.49997V17.9999C24 18.8284 23.3284 19.4999 22.5 19.4999H1.50002C0.671567 19.4999 0 18.8284 0 17.9999V7.49997C4.98046e-05 6.67152 0.671617 5.99995 1.50002 5.99995ZM1.50002 7.49997V17.9999H22.5V7.49997H1.50002ZM12 16.8749C9.72186 16.8749 7.87501 15.0281 7.87501 12.7499C7.87501 10.4717 9.72181 8.6249 12 8.6249C14.2782 8.6249 16.125 10.4717 16.125 12.7499C16.125 15.0281 14.2782 16.8749 12 16.8749ZM12 15.375C13.4497 15.375 14.625 14.1997 14.625 12.75C14.625 11.3002 13.4497 10.125 12 10.125C10.5503 10.125 9.37502 11.3002 9.37502 12.75C9.37502 14.1997 10.5503 15.375 12 15.375ZM19.3447 1.28031C19.0518 0.987462 19.0518 0.512577 19.3447 0.219676C19.6376 -0.0732252 20.1124 -0.0732252 20.4053 0.219676L23.0303 2.84468C23.5028 3.31712 23.1682 4.125 22.5 4.125H1.50002C1.08579 4.125 0.750009 3.78922 0.750009 3.375C0.750009 2.96077 1.08579 2.62499 1.50002 2.62499H20.6893L19.3447 1.28031ZM3.31071 22.8749L4.65539 24.2196C4.94829 24.5125 4.94829 24.9874 4.65539 25.2803C4.36254 25.5732 3.88765 25.5732 3.59475 25.2803L0.969746 22.6553C0.49725 22.1828 0.831887 21.3749 1.50007 21.3749H22.5C22.9143 21.3749 23.25 21.7107 23.25 22.1249C23.25 22.5392 22.9143 22.8749 22.5 22.8749H3.31071Z" fill="#414950"/>
</svg>
