<svg width="93" height="40" viewBox="0 0 93 40" fill="none" xmlns="http://www.w3.org/2000/svg">
<rect x="0.5" y="0.5" width="92" height="39" rx="19.5" fill="#F0FCF6" stroke="#397E75"/>
<path d="M60.084 14.242V15.278H57.424V24H56.15V15.278H53.476V14.242H60.084ZM62.9262 17.574C63.1502 17.1353 63.4676 16.7947 63.8782 16.552C64.2982 16.3093 64.8069 16.188 65.4042 16.188V17.504H65.0682C63.6402 17.504 62.9262 18.2787 62.9262 19.828V24H61.6522V16.328H62.9262V17.574ZM73.4829 16.328L68.8629 27.612H67.5469L69.0589 23.916L65.9649 16.328H67.3789L69.7869 22.544L72.1669 16.328H73.4829Z" fill="#397E75"/>
<path d="M25.3674 15.1019C25.0646 14.7298 24.5282 14.6693 24.1476 14.9634L19.3288 18.822C19.1211 18.9863 19 19.2372 19 19.4968C19 19.7563 19.1211 20.0072 19.3288 20.1716L24.1476 24.0301C24.312 24.1599 24.5023 24.2204 24.6926 24.2204C24.9435 24.2204 25.1944 24.108 25.3674 23.8917C25.6616 23.5197 25.601 22.9746 25.229 22.6718L21.2494 19.4881L25.229 16.3044C25.6097 16.0189 25.6702 15.4739 25.3674 15.1019Z" fill="#397E75"/>
<path d="M38.5256 14.9634C38.1536 14.6693 37.6086 14.7298 37.3058 15.1019C37.0116 15.4739 37.0722 16.0189 37.4442 16.3217L41.4238 19.5054L37.4442 22.6891C37.0722 22.9919 37.0116 23.5283 37.3058 23.909C37.4788 24.1253 37.7297 24.2377 37.9806 24.2377C38.1709 24.2377 38.3613 24.1772 38.517 24.0474L43.3358 20.1889C43.5434 20.0245 43.6646 19.7736 43.6646 19.5141C43.6646 19.2545 43.5434 19.0036 43.3358 18.8393L38.5256 14.9634Z" fill="#397E75"/>
<path d="M35.9145 9.07225C35.4732 8.88192 34.9628 9.0809 34.7725 9.51347L26.3201 28.7888C26.1297 29.23 26.3287 29.7405 26.7613 29.9308C26.8737 29.9827 26.9949 30 27.1073 30C27.4447 30 27.7562 29.8097 27.9033 29.4809L36.3557 10.2056C36.546 9.77301 36.347 9.26258 35.9145 9.07225Z" fill="#397E75"/>
</svg>
