<svg id="account_circle-24px-fill" xmlns="http://www.w3.org/2000/svg" width="24" height="24" viewBox="0 0 24 24">
  <defs>
    <style>
      .cls-1 {
        fill: none;
      }

      .cls-2 {
        fill: #9e9e9e;
      }
    </style>
  </defs>
  <path id="Path_2061" data-name="Path 2061" class="cls-1" d="M0,0H24V24H0Z"/>
  <path id="Path_2062" data-name="Path 2062" class="cls-2" d="M12,2A10,10,0,1,0,22,12,10,10,0,0,0,12,2Zm0,3A3,3,0,1,1,9,8,3,3,0,0,1,12,5Zm0,14.2a7.2,7.2,0,0,1-6-3.22c.03-1.99,4-3.08,6-3.08s5.97,1.09,6,3.08A7.2,7.2,0,0,1,12,19.2Z"/>
</svg>
