<svg width="116" height="23" viewBox="0 0 116 23" fill="none" xmlns="http://www.w3.org/2000/svg">
<path d="M19.109 0.28436C19.9052 1.61137 20.1896 2.93839 20.1896 4.53081C20.1896 9.83887 15.6777 17.0237 11.9621 21.8009H3.45024L0 1.36493L7.69668 0.834128L9.5545 15.4502C11.1469 12.7962 13.2891 8.2654 13.2891 5.36493C13.2891 3.77251 13.0237 2.7109 12.4929 1.63033L19.109 0.28436ZM28.9289 9.32702C30.2559 9.32702 33.7062 8.79621 33.7062 6.67299C33.7062 5.59242 33.1754 5.34597 32.3791 5.34597C30.8057 5.34597 28.9289 6.93839 28.9289 9.32702ZM28.6825 13.3081C28.6825 15.7156 30.0095 16.7583 31.8673 16.7583C33.7251 16.7583 35.6019 16.2275 37.9716 15.1659L36.891 21.0047C35.2986 21.8009 32.6445 22.3318 29.9905 22.3318C23.6398 22.3318 21.2322 18.3507 21.2322 13.5735C21.2322 7.22276 24.9668 0.56872 32.6445 0.56872C36.891 0.56872 39.2796 2.9763 39.2796 6.40758C39.564 11.4502 32.6445 13.3081 28.6825 13.3081ZM61.0616 5.06161C61.0616 5.85782 61.0616 6.91943 60.7962 7.71564L58.673 21.782H51.5071L53.6303 8.77725C53.6303 8.51185 53.8957 7.69668 53.8957 7.45023C53.8957 6.36967 53.3649 6.36967 52.5687 6.36967C51.4882 6.36967 50.7109 6.90047 50.1611 7.16587L47.5071 21.782H40.3223L43.5071 0.530809H49.8578V2.12322C51.4502 1.04266 53.3081 0 55.9621 0C59.7346 0.56872 61.0616 2.40759 61.0616 5.06161ZM82.5592 2.69195C84.6825 1.09953 86.5403 0.28436 89.1943 0.28436C92.9289 0.28436 94.2559 2.14218 94.2559 5.06161C94.2559 5.85782 94.2559 6.91943 93.9905 7.71564L91.8863 21.8009H84.7014L86.8246 8.53081V7.45023C86.8246 6.36967 86.2938 6.12322 85.4976 6.12322C84.7014 6.12322 83.6398 6.38863 83.09 6.91943L80.7014 21.782H73.5166L75.6398 8.51185V7.43128C75.6398 6.35071 75.109 6.10427 74.3128 6.10427C73.2322 6.10427 72.455 6.63508 71.9052 6.90048L69.5166 21.7441H62.3318L65.5355 0.511851H71.6398L71.9052 2.36967C73.2322 1.2891 75.3554 0.246449 78.0095 0.246449C80.1706 0.568724 81.7441 1.36493 82.5592 2.69195ZM108.569 9.06161C108.569 7.20379 108.038 6.14218 106.711 6.14218C103.791 6.14218 103.261 11.2038 103.261 13.8389C103.261 15.6967 103.791 17.0237 105.118 17.0237C108.057 16.7583 108.569 11.4502 108.569 9.06161ZM96.0948 13.3081C96.0948 6.67299 99.545 0.303319 107.773 0.303319C113.877 0.303319 116 4.03791 116 8.81517C116 15.4502 112.55 22.0853 104.322 22.0853C98.218 22.3318 96.0948 18.3507 96.0948 13.3081Z" fill="#3D95CE"/>
</svg>
