<svg width="70" height="29" viewBox="0 0 70 29" fill="none" xmlns="http://www.w3.org/2000/svg">
<path d="M6.44754 3.96063L0.393667 3.90491V7.92127H10.4266L0 21.2861V24.6849H6.44754V28.5995H10.3161V24.6849H16.8926C16.9478 24.5283 16.9673 24.1061 16.6173 23.7192C16.037 23.0745 15.5755 22.4006 15.1518 21.5532C14.9584 21.1756 14.8115 20.7232 14.7562 20.6864C13.4612 20.6271 6.01068 20.6424 6.01473 20.5953L16.4505 7.14858V3.96063H10.3162V0H6.44764V3.96063H6.44754ZM34.3838 2.09085C34.2917 2.12769 34.2641 4.16327 34.2641 11.8727C34.2641 22.2901 34.2549 22.1151 34.7154 23.0085C35.1299 23.8099 36.1431 24.5283 37.276 24.823C37.9024 24.9888 39.7445 25.0073 40.4537 24.8599C41.3656 24.6665 41.5406 24.3901 41.1814 23.6809C40.9511 23.2388 40.6472 22.2717 40.5735 21.7374C40.4722 21.1019 40.3432 21.0006 39.5695 21.019C39.2011 21.0282 38.8511 21.0006 38.7866 20.9637C38.4089 20.7242 38.4089 20.6598 38.4089 11.3293C38.4089 5.33304 38.3813 2.32112 38.3168 2.20138C38.2247 2.03558 38.105 2.02637 36.3549 2.03558C35.3325 2.03558 34.4391 2.06321 34.3838 2.09085ZM42.8301 2.11848C42.7104 2.19216 42.692 3.37115 42.692 11.8082C42.692 20.8993 42.7012 21.4519 42.867 22.0874C43.1801 23.3401 43.8894 24.1046 45.2341 24.6665C45.7499 24.8783 45.9802 24.9152 47.021 24.9428C48.4118 24.9796 49.1211 24.8783 49.8303 24.5191C50.5303 24.1783 50.5487 23.9388 49.95 23.0638C49.7106 22.7138 49.3421 22.1151 49.1395 21.7374L48.7711 21.0466L48.0987 21.0374C47.2605 21.019 47.1776 20.9822 47.021 20.5861C46.9013 20.319 46.8829 18.9466 46.8829 11.3293C46.8829 5.33304 46.8552 2.32112 46.7908 2.20138C46.6986 2.03558 46.5789 2.02637 44.8289 2.02637C43.8065 2.02637 42.9038 2.07242 42.8301 2.11848ZM67.3308 4.0988C66.5847 4.43959 66.1979 5.02908 66.1886 5.84884C66.1794 6.54886 66.465 7.08309 67.0453 7.46073C67.7637 7.9489 68.915 7.81074 69.5137 7.16598C70.2782 6.34622 70.1217 4.92777 69.1822 4.29222C68.694 3.96063 67.8374 3.87774 67.3308 4.0988ZM68.8045 4.4396C69.8453 4.96461 70.0019 6.30938 69.1177 7.0923C68.74 7.42389 68.4729 7.49757 67.8926 7.44231C66.29 7.28572 65.9768 5.03829 67.4689 4.36591C67.8742 4.18169 68.344 4.20933 68.8045 4.4396Z" fill="#6C1CD3"/>
<path d="M67.3951 4.85452C67.3306 4.96504 67.3214 6.67825 67.3859 6.85325C67.4135 6.93615 67.4964 7.00063 67.5701 7.00063C67.6622 7.00063 67.699 6.87167 67.699 6.54009C67.699 6.1256 67.7174 6.07955 67.9109 6.07955C68.0582 6.07955 68.1872 6.2085 68.3898 6.54009C68.5556 6.81641 68.7214 7.00063 68.8227 7.00063C69.0438 7.00063 69.0346 6.96378 68.6938 6.4664C68.4911 6.17166 68.4359 6.0335 68.5188 6.00586C68.7583 5.92297 68.9885 5.61901 68.9885 5.38874C68.9885 4.97425 68.6938 4.79004 68.0306 4.79004C67.699 4.79004 67.4135 4.81767 67.3951 4.85452ZM68.5096 5.14926C68.5833 5.1861 68.6201 5.32426 68.6017 5.444C68.574 5.63743 68.5188 5.66506 68.1411 5.69269L67.699 5.72033V5.39795C67.699 5.07557 67.7082 5.06636 68.049 5.06636C68.2332 5.06636 68.4451 5.1032 68.5096 5.14926ZM22.7965 7.87565C22.7504 7.89407 22.3912 7.97697 22.0136 8.05986C19.6464 8.6033 17.5555 10.4178 16.6713 12.7205C16.1831 13.9916 16.0081 14.9772 15.9989 16.4417C15.9897 18.4957 16.4042 20.0062 17.3529 21.4431C18.4214 23.055 19.9872 24.1511 22.0136 24.7037C22.7044 24.888 23.0083 24.9156 24.5926 24.9156C26.1584 24.9156 26.4808 24.888 27.1348 24.7129C28.7559 24.2616 30.1375 23.5155 31.252 22.4563C31.9612 21.7931 31.952 21.6089 31.2336 21.0563C30.9388 20.826 30.4046 20.3286 30.0546 19.9418C29.6125 19.472 29.3453 19.251 29.2072 19.251C29.0782 19.251 28.7835 19.4352 28.498 19.7115C27.5124 20.6049 26.2689 21.0286 24.6386 21.0194C23.1465 21.0102 22.0596 20.6234 21.3688 19.8312C21.0188 19.4352 20.5767 18.5325 20.4846 18.0259L20.4293 17.6851H26.1676C29.3269 17.6851 31.9704 17.6483 32.0349 17.6022C32.3388 17.4088 32.4125 16.0732 32.1915 14.6179C31.6665 11.1363 29.5848 8.79673 26.315 8.01381C25.7347 7.87565 25.2558 7.8296 24.2242 7.83881C23.4873 7.83881 22.8517 7.85723 22.7965 7.87565ZM25.2558 11.431C25.9281 11.5692 26.7571 12.0297 27.144 12.4718C27.5032 12.8771 27.8716 13.6048 27.9637 14.0745L28.0282 14.3692H20.5214L20.5859 14.0745C20.8622 12.831 21.9307 11.7902 23.257 11.4586C23.8465 11.3113 24.6386 11.3021 25.2558 11.431ZM56.2777 7.95855C53.0078 8.6862 50.7972 10.9889 50.1064 14.3877C49.6919 16.3956 49.9222 18.7352 50.7051 20.4115C51.7736 22.7326 53.7171 24.234 56.3698 24.7774C57.2079 24.9524 57.5395 24.9709 58.8567 24.934C59.9712 24.8972 60.5699 24.8327 61.0857 24.6945C62.6607 24.28 64.0423 23.5248 65.1016 22.5116C65.9121 21.7287 65.9121 21.6918 65.0371 20.9642C64.6318 20.6326 64.0884 20.1076 63.8305 19.8036C63.2318 19.1128 63.0752 19.1036 62.4028 19.7115C61.3988 20.6234 60.2014 21.0286 58.5343 21.0194C56.1948 21.0102 54.8316 20.0062 54.3894 17.9799L54.325 17.7409H65.995C66.3911 17.4553 66.2437 14.4337 65.7648 13.0337C65.6726 12.7574 65.424 12.2047 65.2213 11.8179C64.1437 9.75465 62.4212 8.47435 60.0264 7.96776C59.2619 7.80196 57.0053 7.80196 56.2777 7.95855ZM59.1514 11.431C59.7777 11.5692 60.4225 11.8915 60.883 12.306C61.2699 12.6653 61.8962 13.7982 61.8962 14.1482V14.3692H54.4171L54.4816 14.1113C54.9605 12.1402 56.9869 10.9705 59.1514 11.431Z" fill="#6C1CD3"/>
</svg>
